<?xml version="1.0" encoding="UTF-8"?>
<svg width="200px" height="80px" viewBox="0 0 200 80" version="1.1" xmlns="http://www.w3.org/2000/svg" xmlns:xlink="http://www.w3.org/1999/xlink">
    <!-- Generator: Sketch 51.3 (57544) - http://www.bohemiancoding.com/sketch -->
    <title>Slack</title>
    <desc>Created with Sketch.</desc>
    <defs></defs>
    <g id="Final" stroke="none" stroke-width="1" fill="none" fill-rule="evenodd">
        <g id="Artboard-2" transform="translate(-1363.000000, -198.000000)" fill-rule="nonzero">
            <g id="Slack" transform="translate(1363.000000, 198.000000)">
                <rect id="SHAPE-OF-BOX" fill="#FFFFFF" x="0" y="0" width="200" height="80"></rect>
                <g id="LOGO" transform="translate(47.000000, 27.000000)">
                    <path d="M34.6076995,21.1337921 L35.9286336,18.0752332 C37.3560947,19.1372328 39.2522744,19.6894726 41.1271487,19.6894726 C42.511999,19.6894726 43.38552,19.1584728 43.38552,18.3513531 C43.3642146,16.099914 35.0977234,17.8628333 35.0338073,12.2129954 C35.0125019,9.34559651 37.5691486,7.13663733 41.1910649,7.13663733 C43.3429092,7.13663733 45.4947536,7.66763713 47.0287416,8.87831668 L45.793029,12.0005955 C44.3868733,11.1085158 42.6398314,10.4713161 40.978011,10.4713161 C39.8488253,10.4713161 39.1031367,11.0023159 39.1031367,11.6819956 C39.1244421,13.8909548 47.4548494,12.6802753 47.540071,18.0752332 C47.540071,21.0063521 45.0473404,23.0666314 41.4680349,23.0666314 C38.847472,23.0666314 36.439963,22.4506716 34.6076995,21.1337921 Z M85.2932214,16.9707537 C84.6131688,18.1625937 83.3449724,18.9001041 81.9695806,18.9035929 C79.860347,18.9035929 78.1559159,17.2043936 78.1559159,15.1016344 C78.1559159,12.9988751 79.860347,11.2996758 81.9695806,11.2996758 C83.3449724,11.3031646 84.6131688,12.040675 85.2932214,13.2325151 L88.936443,11.2147158 C87.5221074,8.70197604 84.8597534,7.14355733 81.9695806,7.13663733 C77.559365,7.13663733 73.9800595,10.704956 73.9800595,15.1016344 C73.9800595,19.4983127 77.559365,23.0666314 81.9695806,23.0666314 C84.9736405,23.0666314 87.5728981,21.431152 88.936443,18.9885529 L85.2932214,16.9707537 Z" id="Shape" fill="#000000"></path>
                    <rect id="Rectangle-path" fill="#000000" x="49.3723345" y="0.530999801" width="4.55935338" height="22.2382717"></rect>
                    <polygon id="Shape" fill="#000000" points="90.7260957 0.530999801 90.7260957 22.7692715 95.2854491 22.7692715 95.2854491 16.099914 100.697018 22.7692715 106.534695 22.7692715 99.653054 14.8467544 106.023365 7.45523721 100.441353 7.45523721 95.2854491 13.5935949 95.2854491 0.530999801"></polygon>
                    <path d="M67.4819157,17.0132336 C66.8214486,18.0964732 65.4579036,18.9035929 63.9239156,18.9035929 C61.814682,18.9035929 60.1102508,17.2043936 60.1102508,15.1016344 C60.1102508,12.9988751 61.814682,11.2996758 63.9239156,11.2996758 C65.4579036,11.2996758 66.8214486,12.1492755 67.4819157,13.253755 L67.4819157,17.0132336 Z M67.4819157,7.45523721 L67.4819157,9.26063654 C66.736227,8.00747701 64.8826581,7.13663733 62.9438677,7.13663733 C58.9384544,7.13663733 55.7852568,10.662476 55.7852568,15.0803944 C55.7852568,19.4983127 58.9384544,23.0666314 62.9438677,23.0666314 C64.8826581,23.0666314 66.736227,22.1957917 67.4819157,20.9426322 L67.4819157,22.7480315 L72.041269,22.7480315 L72.041269,7.45523721 L67.4819157,7.45523721 Z" id="Shape" fill="#000000"></path>
                    <path d="M6.42066899,16.9919936 C6.42066899,18.5425131 5.163651,19.7956726 3.60835756,19.7956726 C2.05306412,19.7956726 0.796046131,18.5425131 0.796046131,16.9919936 C0.796046131,15.4414742 2.05306412,14.1883147 3.60835756,14.1883147 L6.42066899,14.1883147 L6.42066899,16.9919936 Z M7.82682471,16.9919936 C7.82682471,15.4414742 9.0838427,14.1883147 10.6391361,14.1883147 C12.1944296,14.1883147 13.4514476,15.4414742 13.4514476,16.9919936 L13.4514476,24.001191 C13.4514476,25.5517104 12.1944296,26.80487 10.6391361,26.80487 C9.0838427,26.80487 7.82682471,25.5517104 7.82682471,24.001191 L7.82682471,16.9919936 Z" id="Shape" fill="#E01E5A"></path>
                    <path d="M10.6391361,5.73479786 C9.0838427,5.73479786 7.82682471,4.48163832 7.82682471,2.9311189 C7.82682471,1.38059948 9.0838427,0.127439952 10.6391361,0.127439952 C12.1944296,0.127439952 13.4514476,1.38059948 13.4514476,2.9311189 L13.4514476,5.73479786 L10.6391361,5.73479786 Z M10.6391361,7.15787732 C12.1944296,7.15787732 13.4514476,8.41103686 13.4514476,9.96155628 C13.4514476,11.5120757 12.1944296,12.7652352 10.6391361,12.7652352 L3.58705217,12.7652352 C2.03175873,12.7652352 0.774740742,11.5120757 0.774740742,9.96155628 C0.774740742,8.41103686 2.03175873,7.15787732 3.58705217,7.15787732 L10.6391361,7.15787732 Z" id="Shape" fill="#36C5F0"></path>
                    <path d="M21.9096873,9.96155628 C21.9096873,8.41103686 23.1667052,7.15787732 24.7219987,7.15787732 C26.2772921,7.15787732 27.5343101,8.41103686 27.5343101,9.96155628 C27.5343101,11.5120757 26.2772921,12.7652352 24.7219987,12.7652352 L21.9096873,12.7652352 L21.9096873,9.96155628 Z M20.5035315,9.96155628 C20.5035315,11.5120757 19.2465135,12.7652352 17.6912201,12.7652352 C16.1359267,12.7652352 14.8789087,11.5120757 14.8789087,9.96155628 L14.8789087,2.9311189 C14.8789087,1.38059948 16.1359267,0.127439952 17.6912201,0.127439952 C19.2465135,0.127439952 20.5035315,1.38059948 20.5035315,2.9311189 L20.5035315,9.96155628 Z" id="Shape" fill="#2EB67D"></path>
                    <path d="M17.6912201,21.1975121 C19.2465135,21.1975121 20.5035315,22.4506716 20.5035315,24.001191 C20.5035315,25.5517104 19.2465135,26.80487 17.6912201,26.80487 C16.1359267,26.80487 14.8789087,25.5517104 14.8789087,24.001191 L14.8789087,21.1975121 L17.6912201,21.1975121 Z M17.6912201,19.7956726 C16.1359267,19.7956726 14.8789087,18.5425131 14.8789087,16.9919936 C14.8789087,15.4414742 16.1359267,14.1883147 17.6912201,14.1883147 L24.7433041,14.1883147 C26.2985975,14.1883147 27.5556155,15.4414742 27.5556155,16.9919936 C27.5556155,18.5425131 26.2985975,19.7956726 24.7433041,19.7956726 L17.6912201,19.7956726 Z" id="Shape" fill="#ECB22E"></path>
                </g>
            </g>
        </g>
    </g>
</svg>