<?xml version="1.0" encoding="UTF-8"?>
<svg width="200px" height="80px" viewBox="0 0 200 80" version="1.1" xmlns="http://www.w3.org/2000/svg" xmlns:xlink="http://www.w3.org/1999/xlink">
    <!-- Generator: Sketch 51.3 (57544) - http://www.bohemiancoding.com/sketch -->
    <title>Jenkins</title>
    <desc>Created with Sketch.</desc>
    <defs>
        <path d="M11.1837814,2.10770201 C10.9261922,2.13990066 10.7072448,2.17209882 10.5269323,2.20429746 C10.3466199,2.2364961 10.1437715,2.28157353 9.91838103,2.33953109 C9.65435215,2.4103681 9.48531181,2.53594093 9.41125493,2.71625333 C9.33719805,2.89656573 9.30017017,3.10263396 9.30017017,3.33446419 L9.30017017,10.8882282 C9.30017017,11.5837189 9.16010817,12.2212424 8.87997997,12.800818 C8.59985177,13.3803936 8.21508376,13.8665858 7.72566438,14.2594093 C7.22980527,14.645793 6.67599691,14.9371864 6.06422268,15.1335981 C5.45244846,15.3300098 4.7988258,15.4282142 4.1033351,15.4282142 C2.89910584,15.4282142 1.9283313,15.1384307 1.19098237,14.5588552 C0.453633434,13.9792796 0.0849644968,13.183985 0.0849644968,12.1729476 C0.0849644968,11.5740529 0.254004839,11.0782012 0.592090595,10.6853777 C0.930176351,10.2925543 1.39543977,10.0961455 1.98789481,10.0961455 C2.5481512,10.0961455 2.99409573,10.2603561 3.32574175,10.5887823 C3.65738778,10.9172084 3.82320831,11.3229053 3.82320831,11.8058849 C3.82320831,12.2180276 3.67992649,12.5995758 3.39335857,12.950541 C3.10679064,13.3015062 2.77997931,13.6250977 2.41291478,13.9213252 L2.41291478,14.0468993 C2.47087233,14.1756939 2.59644516,14.2851676 2.78963702,14.3753238 C2.98282888,14.46548 3.17923766,14.5105574 3.37886925,14.5105574 C4.15163669,14.5105574 4.75857202,14.2336533 5.19969343,13.6798366 C5.64081485,13.1260199 5.86137224,12.2888678 5.86137224,11.168355 L5.86137224,3.43105964 C5.86137224,3.19922941 5.82595427,3.00604045 5.75511725,2.85148696 C5.68428024,2.69693347 5.51362999,2.56170119 5.24316138,2.44578608 C5.04996952,2.36206961 4.81653286,2.29123365 4.54284439,2.23327609 C4.26915592,2.17531854 4.04215889,2.13346093 3.86184649,2.10770201 L3.86184649,1.35425752 L11.1837814,1.35425752 L11.1837814,2.10770201 Z M22.6400014,12.7525203 C22.4146109,13.1195848 22.1425365,13.4657151 21.8237699,13.7909214 C21.5050033,14.1161277 21.142774,14.3946417 20.7370711,14.626472 C20.3056093,14.8711817 19.8693242,15.0563211 19.4282028,15.1818958 C18.9870814,15.3074705 18.4799604,15.3702569 17.9068245,15.3702569 C16.9537447,15.3702569 16.1310817,15.2350247 15.4388108,14.964556 C14.74654,14.6940874 14.1750227,14.3302482 13.7242417,13.8730275 C13.2734606,13.4158068 12.9369899,12.8764876 12.7148192,12.2550537 C12.4926486,11.6336199 12.3815649,10.9590685 12.3815649,10.2313791 C12.3815649,9.5745268 12.502308,8.94505277 12.7437979,8.34293813 C12.9852877,7.7408235 13.3281981,7.20472413 13.7725394,6.73462394 C14.2104409,6.2774032 14.7626394,5.90712436 15.4291513,5.62377629 C16.0956632,5.34042823 16.8410506,5.19875633 17.6653359,5.19875633 C18.5668979,5.19875633 19.3074556,5.30823007 19.8870312,5.52718085 C20.4666068,5.74613162 20.9463594,6.04879433 21.3263034,6.43517805 C21.6933679,6.80224259 21.9606126,7.23530784 22.1280456,7.73438682 C22.2954785,8.23346579 22.3791937,8.7566859 22.3791937,9.30406284 L22.3791937,9.93193324 L15.8493415,9.93193324 C15.8493415,11.2520776 16.103707,12.2566602 16.6124455,12.9457112 C17.1211841,13.6347622 17.9293579,13.9792825 19.0369913,13.9792825 C19.6423258,13.9792825 20.1864747,13.813462 20.6694543,13.4818159 C21.152434,13.1501699 21.5645704,12.7299839 21.905876,12.2212453 L22.6400014,12.7525203 Z M18.9500554,9.08189331 C18.9500554,8.69550959 18.9307365,8.29947221 18.8920981,7.89376931 C18.8534597,7.4880664 18.7858436,7.15642535 18.6892476,6.8988362 C18.5797723,6.59616895 18.4300508,6.36756201 18.2400788,6.21300852 C18.0501068,6.05845503 17.8102305,5.98117945 17.5204427,5.98117945 C17.0245836,5.98117945 16.6285462,6.2323251 16.3323187,6.73462394 C16.0360912,7.23692278 15.8751004,8.03221734 15.8493415,9.12053149 L18.9500554,9.08189331 Z M36.3179168,15.0611515 L30.5028708,15.0611515 L30.5028708,14.3560047 C30.6252257,14.3431253 30.7733372,14.3270262 30.9472099,14.307707 C31.1210826,14.2883878 31.253095,14.2561897 31.3432512,14.2111116 C31.4784855,14.1402745 31.57508,14.0372404 31.6330376,13.9020061 C31.6909951,13.7667718 31.7199735,13.5671432 31.7199735,13.3031144 L31.7199735,8.78244742 C31.7199735,8.12559509 31.5992304,7.63135333 31.3577406,7.2997073 C31.1162507,6.96806128 30.7604611,6.80224075 30.2903609,6.80224075 C30.0327717,6.80224075 29.7928954,6.84087854 29.5707248,6.91815529 C29.3485541,6.99543203 29.1312166,7.10812559 28.9187055,7.25623935 C28.7319534,7.38503393 28.5822319,7.51704638 28.4695367,7.65228069 C28.3568414,7.78751499 28.2618569,7.90664818 28.1845801,8.00968384 L28.1845801,13.1968594 C28.1845801,13.4222499 28.2167783,13.6106091 28.2811756,13.7619427 C28.3455728,13.9132764 28.4518268,14.0275798 28.5999405,14.1048566 C28.7029762,14.1628141 28.8317688,14.2143312 28.9863223,14.2594093 C29.1408758,14.3044874 29.2922072,14.3366855 29.4403209,14.3560047 L29.4403209,15.0611515 L23.5673177,15.0611515 L23.5673177,14.3560047 C23.7283109,14.3431253 23.8909117,14.3254163 24.0551247,14.3028772 C24.2193378,14.2803382 24.3593998,14.2497499 24.4753149,14.2111116 C24.6813863,14.1402745 24.8230582,14.0308008 24.9003349,13.882687 C24.9776116,13.7345733 25.0162494,13.5413843 25.0162494,13.3031144 L25.0162494,7.68125932 C25.0162494,7.48162773 24.9647324,7.28521895 24.8616967,7.09202709 C24.7586611,6.89883523 24.6234288,6.74106425 24.4559958,6.6187094 C24.3400807,6.54143266 24.1935791,6.47703634 24.0164866,6.42551851 C23.839394,6.37400068 23.6445952,6.3385827 23.4320841,6.31926351 L23.4320841,5.61411675 L28.0396869,5.36296859 L28.1845801,5.50786176 L28.1845801,6.90849574 L28.2232183,6.90849574 C28.4035307,6.74750253 28.6224782,6.55431356 28.8800673,6.32892306 C29.1376565,6.10353256 29.3759229,5.92000304 29.5948736,5.77832901 C29.8331436,5.62377552 30.1454658,5.49176306 30.5318495,5.38228768 C30.9182332,5.27281229 31.3303697,5.21807542 31.7682712,5.21807542 C32.817947,5.21807542 33.605192,5.5159084 34.1300299,6.1115833 C34.6548678,6.70725821 34.9172828,7.49772304 34.9172828,8.48300153 L34.9172828,13.2161785 C34.9172828,13.4544484 34.9527008,13.6444176 35.0235378,13.7860916 C35.0943748,13.9277656 35.2263873,14.0404592 35.4195791,14.1241757 C35.5226148,14.1692538 35.6497975,14.2143312 35.8011311,14.2594093 C35.9524648,14.3044874 36.1247249,14.3366855 36.3179168,14.3560047 L36.3179168,15.0611515 Z M49.6094503,15.0611515 L45.0598048,15.0611515 C44.4995484,14.075873 43.9875976,13.2403307 43.5239371,12.5544996 C43.0602767,11.8686685 42.6223817,11.2327549 42.2102391,10.6467396 L41.6306664,11.1393763 L41.6306664,13.2451571 C41.6306664,13.4769873 41.6644744,13.6669565 41.7320916,13.8150702 C41.7997087,13.963184 41.9301113,14.0726577 42.1233032,14.1434947 C42.2392183,14.1950126 42.3744505,14.24009 42.529004,14.2787284 C42.6835575,14.3173667 42.8381087,14.3431253 42.9926622,14.3560047 L42.9926622,15.0611515 L37.013404,15.0611515 L37.013404,14.3560047 C37.1743972,14.3431253 37.335388,14.3254163 37.4963812,14.3028772 C37.6573744,14.2803382 37.7990464,14.2497499 37.9214012,14.2111116 C38.1274725,14.1402745 38.2675345,14.0308008 38.3415914,13.882687 C38.4156483,13.7345733 38.4526762,13.5413843 38.4526762,13.3031144 L38.4526762,2.53272198 C38.4526762,2.32021093 38.4059888,2.09965354 38.3126128,1.87104317 C38.2192367,1.6424328 38.0823945,1.47017264 37.9020821,1.35425752 C37.7797273,1.27698078 37.5961977,1.21258446 37.3514881,1.16106663 C37.1067784,1.1095488 36.8846111,1.07735064 36.6849795,1.06447118 L36.6849795,0.359324417 L41.4857732,0.108176254 L41.6306664,0.26272897 L41.6306664,10.2313791 C42.1072063,9.80635704 42.6433057,9.31372518 43.2389806,8.75346879 C43.8346555,8.19321239 44.3127982,7.72955888 44.673423,7.36249435 C44.885934,7.14354357 45.0034573,6.97772304 45.0259963,6.86502779 C45.0485354,6.75233254 45.0598048,6.68310649 45.0598048,6.65734758 C45.0598048,6.54143246 44.9583805,6.44483798 44.7555291,6.36756124 C44.5526776,6.29028449 44.248405,6.22266836 43.8427021,6.1647108 L43.8427021,5.47888312 L48.7497508,5.47888312 L48.7497508,6.14539171 C48.105778,6.32570411 47.614756,6.49474445 47.2766703,6.65251781 C46.9385845,6.81029116 46.5699156,7.02118911 46.1706524,7.28521799 C45.9066235,7.45909066 45.6506481,7.64101027 45.4027186,7.83098226 C45.154789,8.02095426 44.8698353,8.25761074 44.5478489,8.5409588 C45.1789423,9.45540028 45.761729,10.3022119 46.2962265,11.0814191 C46.830724,11.8606262 47.390972,12.6848991 47.9769873,13.5542625 C48.1766188,13.8569298 48.4245447,14.0597782 48.7207722,14.1628138 C49.0169997,14.2658495 49.3132228,14.3302458 49.6094503,14.3560047 L49.6094503,15.0611515 Z M55.8205376,15.0611515 L49.7157053,15.0611515 L49.7157053,14.3560047 C49.8831383,14.3431253 50.0473489,14.3270262 50.2083421,14.307707 C50.3693353,14.2883878 50.5077874,14.2561897 50.6237025,14.2111116 C50.8297738,14.1338348 50.9746656,14.0227512 51.058382,13.8778573 C51.1420985,13.7329634 51.1839561,13.5413843 51.1839561,13.3031144 L51.1839561,7.68125932 C51.1839561,7.45586882 51.1324391,7.25785013 51.0294034,7.08719732 C50.9263677,6.91654451 50.7975751,6.77970233 50.6430216,6.67666667 C50.5271065,6.59938993 50.3516265,6.52533416 50.1165764,6.45449714 C49.8815263,6.38366013 49.6674086,6.3385827 49.4742167,6.31926351 L49.4742167,5.61411675 L54.2073936,5.36296859 L54.3522868,5.50786176 L54.3522868,13.1775403 C54.3522868,13.4029308 54.400584,13.5945098 54.49718,13.7522832 C54.5937759,13.9100565 54.732228,14.0275798 54.9125404,14.1048566 C55.0413349,14.1628141 55.1830069,14.2143312 55.3375603,14.2594093 C55.4921138,14.3044874 55.6531046,14.3366855 55.8205376,14.3560047 L55.8205376,15.0611515 Z M54.410244,1.88553248 C54.410244,2.37495186 54.2218848,2.79191804 53.8451607,3.13644353 C53.4684366,3.48096901 53.022492,3.65322917 52.5073137,3.65322917 C51.9856957,3.65322917 51.5365314,3.48096901 51.1598072,3.13644353 C50.7830831,2.79191804 50.5947239,2.37495186 50.5947239,1.88553248 C50.5947239,1.3961131 50.7830831,0.977537018 51.1598072,0.629791669 C51.5365314,0.28204632 51.9856957,0.108176254 52.5073137,0.108176254 C53.0289318,0.108176254 53.4764862,0.28204632 53.8499905,0.629791669 C54.2234947,0.977537018 54.410244,1.3961131 54.410244,1.88553248 Z M69.4598147,15.0611515 L63.6447688,15.0611515 L63.6447688,14.3560047 C63.7671237,14.3431253 63.9152352,14.3270262 64.0891079,14.307707 C64.2629805,14.2883878 64.394993,14.2561897 64.4851492,14.2111116 C64.6203835,14.1402745 64.716978,14.0372404 64.7749355,13.9020061 C64.8328931,13.7667718 64.8618714,13.5671432 64.8618714,13.3031144 L64.8618714,8.78244742 C64.8618714,8.12559509 64.7411283,7.63135333 64.4996385,7.2997073 C64.2581487,6.96806128 63.902359,6.80224075 63.4322588,6.80224075 C63.1746697,6.80224075 62.9347934,6.84087854 62.7126227,6.91815529 C62.4904521,6.99543203 62.2731145,7.10812559 62.0606035,7.25623935 C61.8738513,7.38503393 61.7241299,7.51704638 61.6114346,7.65228069 C61.4987394,7.78751499 61.4037548,7.90664818 61.3264781,8.00968384 L61.3264781,13.1968594 C61.3264781,13.4222499 61.3586762,13.6106091 61.4230735,13.7619427 C61.4874708,13.9132764 61.5937247,14.0275798 61.7418385,14.1048566 C61.8448742,14.1628141 61.9736668,14.2143312 62.1282203,14.2594093 C62.2827738,14.3044874 62.4341051,14.3366855 62.5822189,14.3560047 L62.5822189,15.0611515 L56.7092157,15.0611515 L56.7092157,14.3560047 C56.8702089,14.3431253 57.0328096,14.3254163 57.1970227,14.3028772 C57.3612358,14.2803382 57.5012978,14.2497499 57.6172129,14.2111116 C57.8232842,14.1402745 57.9649561,14.0308008 58.0422329,13.882687 C58.1195096,13.7345733 58.1581474,13.5413843 58.1581474,13.3031144 L58.1581474,7.68125932 C58.1581474,7.48162773 58.1066303,7.28521895 58.0035947,7.09202709 C57.900559,6.89883523 57.7653268,6.74106425 57.5978938,6.6187094 C57.4819787,6.54143266 57.3354771,6.47703634 57.1583845,6.42551851 C56.981292,6.37400068 56.7864931,6.3385827 56.5739821,6.31926351 L56.5739821,5.61411675 L61.1815849,5.36296859 L61.3264781,5.50786176 L61.3264781,6.90849574 L61.3651163,6.90849574 C61.5454287,6.74750253 61.7643761,6.55431356 62.0219653,6.32892306 C62.2795544,6.10353256 62.5178208,5.92000304 62.7367716,5.77832901 C62.9750416,5.62377552 63.2873637,5.49176306 63.6737474,5.38228768 C64.0601312,5.27281229 64.4722676,5.21807542 64.9101692,5.21807542 C65.9598449,5.21807542 66.74709,5.5159084 67.2719279,6.1115833 C67.7967657,6.70725821 68.0591808,7.49772304 68.0591808,8.48300153 L68.0591808,13.2161785 C68.0591808,13.4544484 68.0945987,13.6444176 68.1654357,13.7860916 C68.2362728,13.9277656 68.3682852,14.0404592 68.5614771,14.1241757 C68.6645127,14.1692538 68.7916955,14.2143312 68.9430291,14.2594093 C69.0943627,14.3044874 69.2666229,14.3366855 69.4598147,14.3560047 L69.4598147,15.0611515 Z M74.8305216,15.389576 C74.2058679,15.389576 73.5957128,15.2978113 73.0000379,15.114279 C72.404363,14.9307467 71.9423194,14.7359479 71.6138932,14.5298765 L71.3241069,15.1867256 L70.5706624,15.1867256 L70.4450883,11.5837154 L71.1502351,11.5837154 C71.246831,11.8735032 71.4078218,12.2003145 71.6332123,12.5641592 C71.8586028,12.9280039 72.1161881,13.2548152 72.4059759,13.544603 C72.7086431,13.8343908 73.0547734,14.0790968 73.4443769,14.2787284 C73.8339805,14.47836 74.2509467,14.5781743 74.695288,14.5781743 C75.2813033,14.5781743 75.7175884,14.4638708 76.0041563,14.2352604 C76.2907242,14.0066501 76.434006,13.6540802 76.434006,13.1775403 C76.434006,12.9199511 76.3696097,12.7074433 76.2408151,12.5400103 C76.1120206,12.3725774 75.9349307,12.2276857 75.7095402,12.1053308 C75.4583908,11.9765362 75.1830965,11.8670625 74.8836491,11.7769063 C74.5842017,11.6867501 74.2155328,11.5772763 73.7776312,11.4484818 C73.3397297,11.3196872 72.9646211,11.1892846 72.6522943,11.0572702 C72.3399674,10.9252558 72.0163759,10.7175776 71.68151,10.4342296 C71.3917222,10.1830802 71.1598955,9.88041744 70.9860228,9.52623236 C70.8121501,9.17204729 70.7252151,8.75025138 70.7252151,8.260832 C70.7252151,7.35283026 71.1067633,6.6187122 71.8698711,6.05845581 C72.632979,5.49819941 73.6327319,5.21807542 74.8691598,5.21807542 C75.4551751,5.21807542 75.9944943,5.27764201 76.4871335,5.39677699 C76.9797728,5.51591197 77.3935191,5.64631452 77.728385,5.78798855 L77.9312355,5.21807542 L78.6653609,5.21807542 L78.8199136,8.51198017 L78.1340859,8.51198017 C77.9086954,7.84224838 77.5223175,7.2642914 76.9749405,6.77809189 C76.4275636,6.29189237 75.8383373,6.04879626 75.2072438,6.04879626 C74.7113847,6.04879626 74.321787,6.15183038 74.0384389,6.35790169 C73.7550909,6.56397301 73.613419,6.85053664 73.613419,7.21760117 C73.613419,7.70702055 73.8210971,8.06120032 74.2364596,8.28015109 C74.6518221,8.49910187 75.2329989,8.7051701 75.9800074,8.89836196 C77.1327189,9.19458948 77.9763107,9.59867639 78.5108081,10.1106348 C79.0453056,10.6225933 79.3125504,11.274606 79.3125504,12.0666926 C79.3125504,13.1228081 78.898804,13.9406414 78.0712989,14.520217 C77.2437937,15.0997926 76.1635454,15.389576 74.8305216,15.389576 Z" id="path-1"></path>
    </defs>
    <g id="EXPERIMENTS" stroke="none" stroke-width="1" fill="none" fill-rule="evenodd">
        <g id="LOGOS" transform="translate(-1276.000000, -507.000000)">
            <g id="Jenkins" transform="translate(1376.000000, 547.000000) scale(-1, 1) rotate(-180.000000) translate(-1376.000000, -547.000000) translate(1276.000000, 507.000000)">
                <rect id="SHAPE-OF-BOX" fill="#FFFFFF" fill-rule="nonzero" x="0" y="0" width="200" height="80"></rect>
                <g id="BADGE" transform="translate(32.000000, 18.000000)">
                    <path d="M30.4849439,22.1623747 C30.4849439,13.6877833 23.7650411,6.81769402 15.4755887,6.81769402 C7.18627343,6.81769402 0.466362108,13.6877833 0.466362108,22.1623747 C0.466362108,30.6371719 7.18627343,37.5073641 15.4755887,37.5073641 C23.7650411,37.5073641 30.4849439,30.6371719 30.4849439,22.1623747" id="path22" fill="#D33833"></path>
                    <path d="M1.07799419,18.3620034 C1.07799419,18.3620034 -0.0085767744,34.363991 14.7435438,34.8212494 L13.7143995,36.5357542 L5.7094558,33.8496396 L3.42227021,31.2207894 L1.42106517,27.3916144 L0.277405476,22.9339019 L0.620476452,19.9621507" id="path24" fill="#EF3D3A" fill-rule="nonzero"></path>
                    <path d="M5.19551832,32.6302838 C2.56210551,29.9371396 0.932523519,26.2187216 0.932523519,22.1051103 C0.932523519,17.9923562 2.56210551,14.2734581 5.19551832,11.5808112 C7.83020049,8.88816429 11.4611779,7.2266377 15.4753828,7.2266377 C19.4896906,7.2266377 23.1209254,8.88816429 25.7553674,11.5808112 C28.3886087,14.2734581 30.0185389,17.9923562 30.0185389,22.1051103 C30.0185389,26.2187216 28.3886087,29.9371396 25.7553674,32.6302838 C23.1209254,35.3223992 19.4896906,36.9839258 15.4753828,36.9842687 C11.4611779,36.9839258 7.83020049,35.3223992 5.19551832,32.6302838 Z M4.52893141,10.9294366 C1.73022701,13.7902421 0,17.7439244 0,22.1051103 C0,26.4669819 1.73022701,30.4202871 4.52893141,33.2812812 C7.32698399,36.1427897 11.2002038,37.9164449 15.4753828,37.9159306 C19.7505961,37.9164449 23.6242105,36.1427897 26.4217827,33.2812812 C29.2207273,30.4202871 30.9511773,26.466639 30.9508342,22.1051103 C30.9511773,17.7439244 29.2207273,13.7902421 26.4217827,10.9294366 C23.6242105,8.06808236 19.7505961,6.29465004 15.4753828,6.29465004 C11.2002038,6.29465004 7.32698399,8.06808236 4.52893141,10.9294366 Z" id="path26" fill="#231F20" fill-rule="nonzero"></path>
                    <polyline id="path28" fill="#F0D6B7" points="21.7937553 22.0773353 19.5065011 21.7344344 16.418828 21.3915334 14.4174891 21.3344404 12.4735118 21.3915334 10.9867794 21.8487918 9.67165111 23.2774887 8.64243818 26.1921468 8.41374707 26.8208557 7.04146317 27.2779427 6.24094135 28.5924535 5.66917926 30.4784088 6.2982342 32.1358206 7.78476074 32.650172 8.98550916 32.0785561 9.55740848 30.8213098 10.2435504 30.9356672 10.4721729 31.2213037 10.2435504 32.5358145 10.1862576 34.1932263 10.5293286 36.4791756 10.5159316 37.7849424 11.5585415 39.4509267 13.3882762 40.7654375 16.5903635 42.1370414 20.1353502 41.6226899 23.222989 39.3938337 24.6525657 37.1078845 25.5673645 35.4504727 25.7960213 31.3356612 25.1098793 27.7922941 23.8520096 24.6490925 22.6512612 22.9916807"></polyline>
                    <polyline id="path30" fill="#335061" points="19.8495721 12.190472 11.6729213 11.847571 11.6729213 10.4759672 12.3590633 5.67535376 12.0159923 5.27518835 6.2982342 7.21840808 5.89787038 7.90420999 5.32610829 14.3620637 4.01118585 18.2483318 3.72520189 19.1626772 8.29936721 22.3058788 9.72894396 22.8774947 10.9867794 21.3344404 12.0731479 20.3628305 13.3311892 19.9628365 13.9028827 19.7913861 14.5890246 16.8196349 15.1036311 16.1909603 16.418828 16.6481844 15.5038577 14.8764152 20.4784212 12.5333729 19.8495721 12.190472"></polyline>
                    <polyline id="path32" fill="#6D6B6D" points="6.2982342 32.1358206 7.78476074 32.650172 8.98550916 32.0785561 9.55740848 30.8213098 10.2435504 30.9356672 10.4150859 31.6214691 10.0720149 32.9358085 10.4150859 36.0791816 10.129102 37.7936864 11.1583149 38.9938397 13.3882762 40.7654375 12.7592899 41.6226899 9.61449549 40.0796356 8.29936721 39.0509328 7.55606963 37.4507854 6.41247684 35.9077311 6.06940586 34.0788689 6.2982342 32.1358206"></polyline>
                    <path d="M8.64243818,37.5078784 C8.64243818,37.5078784 9.50011562,39.6223772 12.9308254,40.6510801 C16.3615351,41.679783 13.1023609,41.3941465 13.1023609,41.3941465 L9.38587299,39.9652782 L7.95629623,38.5365813 L7.32744713,37.393521 L8.64243818,37.5078784" id="path34" fill="#DCD9D8"></path>
                    <path d="M6.9270833,32.5358145 C6.9270833,32.5358145 5.72633489,36.53644 10.3006374,37.1078845 L10.129102,37.7936864 L6.98437616,37.05062 L6.06940586,34.0788689 L6.2982342,32.1358206 L6.9270833,32.5358145" id="path36" fill="#DCD9D8"></path>
                    <path d="M8.75681805,27.2208497 L9.50548468,27.9459138 C9.50548468,27.9459138 9.84339244,27.9066516 9.90047945,27.5066576 C9.95756646,27.1064922 10.129102,23.5060322 12.5877544,21.5628124 C12.8120199,21.3855326 10.7581569,21.8487918 10.7581569,21.8487918 L8.92835353,24.7061855" id="path38" fill="#F7E4CD"></path>
                    <path d="M19.2780158,28.3066456 C19.2780158,28.3066456 19.4112989,30.0389812 19.878047,29.9057642 C20.344795,29.7725472 20.344795,29.3060304 20.344795,29.3060304 C20.344795,29.3060304 19.2112885,28.5730796 19.2780158,28.3066456" id="path40" fill="#F7E4CD"></path>
                    <path d="M24.0235451,34.6503133 C24.0235451,34.6503133 23.0811291,34.4514307 22.9943322,33.6216104 C22.9075352,32.7916187 24.0235451,33.4501599 24.1950806,33.507253" id="path42" fill="#F7E4CD" fill-rule="nonzero"></path>
                    <path d="M17.1049699,34.5930488 C17.1049699,34.5930488 15.8469287,34.4215984 15.8469287,33.6216104 C15.8469287,32.821451 17.2765397,32.8785441 17.676732,33.221445" id="path44" fill="#F7E4CD" fill-rule="nonzero"></path>
                    <path d="M9.32858014,30.8784028 C9.32858014,30.8784028 7.1557058,32.1929136 6.9270833,30.9354958 C6.69839219,29.6782494 6.1836485,28.7637325 7.27015428,27.4493932 L6.5268567,27.6779367 L5.84071475,29.4495345 L5.61209225,31.1640393 L6.9270833,32.5358145 L8.41374707,32.4214571 L9.27142451,31.7356552 L9.32858014,30.8784028" id="path46" fill="#F7E4CD"></path>
                    <path d="M10.3577931,34.4788628 C10.3577931,34.4788628 11.3298504,39.5080197 16.2472925,40.4796296 C20.2957359,41.2794461 22.4224328,40.3081791 23.222989,39.3938337 C23.222989,39.3938337 19.6207437,43.6799242 16.1899997,42.3655849 C12.7592899,41.051074 10.2435504,38.6507673 10.3006374,37.1078845 C10.398001,34.4798915 10.3577931,34.4788628 10.3577931,34.4788628" id="path48" fill="#F7E4CD"></path>
                    <path d="M23.6233528,38.8223893 C23.6233528,38.8223893 21.9652908,38.8794823 21.9079979,37.393521 C21.9079979,37.393521 21.9078264,37.1649775 22.0222406,36.936434 C22.0222406,36.936434 23.3375747,38.4223953 24.1379593,37.6222359" id="path50" fill="#F7E4CD"></path>
                    <path d="M16.3625472,36.7816142 C16.3625472,36.7816142 16.077095,39.0624199 14.1315738,37.7364219 C12.8736698,36.8791695 12.9881182,35.6790162 13.2167407,35.4504727 C13.4454318,35.2217578 13.3832502,34.7614132 13.5573416,35.0773964 C13.7313472,35.3933797 13.6740543,36.4220826 14.3031093,36.7077191 C14.9320956,36.993527 15.9631783,37.3127678 16.3625472,36.7816142" id="path52" fill="#F7E4CD"></path>
                    <path d="M10.9867794,21.3344404 L5.61209225,18.9341337 C5.61209225,18.9341337 7.8420536,10.0758018 6.69839219,7.3325941 L5.89787038,7.61823059 L5.84071475,10.9901815 L4.35425683,17.3909079 L3.72520189,19.1626772 L9.32858014,22.9344163 L10.9867794,21.3344404" id="path54" fill="#49728B"></path>
                    <path d="M11.5394496,16.4348657 L12.3019763,15.5049526 L12.3019763,12.0759431 L11.387006,12.0759431 C11.387006,12.0759431 11.2727634,14.4762498 11.2727634,14.762092 C11.2727634,15.0478657 11.387006,16.0765685 11.387006,16.0765685" id="path56" fill="#49728B"></path>
                    <polyline id="path58" fill="#49728B" points="11.5585415 11.5615916 8.98550916 11.4474056 9.72894396 10.9330542 11.5585415 10.6472805"></polyline>
                    <polyline id="path60" fill="#335061" points="20.3641785 12.1332075 22.4797257 12.1903348 22.9943322 6.93242868 20.8214921 6.64679218 20.3641785 12.1332075"></polyline>
                    <path d="M20.9359063,12.1332075 L24.1379593,12.304658 C24.1379593,12.304658 25.4529503,15.6193444 25.4529503,15.7907949 C25.4529503,15.9622454 26.5965774,20.591374 26.5965774,20.591374 L24.0235451,23.2773172 L23.5089386,23.7345756 L22.1366547,22.3629718 L22.1366547,17.048007 L20.9359063,12.1332075" id="path62" fill="#335061"></path>
                    <path d="M22.3653115,12.5332358 L20.3641785,12.1332075 L20.6499566,10.5328887 C21.3932199,10.1899878 22.6512612,11.1045046 22.6512612,11.1045046" id="path64" fill="#49728B"></path>
                    <polyline id="path66" fill="#49728B" points="22.4226044 22.5344223 26.4250419 19.5626711 26.5394561 20.934275 23.5089386 23.7345756 22.4226044 22.5344223"></polyline>
                    <polyline id="path68" fill="#FFFFFF" points="13.542864 0.874063116 12.3590633 5.67535376 11.7702849 9.21800073 11.6729213 11.847571 17.030798 12.1326589 20.3641785 12.1332075 20.0610753 6.1318921 20.5756818 1.50273602 20.5185605 0.645483622 16.1731206 0.302582664 13.542864 0.874063116"></polyline>
                    <path d="M19.6207437,12.1903348 C19.6207437,12.1903348 19.3349656,6.24662676 20.192643,2.01762924 C20.192643,2.01762924 18.4772882,0.931658475 15.9613085,0.646020262 L20.7643708,0.817470741 L21.3360986,1.1603717 L20.6499566,10.5328887 L20.4784212,12.5333729" id="path70" fill="#DCD9D8"></path>
                    <polyline id="path72" fill="#FFFFFF" points="23.0917643 7.38917275 25.3217257 8.01784737 29.55282 8.24642515 30.1818406 10.1894563 29.0382135 13.56139 27.7232225 13.7328405 25.8934534 13.1613617 24.1379593 12.304658 23.206007 12.4755598 22.4797257 12.1903348"></polyline>
                    <path d="M23.0514535,8.53274745 C23.0514535,8.53274745 24.53798,9.21841221 24.7668084,9.16128491 L24.1379593,12.304658 L24.8812225,12.5902945 C24.8812225,12.5902945 25.395829,9.61857763 25.395829,9.27567667 C25.395829,9.27567667 28.5977104,9.10422619 28.8836601,9.10422619 C28.8836601,9.10422619 29.569802,10.4187027 29.3982665,11.7903066 L30.0272872,9.96147858 L30.0844085,8.93277571 L29.1696097,7.56117187 L28.1403968,7.3325941 L26.4250419,7.3897214 L25.8533141,8.13258203 L23.8520096,7.84694553 L23.222989,7.61823059" id="path74" fill="#DCD9D8"></path>
                    <path d="M20.8045101,12.589763 L19.5466404,15.7902462 L18.2314778,17.6762015 C18.2314778,17.6762015 18.5172559,18.4763609 18.9176198,18.4763609 C19.3179836,18.4763609 20.2327823,18.4763609 20.2327823,18.4763609 L21.4906521,18.0191025 L21.3764094,15.9045694 L20.8045101,12.589763" id="path76" fill="#FFFFFF" fill-rule="nonzero"></path>
                    <path d="M21.0503205,13.6762618 C21.0503205,13.6762618 19.4492082,16.7622333 19.4492082,17.2194574 C19.4492082,17.2194574 19.7349864,17.9052593 20.1353502,17.7338089 C20.535714,17.5623584 21.3933915,17.1052714 21.3933915,17.1052714 L21.3933915,18.1910673 L19.4492082,18.5912327 L18.1342172,18.4197822 L20.3641785,13.1619104 L20.8214921,13.1046459" id="path78" fill="#DCD9D8"></path>
                    <polyline id="path80" fill="#FFFFFF" fill-rule="nonzero" points="14.0575391 21.2193971 12.4735118 21.3915334 10.9867794 21.8487918 10.9867794 21.3344404 11.7131979 20.5337666 14.0003148 19.5050638"></polyline>
                    <path d="M11.5015917,21.0481181 C11.5015917,21.0481181 13.2742394,20.3050517 13.8460015,20.4765022 L13.9028827,19.7913861 L12.3021821,20.1336012 L11.3300562,20.8194031 L11.5015917,21.0481181" id="path82" fill="#DCD9D8"></path>
                    <path d="M23.085589,18.2817646 C22.1153843,18.3102254 21.238838,18.4254401 20.4713882,18.6418106 C20.523535,18.9562508 20.4259313,19.2648616 20.504323,19.4913477 C20.7182278,19.6453103 21.0767369,19.64291 21.4000813,19.679086 C21.1204785,19.8164178 20.7276622,19.8707676 20.405004,19.7913861 C20.3974564,20.0096425 20.2995096,20.144917 20.2401584,20.3156816 C20.7856412,20.5102779 22.0733581,21.7860409 22.7977525,21.363587 C23.1428819,21.162647 23.2895447,20.0149575 23.3163043,19.4568862 C23.3386039,18.9939699 23.2742781,18.5269388 23.085589,18.2817646" id="path84" fill="#D33833"></path>
                    <path d="M23.085589,18.2817646 C22.1153843,18.3102254 21.238838,18.4254401 20.4713882,18.6418106 C20.523535,18.9562508 20.4259313,19.2648616 20.504323,19.4913477 C20.7182278,19.6453103 21.0767369,19.64291 21.4000813,19.679086 C21.1204785,19.8164178 20.7276622,19.8707676 20.405004,19.7913861 C20.3974564,20.0096425 20.2995096,20.144917 20.2401584,20.3156816 C20.7856412,20.5102779 22.0733581,21.7860409 22.7977525,21.363587 C23.1428819,21.162647 23.2895447,20.0149575 23.3163043,19.4568862 C23.3386039,18.9939699 23.2742781,18.5269388 23.085589,18.2817646 Z" id="path86" stroke="#D33833" stroke-width="2.5"></path>
                    <path d="M18.4460687,19.8669957 C18.4434957,19.7936149 18.440408,19.7197198 18.4374919,19.6456532 C18.1345603,19.4467706 17.6455126,19.4491709 17.3130768,19.2820067 C17.8031537,19.2605754 18.188937,19.1426175 18.5227451,18.9763105 C18.515369,18.7914869 18.5083361,18.6068347 18.5011316,18.4220111 C17.9458712,18.0420768 17.4386408,17.4762902 16.7848847,17.119999 C16.4757778,16.9514975 15.390953,16.5179164 15.0620852,16.5945376 C14.8760207,16.637726 14.8592616,16.8685154 14.7848839,17.0860518 C14.6264194,17.5518999 14.2615634,18.2934232 14.2297436,18.9946557 C14.1892097,19.8803689 14.099754,21.3647871 15.0547263,21.1823638 C15.8251608,21.0354307 16.7212279,20.6806997 17.3177083,20.3549438 C17.6822212,20.1557183 17.8930383,19.9095155 18.4460687,19.8669957" id="path88" fill="#D33833"></path>
                    <path d="M18.4460687,19.8669957 C18.4434957,19.7936149 18.440408,19.7197198 18.4374919,19.6456532 C18.1345603,19.4467706 17.6455126,19.4491709 17.3130768,19.2820067 C17.8031537,19.2605754 18.188937,19.1426175 18.5227451,18.9763105 C18.515369,18.7914869 18.5083361,18.6068347 18.5011316,18.4220111 C17.9458712,18.0420768 17.4386408,17.4762902 16.7848847,17.119999 C16.4757778,16.9514975 15.390953,16.5179164 15.0620852,16.5945376 C14.8760207,16.637726 14.8592616,16.8685154 14.7848839,17.0860518 C14.6264194,17.5518999 14.2615634,18.2934232 14.2297436,18.9946557 C14.1892097,19.8803689 14.099754,21.3647871 15.0547263,21.1823638 C15.8251608,21.0354307 16.7212279,20.6806997 17.3177083,20.3549438 C17.6822212,20.1557183 17.8930383,19.9095155 18.4460687,19.8669957 Z" id="path90" stroke="#D33833" stroke-width="2.5"></path>
                    <path d="M18.9975553,18.810175 C18.9128168,19.2926366 18.81487,19.4303114 18.8527793,19.8512223 C20.1401532,20.7091605 20.3818467,18.3776054 18.9975553,18.810175" id="path92" fill="#D33833"></path>
                    <path d="M18.9975553,18.810175 C18.9128168,19.2926366 18.81487,19.4303114 18.8527793,19.8512223 C20.1401532,20.7091605 20.3818467,18.3776054 18.9975553,18.810175 Z" id="path94" stroke="#D33833" stroke-width="2.5"></path>
                    <path d="M20.8616314,18.4190964 C20.8616314,18.4190964 20.4612676,18.9907123 20.7472173,19.1621628 C21.0331669,19.3336133 21.3191166,19.1619914 21.4906521,19.4477993 C21.6621876,19.7336073 21.4906521,19.9050577 21.5477734,20.2479587 C21.6048947,20.5908597 21.8910159,20.6481241 22.176794,20.7052171 C22.4625721,20.7623101 23.2632998,20.8766676 23.3775424,20.5908597 L23.0344715,21.6195625 L22.3483295,21.848106 L20.1754895,20.5908597 L20.0610753,19.9621507 L20.0610753,18.7049044" id="path96" fill="#EF3D3A"></path>
                    <path d="M14.8579237,16.533124 C14.7892409,17.4250266 14.7165441,18.3157118 14.6356651,19.2067399 C14.5146469,20.5371957 14.9554073,20.3050517 16.1092579,20.3050517 C16.2854935,20.3050517 17.1943742,20.0950249 17.2593862,19.9621507 C17.5712377,19.3255551 16.7379183,19.4670018 17.6185815,18.9869404 C18.3620163,18.5818029 19.675292,19.2329719 19.3749334,20.1336012 C19.2068286,20.3338554 18.4990732,20.1960092 18.2453722,20.3275117 C17.7986938,20.5589699 17.3520154,20.790428 16.9052855,21.0218862 C16.3369541,21.3166095 15.0234211,21.7462644 14.4174891,21.3344404 C12.8821779,20.2908213 14.5143895,17.683231 15.0620852,16.5945376" id="path98" fill="#EF3D3A"></path>
                    <path d="M16.3625472,36.7816142 C14.804113,37.1444034 14.0297332,36.1297595 13.5573416,35.0773964 C13.1355358,35.1795809 13.3033833,35.7529113 13.409924,36.045063 C13.688875,36.8117895 14.8130328,37.8324342 15.7315539,37.6940737 C16.1268231,37.6345803 16.6617222,37.2733342 16.3625472,36.7816142" id="path100" fill="#231F20"></path>
                    <path d="M23.9557886,35.0077876 C23.9803181,35.0067588 24.0051908,35.0059016 24.0297204,35.0048729 C24.3818827,34.2736366 24.6867013,33.4990233 25.1309782,32.8535123 C24.8333641,32.1606809 22.877345,31.547574 22.9075352,32.7916187 C23.3305417,32.9764423 24.0607683,32.8293378 24.4357449,33.0654251 C24.218924,33.6601868 23.9060433,34.1664801 23.9557886,35.0077876" id="path102" fill="#231F20"></path>
                    <path d="M17.1604102,34.9887565 C17.4945613,34.3765069 17.6033148,33.7332247 18.0782966,33.2704798 C18.2922014,33.0621675 18.7081749,32.8082494 18.5019893,32.2289182 C18.4537878,32.0922722 18.1016254,31.7876047 17.8983559,31.7277684 C17.1557788,31.5086547 15.425466,31.6825055 16.0114312,32.6078237 C16.6255454,32.5791915 17.4509913,32.2092014 17.9100203,32.6548012 C17.5575149,33.218016 16.9290775,34.3322727 17.1604102,34.9887565" id="path104" fill="#231F20"></path>
                    <path d="M23.6770434,28.7661329 C22.5589751,28.0482697 21.3122552,27.2676557 19.4802562,27.4487074 C19.0888122,27.7888651 18.9395763,28.545819 19.3198705,29.0457686 C19.5178224,28.7056108 19.3934592,28.079988 19.9451173,27.9858617 C20.9846224,27.8080676 22.1944622,28.6214287 22.9421854,28.9056935 C23.4058458,29.6869934 22.9022176,29.9743444 22.4845287,30.4772086 C21.6294243,31.5074546 20.4823665,32.7844177 20.5240496,34.3267862 C20.8696936,34.5772754 20.8995408,33.9444517 20.9491145,33.829237 C21.3956214,32.7847606 22.5193504,31.44899 23.3394616,30.5550472 C23.5408442,30.3349047 23.8724223,30.1236778 23.9093025,29.9781163 C24.0156545,29.5548051 23.6326157,29.0476545 23.6770434,28.7661329" id="path106" fill="#231F20"></path>
                    <path d="M8.93727338,29.5218866 C8.58682638,29.7217978 8.50340867,30.6023675 8.0919808,30.6273993 C7.50400861,30.663061 7.61121829,29.4850247 7.61356833,28.7961367 C7.2088475,29.1633836 7.13767742,30.2940995 7.43499988,30.8748023 C7.09614868,31.0411093 6.94483723,30.6913503 6.75688579,30.5680774 C6.99844207,32.3220158 9.32389722,31.3816099 8.93727338,29.5218866" id="path108" fill="#231F20"></path>
                    <path d="M24.3889157,28.0357538 C23.868477,27.0456273 23.1322467,25.9552022 21.6050662,25.9234839 C21.5740183,26.2432391 21.5501749,26.7298155 21.6067816,26.9223544 C22.7742521,27.034483 23.4950443,27.6283875 24.3889157,28.0357538" id="path110" fill="#231F20"></path>
                    <path d="M17.0723439,27.3938432 C18.046391,26.8818921 19.8365354,26.8268565 21.1604463,26.8656043 C21.231462,26.5756815 21.2297466,26.2175215 21.2324912,25.8639906 C19.5306876,25.7791226 17.5185763,26.2000335 17.0723439,27.3938432" id="path112" fill="#231F20"></path>
                    <path d="M16.8872056,26.439207 C17.560774,24.7488767 19.875817,24.943473 21.8280624,24.9901075 C21.7421231,24.7706509 21.5558356,24.5114178 21.3242627,24.4176344 C20.6986727,24.1632018 18.9731973,23.9701486 18.1047131,24.4311789 C17.5539126,24.7238449 17.2000349,25.3851294 16.8982525,25.7727789 C16.752516,25.9600029 16.0268351,26.4381782 16.8872056,26.439207" id="path114" fill="#231F20"></path>
                    <path d="M23.5957356,17.1152498 C22.8053001,15.7621284 22.0490001,14.3723679 21.1112156,13.1788497 C21.5043749,14.3342716 21.6726512,16.268113 21.7320025,17.7423814 C22.5545152,18.1271163 23.2588399,17.6557989 23.5957356,17.1152498" id="path116" fill="#81B0C4"></path>
                    <path d="M27.8491295,12.2520056 C26.964178,12.0749315 26.3423618,11.2152788 25.4790237,11.2704516 C25.9534909,11.9389884 26.7849234,12.2208016 27.8491295,12.2520056" id="path118" fill="#231F20"></path>
                    <path d="M28.2395443,10.9248735 C27.5182376,10.8196107 26.6710238,10.6582203 25.939425,10.7413687 C26.2857551,11.4723538 27.6201297,11.2201355 28.2395443,10.9248735" id="path120" fill="#231F20"></path>
                    <path d="M28.4894715,9.67771892 C27.6787948,9.65108944 26.6711953,9.67558648 25.9006579,9.77360065 C26.3564277,10.5157674 27.9637152,10.0489973 28.4894715,9.67771892" id="path122" fill="#231F20"></path>
                    <path d="M22.070442,6.40830456 C22.1867431,5.39071168 22.5903661,4.35965993 22.5397631,3.24523182 C22.0915409,3.09414965 21.8340661,2.96201277 21.2335204,2.96281859 C21.1911511,3.90994532 21.0643864,5.35782748 21.1022957,6.2606857 C21.3976798,6.24114035 21.8332084,6.47158693 22.070442,6.40830456" id="path124" fill="#DCD9D8"></path>
                    <path d="M20.7635131,21.4054209 C20.3564594,21.1398441 20.0097862,20.8082589 19.6188568,20.5246798 C18.7519165,20.4818172 18.2788216,20.5846874 17.6419103,21.0822367 C17.652374,21.1221847 17.7163567,21.1043538 17.7187582,21.1533887 C18.6467652,20.7400216 19.8264148,21.321753 20.7635131,21.4054209" id="path126" fill="#F0D6B7"></path>
                    <path d="M15.8918195,15.0826873 C16.1467899,16.1869998 17.1458469,16.7589414 18.0530809,17.3670763 C18.9894931,16.1792331 19.5589909,14.6516436 20.1861247,13.1775124 C18.7044011,13.6239523 17.1904289,14.3483306 15.8918195,15.0826873" id="path128" fill="#81B0C4"></path>
                    <path d="M21.1022957,6.2606857 C21.0643864,5.35782748 21.1911511,3.90994532 21.2335204,2.96281859 C21.8340661,2.96201277 22.0915409,3.09414965 22.5397631,3.24523182 C22.5903661,4.35965993 22.1867431,5.39071168 22.070442,6.40830456 C21.8332084,6.47158693 21.3976798,6.24114035 21.1022957,6.2606857 Z M11.751193,11.3954218 C12.1471998,7.75672829 12.720763,4.69794887 13.7727559,1.47581315 C16.1075769,0.767240895 18.9222512,0.70549129 20.9859947,1.34488156 C20.6070728,3.16346708 20.7726045,5.37750999 20.5511522,7.31819226 C20.3842482,8.77685864 20.4693298,10.244509 20.2405014,11.7326992 C17.7398571,12.2526742 14.2052826,11.8542576 11.751193,11.3954218 Z M20.8317843,11.709862 C20.8106854,10.1471252 20.9017707,8.6056139 21.0211594,7.04092254 C21.6215337,7.13100262 22.0289304,7.19114745 22.5867638,7.3133745 C22.4056224,8.81972126 22.427922,10.5147321 22.0589491,11.8472281 C21.6325119,11.8431476 21.2570207,11.852183 20.8317843,11.709862 Z M23.8773969,11.961757 C23.5924764,12.0270454 23.2607268,11.9642945 22.9885,11.9590138 C23.1164654,10.6851196 23.4269447,9.27941429 23.5362128,7.94223771 C23.9645369,7.92891601 24.1933652,8.13083324 24.5456991,8.19874477 C24.564568,9.3725119 24.4431209,10.9896328 23.8773969,11.961757 Z M28.4889569,7.75043606 C29.3817991,7.96714946 29.9432348,9.06014627 29.6934791,10.1826154 C29.5258889,10.9369975 29.2274172,12.357499 28.9080181,12.8400978 C28.6719853,13.1970577 28.0319864,13.6643975 27.5209822,13.3373042 C26.6897212,12.8052762 25.2253227,12.6508337 24.6191163,12.0068314 C24.9230772,10.9952735 25.0174217,9.605856 25.1428141,8.32412651 C26.18129,8.2594211 27.4590578,8.60976301 28.322739,8.23798979 C27.7197918,8.04277627 26.9374184,8.04123322 26.4164651,7.75672829 C26.8422162,7.55119346 27.8390089,7.59271876 28.4889569,7.75043606 Z M20.1861247,13.1775124 C19.5589909,14.6516436 18.9894931,16.1792331 18.0530809,17.3670763 C17.1458469,16.7589414 16.1467899,16.1869998 15.8918195,15.0826873 C17.1904289,14.3483306 18.7044011,13.6239523 20.1861247,13.1775124 Z M21.7320025,17.7423814 C21.6726512,16.268113 21.5043749,14.3342716 21.1112156,13.1788497 C22.0490001,14.3723679 22.8053001,15.7621284 23.5957356,17.1152498 C23.2588399,17.6557989 22.5545152,18.1271163 21.7320025,17.7423814 Z M19.979596,18.3647466 C19.624346,18.4029801 19.3227866,17.956523 18.8608415,18.1495763 C18.7550041,18.0326471 18.6587727,17.9059452 18.5508769,17.7917591 C19.57117,16.562785 20.0348304,14.8191507 20.8228644,13.3748862 C21.2456994,14.7622292 21.1969833,16.282172 21.2901271,17.7963883 C20.7091364,17.7595264 20.3868212,18.3215411 19.979596,18.3647466 Z M18.8527793,19.8512223 C18.81487,19.4303114 18.9128168,19.2926366 18.9975553,18.810175 C20.3818467,18.3776054 20.1401532,20.7091605 18.8527793,19.8512223 Z M17.3177083,20.3549438 C16.7212279,20.6806997 15.8251608,21.0354307 15.0547263,21.1823638 C14.099754,21.3649586 14.1892097,19.8803689 14.2297436,18.9946557 C14.2615634,18.2934232 14.6264194,17.5518999 14.7848839,17.0860518 C14.8592616,16.8685154 14.8760207,16.637726 15.0620852,16.5945376 C15.390953,16.5179164 16.4757778,16.9514975 16.7848847,17.119999 C17.4386408,17.4762902 17.9458712,18.0420768 18.5011316,18.4220111 C18.5083361,18.6068347 18.515369,18.7914869 18.5227451,18.9763105 C18.188937,19.1426175 17.8031537,19.2605754 17.3130768,19.2820067 C17.6455126,19.4491709 18.1345603,19.4467706 18.4374919,19.6456532 C18.440408,19.7197198 18.4434957,19.7936149 18.4460687,19.8669957 C17.8930383,19.9095155 17.6822212,20.1557183 17.3177083,20.3549438 Z M11.6203972,21.3893045 C11.1253458,20.8869546 13.0088912,20.2021814 13.6085964,20.1653196 C13.6052515,20.4831888 13.7898408,20.7828842 13.7526519,21.0109133 C13.0403851,21.1359007 12.1043159,21.053433 11.6203972,21.3893045 Z M17.7187582,21.1533887 C17.7163567,21.1043538 17.652374,21.1221847 17.6419103,21.0822367 C18.2788216,20.5846874 18.7519165,20.4818172 19.6188568,20.5246798 C20.0097862,20.8082589 20.3564594,21.1398441 20.7635131,21.4054209 C19.8264148,21.321753 18.6467652,20.7400216 17.7187582,21.1533887 Z M23.3163043,19.4568862 C23.2895447,20.0149575 23.1428819,21.162647 22.7977525,21.363587 C22.0733581,21.7862124 20.7856412,20.5102779 20.2401584,20.3156816 C20.2995096,20.144917 20.3974564,20.0096425 20.405004,19.7913861 C20.7276622,19.8707676 21.1204785,19.8164178 21.4000813,19.679086 C21.0767369,19.64291 20.7182278,19.6453103 20.504323,19.4913477 C20.4259313,19.2648616 20.523535,18.9562508 20.4713882,18.6418106 C21.238838,18.4254401 22.1153843,18.3102254 23.085589,18.2817646 C23.2742781,18.5269388 23.3386039,18.9939699 23.3163043,19.4568862 Z M10.7869749,20.9034139 C10.6315122,21.0141709 9.57986247,22.3818314 9.43578982,22.3250813 C7.53282657,21.5749854 5.7534718,20.2779625 4.1634236,19.0512344 C5.67943709,15.7998303 6.29140709,11.8163499 6.39954306,7.97693929 C8.13620265,7.16508698 9.66159913,5.99473172 12.0182051,5.87252181 C11.745498,7.80099681 11.4965657,9.52153665 11.3417721,11.3371629 C10.7496487,11.5866405 9.90013638,11.3258472 9.34600814,11.4145214 C9.34130807,12.081961 10.1922956,11.706793 10.2631741,12.1556332 C10.3165902,12.4951223 9.79495082,12.5208399 9.96480526,13.0554225 C10.398001,12.898031 10.6254913,12.5503808 11.0874879,12.4198384 C11.5096367,13.3429278 11.0815871,14.9761994 11.1424307,15.7477265 C11.1539579,15.892585 11.2148015,16.5502691 11.5394496,16.4348657 C11.8267715,16.3327327 11.5230336,14.6857451 11.5545275,13.9555375 C11.5832083,13.282783 11.4732369,12.6318198 11.7458239,12.2094858 C14.0230261,12.5192968 16.3370742,12.719551 18.8009756,12.7871196 C18.2589235,13.0195893 17.6149793,13.2395946 16.9089735,13.6373426 C16.5262435,13.852993 15.3198001,14.3017132 15.2093656,14.665051 C15.0331472,15.2440222 15.6717052,15.5524273 15.7809218,16.0487764 C14.6314454,15.4221763 14.4071799,16.6493846 14.1352618,17.51881 C13.8888854,18.306282 13.748638,18.8945286 13.6881889,19.3487009 C12.6979831,19.8205327 11.6392832,20.2983651 10.7869749,20.9034139 Z M22.3105917,22.1596315 C23.8960942,22.9280726 24.1818723,19.2876646 23.5603993,18.1149433 C23.6564591,17.7651843 23.9868365,17.6312815 24.1216634,17.3168413 C23.2368833,15.732656 22.2541565,14.2538956 21.3513653,12.688347 C22.0229267,13.106189 22.9821531,12.7630823 23.7724171,13.0758422 C24.0612829,13.1900283 24.2703847,13.850987 24.4890924,14.3797403 C25.0906674,15.8344633 25.722261,17.6684862 26.0032362,19.0567208 C26.0667043,19.3730469 26.2396121,20.0622778 26.200845,20.3437995 C26.1317162,20.8478639 25.4474612,21.221626 25.0994157,21.5333229 C24.458216,22.1090536 24.0544215,22.6156898 23.3856046,23.1540443 C23.114407,22.7538789 22.5323871,22.4850445 22.3105917,22.1596315 Z M7.16093763,36.2130844 C6.40544388,35.3822354 6.56358245,33.825465 6.65504517,32.717895 C8.02062204,33.576519 9.83313462,32.6500006 9.81604968,31.1895854 C10.4680218,31.2069019 10.0596129,32.0034608 9.94168228,32.5166121 C9.55627634,34.192712 10.5909784,36.0136875 9.98859723,37.5464548 C8.81899966,37.4578149 7.85812647,36.9803253 7.16093763,36.2130844 Z M12.5666555,41.0353006 C10.8563267,40.5507815 8.66434327,39.3086228 7.96152806,37.7729409 C8.50574155,37.8519796 8.88353131,38.1263003 9.42038593,38.1602475 C9.6232781,38.1734492 9.8890895,38.0752081 10.1222748,38.1331583 C10.5869645,38.2483731 10.9791461,39.2897633 11.3297131,39.6772414 C11.6714461,40.0556326 12.0821879,40.2173104 12.3632831,40.5622687 C12.5438756,40.6493656 12.8108878,40.6433648 12.8211456,40.914428 C12.7428739,40.9980958 12.6604511,41.0618754 12.5666555,41.0353006 Z M21.4698963,40.5795852 C19.6946755,41.5806846 16.6898712,42.3336951 14.8015056,41.3927748 C13.2777902,40.6334207 11.2181465,39.3770316 10.5159316,37.7849424 C11.1719176,36.2485747 10.3216162,34.8407948 10.2673424,33.2809383 C10.2385244,32.4509466 10.6583232,31.7263968 10.6904861,30.8228528 C10.4660148,30.4526912 9.78019877,30.4070854 9.30545715,30.4324601 C9.14565469,31.2317622 8.86589746,32.1301627 8.04240705,32.2203457 C6.87716648,32.3477334 6.02518401,31.3838388 5.97224816,30.3765672 C5.9096034,29.1920158 6.88251838,27.2287364 8.26150933,27.3650395 C8.79421278,27.4176748 8.92507721,27.9514002 9.50548468,27.9459138 C9.82006362,27.3185765 9.02022794,27.1215799 8.93794237,26.672894 C8.91650043,26.5569934 9.00427514,26.1040213 9.0553241,25.8915941 C9.30580022,24.8572334 9.86416539,23.518548 10.4137479,22.731076 C11.1112798,21.7322055 12.481694,21.581672 13.9560244,21.4837738 C14.2193485,22.0507605 15.1893988,22.004126 15.8214728,21.8558213 C15.0639721,22.1556882 14.3597332,22.8826382 13.7761008,23.5260919 C13.1057058,24.2643576 12.426614,25.0562874 12.3923069,26.0212107 C13.6591822,24.2645291 14.7058232,22.7303902 17.0094933,21.9576629 C18.7526026,21.3733596 20.7883858,22.2254685 22.1277349,23.1655315 C22.6835099,23.5562671 23.0152595,24.1762321 23.4103057,24.7437332 C24.888427,26.8688619 25.5781712,29.9021637 25.4265338,32.8421965 C25.3640949,34.0546943 25.3668395,35.2630773 24.9597858,36.0788387 C24.5343778,36.9318048 23.0955381,37.6949309 22.2532989,36.9234038 C22.0972016,37.7528812 22.9536783,38.265861 23.9597339,37.9673657 C23.2423725,38.892684 22.4895032,40.0045403 21.4698963,40.5795852 Z M24.777272,13.2217123 C26.1644795,13.9109947 28.7563807,15.0769951 29.6260657,13.2191748 C29.9470086,12.5343673 30.323529,11.3767509 30.4897468,10.6698434 C30.7245789,9.67255024 30.2351882,7.57636239 29.2095775,7.2417082 C28.3036986,6.94616186 27.2466969,6.96416416 26.1555597,7.18324358 C26.0270796,7.29005723 25.884019,7.47625245 25.7840138,7.67033439 C25.0048996,7.70054397 24.2753592,7.62853477 23.6598899,7.30841958 C23.7182119,6.73251742 23.3284833,6.64008847 22.9631127,6.52147902 C22.6922582,5.44804472 23.5049933,4.04623131 23.3104721,3.06742052 C23.1716999,2.37009713 22.3133363,2.26227193 21.6824288,2.13181526 C21.6618445,1.74430289 21.710046,1.42082898 21.7531014,1.09299681 C21.60884,0.561700917 20.9618082,0.259251984 20.3487403,0.185180234 C18.3316545,-0.0572617169 15.2690085,-0.166159689 13.3288392,0.531162157 C12.7874389,1.8584889 12.360933,3.47288376 11.9099834,4.98854029 C10.0177411,4.78655448 8.48731864,5.80461028 7.04455081,6.47158693 C6.54502231,6.70304508 5.8539916,6.8305528 5.66737814,7.22797501 C5.48645966,7.61274418 5.56049438,8.35016984 5.51560354,9.04675599 C5.40136091,10.8258976 5.30353422,12.5419455 4.83347552,14.3636068 C4.62241825,15.1810655 4.25454325,15.9023748 3.997909,16.6900355 C3.76070973,17.4200545 3.34627999,18.3222269 3.23819548,19.0502056 C3.07792987,20.1291435 4.09439772,20.1891512 4.74436283,20.6566966 C5.7491148,21.3797033 6.53778351,21.7795258 7.62595319,22.4320664 C7.94825122,22.625291 8.92018845,23.1144393 9.03074307,23.3397252 C9.25051433,23.7863537 8.65350222,24.4160913 8.49388845,24.7661932 C8.24140537,25.3198068 8.10973473,25.7900954 8.07355789,26.3363367 C7.16073179,26.4805265 6.46875763,27.0235102 6.05077711,27.6357598 C5.35935186,28.6490322 4.87984156,30.5236717 5.47807158,31.9496254 C5.52498653,32.0619254 5.75896094,32.2827536 5.79347388,32.4552328 C5.86155631,32.7948762 5.66535402,33.2464768 5.65315785,33.6077229 C5.59030725,35.4611026 5.96689626,37.0579924 7.21521146,37.6169209 C7.72197875,39.6347216 9.5357607,40.3056074 11.2446144,41.3084212 C11.8833954,41.683212 12.5875486,41.9227283 13.3147733,42.190191 C15.9235193,43.1497994 19.9260769,42.9690906 22.0911978,41.3324243 C23.0092557,40.6383927 24.4767418,39.1730055 25.0016404,38.1120699 C26.3879903,35.3110835 26.2895289,30.629971 25.3198388,27.2227356 C25.1894718,26.7653058 25.0004397,26.092877 24.7364466,25.5433782 C24.552389,25.159672 23.9803181,24.3919168 24.04979,24.0531306 C24.1213203,23.7028573 25.3541459,22.767252 25.6184821,22.5124766 C26.094493,22.0535037 26.9988281,21.4443401 27.0720738,20.8651804 C27.1508086,20.2488159 26.8003616,19.4056225 26.6228223,18.8108608 C26.0293096,16.8259957 25.4502057,14.9912699 24.777272,13.2217123 Z" id="path130" fill="#231F20"></path>
                    <path d="M15.5224178,26.9614451 C15.5976705,27.0615722 16.0114312,27.2136488 16.5903635,26.9350417 C16.5903635,26.9350417 15.9042215,26.8206843 15.9613085,25.677281 L15.6753932,25.7345455 C15.6753932,25.7345455 15.3799062,26.7713065 15.5224178,26.9614451" id="path132" fill="#F7E4CD"></path>
                    <path d="M20.535714,17.1337322 C20.535714,16.9602072 20.3948834,16.8194978 20.2211179,16.8194978 C20.047524,16.8194978 19.9066934,16.9602072 19.9066934,17.1337322 C19.9066934,17.3072401 20.047524,17.4481724 20.2211179,17.4481724 C20.3948834,17.4481724 20.535714,17.3072401 20.535714,17.1337322" id="path134" fill="#1D1919"></path>
                    <path d="M20.8501386,15.6764031 C20.8501386,15.5028781 20.7093079,15.3621687 20.5355425,15.3621687 C20.3619486,15.3621687 20.2211179,15.5028781 20.2211179,15.6764031 C20.2211179,15.8499281 20.3619486,15.9908433 20.5355425,15.9908433 C20.7093079,15.9908433 20.8501386,15.8499281 20.8501386,15.6764031" id="path136" fill="#1D1919"></path>
                </g>
                <g id="TXT" transform="translate(118.974623, 40.510003) scale(-1, 1) rotate(-180.000000) translate(-118.974623, -40.510003) translate(78.974623, 32.510003)" fill="#000000">
                    <g id="tspan5677">
                        <use xlink:href="#path-1"></use>
                        <use xlink:href="#path-1"></use>
                    </g>
                </g>
            </g>
        </g>
    </g>
</svg>