<?xml version="1.0" encoding="UTF-8"?>
<svg width="200px" height="80px" viewBox="0 0 200 80" version="1.1" xmlns="http://www.w3.org/2000/svg" xmlns:xlink="http://www.w3.org/1999/xlink">
    <!-- Generator: Sketch 51.3 (57544) - http://www.bohemiancoding.com/sketch -->
    <title>Trello</title>
    <desc>Created with Sketch.</desc>
    <defs></defs>
    <g id="EXPERIMENTS" stroke="none" stroke-width="1" fill="none" fill-rule="evenodd">
        <g id="LOGOS" transform="translate(-1056.000000, -506.000000)" fill-rule="nonzero">
            <g id="Trello" transform="translate(1056.000000, 506.000000)">
                <rect id="SHAPE-OF-BOX" fill="#FFFFFF" x="0" y="0" width="200" height="80"></rect>
                <g transform="translate(59.000000, 28.000000)" fill="#3E3E58" id="Final" opacity="0.903928895">
                    <g>
                        <g id="Montserrat--Homepage">
                            <g id="Trello">
                                <path d="M2.3843149,3.83333333 L16.6902043,3.83333333 C18.0063462,3.83333333 19.0745192,4.90599583 19.0745192,6.22916667 L19.0745192,20.6041667 C19.0745192,21.9266667 18.0069184,23 16.6902043,23 L2.3843149,23 C1.06817308,23 0,21.9272417 0,20.6041667 L0,6.22916667 C0,4.90666667 1.06750547,3.83333333 2.3843149,3.83333333 Z M11.9212884,6.325 C11.2892542,6.325 10.7771034,6.83981667 10.7771034,7.475575 L10.7771034,13.6077583 C10.7771034,14.2431333 11.2895404,14.7583333 11.9212884,14.7583333 L15.4506467,14.7583333 C16.0825855,14.7583333 16.5948317,14.2435167 16.5948317,13.6077583 L16.5948317,7.475575 C16.5948317,6.8402 16.0823947,6.325 15.4506467,6.325 L11.9212884,6.325 Z M3.62387253,6.325 C2.99183834,6.325 2.4796875,6.8393375 2.4796875,7.47547917 L2.4796875,18.3995208 C2.4796875,19.0348958 2.99212446,19.55 3.62387253,19.55 L7.15323083,19.55 C7.78516965,19.55 8.29741587,19.0356625 8.29741587,18.3995208 L8.29741587,7.47547917 C8.29741587,6.84010417 7.78497891,6.325 7.15323083,6.325 L3.62387253,6.325 Z M65.3636584,17.2368727 C64.1261449,17.7418754 63.1493135,19.4867218 61.6641036,20.4786743 C61.572041,20.5400162 61.4799786,20.5708812 61.418539,20.5708812 C61.2957567,20.5708812 61.1423516,20.4478092 61.1423516,19.8943735 C61.1423516,17.9879224 61.7562629,17.0654648 62.2781118,15.7125465 C64.0895137,11.0080518 67.1901779,6.98006473 69.9532152,2.58286175 C70.1681568,2.24470496 70.2909391,1.87578017 70.2909391,1.47599033 C70.2909391,1.13783354 70.16806,0.861018623 70.0145579,0.522861833 C69.8917755,0.245949858 69.3392069,2.27373675e-13 68.7251987,2.27373675e-13 C68.3875716,2.27373675e-13 68.0805675,0.0307679973 67.6815008,0.0307679973 C66.2385427,0.0307679973 65.9315385,2.15249803 65.5938146,2.70573962 C63.2912836,6.61094583 60.6509317,11.4385125 59.3001329,14.8515279 C59.0038855,15.6166513 58.6837989,16.3818717 58.4407539,17.1670866 C57.105848,17.5543556 56.1057588,19.4342123 54.5415688,20.4787713 C54.4495064,20.5401132 54.3574438,20.5709782 54.2960043,20.5709782 C54.173222,20.5709782 54.0198168,20.4479063 54.0198168,19.8944706 C54.0198168,17.9880194 54.6337282,17.0655619 55.1555771,15.7126436 C56.966979,11.0081488 60.067837,6.98016179 62.8306805,2.58295881 C63.0456221,2.24480202 63.1685013,1.87587723 63.1685013,1.47608739 C63.1685013,1.1379306 63.0456221,0.861115683 62.8921201,0.522958893 C62.7693378,0.245949858 62.2166722,2.27373675e-13 61.6027609,2.27373675e-13 C61.2650369,2.27373675e-13 60.9580327,0.0307679973 60.5590631,0.0307679973 C59.1161049,0.0307679973 58.8089069,2.15249803 58.4712799,2.70573962 C56.1687489,6.61094583 53.5285908,11.4385125 52.177792,14.8515279 C52.0704181,15.1289251 51.9599431,15.4063224 51.8510187,15.6846902 C51.8174885,15.7026463 51.7831832,15.7221554 51.7480056,15.7433145 C50.1822652,16.665772 48.8620892,18.2954082 46.9588186,19.4024738 C46.5903749,19.6175585 45.4544208,20.4170412 44.5334084,20.4170412 C44.3184668,20.4170412 44.1343418,20.3556022 43.9500231,20.2632983 C43.6738356,20.1404204 43.3974544,19.5562167 43.3974544,19.3717058 C43.3974544,19.2179628 43.4281741,19.1872919 43.7351783,19.002684 C46.4369697,17.3730477 48.6472444,15.0361358 50.5507089,12.699224 C51.2567796,11.8383024 52.177792,10.1471302 52.177792,8.91718678 C52.177792,8.11770415 51.9016046,7.19534365 50.9497755,6.85699274 C50.2743276,6.61104289 49.5068173,6.48816502 48.8929059,6.48816502 C47.2658228,6.48816502 46.0684292,7.2260146 45.3929813,7.93319323 C44.7054199,8.66842219 44.0403412,9.42335433 43.4223597,10.2048809 C42.7766625,9.64649511 41.8660193,9.40898941 41.002764,9.40898941 C39.9896891,9.40898941 38.0862247,10.6697979 37.1037727,11.4077445 C36.9502706,11.5307195 36.8582081,11.5921584 36.7967686,11.5921584 C36.7661457,11.5921584 36.7354259,11.5614875 36.7354259,11.4999514 C36.7354259,11.4691835 36.7967686,11.1924656 36.7967686,10.7004689 C36.7967686,10.270008 36.704706,9.71657239 36.3056395,9.04006463 C36.213577,8.88622462 35.6609114,8.54797082 34.9854636,8.54797082 C34.1565136,8.54797082 33.3890033,8.94785772 33.3890033,9.37822143 C33.3890033,9.68570728 33.6651907,9.80868226 33.6651907,10.0854 C33.6651907,10.239143 33.5425053,10.9463216 33.3582834,11.6228294 C32.8362408,13.5908164 32.1915127,15.5279385 31.5160648,17.4650605 C31.1478149,18.541261 29.9197014,19.4945836 29.9197014,20.6629911 C29.9197014,21.0318188 30.1653629,21.5239126 30.5030869,21.8929345 C31.0556555,22.5079062 31.3933795,22.7230881 31.8845086,22.7230881 C32.0994502,22.7230881 32.3450147,22.6616491 32.5599565,22.4771382 C33.0204626,22.0774454 33.2660272,21.6777526 33.3889064,21.1243169 C34.1870396,17.4959256 36.4895706,15.0360388 39.0376662,13.4064026 C39.897239,12.8528698 41.0640097,12.2686661 41.2175118,12.2686661 C41.3748902,12.2686661 41.6210362,12.341461 41.8691203,12.4123148 C41.1568474,13.5760633 40.5796642,14.8030949 40.2042431,16.1122393 C40.0815577,16.5427 40.0201182,16.9424899 40.0201182,17.3730477 C40.0201182,18.0801293 40.1736202,18.81827 40.4193785,19.5253516 C40.7570056,20.5093452 41.3095743,21.3702667 42.0770846,21.7699596 C43.489323,22.5080032 44.5023979,22.907696 45.4233134,22.907696 C45.9453562,22.907696 46.3444227,22.815489 46.7742091,22.5694421 C48.7921217,21.4260762 50.0293445,20.5585546 50.9225444,19.7880928 C50.947062,20.5694253 51.1008548,21.0021184 51.6556524,21.5856427 C52.2082211,22.1699435 53.0677939,22.6925142 54.203748,22.9386581 C54.3878729,22.9693291 54.5721917,23 54.7563166,23 C56.0558512,23 57.306738,21.9420468 58.2711651,20.8932172 C58.382803,21.1220845 58.5451237,21.3406635 58.7779933,21.5856427 C59.3307558,22.1699435 60.1903286,22.6925142 61.3262827,22.9386581 C61.5104076,22.9693291 61.6945326,23 61.8788514,23 C63.401274,23 64.8565395,21.5482747 65.8631216,20.3599699 C66.1986166,21.0551132 67.1362003,21.7421034 68.2644987,22.2928214 C68.5715027,22.4465643 68.9399465,22.5387712 69.2776704,22.5387712 C70.5977494,22.5387712 71.5494816,21.4625708 72.2862722,20.6631851 C74.1898335,18.5722231 75.2336282,15.9893614 76.0317614,12.729992 C76.093201,12.4840421 76.1853604,12.3917381 76.3081426,12.3917381 C76.6151468,12.3917381 77.0142134,12.3917381 77.4440967,12.3302991 C78.2729497,12.2073242 78.9176778,11.9304123 79.6851881,11.8075344 C80.1456943,11.7153274 80.0842547,11.5616816 80.514138,11.4079387 C80.8211422,11.2849637 81.0667067,11.1618918 81.0667067,10.8544059 C81.0667067,10.3317382 80.1150715,9.7782054 78.6721132,9.7782054 C77.5361591,9.7782054 76.8607113,9.87041232 76.4002051,9.87041232 C75.6941343,9.87041232 75.5099125,9.65523051 75.0493093,8.45605507 C75.0493093,8.45605507 75.5099125,9.65523051 75.0493093,8.45605507 C74.9572469,8.2101052 74.8651844,8.08703322 74.588997,7.84108336 C73.944172,7.28764764 73.1460388,7.10313673 72.5013107,7.10313673 C70.9662901,7.10313673 69.6460172,8.67143105 68.7250048,9.99358138 C68.5101601,10.3010672 68.2031559,10.5470171 67.9882143,10.885271 C66.7235666,12.785219 65.5127027,14.9278169 65.3633676,17.2371638 L65.3636584,17.2368727 Z M26.1130634,6.76468875 C26.8805737,6.76468875 27.3103601,6.70315276 27.4025195,6.70315276 C27.494582,6.70315276 27.5560216,6.73392076 27.5560216,6.82622475 C27.5560216,6.88766368 27.5253018,6.97996767 27.3103601,7.44119646 C25.4375187,11.4691835 24.1482563,15.5588035 23.0122054,20.0787873 C22.9814855,20.2018594 22.8894231,20.6630881 22.8894231,21.1243169 C22.8894231,21.5547777 23.0122054,22.0160065 23.4419918,22.2618592 C24.2709417,22.7539531 24.9463895,22.969232 25.4068958,22.969232 C26.0823436,22.969232 26.4199707,22.5386741 26.4199707,21.8314955 C26.4199707,21.2165238 26.4506904,20.5706871 26.5427529,20.0787873 C27.4023257,15.5587065 28.6916849,12.0228133 30.6872118,8.33288601 C31.6388471,6.58017783 31.7617263,6.4879709 31.7617263,6.33422797 C31.7617263,6.27278904 31.7310065,6.18058211 31.6696638,6.08827812 C32.8976804,5.81165732 34.3712615,5.62704933 35.7220602,5.62704933 C35.8755623,5.62704933 36.4895706,5.84232825 36.581633,5.93453519 C36.7965748,6.14981411 37.0115164,6.36509303 37.3799601,6.36509303 C37.6869642,6.36509303 38.2088132,6.14981411 38.393035,6.02683918 C38.8228214,5.71935333 39.0377631,5.38109948 39.0377631,4.82766377 C39.0377631,4.304899 37.103482,3.01341959 35.7527801,3.01341959 C34.0948802,3.01341959 32.5906762,3.22869851 31.1783409,3.50551343 C30.5643326,3.62839129 28.3538641,3.96654808 26.7574038,3.96654808 C25.2223831,3.96654808 25.3144457,3.75146328 24.6698145,3.75146328 C24.3015646,3.75146328 24.1172458,3.93587715 23.9637437,4.08962007 C23.8102417,4.243363 23.7181792,4.85833471 23.7181792,5.41186747 C23.7181792,5.68848827 23.7181792,5.90396131 23.8716812,6.08837518 C24.3321874,6.64181088 25.222577,6.76488287 26.1127727,6.76488287 C26.1127727,6.76488287 25.2224801,6.76488287 26.1127727,6.76488287 L26.1130634,6.76468875 Z M48.8621862,9.25524653 C48.8621862,9.53206144 48.7699298,9.71657239 48.401583,10.300776 C48.0333331,10.8850769 48.1867383,10.8850769 47.7261351,11.4999514 C46.8359394,12.6991269 45.7308021,13.8983023 44.2878439,15.2205497 C43.8885835,15.5895715 43.8273377,15.5895715 43.7658981,15.5895715 C43.7351783,15.5895715 43.6738356,15.5588035 43.6738356,15.4973646 C43.6738356,15.4051577 43.7044585,15.2820857 44.0114626,14.636443 C44.9630979,12.6376879 46.1298687,11.3154406 47.4192279,10.0241553 C48.1253956,9.3167825 48.555182,9.07083262 48.7086841,9.07083262 C48.8007465,9.07083262 48.8620892,9.1016006 48.8620892,9.25524653 C48.8620892,9.25524653 48.8620892,9.1016006 48.8620892,9.25524653 L48.8621862,9.25524653 Z M72.4706879,10.0548262 C72.5014077,10.0548262 72.5321274,10.0854972 72.5627503,10.1470331 C72.5934701,10.2392401 72.6548128,10.331447 72.8084117,10.454519 C72.9311941,10.5467259 72.9311941,10.9772838 72.9311941,11.3154406 C72.9311941,14.2980922 71.2426713,16.757979 69.5849653,19.2486337 C69.2164246,19.8020695 69.0015799,19.8943735 68.8174549,19.8943735 C68.663856,19.8943735 68.4181945,19.4944866 68.326132,19.2486337 C68.2033497,18.9103799 68.1726299,18.5106871 68.1726299,18.3569442 C68.1726299,15.9585934 70.4444411,12.391641 71.9487421,10.423751 C72.1944035,10.0854972 72.3786253,10.0549233 72.4706879,10.0549233 C72.4706879,10.0549233 72.3786253,10.0549233 72.4706879,10.0549233 L72.4706879,10.0548262 Z" id="Shape"></path>
                            </g>
                        </g>
                    </g>
                </g>
            </g>
        </g>
    </g>
</svg>