<?xml version="1.0" encoding="UTF-8"?>
<svg width="200px" height="80px" viewBox="0 0 200 80" version="1.1" xmlns="http://www.w3.org/2000/svg" xmlns:xlink="http://www.w3.org/1999/xlink">
    <!-- Generator: Sketch 51.3 (57544) - http://www.bohemiancoding.com/sketch -->
    <title>Gitlab</title>
    <desc>Created with Sketch.</desc>
    <defs></defs>
    <g id="Final" stroke="none" stroke-width="1" fill="none" fill-rule="evenodd">
        <g id="Artboard-2" transform="translate(-1583.000000, -198.000000)" fill-rule="nonzero">
            <g id="Gitlab" transform="translate(1583.000000, 198.000000)">
                <rect id="SHAPE-OF-BOX" fill="#FFFFFF" x="0" y="0" width="200" height="80"></rect>
                <polygon id="Fill-2" fill="#8C929D" points="126.153179 32.8733216 124.238209 32.8733216 124.24429 47.126655 131.991191 47.126655 131.991191 45.3640819 126.159261 45.3640819"></polygon>
                <path d="M139.367764,44.6241754 C138.889051,45.1246433 138.083904,45.6252281 136.995834,45.6252281 C135.537823,45.6252281 134.950337,44.9070994 134.950337,43.9713099 C134.950337,42.556924 135.929518,41.8823041 138.018641,41.8823041 C138.410337,41.8823041 139.041331,41.9258129 139.367764,41.991076 L139.367764,44.6241754 Z M137.38753,35.9851111 C135.841097,35.9851111 134.422735,36.5332982 133.315951,37.4458129 L133.992793,38.6182105 C134.776185,38.1612515 135.733729,37.7041754 137.104606,37.7041754 C138.67139,37.7041754 139.367764,38.5094386 139.367764,39.8585614 L139.367764,40.5549357 C139.063086,40.4896725 138.432092,40.4460468 138.040396,40.4460468 C134.689168,40.4460468 132.991858,41.6211345 132.991858,44.0801988 C132.991858,46.2779766 134.34098,47.3878012 136.386478,47.3878012 C137.764372,47.3878012 139.08484,46.7566901 139.541799,45.734 L139.889986,47.1266316 L141.239226,47.1266316 L141.239226,39.836807 C141.239226,37.5301404 140.238173,35.9851111 137.38753,35.9851111 Z" id="Fill-3" fill="#8C929D"></path>
                <path d="M147.41801,45.6904444 C146.699881,45.6904444 146.06877,45.6034269 145.590056,45.3857661 L145.590056,39.4776959 L145.590056,38.7923158 C146.242922,38.2482222 147.048068,37.8565263 148.070875,37.8565263 C149.920466,37.8565263 150.638595,39.1621404 150.638595,41.2730175 C150.638595,44.2759415 149.485261,45.6904444 147.41801,45.6904444 M148.222805,35.9850643 C146.511343,35.9850643 145.590056,37.1493918 145.590056,37.1493918 L145.590056,35.3105614 L145.583975,32.8733684 L144.720583,32.8733684 L143.71263,32.8733684 L143.718711,46.7785146 C144.654384,47.1702105 145.938244,47.3877544 147.330992,47.3877544 C150.899764,47.3877544 152.618828,45.1029591 152.618828,41.1642456 C152.618828,38.0524327 151.02994,35.9850643 148.222805,35.9850643" id="Fill-5" fill="#8C929D"></path>
                <path d="M105.336887,34.4183509 C107.034197,34.4183509 108.122267,34.9840819 108.840396,35.5499298 L109.66332,34.1244327 C108.541682,33.140807 107.033027,32.612152 105.423904,32.612152 C101.354665,32.612152 98.5040214,35.0929708 98.5040214,40.097883 C98.5040214,45.3423275 101.579343,47.3878246 105.097472,47.3878246 C106.860162,47.3878246 108.361682,46.9743743 109.340864,46.560924 L109.300747,40.9575322 L109.300747,40.2964795 L109.300747,39.1948421 L104.078173,39.1948421 L104.078173,40.9575322 L107.40753,40.9575322 L107.447647,45.2116842 C107.012442,45.429345 106.250805,45.6033801 105.228115,45.6033801 C102.399226,45.6033801 100.50601,43.823848 100.50601,40.0761287 C100.50601,36.2680585 102.464489,34.4183509 105.336887,34.4183509" id="Fill-7" fill="#8C929D"></path>
                <path d="M118.804162,32.8733216 L116.9327,32.8733216 L116.938782,35.2670058 L116.938782,36.2463041 L116.938782,36.8170643 L116.938782,37.8130877 L116.938782,43.5143743 L116.938782,43.5361287 C116.938782,45.8427953 117.939834,47.3878246 120.790478,47.3878246 C121.184279,47.3878246 121.569659,47.3520351 121.943811,47.2840819 L121.943811,45.6034971 C121.672934,45.6450175 121.383811,45.6686433 121.073402,45.6686433 C119.506618,45.6686433 118.810244,44.8634971 118.810244,43.5143743 L118.810244,37.8130877 L121.943811,37.8130877 L121.943811,36.2463041 L118.810244,36.2463041 L118.804162,32.8733216 Z" id="Fill-9" fill="#8C929D"></path>
                <polygon id="Fill-11" fill="#8C929D" points="112.184068 47.1266667 114.05553 47.1266667 114.05553 36.2461988 112.184068 36.2461988"></polygon>
                <polygon id="Fill-13" fill="#8C929D" points="112.184068 34.7447953 114.05553 34.7447953 114.05553 32.8733333 112.184068 32.8733333"></polygon>
                <g id="FOX" transform="translate(43.000000, 23.000000)">
                    <polygon id="Fill-14" fill="#E24329" points="19.5823141 34.9109444 19.5823141 34.9109444 26.5427088 13.4891023 12.6219193 13.4891023"></polygon>
                    <polygon id="Fill-16" fill="#FC6D26" points="19.5823141 34.9109035 12.6219193 13.4891637 2.8670509 13.4891637"></polygon>
                    <path d="M2.8670509,13.489133 L0.751802359,19.9990307 C0.558893003,20.5928026 0.770223412,21.2432705 1.27536961,21.6101564 L19.5823141,34.9108728 L2.8670509,13.489133 Z" id="Fill-18" fill="#FCA326"></path>
                    <path d="M2.8670509,13.4891535 L12.6219193,13.4891535 L8.4296971,0.586945906 C8.2139661,-0.0769283626 7.27479944,-0.0769283626 7.05917078,0.586945906 L2.8670509,13.4891535 Z" id="Fill-20" fill="#E24329"></path>
                    <polygon id="Fill-21" fill="#FC6D26" points="19.5823141 34.9109035 26.5427088 13.4891637 36.2975772 13.4891637"></polygon>
                    <path d="M36.297567,13.489133 L38.4128155,19.9990307 C38.6057249,20.5928026 38.3943945,21.2432705 37.8892483,21.6101564 L19.5823038,34.9108728 L36.297567,13.489133 Z" id="Fill-22" fill="#FCA326"></path>
                    <path d="M36.297567,13.4891535 L26.5426986,13.4891535 L30.7349208,0.586945906 C30.9506518,-0.0769283626 31.8898184,-0.0769283626 32.1054471,0.586945906 L36.297567,13.4891535 Z" id="Fill-23" fill="#E24329"></path>
                </g>
            </g>
        </g>
    </g>
</svg>