<?xml version="1.0" encoding="UTF-8"?>
<svg width="200px" height="80px" viewBox="0 0 200 80" version="1.1" xmlns="http://www.w3.org/2000/svg" xmlns:xlink="http://www.w3.org/1999/xlink">
    <!-- Generator: Sketch 51.3 (57544) - http://www.bohemiancoding.com/sketch -->
    <title>Bitbucket</title>
    <desc>Created with Sketch.</desc>
    <defs>
        <linearGradient x1="108.63338%" y1="13.818022%" x2="46.9265964%" y2="78.7761408%" id="linearGradient-1">
            <stop stop-color="#0052CC" offset="18%"></stop>
            <stop stop-color="#2684FF" offset="100%"></stop>
        </linearGradient>
    </defs>
    <g id="Final" stroke="none" stroke-width="1" fill="none" fill-rule="evenodd">
        <g id="Artboard-2" transform="translate(-923.000000, -198.000000)">
            <g id="Bitbucket" transform="translate(923.000000, 198.000000)">
                <rect id="SHAPE-OF-BOX" fill="#FFFFFF" fill-rule="nonzero" x="0" y="0" width="200" height="80"></rect>
                <g transform="translate(31.000000, 30.000000)" id="Shape">
                    <path d="M36.5060643,1.43125 C40.1880313,1.43125 41.974363,3.246875 41.974363,6.1625 C41.974363,8.35 40.9843854,9.68125 38.9513401,10.178125 C41.6183458,10.61875 42.9362339,12.075 42.9362339,14.63125 C42.9362339,17.51875 40.9843854,19.5 36.9464014,19.5 L29.4981477,19.5 L29.4981477,1.43125 L36.5060643,1.43125 Z M31.97153,3.796875 L31.97153,9.184375 L36.1750308,9.184375 C38.5110031,9.184375 39.472874,8.1125 39.472874,6.371875 C39.472874,4.63125 38.4298062,3.7875 36.1750308,3.7875 L31.97153,3.796875 Z M31.97153,11.3875 L31.97153,17.0125 L37.0275983,17.0125 C39.3916771,17.0125 40.4628515,16.159375 40.4628515,14.34375 C40.4628515,12.41875 39.4447674,11.375 36.974508,11.375 L31.97153,11.3875 Z" fill="#253858" fill-rule="nonzero"></path>
                    <path d="M46.9773409,0.46875 C47.42369,0.436788822 47.8619154,0.600335988 48.1783389,0.916966491 C48.4947625,1.23359699 48.6582028,1.67210894 48.6262625,2.11875 C48.6262625,3.03001984 47.8880151,3.76875 46.9773409,3.76875 C46.0666667,3.76875 45.3284193,3.03001984 45.3284193,2.11875 C45.296479,1.67210894 45.4599193,1.23359699 45.7763429,0.916966491 C46.0927664,0.600335988 46.5309918,0.436788822 46.9773409,0.46875 Z M45.7687563,5.75 L48.1328352,5.75 L48.1328352,19.5 L45.7687563,19.5 L45.7687563,5.75 Z" fill="#253858" fill-rule="nonzero"></path>
                    <path d="M57.1581824,17.1875 C57.6578705,17.1725809 58.1548135,17.1076744 58.6415872,16.99375 L58.6415872,19.275 C58.1237321,19.4231006 57.5874604,19.4967547 57.0488789,19.49375 C54.1070529,19.49375 52.6767384,17.7625 52.6767384,15.203125 L52.6767384,7.946875 L50.4500697,7.946875 L50.4500697,5.759375 L52.6767384,5.759375 L52.6767384,2.83125 L54.9721121,2.83125 L54.9721121,5.746875 L58.6259724,5.746875 L58.6259724,7.934375 L54.9721121,7.934375 L54.9721121,15.153125 C54.9721121,16.3625 55.6872694,17.1875 57.1581824,17.1875 Z" fill="#253858" fill-rule="nonzero"></path>
                    <path d="M68.3852147,19.771875 C66.3802759,19.771875 64.8406579,18.865625 64.0130741,17.078125 L64.0130741,19.496875 L61.6489953,19.496875 L61.6489953,0 L64.0286889,0 L64.0286889,8.221875 C64.909363,6.40625 66.5582845,5.471875 68.6725268,5.471875 C72.3263871,5.471875 74.168932,8.578125 74.168932,12.621875 C74.1564402,16.5 72.2326983,19.771875 68.3852147,19.771875 Z M68.0260746,7.671875 C65.9024634,7.671875 64.0286889,9.01875 64.0286889,12.071875 L64.0286889,13.171875 C64.0286889,16.225 65.7588074,17.571875 67.776238,17.571875 C70.4432437,17.571875 71.817345,15.8125 71.817345,12.621875 C71.7923613,9.321875 70.4744733,7.671875 68.0260746,7.671875 Z" fill="#253858" fill-rule="nonzero"></path>
                    <path d="M76.6298225,5.746875 L78.9939014,5.746875 L78.9939014,14.0625 C78.9939014,16.5375 79.9838789,17.6375 82.2355313,17.6375 C84.4216015,17.6375 85.9456048,16.18125 85.9456048,13.403125 L85.9456048,5.746875 L88.3096836,5.746875 L88.3096836,19.496875 L85.9456048,19.496875 L85.9456048,17.240625 C85.0874725,18.8321648 83.411534,19.8094295 81.6046938,19.771875 C78.4442608,19.771875 76.6298225,17.584375 76.6298225,13.803125 L76.6298225,5.746875 Z" fill="#253858" fill-rule="nonzero"></path>
                    <path d="M101.582253,19.140625 C100.757792,19.58125 99.4929945,19.765625 98.2281967,19.765625 C93.3376452,19.765625 91.0453944,16.796875 91.0453944,12.578125 C91.0453944,8.425 93.3251534,5.45625 98.2281967,5.45625 C99.3577958,5.42319296 100.479523,5.65431933 101.504179,6.13125 L101.504179,8.31875 C100.527681,7.86288668 99.458329,7.64138606 98.3812216,7.671875 C94.8085582,7.671875 93.35326,9.925 93.35326,12.59375 C93.35326,15.2625 94.8366648,17.515625 98.4374349,17.515625 C99.4998566,17.5438441 100.558418,17.3764821 101.560392,17.021875 L101.582253,19.140625 Z" fill="#253858" fill-rule="nonzero"></path>
                    <polygon fill="#253858" fill-rule="nonzero" points="104.277365 19.496875 104.277365 0 106.641444 0 106.641444 12.1875 112.55008 5.753125 115.629316 5.753125 109.167917 12.5 115.901013 19.496875 112.684367 19.496875 106.638321 13.0625 106.638321 19.496875"></polygon>
                    <path d="M123.733391,19.771875 C118.593003,19.771875 116.34135,16.803125 116.34135,12.584375 C116.34135,8.43125 118.649216,5.4625 122.827733,5.4625 C127.05934,5.4625 128.761352,8.40625 128.761352,12.584375 L128.761352,13.65625 L118.730413,13.65625 C119.061446,15.99375 120.572958,17.50625 123.814588,17.50625 C125.240006,17.5059511 126.654308,17.255272 127.993105,16.765625 L127.993105,18.953125 C126.865717,19.553125 125.135599,19.771875 123.733391,19.771875 Z M118.705429,11.646875 L126.37229,11.646875 C126.23488,9.090625 125.079385,7.63125 122.71843,7.63125 C120.213818,7.61875 118.952143,9.240625 118.705429,11.63125 L118.705429,11.646875 Z" fill="#253858" fill-rule="nonzero"></path>
                    <path d="M137.00596,17.1875 C137.505648,17.1725809 138.002591,17.1076744 138.489365,16.99375 L138.489365,19.275 C137.97151,19.4231006 137.435238,19.4967547 136.896657,19.49375 C133.954831,19.49375 132.524516,17.7625 132.524516,15.203125 L132.524516,7.946875 L130.297847,7.946875 L130.297847,5.759375 L132.524516,5.759375 L132.524516,2.83125 L134.832382,2.83125 L134.832382,5.746875 L138.486242,5.746875 L138.486242,7.934375 L134.832382,7.934375 L134.832382,15.153125 C134.835505,16.3625 135.544416,17.1875 137.00596,17.1875 Z" fill="#253858" fill-rule="nonzero"></path>
                    <polygon points="7.72176492 13.596875 11.7972245 13.596875 12.7809561 7.85 6.63809866 7.85"></polygon>
                    <path d="M0.632651355,1.95625 C0.448135951,1.95386865 0.272011942,2.03325392 0.151524503,2.17311076 C0.0310370651,2.3129676 -0.0214804146,2.49897991 0.00805985158,2.68125 L2.65945078,18.7875 C2.72764059,19.1943423 3.07791661,19.4934575 3.49015748,19.496875 L16.2099634,19.496875 C16.5193816,19.50086 16.7850696,19.2775361 16.8345549,18.971875 L19.4859459,2.684375 C19.5154861,2.50210491 19.4629687,2.3160926 19.3424812,2.17623576 C19.2219938,2.03637892 19.0458698,1.95699365 18.8613544,1.959375 L0.632651355,1.95625 Z M11.7972245,13.596875 L7.7373797,13.596875 L6.63809866,7.85 L12.7809561,7.85 L11.7972245,13.596875 Z" fill="#2684FF" fill-rule="nonzero"></path>
                    <path d="M18.6427474,7.85 L12.7809561,7.85 L11.7972245,13.596875 L7.7373797,13.596875 L2.94363992,19.290625 C3.09558029,19.4220946 3.28929748,19.4952014 3.49015748,19.496875 L16.2130864,19.496875 C16.5225045,19.50086 16.7881925,19.2775361 16.8376779,18.971875 L18.6427474,7.85 Z" fill="url(#linearGradient-1)" fill-rule="nonzero"></path>
                </g>
            </g>
        </g>
    </g>
</svg>