<?xml version="1.0" encoding="UTF-8"?>
<svg width="200px" height="80px" viewBox="0 0 200 80" version="1.1" xmlns="http://www.w3.org/2000/svg" xmlns:xlink="http://www.w3.org/1999/xlink">
    <!-- Generator: Sketch 51.3 (57544) - http://www.bohemiancoding.com/sketch -->
    <title>Asana</title>
    <desc>Created with Sketch.</desc>
    <defs>
        <radialGradient cx="0%" cy="54.652%" fx="0%" fy="54.652%" r="72.3405588%" gradientTransform="translate(0.000000,0.546520),scale(0.915987,1.000000),translate(-0.000000,-0.546520)" id="radialGradient-1">
            <stop stop-color="#FFB900" offset="0%"></stop>
            <stop stop-color="#F95D8F" offset="60%"></stop>
            <stop stop-color="#F95353" offset="99.91%"></stop>
        </radialGradient>
    </defs>
    <g id="Final" stroke="none" stroke-width="1" fill="none" fill-rule="evenodd">
        <g id="Artboard-2" transform="translate(-1143.000000, -198.000000)" fill-rule="nonzero">
            <g id="Asana" transform="translate(1143.000000, 198.000000)">
                <rect id="SHAPE-OF-BOX" fill="#FFFFFF" x="0" y="0" width="200" height="80"></rect>
                <path d="M67.4424534,49.1121409 C64.8307838,49.1121409 62.713833,46.9761425 62.713833,44.3407563 C62.713833,41.7056757 64.8307838,39.5693717 67.442763,39.5693717 C70.0544325,39.5693717 72.1710737,41.7056757 72.1710737,44.3407563 C72.1710737,46.9761425 70.0544325,49.1121409 67.442763,49.1121409 L67.4424534,49.1121409 Z M72.1862434,49.7172742 C72.1862434,50.154315 72.9447297,51.3816965 73.8741077,51.3816965 L74.4759433,51.3816965 C74.7093714,51.3816965 74.9000765,51.1931272 74.9000765,50.9629931 L74.9000765,37.905255 L74.8979094,37.905255 C74.8857714,37.6837121 74.7006857,37.5099776 74.4759433,37.5091677 L72.6109958,37.5091677 C72.3853074,37.5091677 72.2011036,37.6855122 72.1884105,37.905255 L72.1862434,37.905255 L72.1862434,38.9663777 C71.0438702,37.577016 69.2420782,37.0003056 67.4353329,37.0003056 C63.3286713,37.0003056 60,40.2866686 60,44.3410619 C60,48.3954552 63.3286713,51.6818182 67.4353329,51.6818182 C69.2420782,51.6818182 71.2110468,50.989888 72.1862434,49.7157461 L72.1862434,49.7178855 L72.1862434,49.7172742 Z M79.3562609,47.8474734 C80.6011072,48.6986331 81.9601909,49.1121409 83.2660256,49.1121409 C84.5105624,49.1121409 85.796274,48.4752228 85.796274,47.3670342 C85.796274,45.8878194 82.9935897,45.6573797 81.2329728,45.0666107 C79.471427,44.4758416 77.9544544,43.2542669 77.9544544,41.2762755 C77.9544544,38.2499976 80.6862434,37 83.2359958,37 C84.8514168,37 86.5179196,37.5256714 87.5986852,38.2793374 C87.9711174,38.5574543 87.7441907,38.8774414 87.7441907,38.8774414 L86.7126493,40.3315952 C86.5968641,40.495409 86.3566251,40.6262156 86.103074,40.4596512 C85.4080529,40.0061068 84.6340873,39.569066 83.2356862,39.569066 C81.5047895,39.569066 80.7435169,40.2784168 80.7435169,41.1573882 C80.7435169,42.2117872 81.9611196,42.5430824 83.3873834,42.9024949 C85.873361,43.5635573 88.5853365,44.3590937 88.5853365,47.3673398 C88.5853365,50.0338995 86.0584936,51.6818182 83.2660256,51.6818182 C81.1500036,51.6818182 79.3482117,51.0861592 77.8371212,49.9917236 C77.5225816,49.6805995 77.7423878,49.3917858 77.7423878,49.3917858 L78.7686662,47.9449671 C78.9776369,47.6741852 79.2407853,47.7689283 79.3562609,47.8474734 Z M102.572134,49.7175798 C102.572134,50.154315 103.33031,51.3816965 104.259379,51.3816965 L104.861524,51.3816965 C105.094952,51.3816965 105.285967,51.1931272 105.285967,50.9629931 L105.285967,37.905255 L105.28349,37.905255 C105.27105,37.6838497 105.086142,37.510282 104.861524,37.5091677 L102.996576,37.5091677 C102.770578,37.5091677 102.586684,37.6855122 102.574301,37.905255 L102.572134,37.905255 L102.572134,38.9663777 C101.429451,37.577016 99.6276588,37.0003056 97.821223,37.0003056 C93.7145615,37.0003056 90.385271,40.2866686 90.385271,44.3407563 C90.385271,48.394844 93.7145615,51.6815126 97.821223,51.6815126 C99.6276588,51.6815126 101.596627,50.9895823 102.571824,49.7154405 L102.571824,49.7175798 L102.572134,49.7175798 Z M97.8283435,49.1124465 C95.2163644,49.1124465 93.0994136,46.9761425 93.0994136,44.3407563 C93.0994136,41.7056757 95.2163644,39.5693717 97.8283435,39.5693717 C100.439704,39.5693717 102.556964,41.7056757 102.556964,44.3407563 C102.556964,46.9761425 100.439704,49.1121409 97.8283435,49.1121409 L97.8283435,49.1124465 Z M121.995575,50.1662343 L121.994956,43.4098289 C121.994956,39.6011564 119.560988,37.0314792 115.679396,37.0314792 C113.826832,37.0314792 112.311098,38.08924 111.774585,38.9978569 L111.774585,38.9850207 L111.771489,38.9954119 C111.770251,38.0760982 111.01486,37.5406469 110.083625,37.5406469 L109.484885,37.5406469 C109.251147,37.5406469 109.060442,37.7295218 109.060442,37.9599615 L109.060442,51.0180053 L109.062919,51.0180053 C109.074993,51.2380537 109.259506,51.4143981 109.484885,51.4143981 L111.349832,51.4143981 C111.378314,51.4143981 111.406487,51.4110363 111.433421,51.4061463 C111.445804,51.4033957 111.457259,51.3985058 111.469333,51.3951439 C111.483574,51.3911708 111.497815,51.387809 111.510817,51.3823077 C111.527845,51.375584 111.542705,51.3664154 111.558184,51.3578579 C111.565614,51.3532736 111.573663,51.3502173 111.581093,51.345633 C111.5994,51.3332269 111.616781,51.3195407 111.633104,51.3046795 C111.63589,51.3019289 111.639296,51.3000952 111.641772,51.2976502 C111.719808,51.2243249 111.766352,51.1242237 111.771799,51.0180053 L111.774585,51.0180053 L111.774585,43.3050003 C111.774585,41.2594663 113.4544,39.6008508 115.52677,39.6008508 C117.598831,39.6008508 119.278955,41.2594663 119.278955,43.3050003 L119.280194,49.7524209 L119.280813,49.7499759 C119.280813,49.7557827 119.282051,49.7618952 119.282051,49.767702 L119.282051,51.0180053 L119.284528,51.0180053 C119.296911,51.2380537 119.480806,51.4143981 119.706494,51.4143981 L121.571442,51.4143981 C121.600233,51.4143981 121.627786,51.4110363 121.65503,51.4061463 C121.666175,51.4037013 121.676391,51.399117 121.686917,51.396672 C121.702397,51.3920877 121.717876,51.3881146 121.732736,51.3823077 C121.747906,51.3761953 121.761837,51.3673322 121.776078,51.359386 C121.785056,51.3548017 121.794344,51.3511342 121.802703,51.345633 C121.820039,51.3340193 121.835828,51.3208775 121.851308,51.3074301 C121.855332,51.3043739 121.859666,51.3013177 121.863691,51.2973446 C121.881028,51.2808409 121.896507,51.2625036 121.911058,51.243555 C121.960094,51.1783143 121.98872,51.1003344 121.993408,51.0192277 L121.993717,51.0180053 L121.995884,51.0180053 L121.995884,50.1662343 L121.995575,50.1662343 Z M136.540246,49.7175798 C136.540246,50.154315 137.297804,51.3816965 138.227491,51.3816965 L138.829637,51.3816965 C139.062755,51.3816965 139.254079,51.1931272 139.254079,50.9629931 L139.254079,37.905255 L139.251912,37.905255 C139.239315,37.6838013 139.054313,37.5102727 138.829637,37.5091677 L136.964999,37.5091677 C136.740137,37.5098159 136.554868,37.6835947 136.542723,37.905255 L136.540246,37.905255 L136.540246,38.9663777 C135.396944,37.577016 133.595771,37.0003056 131.788716,37.0003056 C127.682674,37.0003056 124.353384,40.2866686 124.353384,44.3407563 C124.353384,48.394844 127.682674,51.6815126 131.788716,51.6815126 C133.595771,51.6815126 135.56443,50.9895823 136.539317,49.7154405 L136.540246,49.7175798 Z M131.796766,49.1124465 C129.184787,49.1124465 127.067836,46.9761425 127.067836,44.3407563 C127.067836,41.7056757 129.184787,39.5693717 131.796766,39.5693717 C134.407507,39.5693717 136.524457,41.7056757 136.524457,44.3407563 C136.524457,46.9761425 134.407507,49.1121409 131.796766,49.1121409 L131.796766,49.1124465 Z" id="Shape" fill="#283343"></path>
                <path d="M108.104927,15.3180218 C104.55802,15.3180218 101.683213,18.1669326 101.683213,21.6812846 C101.683213,25.195939 104.55802,28.0454545 108.104927,28.0454545 C111.651223,28.0454545 114.52603,25.195939 114.52603,21.6812846 C114.52603,18.1669326 111.651223,15.3180218 108.104927,15.3180218 Z M91.421408,15.3183241 C87.8751116,15.3186264 85,18.1669326 85,21.681587 C85,25.195939 87.8751116,28.0451522 91.421408,28.0451522 C94.9680095,28.0451522 97.8431212,25.195939 97.8431212,21.681587 C97.8431212,18.1669326 94.9680095,15.3183241 91.4211029,15.3183241 L91.421408,15.3183241 Z M106.184423,7.36356523 C106.184423,10.8779173 103.309616,13.7277351 99.7633198,13.7277351 C96.2164133,13.7277351 93.3416067,10.8779173 93.3416067,7.36356523 C93.3416067,3.84921316 96.2164133,1 99.7633198,1 C103.309616,1 106.184118,3.84921316 106.184118,7.36356523 L106.184423,7.36356523 Z" id="Shape" fill="url(#radialGradient-1)"></path>
            </g>
        </g>
    </g>
</svg>