<svg width="120" height="60" viewBox="0 0 120 60" fill="none" xmlns="http://www.w3.org/2000/svg">
<path d="M44.3261 22.3833C45.2023 22.3833 45.9604 22.0769 46.5997 21.4645C47.1687 20.9225 47.4647 20.3567 47.4884 19.7669C47.5114 19.3672 47.3577 18.9727 47.0264 18.5834C46.6942 18.1952 46.2801 18 45.7828 18C44.9294 18 44.1538 18.2834 43.4551 18.8482C42.7564 19.414 42.3951 20.0038 42.3724 20.6163C42.3244 21.7946 42.9765 22.3833 44.3261 22.3833V22.3833ZM94.6298 26.0461C93.7766 24.9352 92.5212 24.3786 90.8642 24.3786C88.2821 24.3786 86.1394 25.3244 84.4346 27.2159C82.8462 28.9185 82.1122 30.7874 82.2317 32.8212C82.2395 32.9707 82.2529 33.1164 82.2684 33.2604C82.1795 33.2991 82.0931 33.3379 82.0018 33.3766C79.9877 34.2445 78.1284 34.6775 76.4236 34.6775C75.5702 34.6775 74.9307 34.3825 74.5051 33.7919C76.8015 33.4141 78.7088 32.5285 80.2256 31.1342C81.6459 29.8582 82.3092 28.6176 82.2147 27.4132C82.0724 25.5236 80.8413 24.5779 78.5198 24.5779C76.0095 24.5779 73.8303 25.5257 71.9832 27.4193C70.3015 29.149 69.448 30.972 69.4252 32.8897C69.4187 33.2 69.4347 33.5104 69.4733 33.8183C69.076 34.0801 68.7752 34.2123 68.5729 34.2123C68.1222 34.2123 67.8389 34.1189 67.7205 33.93C67.6023 33.741 67.5545 33.3993 67.5782 32.9032C67.5782 32.7142 67.7257 31.9897 68.0227 30.7273C68.3187 29.4648 68.4784 28.5034 68.5024 27.842C68.549 26.8755 68.3589 26.132 67.9334 25.613C67.436 24.9755 66.619 24.7046 65.4822 24.7991C64.5355 24.8708 63.6227 25.2257 62.7466 25.8653C62.2254 26.2443 61.6929 26.753 61.1488 27.3925C60.9587 27.5587 60.7813 27.7134 60.6151 27.8545C60.638 26.8839 60.4489 26.1373 60.0472 25.6162C59.5489 24.9766 58.7203 24.7046 57.5596 24.7991C56.2098 24.9174 54.9899 25.4511 53.9009 26.3978C53.4264 26.8006 53.0122 27.2751 52.6572 27.8192C52.7039 27.6064 52.7278 27.3811 52.7278 27.1444C52.7278 26.4104 52.5377 25.7646 52.1589 25.2081C51.78 24.6516 51.2827 24.3972 50.6669 24.445C50.3119 24.4689 49.6371 24.9425 48.6424 25.8653C47.2679 27.1444 46.5224 27.8317 46.4041 27.9251L47.2563 28.8843C47.9197 28.4057 48.3225 28.1659 48.4648 28.1659C48.7244 28.1659 48.8313 28.3787 48.7847 28.8035C48.7617 29.418 48.6528 30.2735 48.4576 31.3719C48.3366 32.0525 48.2494 32.6398 48.1948 33.1345L48.1634 33.1608C47.31 33.8626 46.7183 34.2124 46.387 34.2124C45.6291 34.2124 45.2616 33.7059 45.2855 32.6905C45.6405 30.473 45.9729 28.6447 46.2812 27.2047C46.3747 26.3555 46.2385 25.6661 45.8721 25.1345C45.5046 24.6029 44.9305 24.3735 44.1498 24.4441C43.6515 24.4919 42.8935 24.9652 41.8751 25.8653C41.5214 26.1861 41.1677 26.5063 40.814 26.8266C40.7439 25.1508 39.9792 24.2886 38.5155 24.2456C36.3229 24.1751 34.8372 25.4126 34.0595 27.9604C34.4612 27.7881 34.8516 27.7008 35.2307 27.7008C36.0353 27.7008 36.3903 28.1535 36.2958 29.0568C36.2481 29.6039 35.893 30.4002 35.2307 31.4467C34.5672 32.493 34.07 33.0164 33.7387 33.0164C33.312 33.0164 32.9216 32.2107 32.5666 30.5973C32.4471 30.124 32.2344 28.9145 31.9271 26.9699C31.6427 25.1675 30.8846 24.3255 29.6534 24.4439C29.1323 24.4917 28.3504 24.9651 27.3092 25.8651C26.5448 26.5578 25.775 27.2445 25 27.9252L25.7445 28.8845C26.4535 28.3882 26.8678 28.1391 26.9862 28.1391C27.5292 28.1391 28.0368 28.9913 28.5102 30.6942L29.7872 35.3785C30.4247 37.0821 31.2054 37.9336 32.1273 37.9336C33.616 37.9336 35.436 36.535 37.5872 33.7383C39.0986 31.793 40.0768 30.1493 40.5275 28.8041C41.1242 28.3633 41.4928 28.1391 41.6268 28.1391C42.0523 28.1391 42.2663 28.4474 42.2663 29.0621C42.2663 29.1804 42.0349 30.0566 41.5727 31.6897C41.1107 33.323 40.8677 34.5304 40.8449 35.3109C40.821 36.069 41.0049 36.6835 41.3951 37.1569C41.7856 37.6304 42.3481 37.8672 43.0833 37.8672C44.6697 37.8672 46.256 37.181 47.8434 35.8083C47.9836 35.6854 48.1212 35.5597 48.2561 35.4311C48.3817 35.9623 48.5968 36.4007 48.909 36.7384C49.5922 37.4713 50.7466 37.8141 52.3725 37.7663C52.1555 37.2451 52.0703 36.3221 52.1181 34.9954C52.1887 33.5273 52.5687 32.1175 53.256 30.7678C53.9434 29.4182 54.5839 28.7424 55.1777 28.7424C55.8651 28.7424 56.1859 29.1804 56.1381 30.0566C56.1142 30.6495 55.9979 31.3243 55.7892 32.0822C55.5796 32.8402 55.4633 33.5979 55.4405 34.3558C55.3927 35.5644 55.6638 36.4282 56.2555 36.9493C56.9158 37.5411 58.0736 37.8142 59.7264 37.7664C59.4792 37.2223 59.3796 36.4405 59.4274 35.4211C59.498 33.977 59.986 32.485 60.8892 30.9454C61.7447 29.4775 62.4808 28.7425 63.0984 28.7425C63.6694 28.7425 63.9426 29.1931 63.9185 30.0922C63.8948 30.6838 63.7463 31.5125 63.474 32.5776C63.2021 33.6428 63.0536 34.5532 63.0307 35.3111C62.983 37.0159 63.7284 37.8673 65.2692 37.8673C66.8554 37.8673 68.4419 37.1811 70.0293 35.8085C70.0556 35.7854 70.08 35.7615 70.1061 35.7382C70.1607 35.8322 70.2165 35.9256 70.2774 36.0161C71.1059 37.294 72.4805 37.9336 74.3991 37.9336C76.9801 37.9336 79.5267 37.213 82.0371 35.77C82.3188 35.6112 82.586 35.4526 82.8419 35.2936C83 35.613 83.1848 35.9137 83.4036 36.1904C84.3744 37.3969 85.7956 38 87.6665 38C89.9162 38 91.7997 37.2079 93.3154 35.6236C94.8311 34.0394 95.6359 32.1591 95.7313 29.9831C95.802 28.3758 95.4355 27.0635 94.6298 26.0461V26.0461ZM73.9434 32.4372C73.9299 32.131 73.9299 31.9773 73.9434 31.9773C73.9663 31.0824 74.3452 30.1459 75.0781 29.1679C75.811 28.1899 76.5317 27.7008 77.2417 27.7008C77.7858 27.7008 78.0453 28.0196 78.0224 28.6549C77.9985 29.1262 77.6435 29.7399 76.9583 30.4935C76.107 31.3658 75.102 32.0136 73.9434 32.4372V32.4372ZM91.7166 29.849C91.669 30.9879 91.3262 32.079 90.6868 33.1234C89.9289 34.3818 89.0163 35.0098 87.951 35.0098C87.4765 35.0098 87.109 34.7493 86.8495 34.227C86.6127 33.7765 86.5059 33.2543 86.5298 32.6603C86.5765 31.4509 86.9316 30.312 87.596 29.2436C88.3766 27.9386 89.3713 27.2855 90.5798 27.2855C90.9577 27.2855 91.2484 27.5534 91.4498 28.0871C91.6513 28.6208 91.7405 29.2085 91.7166 29.849V29.849Z" fill="black"/>
</svg>
