<svg width="120" height="60" viewBox="0 0 120 60" fill="none" xmlns="http://www.w3.org/2000/svg">
<rect width="120" height="60" fill="white"/>
<path d="M84.3307 26.0833C83.4423 26.0833 83.0384 26.3256 82.2105 27.315V26.891C82.2105 26.3861 82.1499 26.3054 81.6249 26.3054H81.2008C80.696 26.3054 80.6152 26.366 80.6152 26.891V34.9682C80.6152 35.473 80.6758 35.5538 81.2008 35.5538H81.6249C82.1297 35.5538 82.2105 35.4932 82.2105 34.9682V30.6671C82.2105 29.5564 82.3316 28.8901 82.574 28.4458C82.9172 27.84 83.6442 27.517 84.3307 27.6179C84.4923 27.6381 84.6336 27.6987 84.775 27.7391C84.8356 27.7593 84.8961 27.7795 84.9567 27.7391C85.0173 27.7189 85.0577 27.6785 85.0981 27.6179C85.1789 27.4968 85.2394 27.3554 85.3202 27.2343C85.3606 27.1535 85.401 27.0727 85.4616 26.9919C85.5423 26.8102 85.6231 26.689 85.6231 26.6083C85.6231 26.3256 85.0173 26.0833 84.3307 26.0833Z" fill="#797D82"/>
<path d="M56.2443 26.0833C55.3558 26.0833 54.952 26.3256 54.1241 27.315V26.891C54.1241 26.3861 54.0635 26.3054 53.5385 26.3054H53.1144C52.6096 26.3054 52.5288 26.366 52.5288 26.891V34.9682C52.5288 35.473 52.5894 35.5538 53.1144 35.5538H53.5385C54.0433 35.5538 54.1241 35.4932 54.1241 34.9682V30.6671C54.1241 29.5564 54.2452 28.8901 54.4875 28.4458C54.8308 27.84 55.5578 27.517 56.2443 27.6179C56.4059 27.6381 56.5472 27.6987 56.6886 27.7391C56.7491 27.7593 56.8097 27.7795 56.8703 27.7391C56.9309 27.7189 56.9713 27.6785 57.0117 27.6179C57.0924 27.4968 57.153 27.3554 57.2338 27.2343C57.2742 27.1535 57.3145 27.0727 57.3751 26.9919C57.4559 26.8102 57.5367 26.689 57.5367 26.6083C57.5165 26.3256 56.9309 26.0833 56.2443 26.0833Z" fill="#797D82"/>
<path d="M60.8062 31.676C60.8062 32.5443 60.887 33.0087 61.0889 33.4125C61.3918 33.9981 62.0985 34.3414 62.8861 34.3414C63.6736 34.3414 64.3602 33.978 64.663 33.4125C64.865 33.0087 64.9457 32.5443 64.9457 31.676V26.87C64.9457 26.3652 65.0063 26.2844 65.5313 26.2844H65.9554C66.4602 26.2844 66.541 26.345 66.541 26.87V31.8577C66.541 33.2106 66.3189 33.9578 65.6929 34.6443C65.0265 35.3915 64.0169 35.7953 62.8861 35.7953C61.7351 35.7953 60.7254 35.3915 60.059 34.6443C59.4331 33.9578 59.2109 33.2308 59.2109 31.8577V26.87C59.2109 26.3652 59.2715 26.2844 59.7965 26.2844H60.2206C60.7254 26.2844 60.8062 26.345 60.8062 26.87V31.676V31.676Z" fill="#797D82"/>
<path d="M70.722 27.6174C71.6307 26.5674 72.6202 26.103 73.9529 26.103C76.4972 26.103 78.355 28.1223 78.355 30.9089C78.355 33.7359 76.4568 35.7956 73.9125 35.7956C72.6202 35.7956 71.5903 35.311 70.7422 34.2609V34.9475C70.7422 35.4523 70.6816 35.5331 70.1566 35.5331H69.7326C69.2277 35.5331 69.147 35.4725 69.147 34.9475V19.9037C69.147 19.3989 69.2076 19.3181 69.7326 19.3181H70.1566C70.6614 19.3181 70.7422 19.3787 70.7422 19.9037V27.6174H70.722ZM70.6009 30.9089C70.6009 32.9484 71.873 34.3619 73.6904 34.3619C75.4472 34.3619 76.7193 32.8878 76.7193 30.8685C76.7193 28.9906 75.4068 27.5569 73.6702 27.5569C71.873 27.5367 70.6009 28.93 70.6009 30.9089Z" fill="#797D82"/>
<path d="M89.6012 22.8115C89.6012 23.4375 89.0964 23.9423 88.4704 23.9423C87.8444 23.9423 87.3396 23.4375 87.3396 22.7913C87.3396 22.1855 87.8444 21.6807 88.4704 21.6807C89.0964 21.6807 89.6012 22.1855 89.6012 22.8115ZM89.2377 34.9475C89.2377 35.4523 89.1772 35.5331 88.6521 35.5331H88.2281C87.7233 35.5331 87.6425 35.4725 87.6425 34.9475V26.8703C87.6425 26.3654 87.7031 26.2847 88.2281 26.2847H88.6521C89.157 26.2847 89.2377 26.3452 89.2377 26.8703V34.9475Z" fill="#797D82"/>
<path d="M96.8313 26.5674C97.0938 26.3049 97.0938 26.3049 97.4774 26.3049H98.164C98.5679 26.3049 98.7294 26.426 98.7294 26.6684C98.7294 26.7491 98.6486 26.8905 98.4669 27.0722L95.2764 30.2425L99.2948 34.7859C99.4563 34.9879 99.5371 35.1292 99.5371 35.21C99.5371 35.4321 99.3554 35.5533 98.9515 35.5533H98.265C97.8611 35.5533 97.8611 35.5533 97.6188 35.2706L94.1456 31.3531L93.7417 31.757V34.9879C93.7417 35.4927 93.6812 35.5735 93.1561 35.5735H92.7321C92.2273 35.5735 92.1465 35.5129 92.1465 34.9879V19.9037C92.1465 19.3989 92.2071 19.3181 92.7321 19.3181H93.1561C93.661 19.3181 93.7417 19.3787 93.7417 19.9037V29.7175L96.8313 26.5674Z" fill="#797D82"/>
<path d="M35.3428 25.8202C35.1611 26.0019 34.8582 26.0019 34.6765 25.8202L31.6475 22.8114C31.4658 22.6297 31.4658 22.3268 31.6475 22.1451L34.6563 19.1363C34.838 18.9546 35.1409 18.9546 35.3227 19.1363L38.3314 22.1451C38.5131 22.3268 38.5131 22.6297 38.3314 22.8114L35.3428 25.8202Z" fill="url(#paint0_linear_218_1735)"/>
<path d="M35.3441 40.8636C35.1624 41.0454 34.8595 41.0454 34.6778 40.8636L31.669 37.8549C31.4873 37.6731 31.4873 37.3703 31.669 37.1885L34.6778 34.1798C34.8595 33.998 35.1624 33.998 35.3441 34.1798L38.3529 37.1885C38.5346 37.3703 38.5346 37.6731 38.3529 37.8549L35.3441 40.8636Z" fill="url(#paint1_linear_218_1735)"/>
<path d="M42.8551 33.3321C42.6734 33.5139 42.3705 33.5139 42.1888 33.3321L39.18 30.3234C38.9983 30.1417 38.9983 29.8388 39.18 29.657L42.1888 26.6483C42.3705 26.4665 42.6734 26.4665 42.8551 26.6483L45.8639 29.657C46.0456 29.8388 46.0456 30.1417 45.8639 30.3234L42.8551 33.3321Z" fill="url(#paint2_linear_218_1735)"/>
<path d="M31.2236 38.0568C31.2236 37.7943 31.0822 37.7338 30.8803 37.9155L29.5476 39.2482C29.3658 39.43 29.4062 39.6925 29.6283 39.8136L30.7793 40.3588C31.0216 40.4598 31.2236 40.3185 31.2236 40.056V38.0568Z" fill="url(#paint3_linear_218_1735)"/>
<path d="M40.3714 39.8136C40.5935 39.6925 40.6339 39.43 40.4521 39.2482L39.1194 37.9155C38.9377 37.7338 38.7761 37.7943 38.7761 38.0568V40.0761C38.7761 40.3387 38.9781 40.4598 39.2204 40.379L40.3714 39.8136Z" fill="url(#paint4_linear_218_1735)"/>
<path d="M42.4522 34.2405C42.4522 33.978 42.23 33.7559 41.9675 33.7559H39.2415C38.979 33.7559 38.7568 33.978 38.7568 34.2405V36.9464C38.7568 37.2089 38.979 37.431 39.2415 37.431H41.9675C42.23 37.431 42.4522 37.2089 42.4522 36.9464V34.2405Z" fill="url(#paint5_linear_218_1735)"/>
<path d="M44.8346 24.6293C44.7135 24.4072 44.451 24.3668 44.2692 24.5485L42.9365 25.8813C42.7548 26.063 42.8153 26.2246 43.0778 26.2246H45.0971C45.3597 26.2246 45.4808 26.0226 45.4 25.7803L44.8346 24.6293Z" fill="url(#paint6_linear_218_1735)"/>
<path d="M40.4521 20.7317C40.6339 20.55 40.5935 20.2875 40.3714 20.1663L39.2204 19.6211C38.9781 19.5202 38.7761 19.6615 38.7761 19.924V21.9433C38.7761 22.2058 38.9175 22.2664 39.1194 22.0847L40.4521 20.7317Z" fill="url(#paint7_linear_218_1735)"/>
<path d="M25.7317 24.5485C25.55 24.3668 25.2875 24.4072 25.1663 24.6293L24.6211 25.7803C24.5202 26.0226 24.6615 26.2246 24.924 26.2246H26.9433C27.2058 26.2246 27.2664 26.0832 27.0847 25.8813L25.7317 24.5485Z" fill="url(#paint8_linear_218_1735)"/>
<path d="M31.2232 23.0337C31.2232 22.7712 31.0011 22.5491 30.7386 22.5491H28.0327C27.7702 22.5491 27.5481 22.7712 27.5481 23.0337V25.7396C27.5481 26.0021 27.7702 26.2242 28.0327 26.2242H30.7588C31.0213 26.2242 31.2434 26.0021 31.2434 25.7396V23.0337H31.2232Z" fill="url(#paint9_linear_218_1735)"/>
<path d="M31.2236 19.9036C31.2236 19.6411 31.0216 19.5199 30.7793 19.6007L29.6283 20.1459C29.4062 20.267 29.3658 20.5295 29.5476 20.7113L30.8803 22.044C31.062 22.2258 31.2236 22.1652 31.2236 21.9027V19.9036Z" fill="url(#paint10_linear_218_1735)"/>
<path d="M45.38 34.2001C45.481 33.9578 45.3396 33.7559 45.0771 33.7559H43.0578C42.7953 33.7559 42.7347 33.8972 42.9165 34.0991L44.2492 35.4319C44.4309 35.6136 44.6935 35.5732 44.8146 35.3511L45.38 34.2001Z" fill="url(#paint11_linear_218_1735)"/>
<path d="M31.2232 34.2405C31.2232 33.978 31.0011 33.7559 30.7386 33.7559H28.0327C27.7702 33.7559 27.5481 33.978 27.5481 34.2405V36.9464C27.5481 37.2089 27.7702 37.431 28.0327 37.431H30.7588C31.0213 37.431 31.2434 37.2089 31.2434 36.9464V34.2405H31.2232Z" fill="url(#paint12_linear_218_1735)"/>
<path d="M27.0654 34.0991C27.2472 33.9174 27.1866 33.7559 26.9241 33.7559H24.9048C24.6423 33.7559 24.5211 33.9578 24.6019 34.2001L25.1471 35.3511C25.2683 35.5732 25.5308 35.6136 25.7125 35.4319L27.0654 34.0991Z" fill="url(#paint13_linear_218_1735)"/>
<path d="M42.4522 25.7396C42.4522 26.0021 42.23 26.2242 41.9675 26.2242H39.2415C38.979 26.2242 38.7568 26.0021 38.7568 25.7396V23.0337C38.7568 22.7712 38.979 22.5491 39.2415 22.5491H41.9675C42.23 22.5491 42.4522 22.7712 42.4522 23.0337V25.7396Z" fill="url(#paint14_linear_218_1735)"/>
<path d="M27.8316 33.3322C27.6499 33.5139 27.347 33.5139 27.1653 33.3322L24.1363 30.3234C23.9546 30.1417 23.9546 29.8388 24.1363 29.657L27.1451 26.6483C27.3268 26.4463 27.6297 26.4463 27.8316 26.6483L30.8404 29.657C31.0221 29.8388 31.0221 30.1417 30.8404 30.3234L27.8316 33.3322Z" fill="url(#paint15_linear_218_1735)"/>
<defs>
<linearGradient id="paint0_linear_218_1735" x1="31.2461" y1="18.7213" x2="46.2842" y2="33.7594" gradientUnits="userSpaceOnUse">
<stop stop-color="#00B482"/>
<stop offset="0.216" stop-color="#00B19E"/>
<stop offset="0.559" stop-color="#00ADC6"/>
<stop offset="0.8324" stop-color="#00ABDE"/>
<stop offset="1" stop-color="#00AAE7"/>
</linearGradient>
<linearGradient id="paint1_linear_218_1735" x1="23.7265" y1="26.242" x2="38.7645" y2="41.28" gradientUnits="userSpaceOnUse">
<stop stop-color="#00B482"/>
<stop offset="0.216" stop-color="#00B19E"/>
<stop offset="0.559" stop-color="#00ADC6"/>
<stop offset="0.8324" stop-color="#00ABDE"/>
<stop offset="1" stop-color="#00AAE7"/>
</linearGradient>
<linearGradient id="paint2_linear_218_1735" x1="31.2495" y1="18.7186" x2="46.2876" y2="33.7566" gradientUnits="userSpaceOnUse">
<stop stop-color="#00B482"/>
<stop offset="0.216" stop-color="#00B19E"/>
<stop offset="0.559" stop-color="#00ADC6"/>
<stop offset="0.8324" stop-color="#00ABDE"/>
<stop offset="1" stop-color="#00AAE7"/>
</linearGradient>
<linearGradient id="paint3_linear_218_1735" x1="20.7646" y1="29.2026" x2="35.8027" y2="44.2407" gradientUnits="userSpaceOnUse">
<stop stop-color="#00B482"/>
<stop offset="0.216" stop-color="#00B19E"/>
<stop offset="0.559" stop-color="#00ADC6"/>
<stop offset="0.8324" stop-color="#00ABDE"/>
<stop offset="1" stop-color="#00AAE7"/>
</linearGradient>
<linearGradient id="paint4_linear_218_1735" x1="24.9202" y1="25.0474" x2="39.9582" y2="40.0855" gradientUnits="userSpaceOnUse">
<stop stop-color="#00B482"/>
<stop offset="0.216" stop-color="#00B19E"/>
<stop offset="0.559" stop-color="#00ADC6"/>
<stop offset="0.8324" stop-color="#00ABDE"/>
<stop offset="1" stop-color="#00AAE7"/>
</linearGradient>
<linearGradient id="paint5_linear_218_1735" x1="27.4938" y1="22.4749" x2="42.5318" y2="37.513" gradientUnits="userSpaceOnUse">
<stop stop-color="#00B482"/>
<stop offset="0.216" stop-color="#00B19E"/>
<stop offset="0.559" stop-color="#00ADC6"/>
<stop offset="0.8324" stop-color="#00ABDE"/>
<stop offset="1" stop-color="#00AAE7"/>
</linearGradient>
<linearGradient id="paint6_linear_218_1735" x1="34.2185" y1="15.7505" x2="49.2566" y2="30.7885" gradientUnits="userSpaceOnUse">
<stop stop-color="#00B482"/>
<stop offset="0.216" stop-color="#00B19E"/>
<stop offset="0.559" stop-color="#00ADC6"/>
<stop offset="0.8324" stop-color="#00ABDE"/>
<stop offset="1" stop-color="#00AAE7"/>
</linearGradient>
<linearGradient id="paint7_linear_218_1735" x1="34.2164" y1="15.7517" x2="49.2545" y2="30.7897" gradientUnits="userSpaceOnUse">
<stop stop-color="#00B482"/>
<stop offset="0.216" stop-color="#00B19E"/>
<stop offset="0.559" stop-color="#00ADC6"/>
<stop offset="0.8324" stop-color="#00ABDE"/>
<stop offset="1" stop-color="#00AAE7"/>
</linearGradient>
<linearGradient id="paint8_linear_218_1735" x1="24.9154" y1="25.0534" x2="39.9534" y2="40.0914" gradientUnits="userSpaceOnUse">
<stop stop-color="#00B482"/>
<stop offset="0.216" stop-color="#00B19E"/>
<stop offset="0.559" stop-color="#00ADC6"/>
<stop offset="0.8324" stop-color="#00ABDE"/>
<stop offset="1" stop-color="#00AAE7"/>
</linearGradient>
<linearGradient id="paint9_linear_218_1735" x1="27.4879" y1="22.4794" x2="42.5259" y2="37.5175" gradientUnits="userSpaceOnUse">
<stop stop-color="#00B482"/>
<stop offset="0.216" stop-color="#00B19E"/>
<stop offset="0.559" stop-color="#00ADC6"/>
<stop offset="0.8324" stop-color="#00ABDE"/>
<stop offset="1" stop-color="#00AAE7"/>
</linearGradient>
<linearGradient id="paint10_linear_218_1735" x1="30.0609" y1="19.9066" x2="45.0989" y2="34.9446" gradientUnits="userSpaceOnUse">
<stop stop-color="#00B482"/>
<stop offset="0.216" stop-color="#00B19E"/>
<stop offset="0.559" stop-color="#00ADC6"/>
<stop offset="0.8324" stop-color="#00ABDE"/>
<stop offset="1" stop-color="#00AAE7"/>
</linearGradient>
<linearGradient id="paint11_linear_218_1735" x1="30.0672" y1="19.9013" x2="45.1053" y2="34.9393" gradientUnits="userSpaceOnUse">
<stop stop-color="#00B482"/>
<stop offset="0.216" stop-color="#00B19E"/>
<stop offset="0.559" stop-color="#00ADC6"/>
<stop offset="0.8324" stop-color="#00ABDE"/>
<stop offset="1" stop-color="#00AAE7"/>
</linearGradient>
<linearGradient id="paint12_linear_218_1735" x1="21.8862" y1="28.0809" x2="36.9242" y2="43.1189" gradientUnits="userSpaceOnUse">
<stop stop-color="#00B482"/>
<stop offset="0.216" stop-color="#00B19E"/>
<stop offset="0.559" stop-color="#00ADC6"/>
<stop offset="0.8324" stop-color="#00ABDE"/>
<stop offset="1" stop-color="#00AAE7"/>
</linearGradient>
<linearGradient id="paint13_linear_218_1735" x1="20.7649" y1="29.2041" x2="35.8029" y2="44.2422" gradientUnits="userSpaceOnUse">
<stop stop-color="#00B482"/>
<stop offset="0.216" stop-color="#00B19E"/>
<stop offset="0.559" stop-color="#00ADC6"/>
<stop offset="0.8324" stop-color="#00ABDE"/>
<stop offset="1" stop-color="#00AAE7"/>
</linearGradient>
<linearGradient id="paint14_linear_218_1735" x1="33.0955" y1="16.8735" x2="48.1335" y2="31.9115" gradientUnits="userSpaceOnUse">
<stop stop-color="#00B482"/>
<stop offset="0.216" stop-color="#00B19E"/>
<stop offset="0.559" stop-color="#00ADC6"/>
<stop offset="0.8324" stop-color="#00ABDE"/>
<stop offset="1" stop-color="#00AAE7"/>
</linearGradient>
<linearGradient id="paint15_linear_218_1735" x1="23.7322" y1="26.236" x2="38.7702" y2="41.274" gradientUnits="userSpaceOnUse">
<stop stop-color="#00B482"/>
<stop offset="0.216" stop-color="#00B19E"/>
<stop offset="0.559" stop-color="#00ADC6"/>
<stop offset="0.8324" stop-color="#00ABDE"/>
<stop offset="1" stop-color="#00AAE7"/>
</linearGradient>
</defs>
</svg>
