<?xml version="1.0" encoding="UTF-8"?>
<svg width="200px" height="80px" viewBox="0 0 200 80" version="1.1" xmlns="http://www.w3.org/2000/svg" xmlns:xlink="http://www.w3.org/1999/xlink">
    <!-- Generator: Sketch 51.3 (57544) - http://www.bohemiancoding.com/sketch -->
    <title>Github</title>
    <desc>Created with Sketch.</desc>
    <defs></defs>
    <g id="Final" stroke="none" stroke-width="1" fill="none" fill-rule="evenodd">
        <g id="Artboard-2" transform="translate(-1473.000000, -303.000000)" fill-rule="nonzero">
            <g id="Github" transform="translate(1473.000000, 303.000000)">
                <rect id="SHAPE-OF-BOX" fill="#FFFFFF" x="0" y="0" width="200" height="80"></rect>
                <path d="M100.61807,38.8770175 L95.7559649,38.8770175 C95.6305263,38.8770175 95.5289474,38.9784211 95.5287719,39.1035088 L95.5287719,41.4733333 C95.5287719,41.5984211 95.6305263,41.7 95.7559649,41.7001754 L97.6526316,41.7001754 L97.6526316,44.644386 C97.6526316,44.644386 97.2268421,44.7892982 96.0492982,44.7892982 C94.6603509,44.7892982 92.7198246,44.2831579 92.7198246,40.0291228 C92.7198246,35.774386 94.7403509,35.214386 96.6373684,35.214386 C98.2794737,35.214386 98.9870175,35.502807 99.4370175,35.6415789 C99.5785965,35.6847368 99.7092982,35.5445614 99.7092982,35.4191228 L100.251754,33.1296491 C100.251754,33.0710526 100.23193,33.0005263 100.164912,32.9524561 C99.9821053,32.8226316 98.8668421,32.2003509 96.0492982,32.2003509 C92.8036842,32.2003509 89.4742105,33.577193 89.4742105,40.1950877 C89.4742105,46.8133333 93.2861404,47.7994737 96.4982456,47.7994737 C99.1578947,47.7994737 100.771404,46.6663158 100.771404,46.6663158 C100.837895,46.6294737 100.845088,46.5370175 100.845088,46.494386 L100.845088,39.1035088 C100.845088,38.9785965 100.743333,38.877193 100.61807,38.877193 L100.61807,38.8770175 Z M125.674737,32.9933333 C125.675346,32.9331187 125.65184,32.875163 125.609458,32.8323854 C125.567075,32.7896078 125.509341,32.7655641 125.449123,32.765614 L122.711404,32.765614 C122.586129,32.7663848 122.484927,32.8680566 122.484737,32.9933333 L122.485439,38.2677193 L118.218246,38.2677193 L118.218246,32.9933333 C118.218808,32.933072 118.195238,32.8750902 118.15279,32.8323127 C118.110342,32.7895351 118.052545,32.7655177 117.992281,32.765614 L115.254912,32.765614 C115.194703,32.7657999 115.137034,32.7898961 115.094592,32.8326018 C115.052149,32.8753075 115.02841,32.9331244 115.028596,32.9933333 L115.028596,47.2747368 C115.028596,47.4005263 115.130351,47.5029825 115.254912,47.5029825 L117.992281,47.5029825 C118.117544,47.5029825 118.218246,47.4005263 118.218246,47.2747368 L118.218246,41.1659649 L122.485439,41.1659649 L122.477895,47.2747368 C122.477895,47.4005263 122.579649,47.5029825 122.704737,47.5029825 L125.448947,47.5029825 C125.574386,47.5029825 125.674561,47.4005263 125.674737,47.2747368 L125.674737,32.9933333 Z M105.784211,34.8675439 C105.784211,33.8847368 104.99386,33.0905263 104.018772,33.0905263 C103.044737,33.0905263 102.25386,33.8847368 102.25386,34.8675439 C102.25386,35.8491228 103.044737,36.6454386 104.018772,36.6454386 C104.99386,36.6454386 105.784211,35.8491228 105.784211,34.8675439 Z M105.588421,44.2622807 L105.588421,37.6698246 C105.588421,37.5445614 105.487193,37.442807 105.36193,37.4422807 L102.632982,37.4422807 C102.507719,37.4422807 102.395789,37.5710526 102.395789,37.6963158 L102.395789,47.1408772 C102.395789,47.4185965 102.569123,47.5010526 102.793684,47.5010526 L105.252456,47.5010526 C105.522281,47.5010526 105.588421,47.3689474 105.588421,47.1364912 L105.588421,44.2621053 L105.588421,44.2622807 Z M136.078947,37.4638596 L133.362281,37.4638596 C133.237719,37.4638596 133.136316,37.5661404 133.136316,37.6921053 L133.136316,44.6947368 C133.136316,44.6947368 132.44614,45.1982456 131.466667,45.1982456 C130.487018,45.1982456 130.227193,44.7550877 130.227193,43.7989474 L130.227193,37.6921053 C130.227193,37.5661404 130.125965,37.4638596 130.001404,37.4638596 L127.24386,37.4638596 C127.119649,37.4638596 127.017544,37.5661404 127.017544,37.6921053 L127.017544,44.2612281 C127.017544,47.1012281 128.605263,47.7961404 130.789649,47.7961404 C132.581579,47.7961404 134.02614,46.8092982 134.02614,46.8092982 C134.02614,46.8092982 134.094912,47.3292982 134.12614,47.3908772 C134.157193,47.4524561 134.238421,47.5145614 134.325965,47.5145614 L136.080175,47.5068421 C136.205449,47.5058784 136.306495,47.4040496 136.306491,47.2787719 L136.305439,37.6922807 C136.305439,37.5661404 136.20386,37.4638596 136.078772,37.4638596 L136.078947,37.4638596 Z M142.432281,45.1894737 C141.490175,45.1608772 140.850877,44.7345614 140.850877,44.7345614 L140.850877,40.2121053 C140.850877,40.2121053 141.481404,39.8268421 142.254912,39.7577193 C143.233333,39.6705263 144.175965,39.9650877 144.175965,42.2915789 C144.175965,44.7449123 143.750526,45.2289474 142.432281,45.1894737 Z M143.50386,37.1431579 C141.960877,37.1431579 140.911404,37.8294737 140.911404,37.8294737 L140.911404,32.9935088 C140.911404,32.8673684 140.810351,32.765614 140.685439,32.765614 L137.940175,32.765614 C137.81489,32.7663862 137.713761,32.8682205 137.71386,32.9935088 L137.71386,47.2747368 C137.71386,47.4005263 137.815439,47.5029825 137.940526,47.5029825 L139.845439,47.5029825 C139.931053,47.5029825 139.995965,47.4589474 140.044035,47.3819298 C140.091404,47.3050877 140.159649,46.7233333 140.159649,46.7233333 C140.159649,46.7233333 141.282281,47.7840351 143.407368,47.7840351 C145.902105,47.7840351 147.332982,46.5222807 147.332982,42.1203509 C147.332982,37.7182456 145.047895,37.1431579 143.50386,37.1431579 Z M113.456491,37.4410526 L111.402807,37.4410526 L111.399649,34.7363158 C111.399649,34.6340351 111.346842,34.582807 111.228246,34.582807 L108.429649,34.582807 C108.320877,34.582807 108.262456,34.6307018 108.262456,34.7349123 L108.262456,37.5298246 C108.262456,37.5298246 106.860175,37.867193 106.765263,37.8947368 C106.66824,37.9225939 106.601396,38.0113378 106.601404,38.1122807 L106.601404,39.8685965 C106.601404,39.9949123 106.702632,40.0966667 106.827719,40.0966667 L108.262456,40.0966667 L108.262456,44.3217544 C108.262456,47.4601754 110.470526,47.7684211 111.960702,47.7684211 C112.641404,47.7684211 113.455965,47.5505263 113.590526,47.5008772 C113.671754,47.4710526 113.718947,47.387193 113.718947,47.2961404 L113.721228,45.3640351 C113.721228,45.2378947 113.614386,45.1361404 113.494211,45.1361404 C113.374561,45.1361404 113.068421,45.1847368 112.753333,45.1847368 C111.744561,45.1847368 111.402807,44.717193 111.402807,44.1119298 L111.402807,40.0964912 L113.45614,40.0964912 C113.581404,40.0964912 113.682632,39.9947368 113.682632,39.8684211 L113.682632,37.6684211 C113.683006,37.6081878 113.659316,37.550298 113.616823,37.5076071 C113.574329,37.4649162 113.51655,37.4409579 113.456316,37.4410526 L113.456491,37.4410526 Z" id="LOGO" fill="#121110"></path>
                <g id="Cat" transform="translate(52.000000, 25.000000)" fill="#161614">
                    <path d="M15.3789474,-2.34354446e-14 C6.88649123,-2.34354446e-14 0,6.8777193 0,15.3621053 C0,22.1494737 4.40649123,27.9077193 10.5170175,29.9392982 C11.285614,30.0814035 11.5678947,29.6059649 11.5678947,29.2001754 C11.5678947,28.8338596 11.5535088,27.6236842 11.5468421,26.34 C7.26842105,27.2692982 6.36561404,24.5275439 6.36561404,24.5275439 C5.66614035,22.7517544 4.65807018,22.2798246 4.65807018,22.2798246 C3.26280702,21.3263158 4.76333333,21.3457895 4.76333333,21.3457895 C6.3077193,21.4542105 7.12087719,22.9289474 7.12087719,22.9289474 C8.49245614,25.2775439 10.7184211,24.5984211 11.5961404,24.2061404 C11.7340351,23.2131579 12.1326316,22.5354386 12.5724561,22.1517544 C9.15666667,21.7633333 5.56578947,20.4459649 5.56578947,14.5598246 C5.56578947,12.8826316 6.16649123,11.5121053 7.15035088,10.4363158 C6.99070175,10.0494737 6.46438596,8.48701754 7.29947368,6.37087719 C7.29947368,6.37087719 8.59070175,5.95807018 11.5296491,7.94561404 C12.7563158,7.60526316 14.0717544,7.4345614 15.3787719,7.42877193 C16.6857895,7.4345614 18.0024561,7.60526316 19.2314035,7.94561404 C22.1670175,5.95807018 23.4564912,6.37087719 23.4564912,6.37087719 C24.2936842,8.48701754 23.7670175,10.0494737 23.6073684,10.4363158 C24.5933333,11.5121053 25.19,12.8824561 25.19,14.5598246 C25.19,20.46 21.5922807,21.7592982 18.1678947,22.1394737 C18.7194737,22.6163158 19.2108772,23.5512281 19.2108772,24.984386 C19.2108772,27.0398246 19.1931579,28.6940351 19.1931579,29.2001754 C19.1931579,29.6089474 19.4698246,30.0878947 20.2494737,29.9370175 C26.3566667,27.9035088 30.7577193,22.147193 30.7577193,15.3621053 C30.7577193,6.8777193 23.8721053,-2.84217094e-14 15.3787719,-2.84217094e-14" id="Shape"></path>
                    <path d="M5.76,21.8836842 C5.72614035,21.9598246 5.60561404,21.982807 5.49631579,21.9305263 C5.38473684,21.8803509 5.32210526,21.7761404 5.35824561,21.6996491 C5.39157895,21.6210526 5.51175439,21.5991228 5.62315789,21.6519298 C5.73491228,21.7019298 5.79859649,21.8070175 5.76,21.8835088 M6.51649123,22.5578947 C6.44315789,22.6257895 6.29964912,22.5942105 6.20245614,22.4868421 C6.10175439,22.3798246 6.08298246,22.2366667 6.15736842,22.1675439 C6.23280702,22.0998246 6.37210526,22.1314035 6.47280702,22.2385965 C6.57350877,22.3470175 6.59298246,22.4892982 6.51631579,22.5578947 M7.0354386,23.4205263 C6.94105263,23.4859649 6.78701754,23.4245614 6.69175439,23.2878947 C6.59754386,23.1514035 6.59754386,22.9875439 6.69385965,22.9219298 C6.78929825,22.8563158 6.94122807,22.9152632 7.0377193,23.0508772 C7.13175439,23.1898246 7.13175439,23.3536842 7.03526316,23.4205263 M7.91298246,24.4196491 C7.82877193,24.5124561 7.64929825,24.4875439 7.5177193,24.3608772 C7.38333333,24.2370175 7.34578947,24.0612281 7.43035088,23.9682456 C7.51578947,23.8752632 7.69631579,23.9015789 7.82859649,24.027193 C7.9622807,24.1507018 8.00298246,24.3278947 7.91315789,24.4196491 M9.04719298,24.7570175 C9.01035088,24.877193 8.83719298,24.9319298 8.66298246,24.8808772 C8.48929825,24.8282456 8.37526316,24.687193 8.41035088,24.565614 C8.44666667,24.4445614 8.62035088,24.3875439 8.79578947,24.4422807 C8.96947368,24.4947368 9.08350877,24.6345614 9.04736842,24.7570175 M10.3382456,24.9 C10.3426316,25.0266667 10.1949123,25.1317544 10.0119298,25.1340351 C9.82807018,25.1380702 9.67947368,25.035614 9.67754386,24.9108772 C9.67754386,24.7829825 9.82175439,24.6789474 10.005614,24.6757895 C10.1885965,24.6722807 10.3382456,24.7740351 10.3382456,24.9 M11.6064912,24.8514035 C11.6284211,24.9750877 11.5012281,25.1021053 11.3198246,25.1357895 C11.1412281,25.1682456 10.9759649,25.0919298 10.9531579,24.9694737 C10.9310526,24.842807 11.0605263,24.7159649 11.2387719,24.6829825 C11.4205263,24.6514035 11.5833333,24.7257895 11.6064912,24.8514035" id="Shape"></path>
                </g>
            </g>
        </g>
    </g>
</svg>