<?xml version="1.0" encoding="UTF-8"?>
<svg width="200px" height="80px" viewBox="0 0 200 80" version="1.1" xmlns="http://www.w3.org/2000/svg" xmlns:xlink="http://www.w3.org/1999/xlink">
    <!-- Generator: Sketch 51.3 (57544) - http://www.bohemiancoding.com/sketch -->
    <title>CircleCI</title>
    <desc>Created with Sketch.</desc>
    <defs></defs>
    <g id="EXPERIMENTS" stroke="none" stroke-width="1" fill="none" fill-rule="evenodd">
        <g id="LOGOS" transform="translate(-836.000000, -506.000000)" fill-rule="nonzero">
            <g id="CircleCI" transform="translate(836.000000, 506.000000)">
                <rect id="SHAPE-OF-BOX" fill="#FFFFFF" x="0" y="0" width="200" height="80"></rect>
                <path d="M56.1808218,28 C50.8164383,28 46.3260274,31.6921053 45.030137,36.6552632 C45.030137,36.6855263 45,36.7157895 45,36.806579 C45,37.1092105 45.2712329,37.3513158 45.5424658,37.3513158 L50.1835616,37.3513158 C50.3945205,37.3513158 50.5753425,37.2 50.6958904,37.0184211 C50.6958904,37.0184211 50.6958904,37.0184211 50.6958904,36.9881579 C51.660274,34.9302632 53.739726,33.4776316 56.1506849,33.4776316 C59.4958904,33.4776316 62.1479452,36.2013158 62.1479452,39.5 C62.1479452,42.7986842 59.4356164,45.5223684 56.1506849,45.5223684 C53.739726,45.5223684 51.630137,44.1 50.6958904,42.0118421 L50.6958904,41.9815789 C50.6356164,41.8 50.3945205,41.6486843 50.1835616,41.6486843 L45.5424658,41.6486843 C45.2410959,41.6486843 45,41.9210527 45,42.193421 C45,42.2236842 45,42.3144737 45.030137,42.3447369 C46.3260274,47.3078948 50.8164383,51 56.1808218,51 C62.509589,51 67.6931507,45.8552632 67.6931507,39.4394737 C67.6931507,33.0842105 62.5698629,28 56.1808218,28 Z M86.2876711,42.2842105 L84.7205479,42.2842105 C84.5999999,42.2842105 84.509589,42.3144737 84.449315,42.4355264 C83.5452054,43.7973684 82.0082191,44.6750001 80.260274,44.6750001 C77.4876711,44.6750001 75.1972602,42.4052632 75.1972602,39.5907895 C75.1972602,36.806579 77.4575342,34.506579 80.260274,34.506579 C82.0082191,34.506579 83.5150684,35.3842105 84.449315,36.7460527 C84.509589,36.806579 84.5999999,36.8973684 84.7205479,36.8973684 L86.2876711,36.8973684 C86.4684931,36.8973684 86.619178,36.7460527 86.619178,36.5644737 C86.619178,36.5342105 86.619178,36.4434211 86.5890411,36.4131579 C85.4136985,34.0828947 83.0328767,32.5092105 80.2904109,32.5092105 C76.3726027,32.5092105 73.2082192,35.6868421 73.2082192,39.6210527 C73.2082192,43.5552632 76.3726027,46.7328947 80.2904109,46.7328947 C83.0328767,46.7328947 85.4438356,45.1592106 86.5890411,42.8289474 C86.619178,42.7986842 86.619178,42.7078947 86.619178,42.6776317 C86.5890411,42.4355264 86.4684931,42.2842105 86.2876711,42.2842105 Z M90.989041,30.1184211 C90.989041,30.8447368 90.4164383,31.4802632 89.6328766,31.4802632 C88.9095889,31.4802632 88.2767123,30.9052632 88.2767123,30.1184211 C88.2767123,29.3921053 88.849315,28.7565789 89.6328766,28.7565789 C90.3863013,28.7565789 90.989041,29.3315789 90.989041,30.1184211 Z M90.6273972,46.006579 L90.6273972,32.781579 L88.6082191,32.781579 L88.6082191,46.006579 C88.6082191,46.188158 88.758904,46.3394737 88.939726,46.3394737 L90.2958903,46.3394737 C90.4767122,46.3394737 90.6273972,46.188158 90.6273972,46.006579 Z M99.4273971,32.4486842 C97.3780821,32.5697369 95.7506848,33.5078947 94.6958903,35.0210526 L94.6958903,33.1144737 C94.6958903,32.9328947 94.5452054,32.781579 94.3643834,32.781579 L93.0082191,32.781579 C92.8273971,32.781579 92.6767122,32.9328947 92.6767122,33.1144737 L92.6767122,46.006579 C92.6767122,46.188158 92.8273971,46.3394737 93.0082191,46.3394737 L94.3643834,46.3394737 C94.5452054,46.3394737 94.6958903,46.188158 94.6958903,46.006579 L94.6958903,39.5605263 C94.6958903,36.8671053 96.7753424,34.6578948 99.4273971,34.4763158 C99.608219,34.4763158 99.758904,34.325 99.758904,34.1434211 L99.758904,32.781579 C99.758904,32.6 99.608219,32.4486842 99.4273971,32.4486842 Z M112.838356,42.2842105 L111.271233,42.2842105 C111.150685,42.2842105 111.060274,42.3144737 111,42.4355264 C110.09589,43.7973684 108.558904,44.6750001 106.810959,44.6750001 C104.038356,44.6750001 101.747945,42.4052632 101.747945,39.5907895 C101.747945,36.806579 104.008219,34.506579 106.810959,34.506579 C108.558904,34.506579 110.065753,35.3842105 111,36.7460527 C111.060274,36.806579 111.150685,36.8973684 111.271233,36.8973684 L112.838356,36.8973684 C113.019178,36.8973684 113.169863,36.7460527 113.169863,36.5644737 C113.169863,36.5342105 113.169863,36.4434211 113.139726,36.4131579 C111.964383,34.0828947 109.583561,32.5092105 106.841096,32.5092105 C102.923288,32.5092105 99.758904,35.6868421 99.758904,39.6210527 C99.758904,43.5552632 102.923288,46.7328947 106.841096,46.7328947 C109.583561,46.7328947 111.99452,45.1592106 113.139726,42.8289474 C113.169863,42.7986842 113.169863,42.7078947 113.169863,42.6776317 C113.169863,42.4355264 113.019178,42.2842105 112.838356,42.2842105 Z M116.876712,28.4236842 L115.520548,28.4236842 C115.339726,28.4236842 115.189041,28.575 115.189041,28.7565789 L115.189041,46.006579 C115.189041,46.188158 115.339726,46.3394737 115.520548,46.3394737 L116.876712,46.3394737 C117.057534,46.3394737 117.208219,46.188158 117.208219,46.006579 L117.208219,28.7565789 C117.208219,28.575 117.057534,28.4236842 116.876712,28.4236842 Z M126.339726,32.4486842 C122.421918,32.4486842 119.257534,35.6263158 119.257534,39.5605263 C119.257534,43.4947368 122.421918,46.6723685 126.339726,46.6723685 C129.082192,46.6723685 131.49315,45.0986843 132.638356,42.7684211 C132.69863,42.6171053 132.668493,42.4052632 132.487671,42.3144737 C132.457534,42.2842105 132.367123,42.2842105 132.336986,42.2842105 L130.769863,42.2842105 C130.649315,42.2842105 130.558904,42.3144737 130.49863,42.4355264 C129.59452,43.7973684 128.057534,44.6750001 126.309589,44.6750001 C123.747945,44.6750001 121.608219,42.7684211 121.276712,40.256579 L133,40.256579 C133.180822,40.256579 133.331507,40.1052632 133.331507,39.9236843 C133.331507,39.8026316 133.331507,39.7118421 133.331507,39.5605263 C133.421918,35.6263158 130.227397,32.4486842 126.339726,32.4486842 Z M121.457534,38.1986842 C122.030137,36.05 123.989041,34.4763158 126.339726,34.4763158 C128.690411,34.4763158 130.619178,36.05 131.221918,38.1986842 L121.457534,38.1986842 Z M152.980822,28.0605263 C151.89589,28.0605263 150.961643,28.9684211 150.961643,30.0881579 C150.961643,31.1776316 151.865753,32.1157895 152.980822,32.1157895 C154.065753,32.1157895 155,31.2078947 155,30.0881579 C155,28.9684211 154.09589,28.0605263 152.980822,28.0605263 Z M154.668493,32.781579 L154.668493,46.006579 C154.668493,46.188158 154.517808,46.3394737 154.336986,46.3394737 L151.624658,46.3394737 C151.443836,46.3394737 151.29315,46.188158 151.29315,46.006579 L151.29315,32.781579 L154.668493,32.781579 Z M142.493151,46.6723685 C138.575342,46.6723685 135.410959,43.5552632 135.410959,39.6210527 C135.410959,35.6868421 138.575342,32.5092105 142.493151,32.5092105 C145.778082,32.5092105 148.550685,34.7486842 149.334247,37.8355264 C149.334247,37.8657895 149.334247,37.8657895 149.334247,37.8960527 C149.334247,38.0776316 149.183561,38.2289474 149.002739,38.2289474 L146.139726,38.2289474 C146.019178,38.2289474 145.868493,38.168421 145.838356,38.0473684 C145.205479,36.7157895 143.939726,35.8684211 142.463013,35.8684211 C140.413698,35.8684211 138.756164,37.5328948 138.756164,39.5907895 C138.756164,41.6486843 140.413698,43.3131579 142.463013,43.3131579 C143.969863,43.3131579 145.265754,42.4355264 145.838356,41.1342106 C145.868493,41.0131579 145.989041,40.9526316 146.139726,40.9526316 L149.002739,40.9526316 C149.183561,40.9526316 149.334247,41.1039474 149.334247,41.2855263 C149.334247,41.3157895 149.334247,41.3157895 149.334247,41.3460527 C148.580821,44.4026316 145.778082,46.6723685 142.493151,46.6723685 Z M56.1808218,42.3144737 C54.6661999,42.3144737 53.4383561,41.0814895 53.4383561,39.5605263 C53.4383561,38.0395632 54.6661999,36.806579 56.1808218,36.806579 C57.6954439,36.806579 58.9232876,38.0395632 58.9232876,39.5605263 C58.9232876,41.0814895 57.6954439,42.3144737 56.1808218,42.3144737 Z" id="LOGO" fill="#000000"></path>
            </g>
        </g>
    </g>
</svg>