<?xml version="1.0" encoding="UTF-8"?>
<svg width="200px" height="80px" viewBox="0 0 200 80" version="1.1" xmlns="http://www.w3.org/2000/svg" xmlns:xlink="http://www.w3.org/1999/xlink">
    <!-- Generator: Sketch 51.3 (57544) - http://www.bohemiancoding.com/sketch -->
    <title>JIRA</title>
    <desc>Created with Sketch.</desc>
    <defs></defs>
    <g id="Final" stroke="none" stroke-width="1" fill="none" fill-rule="evenodd">
        <g id="Artboard-2" transform="translate(-1693.000000, -303.000000)" fill-rule="nonzero">
            <g id="JIRA" transform="translate(1693.000000, 303.000000)">
                <rect id="SHAPE-OF-BOX" fill="#FFFFFF" x="0" y="0" width="200" height="80"></rect>
                <g id="JIRA-LOGO" transform="translate(62.000000, 25.000000)" fill="#274970">
                    <path d="M46.4268365,11.1303039 L50.5929916,11.1303039 C52.7475006,11.1303039 53.1800011,11.9848754 53.1800011,13.3638468 L53.1800011,15.4232182 C53.1800011,17.1395611 52.5274237,17.7186468 50.5929916,17.7186468 L46.4268365,17.7186468 L46.4268365,11.1303039 Z M59.1474196,27.5572754 L54.5695132,20.9010468 C56.5406814,20.0768182 57.5397014,18.3495039 57.5397014,15.7664182 L57.5397014,13.0518468 C57.5397014,9.00750394 55.4448887,7.2042468 50.7475897,7.2042468 L42.6030422,7.2042468 C42.3072819,7.2042468 42.0673062,7.44596109 42.0673062,7.74407537 L42.0673062,27.9085325 C42.0673062,28.2069897 42.3072819,28.4487039 42.6030422,28.4487039 L45.8911005,28.4487039 C46.1868608,28.4487039 46.4268365,28.2069897 46.4268365,27.9085325 L46.4268365,21.5845325 L49.7917687,21.5845325 L54.3681445,28.2169325 C54.4683186,28.3619611 54.6326109,28.4487039 54.8079582,28.4487039 L58.7371989,28.4487039 L58.7406004,28.4487039 C59.0365308,28.4487039 59.2763364,28.2069897 59.2763364,27.9085325 C59.2763364,27.7743039 59.227865,27.6515611 59.1474196,27.5572754 Z" id="Fill-2"></path>
                    <path d="M69.936632,7.58190394 C69.8663911,7.35698966 69.65958,7.2042468 69.425727,7.2042468 L64.4263749,7.2042468 C64.1925219,7.2042468 63.9858808,7.35698966 63.9156399,7.58190394 L57.6082416,27.7461897 C57.556879,27.9102468 57.5861319,28.0892182 57.6869863,28.2280754 C57.7878407,28.3669325 57.9483915,28.4487039 58.1191467,28.4487039 L61.5607826,28.4487039 C61.7982072,28.4487039 62.0073994,28.2913325 62.074579,28.0616182 L66.4181222,13.2315039 C66.4181222,13.2315039 66.5317322,12.8610468 66.9251155,12.8610468 C67.3249616,12.8610468 67.4224145,13.2460754 67.4224145,13.2464182 L69.4376322,20.2791039 L66.6689827,20.2791039 C66.429007,20.2791039 66.2182842,20.4399039 66.1533155,20.6727039 L65.3764133,23.4567039 C65.3310033,23.6195611 65.3638278,23.7942468 65.4651924,23.9288182 C65.5665571,24.0637325 65.7243866,24.1427611 65.8922505,24.1427611 L70.5643785,24.1427611 L71.7782032,28.0691611 C71.8479339,28.2949325 72.0552552,28.4487039 72.2897885,28.4487039 L75.7331252,28.4487039 C75.9038804,28.4487039 76.0642611,28.3669325 76.1651155,28.2280754 C76.26614,28.0892182 76.2953929,27.9102468 76.2440303,27.7461897 L69.936632,7.58190394" id="Fill-4"></path>
                    <path d="M30.3722748,7.2042468 L27.0442489,7.2042468 C26.7624348,7.2042468 26.5326636,7.4346468 26.5326636,7.71853251 L26.5326636,23.4971611 C26.5326636,25.4800754 25.0336233,26.1318468 24.0191264,26.1839611 C23.8823862,26.1906468 23.7231961,26.2775611 23.6357776,26.4063039 C23.5480189,26.5355611 23.5235281,26.6977325 23.5691082,26.8472182 L24.3783247,29.5002468 C24.4443137,29.7174468 24.676466,29.8569897 25.0542024,29.8569897 C28.238515,29.8569897 30.8824996,27.3369897 30.8824996,23.9591611 L30.8824996,7.71870394 C30.8824996,7.5822468 30.828926,7.45127537 30.7330037,7.35476109 C30.6374216,7.2582468 30.5076545,7.2042468 30.3722748,7.2042468" id="Fill-5"></path>
                    <path d="M37.6789092,7.35698966 L34.5935716,7.35698966 C34.316046,7.35698966 34.0908657,7.59747408 34.0908657,7.89407154 L34.0908657,27.9559303 C34.0908657,28.2528689 34.316046,28.4933533 34.5935716,28.4933533 L37.6789092,28.4933533 C37.9565944,28.4933533 38.1817747,28.2528689 38.1817747,27.9559303 L38.1817747,7.89407154 C38.1817747,7.59747408 37.9565944,7.35698966 37.6789092,7.35698966" id="Fill-1"></path>
                    <path d="M4.43177474,1.9024442 C3.48988804,1.9024442 2.72722929,2.66346349 2.72722929,3.60683313 C2.72722929,4.54785492 3.48988804,5.31153511 4.43177474,5.31153511 C5.37444478,5.31153511 6.1363202,4.54785492 6.1363202,3.60683313 C6.1363202,2.66346349 5.37444478,1.9024442 4.43177474,1.9024442" id="Fill-7"></path>
                    <path d="M16.7044237,1.9024442 C15.7618504,1.9024442 14.9999566,2.66346349 14.9999566,3.60683313 C14.9999566,4.54785492 15.7618504,5.31153511 16.7044237,5.31153511 C17.644333,5.31153511 18.4090475,4.54785492 18.4090475,3.60683313 C18.4090475,2.66346349 17.644333,1.90369639 16.7044237,1.9024442" id="Fill-8"></path>
                    <path d="M10.872857,0 C9.83181803,0 8.98887431,0.8335411 8.98887431,1.86736527 C8.98887431,2.89827436 9.83181803,3.73507349 10.872857,3.73507349 C11.9145886,3.73507349 12.7564934,2.89827436 12.7564934,1.86736527 C12.7564934,0.8335411 11.9145886,0 10.872857,0" id="Fill-9"></path>
                    <path d="M21.5154544,6.90685084 C21.4105193,6.82797224 21.2846319,6.78698966 21.1568397,6.78698966 C21.085844,6.78698966 21.0141557,6.7998503 20.9462769,6.82574306 C19.6706059,7.30878879 18.3751947,7.67557431 17.192857,7.9483914 C16.9516449,8.00412085 16.7568397,8.18142624 16.676147,8.39439848 C15.8146752,10.7310915 13.6150215,12.9561541 11.3071427,15.2866739 C11.214502,15.3737833 11.084805,15.4886717 10.8735496,15.4886717 C10.6628137,15.4886717 10.5343289,15.3773843 10.4399566,15.2866739 C8.13242409,12.9561541 5.93277041,10.7388078 5.07095223,8.40194339 C4.99008643,8.18914262 4.79528124,8.01183723 4.55458859,7.95593631 C3.37155829,7.68311922 2.07285699,7.30501633 0.798744439,6.8219706 C0.73051933,6.79624932 0.658831019,6.78338868 0.587662187,6.78338868 C0.45986998,6.78338868 0.336233616,6.82317093 0.231644871,6.90222101 C0.068181668,7.02568318 -0.0166668169,7.22596625 0.00272712252,7.41836146 C0.198051798,9.36151878 0.973463053,11.2611214 2.37277041,13.2517774 C3.68809509,15.123258 5.40376608,16.8556723 7.06246738,18.5308138 C10.1187444,21.6178824 13.005844,24.5334758 13.2591773,27.9144529 C13.2820345,28.2193359 13.5386579,28.4558002 13.8480951,28.4558002 L17.4387444,28.4558002 C17.600476,28.4558002 17.7549349,28.3899537 17.8666232,28.273865 C17.9777921,28.1579477 18.0366665,28.0022482 18.028528,27.8420904 C17.9156276,25.5817039 17.0565799,23.3180593 15.4023808,20.9225504 C15.0557141,20.4202994 14.6844587,19.931595 14.2962336,19.4533506 C14.1384847,19.2585547 14.2044587,19.0166032 14.3251514,18.8945128 C14.4444587,18.7736228 14.5642856,18.6530757 14.684805,18.5308138 C16.3436795,16.8555008 18.0590042,15.123258 19.3746752,13.2517774 C20.7738094,11.2609499 21.5488743,9.3724932 21.7443721,7.42967882 C21.7639392,7.23436854 21.6744154,7.02722646 21.5154544,6.90685084" id="Fill-11"></path>
                    <path d="M6.86521718,21.1718182 C6.77649503,21.0835323 6.64594673,20.9933533 6.42685735,20.9933533 C6.14656779,20.9933533 5.98034957,21.1774974 5.9175198,21.268709 C4.3382656,23.5529563 3.52256504,25.7088191 3.40976117,27.8753519 C3.40161322,28.0350582 3.46353766,28.1937319 3.57978178,28.3104139 C3.69656909,28.4264074 3.8602524,28.4933533 4.02900554,28.4933533 L7.77724463,28.4933533 C8.09972247,28.4933533 8.37132088,28.2534497 8.39504048,27.9478049 C8.47670106,26.9036906 8.81873399,25.8569949 9.44141861,24.7571211 C9.65724881,24.376614 9.48958206,24.0191679 9.36537105,23.8663455 C8.74757521,23.1027498 7.99090205,22.2882133 6.86521718,21.1718182" id="Fill-13"></path>
                    <path d="M10.5713743,8.78979512 C11.6229017,8.78979512 12.2327196,8.72062602 12.4469406,8.72062602 C12.7064652,8.72062602 12.954502,8.95367269 12.954502,9.28000898 C12.954502,9.37524951 12.9339536,9.44335448 12.913567,9.50347839 C12.7740969,9.91210817 12.138553,11.382395 10.9553218,12.6435783 C10.8226472,12.785109 10.6721747,12.8115351 10.5686238,12.8115351 L10.5673294,12.8115351 C10.4639403,12.8115351 10.3136296,12.785109 10.180955,12.6435783 C8.99772374,11.382395 8.36201809,9.91210817 8.22287152,9.50347839 C8.20232313,9.44335448 8.18177474,9.37524951 8.18177474,9.28000898 C8.18177474,8.95367269 8.43013519,8.72062602 8.68965971,8.72062602 C8.90388071,8.72062602 9.51337503,8.78979512 10.564417,8.78979512 L10.5713743,8.78979512" id="Fill-14"></path>
                </g>
            </g>
        </g>
    </g>
</svg>