<svg width="120" height="60" viewBox="0 0 120 60" fill="none" xmlns="http://www.w3.org/2000/svg">
<rect width="120" height="60" fill="white"/>
<path d="M39.7371 40.8047C41.6734 38.5374 39.5703 33.5628 35.0397 29.6935C30.5091 25.8243 25.2666 24.5256 23.3302 26.7929C21.3939 29.0602 23.497 34.0349 28.0276 37.9041C32.5583 41.7734 37.8008 43.072 39.7371 40.8047Z" fill="#0099F8"/>
<path d="M41.4015 20.3476C41.2231 21.3319 41.0561 22.3181 40.8617 23.2995C40.723 24.0025 40.2728 24.3649 39.5509 24.3725C38.5251 24.3829 37.4984 24.3829 36.4726 24.3706C36.2102 24.3678 36.1036 24.4404 36.0592 24.7141C35.6308 27.3725 35.1873 30.028 34.7466 32.6836C34.6352 33.3536 34.5238 34.0246 34.3974 34.6927C34.2417 35.5147 33.8227 35.8657 32.9903 35.8704C31.8692 35.877 30.7472 35.8733 29.6261 35.8704C29.51 35.8704 29.393 35.8525 29.2099 35.8374C29.913 32.0126 30.6104 28.2237 31.3162 24.3829C29.7025 24.3829 28.1228 24.3829 26.4958 24.3829C26.6365 23.609 26.7667 22.888 26.8979 22.1671C26.9233 22.0265 26.9639 21.8877 26.9771 21.7462C27.0498 20.9752 27.4509 20.4996 28.219 20.3467C32.6138 20.3476 37.0076 20.3476 41.4015 20.3476Z" fill="#001E82"/>
<path d="M59.0957 20.3477C58.6049 23.1419 58.1152 25.9353 57.6235 28.7295C57.2309 30.9595 56.8355 33.1894 56.4401 35.4184C56.4175 35.5449 56.3873 35.6704 56.3589 35.8054C54.9321 35.8054 53.5269 35.8054 52.0708 35.8054C52.1822 35.1561 52.2869 34.5276 52.3983 33.901C53.0324 30.3093 53.6666 26.7185 54.3017 23.1268C54.4659 22.2001 54.632 21.2734 54.7981 20.3477C56.2297 20.3477 57.6622 20.3477 59.0957 20.3477Z" fill="#001E82"/>
<path d="M96.7207 25.0889C96.8009 24.7151 96.8764 24.3575 96.9575 23.9791C98.2221 23.9791 99.481 23.9791 100.806 23.9791C100.746 24.3603 100.695 24.7293 100.63 25.0973C100.016 28.5815 99.4008 32.0656 98.7751 35.5469C98.7572 35.6488 98.625 35.8073 98.5439 35.8083C97.4124 35.8252 96.28 35.8196 95.0956 35.8196C95.1541 35.4232 95.2089 35.0542 95.274 34.6164C95.1664 34.7126 95.0994 34.7636 95.0428 34.8259C93.3602 36.6614 90.5074 36.3641 88.989 34.6239C88.2246 33.7482 87.8028 32.7158 87.7112 31.5749C87.5499 29.5676 87.9292 27.6774 89.1409 26.0193C90.5178 24.1338 92.8789 23.2987 94.989 23.947C95.3146 24.047 95.6335 24.2037 95.9185 24.3915C96.1997 24.5774 96.4347 24.835 96.7207 25.0889ZM91.9409 30.3811C91.9475 30.4641 91.9512 30.5472 91.9626 30.6302C92.0645 31.4012 92.3844 32.042 93.1611 32.3015C93.9387 32.561 94.6304 32.3157 95.1655 31.7183C95.8383 30.9671 96.0204 30.0593 95.8534 29.0844C95.7203 28.3087 95.308 27.7236 94.5105 27.5387C93.7037 27.3518 93.0289 27.6321 92.5288 28.2927C92.0626 28.9089 91.9371 29.629 91.9409 30.3811Z" fill="#001E82"/>
<path d="M43.7116 30.95C43.6286 32.2721 44.8374 33.1054 46.1284 32.6203C46.4908 32.4844 46.7815 32.1636 47.1165 31.9447C47.2023 31.888 47.3326 31.8673 47.4373 31.8795C47.5232 31.889 47.6015 31.9701 47.6836 32.0192C48.5396 32.5364 49.3955 33.0544 50.275 33.5857C49.9013 34.2595 49.3917 34.7729 48.7745 35.1976C46.9041 36.4867 43.0284 36.5272 41.1221 34.6323C40.1105 33.6263 39.5547 32.4033 39.4914 30.9981C39.4065 29.1107 39.9378 27.3866 41.1523 25.9145C42.2659 24.565 43.7343 23.8846 45.4612 23.7147C46.5229 23.6109 47.5657 23.6817 48.548 24.1101C50.4807 24.9538 51.432 26.4911 51.5565 28.5587C51.6047 29.3533 51.5547 30.1498 51.3357 30.9491C48.7915 30.95 46.2643 30.95 43.7116 30.95ZM44.0155 28.6144C45.1762 28.6144 46.3379 28.6144 47.4958 28.6144C47.5336 27.7481 47.0457 27.162 46.2511 27.0724C45.1073 26.944 44.191 27.5782 44.0155 28.6144Z" fill="#001E82"/>
<path d="M58.5266 32.5646C59.7779 32.2947 60.9868 32.0333 62.2221 31.7672C62.4137 32.4117 62.7846 32.8779 63.4536 32.9902C63.7509 33.0402 64.0736 33.027 64.3709 32.9723C64.7276 32.9062 64.9588 32.6684 64.9805 32.2777C65.0003 31.9173 64.8446 31.6596 64.4341 31.5407C63.817 31.3614 63.1847 31.2378 62.56 31.0821C62.2136 30.9962 61.8635 30.9141 61.5276 30.7943C59.5949 30.1063 58.9956 28.6219 59.5741 26.742C59.9601 25.486 60.8585 24.6546 62.0513 24.1752C63.682 23.5203 65.3552 23.4712 67.0142 24.0714C68.4005 24.5725 69.2489 25.5671 69.5442 27.0865C68.2986 27.3488 67.0595 27.6102 65.8138 27.8726C65.7355 27.7235 65.6751 27.5951 65.6043 27.4734C65.2183 26.81 64.4153 26.5467 63.7113 26.8553C63.3876 26.9968 63.1903 27.2346 63.2007 27.6008C63.2102 27.9547 63.4442 28.1453 63.7509 28.2217C64.503 28.4067 65.2608 28.5662 66.0158 28.7379C66.8434 28.9257 67.62 29.2211 68.2014 29.8732C69.1215 30.9056 69.1771 32.7628 68.3438 34.0566C67.6833 35.0815 66.7037 35.6326 65.5486 35.893C63.8 36.2875 62.0843 36.2186 60.4621 35.3759C59.4439 34.8474 58.7739 34.0311 58.5606 32.8798C58.5436 32.7873 58.5398 32.692 58.5266 32.5646Z" fill="#001E82"/>
<path d="M72.028 21.0781C73.4331 21.0781 74.8147 21.0781 76.2491 21.0781C76.0962 22.0303 75.9462 22.9636 75.7886 23.9441C76.6615 23.9441 77.5137 23.9441 78.4158 23.9441C78.2611 24.8246 78.1205 25.6541 77.9685 26.4817C77.9157 26.7714 77.927 27.1678 77.7467 27.3122C77.5608 27.4603 77.1768 27.3641 76.8795 27.3669C76.402 27.3707 75.9245 27.3773 75.4479 27.3641C75.2488 27.3584 75.1742 27.4414 75.145 27.6236C75.0044 28.5059 74.8458 29.3855 74.7166 30.2697C74.5278 31.5654 75.2026 32.3034 76.5152 32.259C76.6455 32.2543 76.7747 32.2581 76.9578 32.2581C76.888 32.678 76.8219 33.0942 76.7502 33.5094C76.6426 34.1313 76.5152 34.7513 76.4284 35.376C76.3841 35.695 76.2661 35.8413 75.9264 35.8667C74.8524 35.947 73.8059 35.8762 72.8065 35.4383C71.1777 34.7249 70.2123 33.1989 70.352 31.37C70.4407 30.2093 70.6615 29.058 70.8521 27.9076C71.2221 25.6749 71.6118 23.4449 71.994 21.214C72.0006 21.1782 72.0119 21.1442 72.028 21.0781Z" fill="#001E82"/>
<path d="M78.4167 35.8184C78.5838 34.8549 78.7376 33.9509 78.8971 33.0487C79.4123 30.1261 79.9342 27.2044 80.441 24.2799C80.4853 24.0251 80.574 23.9458 80.8288 23.9487C81.9018 23.9619 82.9748 23.9543 84.0836 23.9543C84.0346 24.3705 83.9902 24.7546 83.9317 25.25C84.4356 24.5781 85.0122 24.1789 85.7115 23.9628C86.3976 23.7514 87.0893 23.7231 87.8376 23.9137C87.5715 25.2547 87.3092 26.5816 87.0468 27.9037C86.6505 27.9037 86.2777 27.8565 85.921 27.9122C84.7706 28.0915 83.926 28.9719 83.7316 30.1176C83.424 31.9276 83.1097 33.7357 82.7879 35.5429C82.77 35.6438 82.6568 35.8052 82.586 35.8062C81.2157 35.8222 79.8446 35.8184 78.4167 35.8184Z" fill="#001E82"/>
</svg>
