<svg width="120" height="60" viewBox="0 0 120 60" fill="none" xmlns="http://www.w3.org/2000/svg">
<path d="M109.725 35.2361V34.9506H109.904C109.999 34.9506 110.137 34.9612 110.137 35.0775C110.137 35.1938 110.063 35.2361 109.947 35.2361H109.725ZM109.725 35.437H109.851L110.137 35.9339H110.444L110.126 35.4158C110.285 35.4264 110.412 35.3101 110.422 35.1515C110.422 35.1409 110.422 35.1198 110.422 35.1092C110.422 34.8343 110.232 34.7497 109.915 34.7497H109.46V35.9339H109.725V35.437ZM111.057 35.3418C111.057 34.644 110.518 34.2422 109.915 34.2422C109.312 34.2422 108.773 34.644 108.773 35.3418C108.773 36.0396 109.312 36.4414 109.915 36.4414C110.518 36.4414 111.057 36.0396 111.057 35.3418ZM110.718 35.3418C110.74 35.7859 110.391 36.1665 109.947 36.1877C109.936 36.1877 109.925 36.1877 109.915 36.1877C109.45 36.2088 109.058 35.8387 109.037 35.3735C109.016 34.9083 109.386 34.5171 109.851 34.4959C110.317 34.4748 110.708 34.8449 110.729 35.3101C110.718 35.3207 110.718 35.3312 110.718 35.3418Z" fill="black"/>
<path d="M69.1341 23.5949V36.0712H72.655V23.5949H69.1341ZM41.4324 23.5737V36.0606H44.985V26.365L47.7551 26.3756C48.6644 26.3756 49.2988 26.5977 49.7323 27.0629C50.2927 27.655 50.5147 28.6171 50.5147 30.3617V36.0606H53.9616V29.1669C53.9616 24.2398 50.8214 23.5737 47.7551 23.5737H41.4324V23.5737ZM74.8119 23.5949V36.0712H80.5214C83.5665 36.0712 84.5604 35.5637 85.6283 34.4324C86.3895 33.6394 86.8759 31.8842 86.8759 29.9705C86.8759 28.2154 86.4635 26.6505 85.734 25.6778C84.4441 23.9332 82.562 23.5949 79.7496 23.5949H74.8119ZM78.3011 26.3016H79.813C82.0122 26.3016 83.429 27.2849 83.429 29.8436C83.429 32.4023 82.0122 33.3962 79.813 33.3962H78.3011V26.3016ZM64.059 23.5949L61.1196 33.4808L58.3072 23.5949H54.5008L58.5186 36.0712H63.5938L67.6539 23.5949H64.059ZM88.5253 36.0712H92.0462V23.5949H88.5253V36.0712ZM98.4007 23.5949L93.4841 36.0606H96.9521L97.7346 33.8509H103.55L104.29 36.0501H108.065L103.106 23.5949H98.4007ZM100.684 25.8681L102.82 31.7045H98.4852L100.684 25.8681Z" fill="black"/>
<path d="M18.7106 25.6672V23.9544C18.8798 23.9438 19.049 23.9332 19.2181 23.9332C23.9126 23.7852 26.9894 27.9722 26.9894 27.9722C26.9894 27.9722 23.6695 32.5821 20.1063 32.5821C19.6305 32.5821 19.1653 32.5081 18.7212 32.36V27.158C20.5504 27.3801 20.9204 28.1836 22.0095 30.0128L24.4519 27.9616C24.4519 27.9616 22.665 25.6249 19.6622 25.6249C19.345 25.6144 19.0278 25.6355 18.7106 25.6672ZM18.7106 20V22.5587C18.8798 22.5481 19.049 22.5376 19.2181 22.527C25.7418 22.305 30.0028 27.877 30.0028 27.877C30.0028 27.877 25.118 33.8191 20.0323 33.8191C19.5882 33.8191 19.1547 33.7769 18.7212 33.7028V35.2888C19.0807 35.3311 19.4508 35.3628 19.8102 35.3628C24.547 35.3628 27.9727 32.9416 31.2927 30.0868C31.8425 30.5309 34.0946 31.5988 34.5598 32.064C31.409 34.7073 24.0607 36.8325 19.8948 36.8325C19.493 36.8325 19.1124 36.8114 18.7318 36.7691V39H36.7273V20H18.7106ZM18.7106 32.36V33.7134C14.3333 32.931 13.1174 28.374 13.1174 28.374C13.1174 28.374 15.2215 26.0479 18.7106 25.6672V27.1475H18.7001C16.8709 26.9254 15.4329 28.6383 15.4329 28.6383C15.4329 28.6383 16.2471 31.5248 18.7106 32.36ZM10.9393 28.1836C10.9393 28.1836 13.5298 24.3561 18.7212 23.9544V22.5587C12.9694 23.0239 8 27.8876 8 27.8876C8 27.8876 10.8125 36.0289 18.7106 36.7691V35.2888C12.9165 34.5698 10.9393 28.1836 10.9393 28.1836Z" fill="#76B900"/>
</svg>
