<svg width="75" height="26" viewBox="0 0 75 26" fill="none" xmlns="http://www.w3.org/2000/svg">
<g clip-path="url(#clip0_11264_9672)">
<path d="M42.4199 25.9131C42.4412 25.5315 42.4838 25.1499 42.4838 24.7683C42.4838 18.5899 42.4838 12.4096 42.4838 6.08737C43.437 6.08737 44.3688 6.06252 45.2953 6.11399C45.4408 6.11399 45.629 6.45478 45.6858 6.66777C45.7798 7.02275 45.7816 7.39193 45.8633 8.04332C47.5565 6.09979 49.5089 5.42355 51.7702 5.8087C53.4013 6.08559 54.8532 6.78846 55.959 8.06817C58.3799 10.8708 58.0622 15.5104 56.2234 17.7858C55.617 18.5528 54.8505 19.1783 53.9774 19.6185C53.1044 20.0587 52.1457 20.3031 51.1685 20.3346C49.2161 20.4411 47.411 19.9601 45.9715 18.4496V25.9131H42.4199ZM50.281 8.9787C48.1192 8.74796 46.1135 10.4537 46.1508 13.0166C46.1845 15.3613 47.7482 17.1451 50.3769 17.122C52.1518 17.106 53.2948 16.1511 54.1042 14.756C54.3899 14.2644 54.3722 13.5562 54.374 12.9456C54.3775 10.5406 52.7233 8.95918 50.281 8.9787Z" fill="#0569FF"/>
<path d="M58.9277 25.9133C58.9508 25.5317 58.9916 25.1501 58.9934 24.7685C58.9934 18.8562 59.0023 12.944 58.9757 7.03175C58.9757 6.32178 59.1531 5.9668 59.9093 6.06619C60.0275 6.07419 60.1461 6.07419 60.2642 6.06619C62.048 6.06619 62.048 6.06619 62.3249 7.84111C62.458 7.77011 62.6071 7.73816 62.6799 7.64764C64.3874 5.42368 68.2301 5.30298 70.6386 6.69984C75.0635 9.26459 75.0581 15.8921 71.7284 18.7515C70.0227 20.214 66.7001 20.8459 64.6678 19.8857C63.8975 19.52 63.1716 19.0621 62.3036 18.5793V25.9133H58.9277ZM66.7374 8.97173C66.2294 8.92767 65.7177 8.98597 65.2326 9.14316C64.7476 9.30035 64.299 9.55324 63.9134 9.88687C63.5278 10.2205 63.213 10.6281 62.9878 11.0855C62.7625 11.5429 62.6312 12.0409 62.6018 12.55C62.529 15.2549 64.1265 17.0405 66.4338 17.1204C69.3323 17.2197 70.7966 15.2194 70.8161 13.0665C70.8427 10.7147 69.4512 8.95575 66.7356 8.97173H66.7374Z" fill="#0569FF"/>
<path d="M16.5067 -0.000976562C16.4854 0.794185 16.4073 1.59644 16.457 2.38628C16.5067 3.17612 16.2032 3.35361 15.4932 3.32521C14.0733 3.27906 12.6534 3.30746 11.2334 3.29859C10.046 3.28971 10.0478 3.28616 10.0496 4.4505C10.0496 9.30193 10.0525 14.1534 10.0584 19.0048V19.9331H6.45536V18.9427C6.45536 14.0617 6.43939 9.18065 6.47311 4.30141C6.47311 3.5382 6.29562 3.25777 5.49336 3.28971C3.66342 3.36604 1.83171 3.35183 0 3.37313V0.000794668L16.5067 -0.000976562Z" fill="#0569FF"/>
<path d="M29.3964 14.1334C29.6644 16.0326 30.8714 16.9981 32.932 17.2928C34.6377 17.5377 36.1269 16.8739 37.5468 16.5029L39.7566 18.2299C38.7449 18.7926 37.9905 19.3588 37.1475 19.68C34.1993 20.7698 31.3293 20.6971 28.6421 18.8618C26.947 17.7028 26.2388 15.9421 26.0258 14.0536C25.7117 11.2474 26.3897 8.69333 28.8462 6.95391C30.4969 5.78602 32.3694 5.43991 34.3839 5.6529C35.9813 5.82152 37.3835 6.36287 38.5301 7.47929C40.3175 9.21515 40.5837 11.432 40.3654 13.7572C40.3494 13.9098 39.8329 14.1246 39.5471 14.1263C36.5032 14.153 33.4592 14.1423 30.417 14.1423L29.3964 14.1334ZM29.5881 11.3752H37.0623C37.2397 9.52753 35.6814 8.7022 34.0343 8.50696C32.0996 8.278 29.6928 9.38554 29.5881 11.3752Z" fill="#0569FF"/>
<path d="M24.4903 9.52152C23.4662 9.3174 22.6249 9.02454 21.7765 9.00324C19.5028 8.94822 18.1947 10.354 18.2089 12.6596C18.2249 14.8179 18.1894 16.9744 18.2409 19.1309C18.2569 19.8568 18.0066 20.0184 17.3286 20.0184C14.9626 20.0059 14.9608 20.029 14.9591 17.6684C14.9591 14.1185 14.9591 10.5776 14.9307 7.03131C14.9307 6.30005 15.1472 6.01429 15.8873 6.06754C16.5583 6.11723 17.2345 6.07818 17.9178 6.07818C18.0456 6.61066 18.1557 7.05084 18.3207 7.72886C19.4478 5.99122 20.9831 5.56169 22.758 5.71255C23.8691 5.8084 24.8879 6.11901 25.8073 6.95499L24.4903 9.52152Z" fill="#0569FF"/>
</g>
<defs>
<clipPath id="clip0_11264_9672">
<rect width="74.1026" height="25.9137" fill="white"/>
</clipPath>
</defs>
</svg>
