<svg width="128" height="20" viewBox="0 0 128 20" fill="none" xmlns="http://www.w3.org/2000/svg">
<g clip-path="url(#clip0_860_4040)">
<path d="M48.9206 15.5309C48.1734 16.0848 47.5064 16.7824 46.705 17.1336C45.5387 17.6605 44.2117 17.7066 43.0117 17.2618C41.8117 16.8171 40.8352 15.9174 40.2939 14.7578C39.0141 12.0519 39.0612 9.33666 40.7983 6.79346C42.4789 4.33982 46.8417 4.03812 48.402 6.23721C48.4468 6.29849 48.5364 6.32677 48.7155 6.44462C48.7155 5.12706 48.7344 3.91084 48.6896 2.69462C48.6896 2.5697 48.3266 2.367 48.1215 2.35521C46.7663 2.27508 46.7945 2.28687 46.7592 0.903307C46.745 0.314057 46.9289 0.149067 47.5111 0.167923C48.8357 0.21035 50.1627 0.182065 51.5675 0.182065C51.5816 0.481404 51.6028 0.7336 51.6028 0.988156C51.6028 5.25905 51.6028 9.52914 51.6028 13.7985C51.6028 15.0241 51.6028 15.0241 52.8167 15.0972C52.9227 15.0972 53.0265 15.1302 53.2032 15.1608C53.2238 15.7108 53.216 16.2615 53.1797 16.8107C53.1655 16.9498 52.878 17.1596 52.7083 17.1643C51.8692 17.1996 51.0254 17.202 50.1863 17.1643C49.2647 17.1266 48.9135 16.7329 48.9182 15.8349L48.9206 15.5309ZM48.9418 11.3519C48.6943 10.4586 48.5882 9.63129 48.2347 8.91476C47.2282 6.81231 44.4635 6.64496 43.127 8.55885C42.1842 9.90706 42.156 12.3018 43.0634 13.716C44.2419 15.545 46.9124 15.6157 48.0673 13.7702C48.5269 13.056 48.6684 12.1486 48.9418 11.3519Z" fill="#3373AE"/>
<path d="M103.976 7.20901L102.562 7.08173V5.09006H108.287C108.287 5.67931 108.32 6.245 108.264 6.80361C108.252 6.92853 107.917 7.13359 107.755 7.11238C107 7.02281 106.522 7.34808 106.083 7.9279C105.447 8.76935 104.731 9.54952 104.132 10.2566C104.877 11.4988 105.626 12.6348 106.253 13.8322C106.708 14.6972 107.241 15.2865 108.41 15.0625C108.41 15.7201 108.424 16.3047 108.396 16.8869C108.396 16.9859 108.219 17.0919 108.106 17.1603C108.021 17.1872 107.932 17.1937 107.844 17.1791C104.457 17.1579 105.117 17.4926 103.512 14.7585C103.064 13.9972 102.645 13.2241 102.201 12.4604C102.029 12.1767 101.767 11.9591 101.456 11.8428C101.145 11.7265 100.804 11.7182 100.488 11.8193C100.416 11.8566 100.354 11.9101 100.306 11.9755C100.258 12.041 100.226 12.1166 100.212 12.1964C100.186 13.012 100.174 13.8275 100.212 14.6383C100.212 14.7938 100.464 15.0107 100.643 15.0649C100.926 15.1103 101.213 15.1167 101.497 15.0838C101.497 15.7154 101.525 16.2623 101.478 16.7997C101.447 16.8889 101.394 16.9689 101.324 17.032C101.254 17.0951 101.169 17.1393 101.077 17.1603C99.3495 17.1838 97.61 17.2852 95.8918 17.1296C95.015 17.0519 95.6231 16.1161 95.4675 15.5905C95.3662 15.2417 95.5689 15.0979 95.9389 15.0814C97.1952 15.0248 97.1928 15.0107 97.1928 13.7426C97.1928 10.2071 97.1928 6.65276 97.2046 3.10783C97.2046 2.51858 97.0632 2.23573 96.4362 2.33237C96.2794 2.34573 96.1217 2.34573 95.9648 2.33237C95.8753 2.33237 95.7621 2.36301 95.7032 2.33237C95.0456 1.88218 95.5147 1.21751 95.3992 0.658901C95.3332 0.350133 95.4911 0.1875 95.8493 0.1875C97.1339 0.201642 98.4185 0.206356 99.703 0.1875C100.25 0.1875 100.174 0.536343 100.174 0.856895C100.174 3.49674 100.174 6.13894 100.174 8.78114C100.174 9.08283 100.297 9.62965 100.41 9.63908C100.94 9.68386 101.641 9.78522 101.985 9.50474C102.706 8.89899 103.248 8.08581 103.976 7.20901Z" fill="#3373AE"/>
<path d="M65.1044 15.0104C64.4161 15.6444 63.8623 16.3208 63.1622 16.771C61.7339 17.6855 60.1665 17.7916 58.5802 17.1599C58.1637 17.0017 57.7915 16.7453 57.4953 16.4125C57.199 16.0798 56.9874 15.6804 56.8785 15.2484C56.6595 14.4665 56.5299 13.6624 56.4919 12.8513C56.4353 11.1779 56.4589 9.50203 56.4919 7.82856C56.4919 7.32416 56.3552 7.12146 55.8249 7.12146C54.5709 7.12146 54.6087 7.09318 54.5662 5.83454C54.5427 5.18872 54.7501 4.99781 55.3888 5.02845C56.4283 5.08031 57.4748 5.08031 58.5142 5.02845C59.1718 4.99545 59.3957 5.16987 59.3816 5.86047C59.3345 7.92992 59.3627 10.0017 59.3651 12.0712C59.3614 12.3791 59.3779 12.687 59.4146 12.9928C59.6715 14.7817 61.1069 15.5077 62.7144 14.6427C64.1592 13.8649 64.7391 12.5214 64.8475 10.9846C64.9205 9.9098 64.8475 8.82558 64.8758 7.74607C64.8758 7.27467 64.7084 7.14032 64.2582 7.1309C63.0797 7.10497 63.0797 7.08847 63.0797 5.90761C63.0797 5.05202 63.0797 5.04966 63.9542 5.04966C65.0195 5.04966 66.0755 5.07794 67.1456 5.04966C67.6971 5.0308 67.8644 5.20286 67.8527 5.75676C67.8267 8.53095 67.8527 11.3075 67.8527 14.0817C67.8527 15.0245 67.9234 15.1282 68.8662 15.1023C69.4036 15.0858 69.5568 15.2696 69.5426 15.7834C69.4978 17.4546 69.7288 17.1788 68.1496 17.1976C67.5957 17.1976 67.0419 17.2094 66.4997 17.1976C65.4509 17.1623 65.1162 16.8158 65.1115 15.7834L65.1044 15.0104Z" fill="#3373AE"/>
<path d="M117.708 9.69581C117.988 8.18026 117.208 7.10311 115.697 7.15967C114.688 7.19739 113.689 7.58864 112.692 7.84555C112.445 7.94073 112.208 8.06077 111.985 8.20382L110.946 6.31822C111.914 5.53098 113.006 5.19865 114.139 4.96766C115.315 4.71773 116.533 4.75573 117.691 5.07844C119.471 5.58048 120.572 6.89334 120.654 8.78365C120.725 10.4548 120.687 12.1306 120.694 13.8064C120.694 15.0132 120.725 15.0391 121.957 15.0957C122.066 15.0957 122.172 15.1216 122.377 15.1499C122.397 15.7148 122.39 16.2804 122.353 16.8446C122.339 16.9766 122.035 17.1746 121.858 17.1816C121.062 17.2146 120.26 17.2146 119.464 17.1816C118.424 17.1369 118.071 16.7315 118.073 15.6755C118.082 15.5366 118.036 15.3997 117.946 15.2937C117.828 15.4516 117.71 15.6095 117.59 15.7651C116.235 17.6507 113.347 18.1221 111.481 16.7338C111.022 16.3877 110.654 15.9349 110.41 15.4148C110.165 14.8946 110.052 14.3227 110.078 13.7485C110.104 13.1744 110.27 12.6154 110.562 12.1199C110.853 11.6244 111.261 11.2074 111.749 10.905C113.305 9.97865 115.049 9.7948 116.805 9.7453C117.111 9.74294 117.415 9.71467 117.708 9.69581ZM116.765 11.3033C115.855 11.5555 114.917 11.7323 114.05 12.0787C113.182 12.4252 112.871 13.2572 113.093 14.1081C113.281 14.8765 113.995 15.3856 114.889 15.3856C116.239 15.3856 117.514 14.1435 117.774 12.5572C117.941 11.5248 117.861 11.4306 116.76 11.3104L116.765 11.3033Z" fill="#3373AE"/>
<path d="M36.2856 14.016L37.292 15.8498C36.3522 16.6353 35.2194 17.1553 34.0111 17.3559C31.284 17.8485 28.8775 17.2946 27.1145 15.0272C24.7575 11.9913 25.7639 7.2137 29.0991 5.48838C31.3972 4.29573 34.3717 4.67756 35.9933 6.40524C37.2048 7.69452 37.5136 9.29493 37.49 10.992C37.49 11.4634 37.1742 11.4893 36.8088 11.4893C34.4377 11.4893 32.0666 11.4893 29.6954 11.4893C28.8068 11.4893 28.7785 11.5294 28.9883 12.392C29.2242 13.3156 29.8126 14.1099 30.6273 14.6047C31.442 15.0995 32.4181 15.2554 33.3464 15.0389C34.3316 14.8315 35.2532 14.379 36.2856 14.016ZM34.3528 9.79225C34.4872 8.27906 33.4808 7.07935 32.0666 7.01807C30.4685 6.94736 29.0025 8.2602 29.0378 9.79225H34.3528Z" fill="#3373AE"/>
<path d="M92.4252 14.0169C92.5807 14.288 92.7834 14.6486 92.9885 15.0116C93.5165 15.9544 93.5165 15.9544 92.602 16.4565C89.8608 17.9909 86.5327 17.8707 84.3336 16.1477C82.0237 14.3399 81.2907 10.7266 82.6837 8.04431C84.0319 5.45161 86.9899 4.22125 89.9197 5.06505C91.9656 5.65431 93.0521 7.11093 93.4764 9.11438C93.9596 11.3983 93.8818 11.4832 91.5908 11.4832C89.6408 11.4832 87.6915 11.4832 85.7431 11.4832C84.9747 11.4832 84.9323 11.5468 85.1185 12.2846C85.2245 12.756 85.4231 13.2016 85.7028 13.5956C85.9825 13.9896 86.3378 14.324 86.7479 14.5795C87.158 14.835 87.6148 15.0064 88.0917 15.0838C88.5686 15.1613 89.0562 15.1431 89.5261 15.0305C90.483 14.8301 91.3881 14.3894 92.4252 14.0169ZM90.5537 9.80028C90.5537 8.7302 90.2308 7.88167 89.321 7.34899C88.3311 6.77153 87.3458 6.93888 86.436 7.53284C86.0523 7.7783 85.7331 8.1124 85.5054 8.50701C85.2778 8.90161 85.1483 9.34517 85.1279 9.80028H90.5537Z" fill="#3373AE"/>
<path d="M71.4043 7.12039V5.09101C72.6299 5.09101 73.8202 5.04151 75.0034 5.10986C75.7105 5.15228 76.057 5.65904 76.0782 6.39207C76.0924 6.84461 76.0782 7.29716 76.0782 7.8817C76.5496 7.19581 76.8796 6.60891 77.3015 6.09508C77.9497 5.30784 78.843 4.93308 79.8447 4.81287C80.3279 4.75395 80.606 4.91187 80.5801 5.46105C80.5542 6.01023 80.6084 6.60656 80.5542 7.1746C80.5353 7.34901 80.269 7.646 80.1205 7.646C77.3581 7.60828 76.3351 9.84272 76.2197 11.7095C76.1631 12.6523 76.2197 13.5951 76.1937 14.5379C76.1819 14.9881 76.3917 15.0871 76.7971 15.0988C77.952 15.1248 77.9521 15.1389 77.9497 16.3268C77.9497 17.1801 77.9497 17.1824 77.0705 17.1824C75.4772 17.1824 73.8815 17.1518 72.2882 17.1989C71.6259 17.2178 71.4019 16.9892 71.5033 16.374C71.5056 16.352 71.5056 16.3299 71.5033 16.308C71.5033 15.1295 71.5033 15.1177 72.6818 15.1012C73.1391 15.1012 73.3135 14.9362 73.3111 14.4837C73.3017 12.3058 73.3017 10.1271 73.3111 7.9477C73.3111 7.37023 73.0566 7.08739 72.4649 7.11567C72.1373 7.13453 71.8121 7.12039 71.4043 7.12039Z" fill="#3373AE"/>
<path d="M124.788 0.215332H127.678C127.692 0.451032 127.72 0.656094 127.716 0.865867C127.636 4.45558 127.541 8.04294 127.48 11.6327C127.48 12.1253 127.313 12.3068 126.82 12.2643C126.423 12.2278 126.023 12.2278 125.625 12.2643C125.092 12.3162 124.941 12.1017 124.934 11.5902C124.904 8.88203 124.835 6.16913 124.793 3.46565C124.774 2.39793 124.788 1.32548 124.788 0.215332Z" fill="#3373AE"/>
<path d="M124.828 15.8039C124.828 14.4722 124.828 14.4722 126.16 14.4722C127.626 14.4722 127.628 14.4722 127.626 15.9547C127.626 17.343 127.734 17.1733 126.37 17.1898H126.238C124.828 17.1898 124.828 17.1898 124.828 15.8039Z" fill="#3373AE"/>
</g>
<path fill-rule="evenodd" clip-rule="evenodd" d="M0.0494169 3.32676C0.47813 2.08227 1.88955 -0.107935 4.55693 0.00413991H18.5198C19.1329 0.00413991 19.6298 0.501113 19.6298 1.11416V15.5716C19.6298 15.6507 19.6219 15.7295 19.6029 15.8062C19.3041 17.0106 18.1851 19.2749 15.8324 19.5464H0V3.64233C0 3.53485 0.0144095 3.42838 0.0494169 3.32676ZM6.13457 4.09375C4.81167 4.09375 3.73926 5.16617 3.73926 6.48906H13.4958C14.8186 6.48906 15.8911 5.41664 15.8911 4.09375H6.13457ZM3.73926 10.9878C3.73926 9.66494 4.81167 8.59253 6.13457 8.59253H10.1073C10.1073 9.91542 9.03485 10.9878 7.71196 10.9878H3.73926ZM6.13457 13.0913C4.81167 13.0913 3.73926 14.1637 3.73926 15.4866H13.4958C14.8186 15.4866 15.8911 14.4142 15.8911 13.0913H6.13457Z" fill="#3373AE"/>
<defs>
<clipPath id="clip0_860_4040">
<rect width="102.294" height="17.7152" fill="white" transform="translate(25.7061)"/>
</clipPath>
</defs>
</svg>
