<svg width="127" height="22" viewBox="0 0 127 22" fill="none" xmlns="http://www.w3.org/2000/svg">
<path d="M15.1482 1.11537C15.6106 1.78523 16.3101 2.41359 16.4286 3.13976C16.479 3.45394 15.3853 4.16233 14.7184 4.32535C13.7284 4.58322 12.6851 4.32535 12.285 3.2109C11.8522 1.99567 13.0082 1.68149 13.6632 1.10352L15.1482 1.11537Z" fill="#CD5335"/>
<path d="M9.21372 1.11719C10.8646 2.21978 11.2262 3.40537 9.98138 3.94185C9.01251 4.30929 7.94017 4.29445 6.98184 3.90036C5.81403 3.36091 6.13119 2.35613 7.73173 1.11719H9.21372Z" fill="#CD5335"/>
<path d="M3.28432 1.11719C3.71546 1.34524 4.12429 1.61317 4.50547 1.91746C4.73666 2.13383 5.01526 2.67031 4.92042 2.80665C4.48471 3.38166 4.00455 4.11673 3.38508 4.31235C2.39808 4.60875 1.23324 4.54058 0.717508 3.35499C0.355903 2.50433 0.747147 1.82854 1.6067 1.46101C1.77505 1.36874 1.9322 1.25734 2.07501 1.12904L3.28432 1.11719Z" fill="#CD5335"/>
<path d="M12.4678 18.7365C8.61463 19.6256 6.31459 17.8976 6.30273 14.2905C6.30273 12.1742 6.30273 10.0579 6.30273 7.94167C6.30273 6.40337 7.01705 5.66534 8.502 5.61495C10.0403 5.5616 10.8346 6.31445 10.8732 7.94759C10.9028 9.8149 10.891 11.6852 10.8732 13.5554C10.8554 15.4257 10.7872 17.3019 12.4678 18.7365Z" fill="#CD5335"/>
<path d="M6.95402 19.0298C5.54021 18.9646 4.5532 19.0031 3.59584 18.852C1.94194 18.5971 0.670396 17.0558 0.631865 15.2804C0.584441 12.6632 0.596297 10.046 0.631865 7.4318C0.631865 6.24621 1.44993 5.54375 2.80743 5.62674C3.92484 5.69491 5.03039 5.92314 5.03632 7.4318C5.03632 9.60142 5.09264 11.777 5.03632 13.9525C4.96519 15.7398 5.27048 17.37 6.95402 19.0298Z" fill="#CD5335"/>
<path d="M18.4666 18.9448C17.3521 18.9448 16.6141 18.9982 15.885 18.9448C13.6887 18.7611 12.2571 17.2702 12.2156 15.0739C12.1711 12.6079 12.1919 10.1389 12.2156 7.66397C12.2156 6.26794 13.0158 5.58919 14.483 5.6129C15.9502 5.63662 16.6171 6.29165 16.6289 7.63137C16.6497 9.60537 16.6823 11.5794 16.6289 13.5593C16.5578 15.4711 16.7475 17.285 18.4666 18.9448Z" fill="#CD5335"/>
<path d="M87.6234 19.0603L86.2807 17.7532C84.9173 19.1966 83.0648 19.5316 81.0375 18.9388C79.5229 18.4853 78.6663 17.3115 78.693 15.9066C78.7197 14.3713 79.7096 12.999 81.3339 12.8033C83.0174 12.6018 84.7425 12.7589 86.4704 12.7589C86.9921 10.9805 85.9547 9.55483 83.8266 9.42738C82.8722 9.3681 81.9 9.70303 80.9308 9.79788C80.5923 9.78041 80.2585 9.71145 79.9408 9.59336C80.1691 9.29697 80.3676 8.76345 80.6344 8.72788C82.0838 8.52633 83.5628 8.26551 85.0092 8.36925C85.7842 8.44274 86.5086 8.78698 87.055 9.34151C87.6013 9.89604 87.9349 10.6254 87.9969 11.4014C88.1184 13.8526 88.0295 16.3156 88.0295 18.7728L87.6234 19.0603ZM83.7495 13.4939L83.6991 13.3398C82.8633 13.568 81.9534 13.657 81.2064 14.0541C79.6503 14.8781 79.68 16.8373 81.1827 17.7621C82.6855 18.6868 85.2463 18.1474 86.2511 16.7395C87.3152 15.2575 86.8143 13.9148 85.0655 13.6036C84.629 13.5447 84.1898 13.5081 83.7495 13.4939Z" fill="#CD5335" stroke="#CD5335" stroke-width="1.11719"/>
<path d="M125.338 14.1576C122.967 14.1576 120.646 14.1576 118.337 14.1576C116.669 14.1576 116.44 14.5844 117.273 16.0635C118.64 18.4821 121.512 18.7755 124.138 16.7481C125.077 17.1127 124.897 17.5514 124.268 18.0997C122.238 19.8781 118.459 19.5195 116.666 17.3854C115.169 15.607 114.97 12.6638 116.212 10.5979C117.371 8.67132 119.384 7.8177 121.669 8.286C124.055 8.7632 125.528 11.004 125.338 14.1576ZM124.019 13.144C123.723 10.4141 122.342 9.15444 120.089 9.32635C118.251 9.46863 116.888 11.0721 116.95 13.144H124.019Z" fill="#CD5335" stroke="#CD5335" stroke-width="1.11719"/>
<path d="M60.191 19.2003C57.1174 19.1855 54.684 16.8292 54.6632 13.8444C54.6425 10.8597 57.2122 8.3107 60.2473 8.3107C60.9741 8.30524 61.6948 8.44322 62.3682 8.71676C63.0416 8.99029 63.6543 9.39399 64.1714 9.90474C64.6885 10.4155 65.0997 11.0232 65.3815 11.6932C65.6633 12.3631 65.8102 13.0821 65.8137 13.8089C65.8018 16.8647 63.3625 19.2003 60.191 19.2003ZM60.1377 9.3392C57.8613 9.3392 56.0474 11.2599 56.0385 13.6785C56.0385 16.0496 57.9888 18.08 60.3066 18.0829C61.4256 18.0626 62.4908 17.5994 63.2687 16.7949C64.0466 15.9903 64.4736 14.9101 64.4562 13.7911C64.4473 11.2273 62.5948 9.32438 60.1377 9.32735V9.3392Z" fill="#CD5335" stroke="#CD5335" stroke-width="1.11719"/>
<path d="M31.3958 18.8982H30.0413C30.0413 15.5815 30.0176 12.2945 30.0828 9.00746C30.0828 8.71106 30.6756 8.4532 31.2506 7.94043L31.4937 9.98853C31.8464 9.69214 32.1072 9.50245 32.3443 9.28608C33.7404 8.01157 35.3557 7.90783 37.0393 8.49173C38.7228 9.07563 39.2504 10.5487 39.3363 12.1315C39.443 14.0966 39.4015 16.0736 39.3363 18.0446C39.3363 18.341 38.8917 18.6374 38.6546 18.9101C38.4442 18.5959 38.0618 18.2847 38.0618 17.9646C37.9996 16.2899 38.047 14.6123 38.0233 12.9258C37.9936 10.5961 36.8555 9.31571 34.8489 9.31275C32.7534 9.31275 31.4077 10.7592 31.3958 13.0562C31.387 14.9917 31.3958 16.9094 31.3958 18.8982Z" fill="#CD5335" stroke="#CD5335" stroke-width="1.11719"/>
<path d="M42.7606 8.57074C44.4145 7.85643 43.967 9.2406 44.3138 9.95789C45.5616 8.55 47.0258 7.94831 48.8368 8.25656C50.4551 8.53221 51.7296 9.63481 51.8333 11.2472C51.9815 13.4583 51.9756 15.6932 51.9638 17.9013C51.9638 18.2274 51.5696 18.5534 51.371 18.8794C51.1635 18.5564 50.7782 18.2422 50.7782 17.9102C50.6922 16.037 50.8226 14.1489 50.627 12.2787C50.3306 9.49847 47.5741 8.32474 45.4163 10.0735C44.7422 10.6942 44.3113 11.5349 44.2011 12.4447C44.0085 14.2023 44.1685 16.0014 44.0826 17.7798C44.0618 18.171 43.6261 18.5415 43.3831 18.9209C43.1815 18.5475 42.814 18.174 42.808 17.7946C42.7369 14.7328 42.7606 11.677 42.7606 8.57074Z" fill="#CD5335" stroke="#CD5335" stroke-width="1.11719"/>
<path d="M67.0947 8.52411C68.2388 8.11212 68.6271 8.59524 68.9442 9.39552C69.9647 12.0691 71.1465 14.6782 72.4832 17.2085C72.8982 16.186 73.3072 15.1634 73.7251 14.1468C74.398 12.5077 75.0263 10.8479 75.7999 9.25028C76.0104 8.80568 76.618 8.55375 77.0448 8.21289L77.4479 8.62785C76.0104 11.9564 74.5906 15.2938 73.1175 18.6075C73.0523 18.7766 72.937 18.9216 72.787 19.0233C72.6371 19.125 72.4596 19.1785 72.2785 19.1765C72.0973 19.1746 71.9211 19.1174 71.7733 19.0125C71.6256 18.9076 71.5134 18.7601 71.4518 18.5898C69.9698 15.2553 68.556 11.909 67.0947 8.52411Z" fill="#CD5335" stroke="#CD5335" stroke-width="1.11719"/>
<path d="M114.07 8.58239C112.624 11.9109 111.195 15.2454 109.722 18.5591C109.36 19.3713 108.438 19.395 108.083 18.5947C106.601 15.2839 105.181 11.9465 103.72 8.57054C104.784 8.0637 105.202 8.52608 105.543 9.37674C106.568 11.9643 107.644 14.5311 108.868 17.5188C109.491 16.1109 109.968 15.0824 110.401 14.0391C111.064 12.4533 111.648 10.832 112.377 9.27596C112.6 8.80469 113.193 8.50533 113.616 8.12891L114.07 8.58239Z" fill="#CD5335" stroke="#CD5335" stroke-width="1.11719"/>
<path d="M93.3135 8.34351H96.479C96.9384 9.59134 96.2004 9.58245 95.4623 9.57652H93.349C93.349 12.0544 93.2394 14.3604 93.3935 16.6486C93.4824 17.9349 94.4754 18.2284 96.7635 17.8045C96.5383 18.2787 96.4671 18.7382 96.2181 18.8953C94.5435 19.9267 92.116 18.7352 92.0063 16.7879C91.8967 14.8405 91.953 12.9347 91.95 11.0229C91.95 10.2523 91.9915 9.50242 90.8593 9.52021C90.6844 9.52021 90.3643 9.15564 90.3613 8.95113C90.3584 8.74661 90.6844 8.38501 90.8534 8.39094C92.0064 8.43836 91.9471 7.6618 91.9471 6.90895C91.9093 6.51342 91.9253 6.11461 91.9945 5.72336C92.0656 5.47142 92.3739 5.28469 92.5873 5.07129C92.7829 5.29655 93.1178 5.50106 93.1534 5.75004C93.2571 6.56513 93.2601 7.39208 93.3135 8.34351Z" fill="#CD5335" stroke="#CD5335" stroke-width="1.11719"/>
<path d="M26.3163 8.5943V18.8822L25.0032 18.9712C25.0032 15.613 24.9795 12.3763 25.0447 9.14264C25.0447 8.82549 25.6108 8.5202 25.9132 8.20898L26.3163 8.5943Z" fill="#CD5335" stroke="#CD5335" stroke-width="1.11719"/>
<path d="M99.6922 13.6806C99.6922 12.252 99.6447 10.8204 99.7218 9.39474C99.7396 9.04203 100.149 8.7071 100.377 8.36328C100.596 8.67746 101.002 8.98571 101.008 9.30286C101.056 12.2095 101.056 15.1172 101.008 18.0258C101.008 18.3222 100.567 18.6186 100.329 18.915C100.119 18.5979 99.7366 18.2896 99.7366 17.9636C99.6448 16.532 99.6922 15.1093 99.6922 13.6806Z" fill="#CD5335" stroke="#CD5335" stroke-width="1.11719"/>
<path d="M99.7015 4.18848H100.976C101.009 4.50266 101.178 4.91761 101.038 5.12213C100.899 5.32664 100.312 5.63489 100.149 5.53412C99.8023 5.31478 99.5978 4.86426 99.334 4.50858L99.7015 4.18848Z" fill="#CD5335" stroke="#CD5335" stroke-width="1.11719"/>
<path d="M25.3864 3.97266L26.4238 4.86185L25.7124 5.57617L24.8232 4.5536L25.3864 3.97266Z" fill="#CD5335" stroke="#CD5335" stroke-width="1.11719"/>
</svg>
