<svg width="70" height="21" viewBox="0 0 70 21" fill="none" xmlns="http://www.w3.org/2000/svg">
<g clip-path="url(#clip0_11264_9720)">
<path d="M69.8868 -0.000976562C70.1927 1.47201 69.6364 2.47024 68.2178 2.99372C67.2405 3.35063 66.9312 4.01348 66.9821 5.07743C67.0824 7.13904 67.0178 9.20915 67.0093 11.2776C66.9974 13.9306 66.0066 15.2274 63.4215 15.8665C61.594 16.3201 59.67 16.1857 57.9233 15.4824C56.4225 14.8943 55.6271 13.7573 55.605 12.1546C55.5659 9.29583 55.588 6.43541 55.5693 3.57498C55.5693 3.13309 55.6781 2.92743 56.1693 2.86795C57.116 2.75237 58.0525 2.54332 59.0994 2.35807C59.1164 2.70818 59.1402 3.00221 59.1402 3.29624C59.1402 5.84564 59.1402 8.39504 59.1402 10.9444C59.1402 12.5947 59.7826 13.3562 61.1474 13.3732C62.7229 13.3919 63.43 12.6695 63.4453 10.924C63.4708 8.12141 63.4555 5.31537 63.4572 2.51443V1.55586L69.7168 -0.000976562H69.8868Z" fill="#87D780"/>
<path d="M40.5986 1.21182C43.148 1.21182 45.6498 1.04186 48.1194 1.25431C51.0478 1.50076 52.4958 4.43256 50.9832 6.68453C50.6433 7.18251 50.3288 7.689 50.0025 8.19208L49.6235 7.90994C49.7935 8.01362 49.9634 8.12239 50.1453 8.21757C51.6749 9.03848 52.2766 10.3217 52.093 12.0196C51.9095 13.7175 50.9373 14.7304 49.338 15.174C48.7728 15.3507 48.1874 15.4547 47.5959 15.4834C45.281 15.519 42.9645 15.4987 40.5986 15.4987V1.21182ZM44.297 12.747C45.1587 12.747 45.9762 12.8116 46.7784 12.7283C47.5806 12.645 48.1058 11.9414 48.1143 11.1188C48.1228 10.2554 47.6571 9.63844 46.7716 9.55176C45.9677 9.47188 45.1502 9.53476 44.297 9.53476V12.747ZM44.3157 3.92099V6.64884C45.0533 6.64884 45.7535 6.67943 46.4521 6.64884C47.4072 6.59615 47.8661 6.18825 47.9069 5.43873C47.9511 4.62122 47.4361 4.02636 46.503 3.94138C45.8028 3.87849 45.0924 3.92778 44.3157 3.92778V3.92099Z" fill="#87D780"/>
<path d="M27.5864 8.46092C27.5864 9.48068 27.6051 10.5004 27.5864 11.5202C27.5303 14.0934 26.4834 15.4038 23.9459 15.9935C22.0913 16.4586 20.1379 16.3338 18.3576 15.6366C16.8602 15.0401 15.9781 13.937 15.9662 12.2663C15.9458 9.86139 15.9509 7.45476 15.9543 5.04982C15.9543 3.27034 16.9146 2.12821 18.485 1.49086C20.8288 0.539089 23.1844 0.641065 25.4857 1.66082C26.8301 2.25738 27.5031 3.36042 27.5524 4.81188C27.5915 6.02709 27.5524 7.2457 27.5524 8.46432L27.5864 8.46092ZM19.5643 8.60369C19.5643 9.62344 19.5779 10.6432 19.5643 11.6545C19.5524 12.4006 19.9365 12.8782 20.5518 13.2028C22.1443 14.0526 23.951 13.0243 23.9799 11.2296C24.0121 9.36001 24.0019 7.50065 23.9799 5.63619C23.968 4.40398 23.2048 3.70884 21.9182 3.69015C20.4736 3.66805 19.6374 4.3088 19.583 5.5597C19.5286 6.56757 19.5643 7.58563 19.5643 8.60369V8.60369Z" fill="#87D780"/>
<path d="M11.5898 15.4854H8.02066V14.5506C8.02066 11.5763 8.02066 8.60203 8.00706 5.62773C8.00706 4.45501 7.37311 3.79556 6.21739 3.70379C4.76593 3.58651 3.86344 4.14738 3.66799 5.3218C3.61237 5.7158 3.59019 6.11379 3.6017 6.51152C3.6017 9.48072 3.6017 12.4499 3.6017 15.4769H0.00195312V13.5105C0.00195312 10.8472 0.00195312 8.18393 0.00195312 5.52236C0.00195312 3.26189 0.839854 2.04498 2.97455 1.31755C5.05696 0.59806 7.33302 0.682316 9.35654 1.55379C10.7332 2.12146 11.566 3.17181 11.5898 4.67935C11.6527 8.18903 11.651 11.7021 11.6714 15.2169C11.6553 15.3094 11.6279 15.3996 11.5898 15.4854V15.4854Z" fill="#87D780"/>
<path d="M35.9084 15.5114H32.3613V1.22461H35.9084V15.5114Z" fill="#87D780"/>
</g>
<circle cx="58.5656" cy="19.1759" r="1.55482" fill="#87D780"/>
<circle cx="64.7843" cy="19.1759" r="1.55482" fill="#87D780"/>
<defs>
<clipPath id="clip0_11264_9720">
<rect width="69.9674" height="16.2635" fill="white"/>
</clipPath>
</defs>
</svg>
