<svg width="62" height="18" fill="none" xmlns="http://www.w3.org/2000/svg">
    <path d="M24.966 13.599a3.62 3.62 0 0 1-.82 1.274c-.355.355-.779.63-1.276.823a4.5 4.5 0 0 1-1.64.294c-.93 0-1.727-.223-2.388-.666a3.067 3.067 0 0 1-1.299-1.817h1.35c.131.28.296.508.5.678.201.171.42.298.648.386.227.087.446.144.66.175.215.03.388.044.534.044.496 0 .915-.083 1.266-.254a2.425 2.425 0 0 0 1.317-1.568c.096-.342.146-.679.146-1.02v-.789a3.62 3.62 0 0 1-1.116.942c-.46.258-.976.385-1.54.385-.566 0-1.09-.1-1.564-.306a3.795 3.795 0 0 1-1.235-.846c-.35-.359-.624-.78-.82-1.252a3.987 3.987 0 0 1-.296-1.533c0-.548.1-1.056.296-1.537.196-.482.47-.898.82-1.253a3.99 3.99 0 0 1 1.235-.845c.474-.21.998-.315 1.563-.315a3.11 3.11 0 0 1 1.577.407c.474.271.857.6 1.13.98V4.792h1.244v7.16c0 .6-.096 1.153-.291 1.648zm-1.212-6.127a2.883 2.883 0 0 0-.578-.898 2.632 2.632 0 0 0-.843-.605 2.457 2.457 0 0 0-1.026-.219c-.364 0-.706.075-1.03.22a2.455 2.455 0 0 0-.833.604c-.233.258-.42.556-.556.898a2.914 2.914 0 0 0-.205 1.094c0 .381.068.74.205 1.078.136.341.319.635.556.889.232.254.51.451.834.6a2.51 2.51 0 0 0 2.055 0c.319-.145.601-.346.843-.6.241-.254.433-.548.578-.89.142-.34.215-.7.215-1.077 0-.39-.073-.753-.215-1.094zM32.781 12.298v-1.209c-.273.39-.647.718-1.12.99a3.123 3.123 0 0 1-1.577.407c-.565 0-1.09-.1-1.563-.306a3.794 3.794 0 0 1-1.235-.846c-.351-.359-.624-.78-.82-1.252a3.989 3.989 0 0 1-.297-1.533c0-.548.1-1.056.297-1.537.196-.482.469-.898.82-1.253.35-.355.76-.635 1.235-.845.474-.21.998-.315 1.563-.315a3.11 3.11 0 0 1 1.576.407c.474.271.848.6 1.121.977V4.787h1.244v7.51h-1.244zm-.255-4.809A2.793 2.793 0 0 0 31.104 6a2.39 2.39 0 0 0-1.025-.219c-.364 0-.706.075-1.03.219a2.503 2.503 0 0 0-.834.6 2.896 2.896 0 0 0-.76 1.966c0 .377.068.736.205 1.065.136.328.319.622.555.867.233.25.51.447.834.591a2.51 2.51 0 0 0 2.056 0c.318-.144.601-.341.843-.591a2.96 2.96 0 0 0 .578-.867c.141-.329.214-.688.214-1.065 0-.376-.073-.74-.214-1.077zM40.582 12.298v-.815a2.71 2.71 0 0 1-.97.727c-.383.175-.82.263-1.303.263a3.35 3.35 0 0 1-1.276-.232 2.558 2.558 0 0 1-.948-.657 2.761 2.761 0 0 1-.583-.998 3.91 3.91 0 0 1-.196-1.275v-4.52h1.276v4.581c0 .605.164 1.087.492 1.446.328.359.806.538 1.435.538.283 0 .547-.048.797-.144a1.912 1.912 0 0 0 1.24-1.809V4.791h1.29v7.511h-1.254v-.004zM50.43 13.599a3.62 3.62 0 0 1-.82 1.274 3.65 3.65 0 0 1-1.276.823 4.5 4.5 0 0 1-1.64.294c-.93 0-1.728-.223-2.389-.666a3.067 3.067 0 0 1-1.298-1.817h1.349c.132.28.296.508.5.678.201.171.42.298.648.386.228.087.447.144.66.175.215.03.388.044.534.044.496 0 .916-.083 1.267-.254a2.425 2.425 0 0 0 1.316-1.568c.096-.342.146-.679.146-1.02v-.789a3.62 3.62 0 0 1-1.116.942c-.46.258-.975.385-1.54.385-.565 0-1.09-.1-1.563-.306a3.794 3.794 0 0 1-1.235-.846c-.351-.359-.624-.78-.82-1.252a3.989 3.989 0 0 1-.297-1.533c0-.548.1-1.056.297-1.537.196-.482.469-.898.82-1.253.35-.355.76-.635 1.235-.845.474-.21.998-.315 1.563-.315a3.11 3.11 0 0 1 1.576.407c.474.271.848.6 1.121.977V4.787h1.244v7.16a4.458 4.458 0 0 1-.282 1.652zm-1.212-6.127a2.879 2.879 0 0 0-.579-.898 2.63 2.63 0 0 0-.843-.605 2.456 2.456 0 0 0-1.025-.219c-.365 0-.707.075-1.03.22a2.455 2.455 0 0 0-.834.604c-.232.258-.42.556-.556.898a2.914 2.914 0 0 0-.205 1.094c0 .381.068.74.205 1.078.137.341.32.635.556.889.232.254.51.451.834.6a2.51 2.51 0 0 0 2.055 0c.319-.145.602-.346.843-.6s.433-.548.579-.89c.141-.34.214-.7.214-1.077a2.917 2.917 0 0 0-.214-1.094zM57.958 11.825c-.638.433-1.413.648-2.32.648a4.048 4.048 0 0 1-2.843-1.139 3.8 3.8 0 0 1-.847-1.24c-.21-.476-.31-.989-.31-1.545 0-.543.105-1.056.31-1.537.205-.482.487-.898.843-1.253.355-.355.77-.635 1.244-.845.474-.21.984-.315 1.53-.315a3.898 3.898 0 0 1 2.739 1.139c.37.367.661.814.88 1.34.219.525.328 1.12.328 1.795H52.94c.041.39.146.736.31 1.042.164.307.373.565.624.78a2.648 2.648 0 0 0 1.763.657c.556 0 1.03-.123 1.418-.364.387-.24.692-.582.902-1.02h1.367c-.278.806-.73 1.423-1.367 1.857zm-.25-4.892a2.818 2.818 0 0 0-.584-.648c-.223-.18-.47-.32-.738-.416a2.422 2.422 0 0 0-1.636-.005 2.586 2.586 0 0 0-.743.403c-.228.175-.428.39-.606.644a2.608 2.608 0 0 0-.387.858h5.067a2.923 2.923 0 0 0-.374-.836zM13.561 14.277H3.231c-.716 0-1.29-.556-1.29-1.239V8.693c0-.687.579-1.239 1.29-1.239.71 0 1.29.556 1.29 1.24v3.104h5.923l-8.13-7.817a1.206 1.206 0 0 1 0-1.756 1.327 1.327 0 0 1 1.828 0l10.335 9.933c.37.354.479.889.278 1.353-.2.464-.67.766-1.194.766zM13.561 8.072a1.31 1.31 0 0 1-.911-.364L8.776 3.985a1.206 1.206 0 0 1 0-1.756 1.327 1.327 0 0 1 1.828 0l3.873 3.723c.506.486.506 1.27 0 1.756a1.33 1.33 0 0 1-.916.364z" fill="#000"/>
</svg>
