<svg width="774" height="156" viewBox="0 0 774 156" fill="none" xmlns="http://www.w3.org/2000/svg">
<path d="M68.066 87.5984C60.3572 89.7818 55.2998 93.61 51.9683 97.4353C55.1592 94.6483 59.4336 92.0906 65.1993 90.4594C71.0966 88.7913 76.1277 88.8032 80.2848 89.6039V86.3596C76.7385 86.036 72.6729 86.2939 68.066 87.5984ZM51.6159 60.3256L22.9869 67.8531C22.9869 67.8531 23.5087 68.5887 24.4748 69.5702L48.7486 63.1866C48.7486 63.1866 48.4047 67.6101 45.4175 71.5673C51.068 67.3008 51.6159 60.3256 51.6159 60.3256ZM75.5803 127.475C35.2917 138.305 13.9762 91.7073 7.5228 67.5211C4.54124 56.3571 3.23968 47.9018 2.89276 42.4454C2.85549 41.8788 2.87272 41.4012 2.91286 40.9636C0.822899 41.0896 -0.177694 42.1738 0.0258822 45.3071C0.372794 50.7604 1.67436 59.2151 4.65592 70.3828C11.1065 94.5653 32.4248 141.163 72.7136 130.333C81.483 127.976 88.0713 123.681 93.0168 118.199C88.4583 122.308 82.7531 125.544 75.5803 127.475ZM83.1515 31.8074V34.669H98.9542C98.63 33.6558 98.3034 32.7429 97.9791 31.8074H83.1515Z" fill="#2D4552"/>
<path d="M103.063 55.4555C110.191 57.4824 113.96 62.486 115.953 66.9141L123.9 69.1741C123.9 69.1741 122.816 53.6767 108.816 49.695C95.7189 45.9692 87.6592 56.9814 86.6789 58.4064C90.4888 55.6886 96.0525 53.4634 103.063 55.4555ZM166.326 66.9856C153.217 63.2429 145.16 74.278 144.194 75.6831C148.007 72.9684 153.568 70.7426 160.575 72.7437C167.692 74.7736 171.459 79.7712 173.457 84.2023L181.416 86.4707C181.416 86.4707 180.314 70.9703 166.326 66.9856ZM158.43 107.847L92.3176 89.341C92.3176 89.341 93.0333 92.9743 95.7795 97.6787L151.443 113.26C156.026 110.605 158.43 107.847 158.43 107.847ZM112.594 147.68C60.2457 133.628 66.5744 66.845 75.0451 35.199C78.5328 22.1575 82.1183 12.4641 85.0919 5.96629C83.3177 5.60062 81.8483 6.53633 80.3964 9.49301C77.2392 15.9044 73.2019 26.3435 69.2948 40.9572C60.8265 72.6025 54.4978 139.383 106.844 153.436C131.517 160.054 150.738 149.995 165.067 134.198C151.466 146.532 134.102 153.447 112.594 147.68Z" fill="#2D4552"/>
<path d="M83.5954 112.282V98.7758L45.8636 109.417C45.8636 109.417 48.6516 93.3054 68.3298 87.7537C74.2975 86.0716 79.3893 86.083 83.5954 86.891V31.4928H102.488C100.431 25.171 98.4408 20.3039 96.7694 16.9221C94.0047 11.3246 91.1703 15.0352 84.7359 20.3876C80.2041 24.1529 68.7505 32.1857 51.515 36.8048C34.2793 41.4269 20.3452 40.2011 14.5313 39.1998C6.28918 37.7856 1.97811 35.9854 2.38141 42.2204C2.7324 47.7197 4.04956 56.2462 7.06672 67.5073C13.5942 91.8942 35.167 138.884 75.9368 127.964C86.5865 125.11 94.1034 119.469 99.3138 112.279H83.5954V112.282ZM22.7096 67.8421L51.6833 60.2512C51.6833 60.2512 50.8388 71.3365 39.9771 74.1843C29.1124 77.0291 22.7096 67.8421 22.7096 67.8421Z" fill="#E2574C"/>
<path d="M191.712 32.267C184.258 33.577 166.375 35.2089 144.275 29.2704C122.169 23.3354 107.502 12.9554 101.691 8.07639C93.4533 1.15941 89.8297 -3.64765 86.2636 3.62342C83.1109 10.0366 79.0792 20.474 75.177 35.0852C66.7213 66.7252 60.4015 133.494 112.673 147.544C164.934 161.583 192.757 100.588 201.213 68.9445C205.115 54.3363 206.826 43.2743 207.297 36.1417C207.834 28.0619 202.298 30.4074 191.712 32.267ZM86.6884 58.4441C86.6884 58.4441 94.926 45.6 108.897 49.5811C122.878 53.5621 123.961 69.0569 123.961 69.0569L86.6884 58.4441ZM120.793 116.08C96.2183 108.863 92.4282 89.2174 92.4282 89.2174L158.445 107.721C158.445 107.718 145.119 123.206 120.793 116.08ZM144.134 75.706C144.134 75.706 152.361 62.8709 166.33 66.8633C180.298 70.8504 181.398 86.3451 181.398 86.3451L144.134 75.706Z" fill="#2EAD33"/>
<path d="M69.8971 102.516L45.5368 109.43C45.5368 109.43 48.183 94.3351 66.1283 88.3531L52.3344 36.5183L51.1424 36.8811C34.0374 41.4999 20.2089 40.2745 14.4391 39.2741C6.25943 37.8616 1.98102 36.0623 2.3812 42.2928C2.7296 47.7875 4.03672 56.3063 7.03102 67.5587C13.5091 91.9246 34.9185 138.876 75.3792 127.964L76.5711 127.589L69.8971 102.516ZM22.5583 67.8931L51.3125 60.308C51.3125 60.308 50.4744 71.384 39.6949 74.2295C28.9126 77.0719 22.5583 67.8931 22.5583 67.8931Z" fill="#D65348"/>
<path d="M121.363 115.931L120.263 115.661C95.9408 108.471 92.1896 88.8959 92.1896 88.8959L125.882 98.4009L143.72 29.2223L143.504 29.1649C121.625 23.2513 107.109 12.9087 101.357 8.04728C93.2042 1.15523 89.6178 -3.6345 86.0884 3.61036C82.971 10.0005 78.9808 20.4002 75.1187 34.9587C66.7499 66.4847 60.495 133.013 112.23 147.012L113.29 147.253L121.363 115.931ZM86.5117 58.2335C86.5117 58.2335 94.6647 45.4357 108.493 49.4024C122.329 53.3691 123.401 68.808 123.401 68.808L86.5117 58.2335Z" fill="#1D8D22"/>
<path d="M255.321 119V46.2727H284.014C289.53 46.2727 294.23 47.3262 298.112 49.4332C301.995 51.5166 304.954 54.4167 306.99 58.1335C309.05 61.8267 310.08 66.0881 310.08 70.9176C310.08 75.7472 309.038 80.0085 306.955 83.7017C304.871 87.3949 301.853 90.2713 297.899 92.331C293.969 94.3906 289.211 95.4205 283.624 95.4205H265.335V83.098H281.138C284.097 83.098 286.536 82.589 288.453 81.571C290.394 80.5294 291.839 79.0971 292.786 77.2741C293.756 75.4276 294.241 73.3087 294.241 70.9176C294.241 68.5028 293.756 66.3958 292.786 64.5966C291.839 62.7737 290.394 61.3651 288.453 60.3707C286.512 59.3527 284.05 58.8438 281.067 58.8438H270.697V119H255.321ZM334.911 46.2727V119H319.783V46.2727H334.911ZM362.583 120.03C359.103 120.03 356.002 119.426 353.279 118.219C350.557 116.988 348.402 115.177 346.816 112.786C345.254 110.371 344.472 107.364 344.472 103.766C344.472 100.735 345.029 98.1903 346.141 96.1307C347.254 94.071 348.769 92.4138 350.687 91.1591C352.604 89.9044 354.782 88.9574 357.221 88.3182C359.683 87.679 362.263 87.2292 364.962 86.9688C368.135 86.6373 370.692 86.3295 372.633 86.0455C374.574 85.7377 375.983 85.2879 376.859 84.696C377.735 84.1042 378.173 83.2282 378.173 82.0682V81.8551C378.173 79.6061 377.462 77.866 376.042 76.6349C374.645 75.4039 372.656 74.7884 370.076 74.7884C367.353 74.7884 365.187 75.392 363.577 76.5994C361.968 77.7831 360.902 79.2746 360.381 81.0739L346.39 79.9375C347.1 76.6231 348.497 73.7585 350.58 71.3438C352.664 68.9053 355.351 67.035 358.641 65.733C361.956 64.4072 365.791 63.7443 370.147 63.7443C373.177 63.7443 376.077 64.0994 378.847 64.8097C381.641 65.5199 384.115 66.6207 386.269 68.1122C388.447 69.6037 390.164 71.5213 391.418 73.8651C392.673 76.1851 393.3 78.9669 393.3 82.2102V119H378.954V111.436H378.528C377.652 113.141 376.48 114.644 375.012 115.946C373.544 117.224 371.781 118.231 369.721 118.964C367.661 119.675 365.282 120.03 362.583 120.03ZM366.915 109.589C369.141 109.589 371.106 109.152 372.81 108.276C374.515 107.376 375.853 106.169 376.823 104.653C377.794 103.138 378.279 101.422 378.279 99.5043V93.7159C377.806 94.0237 377.155 94.3078 376.326 94.5682C375.521 94.8049 374.61 95.0298 373.592 95.2429C372.574 95.4323 371.556 95.6098 370.538 95.7756C369.52 95.9176 368.596 96.0478 367.768 96.1662C365.992 96.4266 364.442 96.8409 363.116 97.4091C361.79 97.9773 360.76 98.7467 360.026 99.7173C359.292 100.664 358.925 101.848 358.925 103.268C358.925 105.328 359.671 106.902 361.163 107.991C362.678 109.057 364.595 109.589 366.915 109.589ZM412.423 139.455C410.506 139.455 408.706 139.301 407.026 138.993C405.368 138.709 403.995 138.342 402.906 137.892L406.315 126.599C408.091 127.144 409.689 127.44 411.109 127.487C412.554 127.535 413.796 127.203 414.838 126.493C415.903 125.783 416.768 124.575 417.43 122.871L418.318 120.562L398.751 64.4545H414.661L425.953 104.511H426.521L437.92 64.4545H453.936L432.736 124.895C431.718 127.83 430.333 130.387 428.581 132.565C426.853 134.767 424.663 136.46 422.011 137.643C419.36 138.851 416.164 139.455 412.423 139.455ZM472.438 119L457.594 64.4545H472.899L481.351 101.102H481.848L490.655 64.4545H505.676L514.625 100.889H515.087L523.396 64.4545H538.666L523.858 119H507.842L498.467 84.696H497.793L488.418 119H472.438ZM546.736 119V64.4545H561.402V73.9716H561.971C562.965 70.5862 564.634 68.0294 566.978 66.3011C569.321 64.5492 572.02 63.6733 575.074 63.6733C575.832 63.6733 576.649 63.7206 577.525 63.8153C578.4 63.91 579.17 64.0402 579.833 64.206V77.6293C579.123 77.4162 578.14 77.2268 576.885 77.0611C575.631 76.8954 574.482 76.8125 573.441 76.8125C571.215 76.8125 569.227 77.2978 567.475 78.2685C565.747 79.2154 564.373 80.5412 563.355 82.2457C562.361 83.9503 561.864 85.9152 561.864 88.1406V119H546.736ZM587.654 119V64.4545H602.782V119H587.654ZM595.254 57.4233C593.004 57.4233 591.075 56.6776 589.465 55.1861C587.879 53.6709 587.086 51.8598 587.086 49.7528C587.086 47.6695 587.879 45.8821 589.465 44.3906C591.075 42.8755 593.004 42.1179 595.254 42.1179C597.503 42.1179 599.42 42.8755 601.006 44.3906C602.616 45.8821 603.421 47.6695 603.421 49.7528C603.421 51.8598 602.616 53.6709 601.006 55.1861C599.42 56.6776 597.503 57.4233 595.254 57.4233ZM639.474 140.591C634.574 140.591 630.371 139.916 626.868 138.567C623.387 137.241 620.618 135.43 618.558 133.134C616.498 130.837 615.161 128.257 614.545 125.392L628.537 123.51C628.963 124.599 629.637 125.617 630.561 126.564C631.484 127.511 632.703 128.268 634.218 128.837C635.757 129.429 637.627 129.724 639.829 129.724C643.12 129.724 645.831 128.92 647.961 127.31C650.116 125.723 651.193 123.06 651.193 119.32V109.341H650.554C649.891 110.856 648.896 112.288 647.571 113.638C646.245 114.987 644.54 116.088 642.457 116.94C640.374 117.793 637.888 118.219 635 118.219C630.904 118.219 627.175 117.272 623.814 115.378C620.475 113.46 617.812 110.536 615.824 106.607C613.859 102.653 612.876 97.6577 612.876 91.6207C612.876 85.4418 613.882 80.2808 615.895 76.1378C617.907 71.9948 620.582 68.8935 623.92 66.8338C627.282 64.7741 630.963 63.7443 634.964 63.7443C638.018 63.7443 640.575 64.2652 642.635 65.3068C644.694 66.3248 646.351 67.6032 647.606 69.142C648.885 70.6572 649.867 72.1487 650.554 73.6165H651.122V64.4545H666.143V119.533C666.143 124.173 665.007 128.055 662.734 131.18C660.461 134.305 657.313 136.649 653.288 138.212C649.287 139.798 644.682 140.591 639.474 140.591ZM639.794 106.855C642.232 106.855 644.292 106.251 645.973 105.044C647.677 103.813 648.979 102.061 649.879 99.7884C650.802 97.492 651.264 94.7457 651.264 91.5497C651.264 88.3537 650.814 85.5838 649.914 83.2401C649.015 80.8726 647.713 79.0379 646.008 77.7358C644.304 76.4337 642.232 75.7827 639.794 75.7827C637.308 75.7827 635.213 76.4574 633.508 77.8068C631.804 79.1326 630.513 80.9792 629.637 83.3466C628.761 85.714 628.324 88.4484 628.324 91.5497C628.324 94.6984 628.761 97.4209 629.637 99.7173C630.537 101.99 631.827 103.754 633.508 105.009C635.213 106.24 637.308 106.855 639.794 106.855ZM693.309 87.4659V119H678.181V46.2727H692.883V74.0781H693.522C694.753 70.8584 696.742 68.3371 699.488 66.5142C702.234 64.6676 705.679 63.7443 709.822 63.7443C713.61 63.7443 716.913 64.5729 719.73 66.2301C722.571 67.8636 724.772 70.2192 726.335 73.2969C727.921 76.3509 728.702 80.0085 728.679 84.2699V119H713.551V86.9688C713.574 83.607 712.722 80.991 710.994 79.1207C709.289 77.2505 706.898 76.3153 703.821 76.3153C701.761 76.3153 699.938 76.7533 698.352 77.6293C696.789 78.5052 695.558 79.7836 694.659 81.4645C693.783 83.1217 693.333 85.1222 693.309 87.4659ZM769.597 64.4545V75.8182H736.749V64.4545H769.597ZM744.206 51.3864H759.334V102.239C759.334 103.635 759.547 104.724 759.973 105.506C760.399 106.263 760.991 106.796 761.749 107.104C762.53 107.411 763.429 107.565 764.447 107.565C765.158 107.565 765.868 107.506 766.578 107.388C767.288 107.246 767.833 107.139 768.212 107.068L770.591 118.325C769.833 118.562 768.768 118.834 767.395 119.142C766.022 119.473 764.353 119.675 762.388 119.746C758.742 119.888 755.546 119.402 752.8 118.29C750.077 117.177 747.958 115.449 746.443 113.105C744.928 110.761 744.182 107.802 744.206 104.227V51.3864Z" fill="#1D8D22"/>
</svg>
