<svg width="30" height="30" viewBox="0 0 30 30" fill="none" xmlns="http://www.w3.org/2000/svg">
<path fill-rule="evenodd" clip-rule="evenodd" d="M11.2342 0.156908C11.2858 -0.0523024 11.5833 -0.0523028 11.6349 0.156908L11.6989 0.416094C11.8348 0.966428 12.283 1.38449 12.8414 1.48174L13.1365 1.53312C13.3829 1.57605 13.3961 1.92498 13.1535 1.9863L13.057 2.0107C12.3587 2.18723 11.8146 2.73436 11.642 3.43362L11.5787 3.69017C11.5415 3.84064 11.3276 3.84064 11.2905 3.69017C11.079 2.83378 10.4104 2.16512 9.55399 1.95371C9.40352 1.91656 9.40352 1.70265 9.55399 1.66551L9.78185 1.60925C10.4981 1.43243 11.0574 0.873177 11.2342 0.156908ZM16.1066 2.80838C15.9814 2.3009 15.2599 2.3009 15.1346 2.80838C14.7057 4.54583 13.3492 5.90241 11.6117 6.33133L11.059 6.46778C10.694 6.55789 10.694 7.07677 11.059 7.16688C13.1363 7.6797 14.7583 9.30166 15.2711 11.379C15.3612 11.744 15.8801 11.744 15.9702 11.379L16.1108 10.8093C16.5347 9.09219 17.9042 7.76931 19.6349 7.40503L19.8781 7.35385C20.4585 7.23168 20.4585 6.40298 19.8781 6.2808L18.9721 6.09013C17.6466 5.81114 16.5978 4.79799 16.2732 3.48292L16.1066 2.80838ZM9.75507 4.09788C9.72592 3.97237 9.54695 3.9735 9.5178 4.09901C9.41983 4.52074 9.09599 4.85503 8.6772 4.9649L8.54956 4.99839C8.46342 5.02099 8.46342 5.14327 8.54956 5.16587C9.04685 5.29634 9.43097 5.6915 9.54731 6.19229L9.55072 6.20696C9.57184 6.29789 9.70129 6.29789 9.72241 6.20696L9.75917 6.04872C9.85509 5.63583 10.1706 5.30933 10.58 5.19935L10.6367 5.18412C10.7772 5.14636 10.7692 4.94434 10.6261 4.91786L10.4522 4.88568C10.1259 4.82529 9.86644 4.5773 9.79136 4.25409L9.75507 4.09788ZM20.0399 11.0323C21.0082 9.958 21.5823 9.08133 21.9226 8.41945L24.9349 10.1397L25.1906 10.2842C25.4411 10.4274 25.6461 10.6315 25.7881 10.8782C25.9283 11.1224 26.0014 11.4002 25.999 11.677L26 16.8055C26 17.2794 25.4804 17.5756 25.0649 17.3384L23.0753 16.2024C22.8827 16.0924 22.764 15.8894 22.764 15.6696V12.5882L20.0399 11.0323ZM9.22159 9.43459C9.46522 9.77573 9.71318 10.1229 9.97622 10.4554L6.23623 12.5884V17.3089V22.0295L10.289 24.344C10.315 24.3568 10.3707 24.3883 10.6291 24.5356L10.7126 24.6088L10.7818 24.7002C10.9352 24.8159 11.0266 24.9963 11.0266 25.1892V27.4506C11.0266 27.9297 10.4968 28.2251 10.0749 27.9736L9.00988 27.2982L8.75511 27.1562C8.73692 27.146 7.26429 26.3051 4.06443 24.4776L3.81028 24.3336C3.5597 24.1907 3.35414 23.9863 3.21208 23.7396C3.07158 23.4948 2.99847 23.217 3.00122 22.9409L3 17.309V11.668C3 11.3685 3.08562 11.0761 3.24502 10.8248C3.4027 10.5726 3.63103 10.3654 3.86834 10.2521L8.00478 7.89093C8.43067 8.32714 8.82024 8.87262 9.22154 9.43453L9.22159 9.43459ZM23.6983 18.8434C23.2828 18.6071 22.764 18.9032 22.764 19.3767V19.9516L12.4841 14.0844L12.1386 13.8856C11.8256 13.7072 11.4394 13.7259 11.1479 13.9307L10.8745 14.0832L9.35743 14.9456L8.74564 15.2925C8.3008 15.5466 8.16166 16.1027 8.42228 16.5468L8.77015 17.1393L9.12115 17.7383C9.37889 18.1773 9.94309 18.3143 10.3912 18.0554L10.4111 18.0441L10.4114 18.0439C10.9883 17.715 11.0154 17.6995 11.041 17.6819L11.0463 17.6783L11.6762 17.3206L12.922 18.0318L12.9208 29.0762C12.9208 29.5758 13.3308 29.981 13.8367 29.981C14.0687 29.981 14.2905 29.8945 14.4599 29.7395L15.8233 28.6517C16.0616 28.4621 16.1869 28.1689 16.1609 27.8692L16.1627 19.8825L23.5557 24.1154C24.0165 24.3775 24.533 24.2008 24.8847 23.7568L25.8226 22.8124C25.9365 22.6971 26 22.5429 26 22.3823V20.5085C26 20.2884 25.881 20.0851 25.6879 19.9752L23.6983 18.8434Z" fill="#0EBAC5"/>
</svg>
