<svg width="986" height="963" viewBox="0 0 986 963" fill="none" xmlns="http://www.w3.org/2000/svg">
<path d="M493.004 0C220.761 0 0 220.745 0 493.06C0 710.907 141.261 895.727 337.146 960.923C361.785 965.488 370.831 950.227 370.831 937.204C370.831 925.447 370.374 886.607 370.161 845.407C233.007 875.233 204.066 787.232 204.066 787.232C181.64 730.241 149.327 715.087 149.327 715.087C104.596 684.485 152.698 685.114 152.698 685.114C202.204 688.592 228.272 735.924 228.272 735.924C272.243 811.302 343.604 789.51 371.737 776.912C376.162 745.044 388.938 723.293 403.037 710.98C293.535 698.513 178.423 656.235 178.423 467.308C178.423 413.477 197.682 369.493 229.219 334.964C224.1 322.545 207.225 272.396 233.995 204.481C233.995 204.481 275.394 191.229 369.606 255.021C408.932 244.097 451.107 238.618 493.004 238.43C534.901 238.618 577.109 244.097 616.508 255.021C710.606 191.229 751.948 204.481 751.948 204.481C778.783 272.396 761.9 322.545 756.781 334.964C788.392 369.493 807.52 413.477 807.52 467.308C807.52 656.684 692.188 698.382 582.407 710.588C600.091 725.889 615.847 755.895 615.847 801.896C615.847 867.868 615.275 920.965 615.275 937.204C615.275 950.325 624.15 965.7 649.139 960.858C844.919 895.588 986 710.833 986 493.06C986 220.745 765.271 0 493.004 0ZM184.646 702.374C183.56 704.824 179.707 705.559 176.196 703.877C172.621 702.268 170.612 698.929 171.772 696.471C172.833 693.948 176.694 693.246 180.262 694.936C183.846 696.545 185.887 699.917 184.646 702.374ZM208.896 724.015C206.545 726.195 201.949 725.183 198.83 721.737C195.605 718.3 195.001 713.703 197.385 711.49C199.81 709.31 204.267 710.331 207.5 713.768C210.725 717.246 211.354 721.811 208.896 724.015ZM225.533 751.704C222.512 753.802 217.573 751.834 214.52 747.45C211.499 743.065 211.499 737.807 214.585 735.701C217.647 733.594 222.512 735.488 225.606 739.84C228.619 744.298 228.619 749.556 225.533 751.704ZM253.669 783.771C250.967 786.751 245.211 785.951 240.999 781.885C236.688 777.909 235.488 772.267 238.198 769.286C240.933 766.298 246.722 767.139 250.967 771.173C255.245 775.141 256.551 780.823 253.669 783.771ZM290.032 794.596C288.84 798.458 283.297 800.214 277.713 798.573C272.137 796.883 268.488 792.359 269.614 788.457C270.774 784.57 276.341 782.741 281.966 784.497C287.534 786.179 291.192 790.669 290.032 794.596ZM331.415 799.188C331.554 803.255 326.819 806.627 320.957 806.7C315.063 806.831 310.295 803.54 310.23 799.54C310.23 795.433 314.859 792.093 320.753 791.995C326.615 791.881 331.415 795.147 331.415 799.188ZM372.069 797.63C372.771 801.598 368.698 805.672 362.877 806.758C357.154 807.803 351.855 805.354 351.129 801.418C350.418 797.352 354.566 793.278 360.28 792.225C366.11 791.212 371.326 793.596 372.069 797.63Z" fill="#161614"/>
</svg>
