<svg width="105" height="101" viewBox="0 0 105 101" fill="none" xmlns="http://www.w3.org/2000/svg">
<g clip-path="url(#clip0_6949_9016)">
<path d="M104.208 100.999H0.138672L34.7839 27.0984L55.6532 42.4405L82.8741 0L104.208 100.999ZM66.0509 85.0371H66.2736C68.8494 85.0419 71.3261 84.0461 73.1818 82.2605C74.1329 81.3975 74.8893 80.3423 75.4012 79.1646C75.9132 77.9869 76.1691 76.7141 76.1515 75.4301C76.1939 74.193 75.959 72.9623 75.4637 71.8279C74.9685 70.6935 74.2255 69.6843 73.2895 68.8746C71.7114 67.2913 69.5848 66.3756 67.3503 66.317H67.1795C66.8868 66.3156 66.5958 66.3555 66.3146 66.4356L71.8085 58.2691L67.4317 55.2139L65.3604 58.2691L60.0671 66.3541C59.1575 67.6941 58.3964 68.8746 57.9252 69.6949C57.4361 70.5629 57.0153 71.4677 56.6666 72.401C56.2701 73.3928 56.0662 74.4511 56.0653 75.5191C56.0531 76.7881 56.3078 78.0452 56.8131 79.2093C57.3181 80.3733 58.0627 81.4179 58.998 82.2753C60.8293 84.0595 63.2863 85.0561 65.8431 85.0519L66.0509 85.0371ZM42.7836 76.2468L48.8491 84.8254H55.3341L48.1993 74.8732L54.5361 66.0756L50.3301 63.1653L48.4741 65.6153L42.776 73.6484V57.4968L37.0966 52.8678V84.8217H42.776V76.2393L42.7836 76.2468ZM66.0585 79.6805C64.9508 79.6805 63.8886 79.2405 63.1055 78.4573C62.3223 77.6742 61.8823 76.612 61.8823 75.5043C61.8823 74.3967 62.3223 73.3345 63.1055 72.5513C63.8886 71.7682 64.9508 71.3282 66.0585 71.3282H66.0956C66.6455 71.3288 67.1898 71.4406 67.6957 71.6569C68.2015 71.8731 68.6585 72.1895 69.0391 72.5868C69.4397 72.9545 69.7586 73.4023 69.9754 73.9009C70.1919 74.3998 70.3019 74.9382 70.2977 75.482C70.284 76.5972 69.832 77.6619 69.0394 78.4462C68.2467 79.2305 67.177 79.6713 66.0621 79.673L66.0585 79.6805Z" fill="#7D64FF"/>
</g>
<defs>
<clipPath id="clip0_6949_9016">
<rect width="104.348" height="101" fill="white"/>
</clipPath>
</defs>
</svg>
