<svg width="472" height="605" viewBox="0 0 472 605" fill="none" xmlns="http://www.w3.org/2000/svg">
<path d="M330.504 181.159C580.876 305.803 464.37 541.792 246.807 553.922C237.611 554.434 228.348 553.999 219.236 552.645C12.0555 521.857 -62.2181 313.185 133.159 190.392C192.688 152.978 267.564 149.824 330.504 181.159Z" fill="#794422"/>
<path d="M314.813 548.759C424.437 485.467 475.169 305.862 383.367 148.342C388.554 120.789 391.664 95.0468 392.101 71.6381C392.964 64.0571 385.617 58.1768 378.415 60.6817C356.946 65.9441 336.28 73.0215 316.542 82.1924C301.599 71.7746 286.146 68.2608 273.458 67.5912C266.553 67.226 269.162 56.8451 269.72 53.0325C273 45.8481 276.113 39.8221 283.832 32.9328C289.194 28.0264 282.47 21.2829 276.315 25.1471C266.291 29.9355 260.03 34.77 252.97 41.816C250.966 43.3064 248.567 43.168 246.841 42.8452C245.608 42.6147 244.712 41.4895 244.577 40.2408C243.063 26.3332 244.634 13.8587 256.796 4.47569C259.084 2.71049 256.785 -0.681568 254.157 0.120795C233.859 6.3202 225.056 20.3643 218.018 37.7267C212.367 33.7518 205.753 30.2767 198.229 27.2739C196.957 26.6025 195.294 26.1708 194.147 27.0378C192.089 28.5908 189.53 30.2048 190.718 32.9771C198.703 44.5496 206.727 55.8195 215.249 63.192C195.074 67.475 175.995 74.5266 158.271 85.0071L91.0038 59.1249C82.2257 55.7476 73.0586 63.0666 74.4045 72.3796C78.2524 112.356 82.2036 150.972 87.9284 165.935C9.52888 327.412 57.7378 489.362 162.093 548.759H0V603.648H472V548.759H314.813Z" fill="#502D17"/>
<path d="M237.405 197.25C267.477 122.832 333.804 113.264 380.904 160.832C419.997 200.314 421 309.142 326.038 329.198C422.582 409.421 356.637 545.59 246.373 545.59C135.584 544.008 64.8892 410.478 167.767 328.143C71.7479 332.365 55.3717 231.933 90.2131 174.028C122.073 121.076 214.192 112.805 237.405 197.25Z" fill="white"/>
<path d="M281.195 298.058C283.894 294.164 283.752 289.024 281.003 285.167C271.793 272.254 258.605 261.64 239.517 261.64C219.923 261.64 208.28 272.287 197.575 286.447C194.78 290.142 194.584 295.247 197.138 299.111C205.179 311.276 219.016 322.548 234.655 334.111C237.533 336.24 241.46 336.173 244.27 333.954C258.972 322.339 272.702 310.313 281.195 298.058Z" fill="#FF7F2B"/>
<path d="M349.252 226.103C349.252 260.645 326.529 287.942 300.451 287.942C274.373 287.942 253.235 259.941 253.235 225.398C253.235 190.858 274.373 162.857 300.451 162.857C326.529 162.857 349.252 191.561 349.252 226.103ZM220.876 232.261C220.876 266.803 198.154 294.1 172.076 294.1C145.998 294.1 124.859 266.098 124.859 231.556C124.859 197.016 145.998 169.014 172.076 169.014C198.154 169.014 220.876 197.718 220.876 232.261Z" fill="#B1DFEC"/>
<path d="M331.139 233.492C331.139 256.135 316.993 274.322 300.628 274.322C284.263 274.322 270.293 255.96 270.293 233.317C270.293 210.674 284.263 192.324 300.628 192.324C316.993 192.324 331.139 210.849 331.139 233.492ZM203.818 232.788C203.818 255.432 189.673 273.618 173.308 273.618C156.943 273.618 142.973 255.256 142.973 232.613C142.973 209.97 156.943 191.621 173.308 191.621C189.673 191.621 203.818 210.145 203.818 232.788Z" fill="black"/>
<path d="M307.573 213.788C307.573 220.686 302.062 226.279 295.262 226.279C288.464 226.279 282.953 220.686 282.953 213.788C282.953 206.889 288.464 201.297 295.262 201.297C302.062 201.297 307.573 206.889 307.573 213.788ZM189.573 213.084C189.573 219.983 184.062 225.575 177.262 225.575C170.464 225.575 164.953 219.983 164.953 213.084C164.953 206.186 170.464 200.593 177.262 200.593C184.062 200.593 189.573 206.186 189.573 213.084Z" fill="white"/>
<path d="M134.529 574.971C134.529 574.971 134.177 589.925 144.201 590.102C147.343 599.548 158.44 599.498 160.205 591.332H172.866C172.866 591.332 171.634 597.842 179.197 597.666C186.759 597.491 186.054 590.805 186.054 590.805H198.013C198.013 590.805 196.254 597.666 203.992 597.666C211.73 597.666 211.358 589.805 211.358 589.805C215.705 587.071 220.787 587.287 220.787 578.841C220.787 577.002 220.346 574.996 219.5 572.917C214.916 561.665 198.428 548.316 175.327 548.23C160.505 548.328 146.692 557.373 137.518 566.264C134.704 568.99 134.529 574.971 134.529 574.971ZM343.795 574.971C343.795 574.971 343.799 590.452 333.775 590.63C332.195 599.601 319.292 599.496 318.121 591.332H305.458C305.458 591.332 306.338 597.842 298.777 597.666C291.214 597.491 292.27 590.805 292.27 590.805H280.311C280.311 590.805 281.718 597.666 273.98 597.666C266.242 597.666 266.966 589.805 266.966 589.805C262.619 587.071 257.537 587.287 257.537 578.841C257.537 577.002 257.978 574.996 258.824 572.917C263.408 561.665 279.897 548.316 302.997 548.23C317.819 548.328 330.279 557.279 339.929 565.648C343.799 569.694 343.795 574.971 343.795 574.971Z" fill="#FF7F2B"/>
</svg>
