<svg width="25" height="25" viewBox="0 0 25 25" fill="none" xmlns="http://www.w3.org/2000/svg">
<path d="M17.5 1.5H8.5C7.90402 1.50247 7.33316 1.74031 6.91174 2.16174C6.49031 2.58316 6.25247 3.15402 6.25 3.75V20.25C6.25247 20.846 6.49031 21.4168 6.91174 21.8383C7.33316 22.2597 7.90402 22.4975 8.5 22.5H17.5C18.096 22.4975 18.6668 22.2597 19.0883 21.8383C19.5097 21.4168 19.7475 20.846 19.75 20.25V3.75C19.7475 3.15402 19.5097 2.58316 19.0883 2.16174C18.6668 1.74031 18.096 1.50247 17.5 1.5V1.5ZM8.5 3H17.5C17.6989 3 17.8897 3.07902 18.0303 3.21967C18.171 3.36032 18.25 3.55109 18.25 3.75V4.5H7.75V3.75C7.75 3.55109 7.82902 3.36032 7.96967 3.21967C8.11032 3.07902 8.30109 3 8.5 3V3ZM17.5 21H8.5C8.30109 21 8.11032 20.921 7.96967 20.7803C7.82902 20.6397 7.75 20.4489 7.75 20.25V19.5H18.25V20.25C18.25 20.4489 18.171 20.6397 18.0303 20.7803C17.8897 20.921 17.6989 21 17.5 21Z" fill="black"/>
</svg>
