<svg width="32" height="32" viewBox="0 0 32 32" fill="none" xmlns="http://www.w3.org/2000/svg">
<g clip-path="url(#clip0_1613_616)">
<path d="M25.798 10.0001C25.3347 7.73126 24.0983 5.6936 22.2999 4.23485C20.5015 2.77609 18.2527 1.98666 15.9371 2.0013C13.6215 2.01593 11.3828 2.83372 9.60298 4.31509C7.8232 5.79646 6.61267 7.84959 6.17802 10.1241C4.33239 10.4526 2.67683 11.4607 1.53784 12.9497C0.398849 14.4386 -0.140895 16.3003 0.0250467 18.1676C0.190989 20.0349 1.05057 21.7722 2.43428 23.037C3.81799 24.3018 5.62538 25.0022 7.50002 25.0001H8.00002V23.0001H7.50002C6.07258 23.0038 4.69969 22.452 3.67187 21.4614C2.64405 20.4709 2.04195 19.1193 1.99296 17.6927C1.94398 16.2661 2.45196 14.8764 3.40942 13.8176C4.36688 12.7589 5.69869 12.1143 7.12302 12.0201L7.96002 11.9631L8.05002 11.1301C8.25257 9.2699 9.10131 7.53975 10.4484 6.24105C11.7954 4.94234 13.5554 4.15739 15.4217 4.02294C17.288 3.88849 19.1424 4.41308 20.6617 5.50529C22.181 6.59751 23.2689 8.18813 23.736 10.0001H25.798Z" fill="#0EBAC5"/>
<path d="M28 12H18C17.4697 12.0005 16.9613 12.2114 16.5864 12.5864C16.2114 12.9613 16.0005 13.4697 16 14V18H12C11.4697 18.0005 10.9613 18.2114 10.5864 18.5864C10.2114 18.9613 10.0005 19.4697 10 20V30H30V14C29.9995 13.4697 29.7886 12.9613 29.4136 12.5864C29.0387 12.2114 28.5303 12.0005 28 12ZM12 28V20H16V28H12ZM28 28H18V14H28V28Z" fill="#0EBAC5"/>
<path d="M20 16H22V20H20V16ZM24 16H26V20H24V16ZM20 22H22V26H20V22ZM24 22H26V26H24V22Z" fill="#0EBAC5"/>
</g>
<defs>
<clipPath id="clip0_1613_616">
<rect width="32" height="32" fill="white"/>
</clipPath>
</defs>
</svg>
