<svg width="30" height="30" viewBox="0 0 30 30" fill="none" xmlns="http://www.w3.org/2000/svg">
<path d="M21.2415 7.61183C21.5512 7.61279 21.8479 7.73624 22.0669 7.95524C22.2859 8.17423 22.4094 8.47098 22.4103 8.78068V8.90037C23.1939 9.0283 25.8285 9.91293 25.8285 12.761V18.9573C26.1379 19.1625 26.329 19.4424 26.329 19.7511C26.3249 19.8737 26.2954 19.9941 26.2423 20.1047C26.1893 20.2153 26.1138 20.3137 26.0207 20.3937C26.0003 20.8469 26.1314 21.7501 26.1895 22.0924L26.1917 22.1151C26.1917 22.1334 26.1937 22.5703 25.9065 22.8603C25.8212 22.9437 25.7198 23.0087 25.6085 23.0514C25.4971 23.0941 25.3782 23.1135 25.2591 23.1084C24.4168 23.1084 24.381 22.4007 24.3636 22.0604C24.3616 22.0174 24.3599 21.9785 24.3565 21.9443C24.3428 21.8037 24.2935 21.7317 24.2098 21.7304H24.2015C24.1122 21.7304 24.0541 21.7574 23.9585 21.9031C23.6933 22.2958 23.2122 22.2581 22.9555 22.1064C22.8866 22.0678 22.8266 22.0151 22.7794 21.9517C22.7322 21.8883 22.699 21.8157 22.6819 21.7386C22.6339 21.5182 22.714 21.2569 22.9192 20.9624C23.0448 20.7999 23.109 20.5982 23.1006 20.393C23.0077 20.3131 22.9323 20.2147 22.8793 20.1042C22.8263 19.9937 22.7968 19.8734 22.7926 19.7509C22.7926 19.4418 22.9844 19.161 23.2955 18.9558V13.3735C23.2955 12.9084 23.1522 12.731 22.8574 12.4676C22.7311 12.3573 22.5761 12.2851 22.4103 12.2595V21.169C22.4095 21.4787 22.286 21.7755 22.067 21.9945C21.848 22.2136 21.5512 22.337 21.2415 22.3379H20.4126V25.6144H21.0862L21.0992 25.6169C21.1109 25.619 22.2527 25.8444 22.3896 27.0716V28.329H18.319L17.0672 27.8918V26.9401C17.0359 26.4488 17.1241 26.0843 17.3223 25.8846V22.3379H11.982V25.8846C12.1805 26.0843 12.268 26.4488 12.2374 26.9401V27.892L10.9856 28.329H6.91524V27.0718C7.04745 25.8835 8.12184 25.6344 8.20031 25.6179L8.20476 25.6171L8.21845 25.6144H8.89206V22.338H8.08738C7.77768 22.3371 7.48093 22.2136 7.26194 21.9946C7.04294 21.7756 6.91949 21.4789 6.91853 21.1692V12.259C6.75285 12.2848 6.59789 12.3571 6.47176 12.4676C6.17683 12.7312 6.03341 12.9084 6.03341 13.3735V18.9559C6.34433 19.161 6.53623 19.4418 6.53623 19.7509C6.53218 19.8734 6.50274 19.9938 6.44976 20.1043C6.39677 20.2149 6.32141 20.3133 6.22843 20.3932C6.21977 20.5983 6.28388 20.8 6.40945 20.9624C6.61486 21.2569 6.69498 21.5182 6.64734 21.7386C6.63009 21.8157 6.59677 21.8884 6.54956 21.9518C6.50235 22.0152 6.44231 22.0679 6.37334 22.1066C6.11616 22.2582 5.63576 22.296 5.37018 21.9033C5.27456 21.7576 5.21653 21.7305 5.12701 21.7305H5.1191C5.03535 21.7318 4.98589 21.8037 4.97254 21.9443C4.96924 21.9785 4.96726 22.0174 4.96495 22.0606C4.94781 22.4007 4.91204 23.1084 4.0701 23.1084C3.9509 23.1135 3.83191 23.0942 3.72048 23.0515C3.60905 23.0089 3.50754 22.9438 3.4222 22.8605C3.13535 22.5703 3.137 22.1334 3.13733 22.1153L3.13947 22.0922C3.19767 21.7501 3.32873 20.8469 3.30829 20.3937C3.21522 20.3137 3.13977 20.2153 3.0867 20.1047C3.03363 19.9941 3.00411 19.8737 3 19.7511C3 19.4424 3.19074 19.1625 3.50035 18.9573V12.761C3.50035 9.91293 6.13463 9.0283 6.91853 8.90037V8.78068C6.91953 8.47099 7.043 8.17427 7.26199 7.95528C7.48097 7.7363 7.77769 7.61283 8.08738 7.61183H21.2415ZM22.0615 26.9003H18.5493C18.5549 26.9575 18.5569 27.0151 18.5551 27.0724H22.0935C22.0859 27.0145 22.0753 26.9571 22.0615 26.9003ZM10.7555 26.9003H7.24281C7.22896 26.9571 7.21834 27.0145 7.21099 27.0724H10.7492C10.7475 27.015 10.7497 26.9575 10.7555 26.9003ZM17.7054 26.0256C17.6736 26.0225 17.6415 26.0267 17.6116 26.0379C17.5816 26.0491 17.5546 26.067 17.5326 26.0902C17.4202 26.2021 17.3582 26.4321 17.3554 26.736L18.261 27.0522C18.2554 26.7458 18.149 26.4498 17.9583 26.2099C17.8523 26.0803 17.7582 26.0299 17.7054 26.0256ZM11.5985 26.0256C11.5458 26.0299 11.4517 26.0803 11.3457 26.2099C11.155 26.4498 11.0486 26.7458 11.043 27.0522L11.9485 26.736C11.9461 26.4321 11.8841 26.2021 11.7713 26.0902C11.7493 26.067 11.7223 26.0491 11.6924 26.0379C11.6625 26.0267 11.6304 26.0225 11.5985 26.0256ZM11.2248 25.909H8.24697C8.15563 25.9296 7.54467 26.0915 7.2982 26.7238H10.784C10.8414 26.4683 10.9554 26.229 11.1177 26.0234C11.1506 25.9829 11.1866 25.9446 11.2248 25.909ZM21.057 25.909H18.0795C18.1174 25.9446 18.1532 25.9829 18.186 26.0234C18.3484 26.2289 18.4626 26.4682 18.52 26.7238H22.0058C21.7774 26.1379 21.2359 25.9558 21.085 25.916L21.0646 25.9107L21.057 25.909ZM18.0196 22.3377H17.6172V25.6143H18.0195V24.8881H17.8821V24.2695H18.0196V22.3377ZM20.2358 22.3377H19.8652V25.6143H20.2358V22.3377ZM11.6876 22.3377H11.285V24.2693H11.4225V24.8879H11.285V25.6143H11.6876V22.3377ZM9.43939 22.3377H9.06879V25.6143H9.43939V22.3377ZM3.60273 20.6068C3.5748 21.1168 3.51777 21.6247 3.43193 22.1282C3.43391 22.185 3.45221 22.4729 3.63306 22.6547C3.69104 22.7098 3.75976 22.7524 3.83492 22.7798C3.91008 22.8072 3.99008 22.8188 4.06994 22.814C4.27716 22.814 4.41054 22.7579 4.49824 22.6648C4.34429 22.6369 4.20523 22.5553 4.10587 22.4345C3.99509 22.2882 3.97168 22.0986 4.0363 21.8708C4.05906 21.7902 4.07752 21.7267 4.09367 21.6727C4.10719 21.6275 4.11857 21.5889 4.12896 21.5516L4.13901 21.5145C4.17462 21.3794 4.19952 21.2394 4.25557 20.8409C4.02685 20.7983 3.80644 20.7192 3.60273 20.6068ZM25.7261 20.6068C25.5224 20.7192 25.302 20.7982 25.0733 20.8409C25.1499 21.3843 25.1679 21.4466 25.235 21.6727C25.2548 21.7386 25.2739 21.8045 25.2927 21.8708C25.357 22.0986 25.3338 22.2882 25.223 22.4346C25.1236 22.5554 24.9846 22.637 24.8306 22.6648C24.9183 22.7579 25.0515 22.814 25.2591 22.814C25.4205 22.8239 25.5787 22.7662 25.696 22.6547C25.8768 22.4729 25.8951 22.185 25.8969 22.1282C25.8112 21.6247 25.7542 21.1167 25.7261 20.6068ZM24.1105 20.8525C24.0281 20.9778 23.9335 21.0948 23.8284 21.202C23.7229 21.3058 23.6319 21.4234 23.5577 21.5515C23.5467 21.5705 23.5398 21.5917 23.5376 21.6136C23.5354 21.6355 23.5379 21.6576 23.5449 21.6784C23.5681 21.7317 23.6059 21.7773 23.6537 21.8101C23.6761 21.7889 23.6962 21.7655 23.7137 21.7399C23.8182 21.5805 23.9544 21.4333 24.2145 21.4361C24.4584 21.44 24.6212 21.6196 24.6498 21.9163C24.6534 21.9595 24.6562 22.0025 24.6578 22.0457C24.6616 22.161 24.6748 22.2755 24.6974 22.3886C24.7825 22.3787 24.9215 22.3459 24.9887 22.2563C25.0403 22.1875 25.0471 22.0848 25.009 21.9511C24.9907 21.886 24.972 21.8211 24.9528 21.7562C24.8822 21.5192 24.8614 21.4483 24.7817 20.8808C24.5577 20.8992 24.3323 20.8896 24.1107 20.8523M5.21851 20.8523C4.99689 20.8896 4.7715 20.8991 4.54753 20.8807C4.46791 21.4479 4.44697 21.519 4.37624 21.7561C4.36058 21.8093 4.34228 21.8716 4.3197 21.9509C4.28178 22.0848 4.28887 22.1873 4.3403 22.2561C4.40757 22.3458 4.54654 22.3787 4.63161 22.3883C4.65436 22.2754 4.66755 22.1608 4.67118 22.0456C4.67365 21.9978 4.67596 21.9539 4.67958 21.9161C4.70794 21.6194 4.87065 21.4399 5.11448 21.4359C5.37463 21.4331 5.5108 21.5803 5.61565 21.7397C5.6328 21.7653 5.65291 21.7889 5.67533 21.81C5.72314 21.7772 5.76106 21.7317 5.78414 21.6784C5.79119 21.6575 5.79369 21.6353 5.79147 21.6134C5.78925 21.5914 5.78237 21.5702 5.77128 21.5511C5.6971 21.4232 5.60605 21.3057 5.50058 21.202C5.39568 21.0947 5.30128 20.9776 5.21867 20.8523M5.94323 20.6017C5.79287 20.6865 5.63255 20.7523 5.46596 20.7976C5.53062 20.8831 5.60014 20.9648 5.67418 21.0424C5.79507 21.1619 5.89867 21.2976 5.98197 21.4458C6.03291 21.5414 6.04181 21.6537 6.0067 21.7561C5.98495 21.8156 5.95148 21.8701 5.90828 21.9165C6.0174 21.9256 6.12688 21.9035 6.22382 21.8525C6.2924 21.8162 6.34202 21.7518 6.35983 21.6761C6.38917 21.5409 6.32257 21.3525 6.16826 21.1313C6.05371 20.9743 5.97672 20.7931 5.94323 20.6017ZM23.3861 20.6017C23.3527 20.7931 23.2758 20.9743 23.1613 21.1313C23.0068 21.3525 22.9405 21.5411 22.97 21.6761C22.9877 21.7516 23.0371 21.8159 23.1057 21.8525C23.2027 21.9035 23.3122 21.9256 23.4214 21.9165C23.378 21.8702 23.3445 21.8157 23.3228 21.7561C23.3054 21.7054 23.2986 21.6517 23.3029 21.5984C23.3072 21.545 23.3224 21.4931 23.3475 21.4458C23.431 21.2978 23.5346 21.162 23.6553 21.0424C23.7295 20.9649 23.7989 20.8831 23.8637 20.7976C23.697 20.7522 23.5366 20.6866 23.3861 20.6017ZM20.8053 18.6318H8.52393V20.3737C8.52489 20.6834 8.64834 20.9802 8.86733 21.1992C9.08633 21.4182 9.38307 21.5416 9.69278 21.5426H10.1583C9.81214 21.4841 9.50052 21.2978 9.28526 21.0204C9.06999 20.743 8.96679 20.3949 8.99611 20.045C9.02543 19.6952 9.18513 19.3691 9.44355 19.1314C9.70198 18.8937 10.0403 18.7618 10.3914 18.7618C10.7425 18.7618 11.0808 18.8937 11.3392 19.1314C11.5976 19.3691 11.7573 19.6952 11.7866 20.045C11.8159 20.3949 11.7127 20.743 11.4975 21.0204C11.2822 21.2978 10.9706 21.4841 10.6244 21.5426H13.0844C12.7388 21.483 12.4282 21.296 12.2138 21.0184C11.9995 20.7408 11.8972 20.3929 11.9271 20.0435C11.957 19.694 12.1169 19.3686 12.3752 19.1314C12.6335 18.8942 12.9715 18.7626 13.3221 18.7626C13.6728 18.7626 14.0108 18.8942 14.2691 19.1314C14.5274 19.3686 14.6873 19.694 14.7172 20.0435C14.7471 20.3929 14.6448 20.7408 14.4304 21.0184C14.2161 21.296 13.9055 21.483 13.5599 21.5426H19.6366C19.9463 21.5417 20.243 21.4182 20.462 21.1992C20.681 20.9802 20.8044 20.6834 20.8053 20.3737V18.6318ZM13.8987 19.2215C13.6677 19.0797 13.3928 19.0274 13.1258 19.0744C12.8589 19.1214 12.6184 19.2646 12.4498 19.4768C12.2812 19.689 12.1962 19.9557 12.2107 20.2263C12.2253 20.497 12.3384 20.7529 12.5288 20.9459C12.7192 21.1388 12.9737 21.2553 13.2441 21.2734C13.5145 21.2916 13.7823 21.21 13.9967 21.0442C14.2111 20.8785 14.3574 20.6399 14.408 20.3736C14.4585 20.1073 14.4098 19.8317 14.2711 19.5989L13.4583 20.4118C13.4083 20.4599 13.3414 20.4865 13.2719 20.4858C13.2025 20.4851 13.1361 20.4573 13.087 20.4082C13.0379 20.3591 13.01 20.2928 13.0093 20.2234C13.0085 20.1539 13.035 20.087 13.0831 20.0369L13.8987 19.2215ZM10.3915 19.0563C10.1214 19.0564 9.86072 19.1553 9.65859 19.3344C9.45646 19.5134 9.32686 19.7603 9.29424 20.0284C9.26162 20.2964 9.32825 20.5672 9.48155 20.7895C9.63484 21.0118 9.86421 21.1703 10.1264 21.2351V20.1434C10.1264 20.0731 10.1543 20.0057 10.2039 19.956C10.2536 19.9063 10.321 19.8784 10.3913 19.8783C10.4616 19.8783 10.5291 19.9062 10.5788 19.956C10.6285 20.0057 10.6565 20.0731 10.6565 20.1434V21.2351C10.9187 21.1703 11.1481 21.0118 11.3014 20.7895C11.4547 20.5672 11.5213 20.2964 11.4887 20.0284C11.456 19.7603 11.3264 19.5134 11.1243 19.3344C10.9222 19.1553 10.6615 19.0564 10.3915 19.0563ZM17.5345 20.7033C17.6048 20.7033 17.6722 20.7312 17.7219 20.7809C17.7716 20.8306 17.7995 20.8981 17.7995 20.9684C17.7995 21.0387 17.7716 21.1061 17.7219 21.1558C17.6722 21.2055 17.6048 21.2335 17.5345 21.2335H16.4733C16.403 21.2335 16.3355 21.2055 16.2858 21.1558C16.2361 21.1061 16.2082 21.0387 16.2082 20.9684C16.2082 20.8981 16.2361 20.8306 16.2858 20.7809C16.3355 20.7312 16.403 20.7033 16.4733 20.7033H17.5345ZM19.6517 19.9078C19.7209 19.9096 19.7866 19.9382 19.8349 19.9877C19.8832 20.0373 19.9102 20.1037 19.9102 20.1728C19.9102 20.242 19.8832 20.3084 19.8349 20.3579C19.7866 20.4075 19.7209 20.4361 19.6517 20.4379H16.4733C16.4379 20.4387 16.4027 20.4325 16.3698 20.4196C16.3369 20.4067 16.3069 20.3873 16.2816 20.3626C16.2562 20.3379 16.2361 20.3084 16.2224 20.2758C16.2086 20.2432 16.2016 20.2082 16.2016 20.1728C16.2016 20.1375 16.2086 20.1025 16.2224 20.0699C16.2361 20.0373 16.2562 20.0078 16.2816 19.9831C16.3069 19.9584 16.3369 19.939 16.3698 19.9261C16.4027 19.9132 16.4379 19.907 16.4733 19.9078H19.6517ZM19.6517 19.1126C19.722 19.1126 19.7895 19.1405 19.8392 19.1902C19.8889 19.2399 19.9168 19.3073 19.9168 19.3776C19.9168 19.448 19.8889 19.5154 19.8392 19.5651C19.7895 19.6148 19.722 19.6427 19.6517 19.6427H16.4733C16.403 19.6427 16.3355 19.6148 16.2858 19.5651C16.2361 19.5154 16.2082 19.448 16.2082 19.3776C16.2082 19.3073 16.2361 19.2399 16.2858 19.1902C16.3355 19.1405 16.403 19.1126 16.4733 19.1126H19.6517ZM6.91886 9.31664C6.3536 9.43844 5.81844 9.67219 5.34495 10.0041C4.39487 10.6728 3.91315 11.6004 3.91315 12.7609V18.5825H5.26796V13.3735C5.26796 12.6877 5.50124 12.0139 5.96169 11.6024C6.23876 11.3636 6.56583 11.1899 6.91886 11.0941V9.31664ZM22.4107 9.31664V11.0938C22.7638 11.1896 23.091 11.3633 23.3682 11.6022C23.8281 12.0136 24.0616 12.6875 24.0616 13.3733V18.5825H25.4164V12.761C25.4164 11.6004 24.9346 10.6729 23.9846 10.0041C23.5111 9.67219 22.9759 9.43844 22.4107 9.31664ZM20.8053 15.4873C20.4192 15.0478 20.117 14.9917 19.8717 15.0224C19.6738 15.047 19.4518 15.2699 19.2386 15.5089C18.97 15.8108 18.6657 16.153 18.2506 16.153C17.9517 16.153 17.7043 15.9562 17.4416 15.7483C17.0895 15.4692 16.6907 15.153 16.0436 15.1216C15.538 15.0969 15.1244 15.5414 14.8665 15.9182C14.7374 16.1099 14.6234 16.3114 14.5256 16.5208H20.8053V15.4873ZM10.4439 13.2456H10.2419L8.88398 16.4835H9.08577L10.4439 13.2456ZM11.68 13.3158C10.8056 13.3158 10.2241 14.0211 10.2241 14.8087V14.817C10.2241 15.6045 10.7975 16.3015 11.6717 16.3015C12.5457 16.3015 13.1273 15.5963 13.1273 14.8087C13.1314 14.8046 13.1314 14.8046 13.1273 14.8005C13.1273 14.0128 12.5544 13.3158 11.68 13.3158ZM8.80567 13.3654H8.59119V16.2519H8.80567V13.3654ZM11.6716 13.5097C12.3846 13.5097 12.9044 14.0952 12.9044 14.8087V14.817C12.9044 15.5302 12.3933 16.1078 11.6798 16.1078C10.9663 16.1078 10.4467 15.5221 10.4467 14.8087V14.8005C10.4467 14.0872 10.9582 13.5097 11.6716 13.5097ZM20.8051 13.1044H14.3627V15.7186C14.7254 15.1558 15.2965 14.555 16.069 14.5926C16.8861 14.6317 17.3978 15.0369 17.7705 15.3327C17.959 15.482 18.1365 15.6228 18.2503 15.6228C18.4277 15.6228 18.6385 15.3859 18.8428 15.1568C19.1197 14.8452 19.4931 14.5026 19.9305 14.4924C20.2879 14.4841 20.5286 14.5542 20.8051 14.7588V13.1044ZM19.6362 8.34826H9.69261C9.38288 8.34913 9.08609 8.47255 8.86707 8.69157C8.64806 8.91058 8.52464 9.20738 8.52377 9.51711V10.9741H20.8051V9.51694C20.8042 9.20721 20.6808 8.91041 20.4618 8.6914C20.2428 8.47239 19.946 8.34896 19.6362 8.34809M9.37839 10.1787V10.6698H8.88744V10.1787H9.37839ZM10.2032 10.1787V10.6698H9.71207V10.1787H10.2032ZM11.0278 10.1787V10.6698H10.5369V10.1787H11.0278ZM11.8528 10.1787V10.6698H11.3618V10.1787H11.8528ZM18.9735 1C19.2833 1.00087 19.5801 1.12428 19.7992 1.34329C20.0182 1.56229 20.1417 1.85909 20.1427 2.16885V5.98649C20.1417 6.29625 20.0182 6.59304 19.7992 6.81205C19.5801 7.03105 19.2833 7.15447 18.9735 7.15534H10.3552C10.0455 7.15447 9.74866 7.03104 9.52964 6.81203C9.31063 6.59302 9.1872 6.29622 9.18633 5.98649V2.16885C9.1872 1.85909 9.31065 1.56227 9.5297 1.34325C9.74875 1.12423 10.0456 1.00083 10.3553 1H18.9735ZM18.9735 1.29444H10.3552C10.1234 1.29474 9.90117 1.38697 9.73728 1.55089C9.57338 1.71482 9.4812 1.93705 9.48094 2.16885V5.98649C9.4812 6.21832 9.57341 6.44057 9.73733 6.6045C9.90126 6.76843 10.1235 6.86064 10.3553 6.8609H18.9735C19.2054 6.86068 19.4277 6.76849 19.5916 6.60456C19.7556 6.44063 19.8478 6.21834 19.8481 5.98649V2.16885C19.8478 1.93699 19.7556 1.71471 19.5916 1.55078C19.4277 1.38685 19.2054 1.29466 18.9735 1.29444ZM8.7788 3.14086V6.18349C8.57713 6.18646 8.37689 6.14931 8.18971 6.07419C8.00254 5.99906 7.83216 5.88748 7.6885 5.74592C7.54484 5.60435 7.43076 5.43564 7.35289 5.24959C7.27502 5.06354 7.23492 4.86386 7.23492 4.66218C7.23492 4.46049 7.27502 4.26081 7.35289 4.07476C7.43076 3.88871 7.54484 3.72 7.6885 3.57844C7.83216 3.43687 8.00254 3.32529 8.18971 3.25017C8.37689 3.17505 8.57713 3.13789 8.7788 3.14086ZM20.5502 3.14102C20.9536 3.14107 21.3405 3.30135 21.6257 3.58662C21.911 3.87188 22.0712 4.25877 22.0712 4.66218C22.0712 5.06561 21.9109 5.45252 21.6257 5.73779C21.3404 6.02307 20.9535 6.18333 20.5501 6.18333L20.5502 3.14102ZM12.4062 2.99364C12.6107 2.99363 12.8131 3.03389 13.002 3.11213C13.191 3.19036 13.3626 3.30504 13.5072 3.44962C13.6518 3.59419 13.7665 3.76583 13.8447 3.95473C13.923 4.14363 13.9633 4.3461 13.9633 4.55057C13.9633 4.75504 13.923 4.95751 13.8448 5.14641C13.7666 5.33532 13.6519 5.50697 13.5073 5.65156C13.3627 5.79615 13.1911 5.91085 13.0022 5.98911C12.8133 6.06736 12.6108 6.10765 12.4064 6.10766C11.9934 6.10766 11.5973 5.94361 11.3053 5.6516C11.0133 5.35959 10.8493 4.96353 10.8493 4.55057C10.8493 4.1376 11.0133 3.74155 11.3053 3.44954C11.5973 3.15752 11.9934 2.99347 12.4064 2.99347M16.9225 2.99347C17.127 2.99346 17.3294 3.03373 17.5184 3.11196C17.7073 3.1902 17.8789 3.30488 18.0235 3.44945C18.1681 3.59403 18.2828 3.76566 18.361 3.95457C18.4393 4.14347 18.4796 4.34593 18.4796 4.5504C18.4796 4.75487 18.4393 4.95734 18.3611 5.14625C18.2829 5.33516 18.1682 5.50681 18.0236 5.6514C17.879 5.79599 17.7074 5.91069 17.5185 5.98894C17.3296 6.0672 17.1271 6.10748 16.9227 6.10749C16.5097 6.10749 16.1136 5.94344 15.8216 5.65143C15.5296 5.35942 15.3656 4.96337 15.3656 4.5504C15.3656 4.13744 15.5296 3.74138 15.8216 3.44937C16.1136 3.15736 16.5097 2.99331 16.9227 2.99331M12.4069 3.28791C12.2399 3.28596 12.0741 3.31716 11.9193 3.37971C11.7644 3.44225 11.6235 3.5349 11.5047 3.65228C11.3859 3.76967 11.2916 3.90945 11.2272 4.06355C11.1628 4.21764 11.1297 4.38298 11.1296 4.54999C11.1296 4.71699 11.1627 4.88235 11.227 5.03647C11.2913 5.1906 11.3855 5.33044 11.5043 5.44788C11.623 5.56533 11.7639 5.65805 11.9187 5.72068C12.0735 5.7833 12.2392 5.81459 12.4062 5.81273C12.7385 5.80902 13.056 5.67442 13.2897 5.43815C13.5234 5.20188 13.6545 4.88298 13.6546 4.55065C13.6547 4.21831 13.5237 3.89934 13.2901 3.66295C13.0565 3.42655 12.7392 3.2918 12.4069 3.28791ZM16.923 3.28791C16.756 3.28597 16.5903 3.31718 16.4354 3.37974C16.2806 3.44229 16.1397 3.53495 16.0209 3.65234C15.9021 3.76973 15.8078 3.90953 15.7434 4.06362C15.679 4.21772 15.6459 4.38306 15.6458 4.55007C15.6458 4.71708 15.6789 4.88243 15.7432 5.03655C15.8075 5.19068 15.9018 5.33051 16.0205 5.44794C16.1393 5.56538 16.2802 5.65809 16.435 5.72071C16.5898 5.78333 16.7555 5.8146 16.9225 5.81273C17.2548 5.80899 17.5723 5.67438 17.8059 5.43809C18.0396 5.2018 18.1707 4.8829 18.1708 4.55056C18.1709 4.21823 18.0399 3.89927 17.8063 3.66289C17.5727 3.42651 17.2553 3.29177 16.923 3.28791ZM12.0025 3.57427C12.1308 3.52026 12.2685 3.49215 12.4078 3.49155C12.547 3.49095 12.685 3.51788 12.8137 3.5708C12.9425 3.62371 13.0596 3.70156 13.1582 3.79986C13.2568 3.89817 13.335 4.015 13.3883 4.14363C13.4415 4.27226 13.4689 4.41016 13.4687 4.54939C13.4685 4.68862 13.4408 4.82644 13.3872 4.95493C13.3335 5.08342 13.255 5.20003 13.1561 5.29807C13.0573 5.39611 12.94 5.47364 12.8111 5.5262C12.5526 5.63158 12.2629 5.63037 12.0053 5.52283C11.7477 5.41529 11.5431 5.21017 11.4363 4.95228C11.3295 4.69439 11.329 4.40469 11.4351 4.14649C11.5412 3.88828 11.7452 3.68256 12.0025 3.57427ZM16.9227 3.49382C17.2028 3.49382 17.4716 3.60512 17.6697 3.80324C17.8678 4.00135 17.9791 4.27006 17.9791 4.55024C17.9791 4.83042 17.8678 5.09912 17.6697 5.29724C17.4716 5.49535 17.2028 5.60665 16.9227 5.60665C16.6425 5.60665 16.3738 5.49535 16.1757 5.29724C15.9776 5.09912 15.8663 4.83042 15.8663 4.55024C15.8663 4.27006 15.9776 4.00135 16.1757 3.80324C16.3738 3.60512 16.6425 3.49382 16.9227 3.49382ZM19.5241 4.61239V5.10334H19.0332V4.61239H19.5241ZM19.5241 3.9058V4.39642H19.0332V3.9058H19.5241Z" fill="#EA5906" style="fill:#EA5906;fill:color(display-p3 0.9176 0.3490 0.0235);fill-opacity:1;"/>
</svg>
