<svg width="28" height="25" fill="none" xmlns="http://www.w3.org/2000/svg">
    <path d="M27.777 2.594c-.343.41-3.154 3.414-8.297 9.218-.069.068-.274.068-.343 0 0 0-1.371-1.434-4.183-4.302-.068-.068-.137-.205 0-.341l1.372-1.775c.068-.137.205-.137.343-.069l2.4 2.595c.068.068.274.136.342 0 0 0 1.989-2.663 5.898-7.92l2.468 2.594zm-5.417 15.02c0-2.525-1.577-4.232-3.977-4.232s-4.114 1.775-4.114 4.028c0 2.458 1.851 4.028 4.251 4.028 1.166 0 2.331-.341 3.086-.956.068-.068.137-.204.068-.273l-.685-.956a.21.21 0 0 0-.275 0 3.217 3.217 0 0 1-1.92.615c-1.303 0-2.125-.751-2.263-1.707 0 0 0-.068.069-.068h5.554c.137 0 .206-.069.206-.205v-.273zm-13.851-7.1c1.714 0 3.154.478 4.251 1.298.069.068.137.204 0 .34l-1.028 1.298c-.07.137-.206.137-.343.068a5.077 5.077 0 0 0-3.086-1.024c-1.029 0-1.577.41-1.577 1.093 0 1.638 6.445.546 6.445 4.438 0 1.911-1.508 3.413-4.525 3.413-2.057 0-3.566-.614-4.595-1.502-.068-.136-.068-.205 0-.341l1.029-1.297c.062-.123.179-.136.302-.087l.04.018c.892.82 2.127 1.23 3.36 1.23 1.304 0 1.99-.547 1.99-1.161 0-1.844-6.515-.615-6.515-4.575 0-1.775 1.646-3.209 4.252-3.209zm12.067 6.277.001.069c-.035-.02-.32-.03-.856-.03h-.178c-.65 0-1.609.012-2.874.034-.069 0-.069-.069-.069-.069.137-.75.686-1.638 1.989-1.638 1.397-.066 1.955.832 1.987 1.634z" fill="#000"/>
    <path d="M22.5.5h-20a2 2 0 0 0-2 2v20a2 2 0 0 0 2 2h23a2 2 0 0 0 2-2V6" stroke="#000"/>
</svg>
