<svg width="39" height="39" viewBox="0 0 39 39" fill="none" xmlns="http://www.w3.org/2000/svg">
<path d="M28.9345 31.1688C32.7893 26.8392 33.3333 22.3307 33.3333 18.6555V5.32635L24.0679 2.8758L16.6667 1.25L1.86429 4.50161C1.33556 4.61779 0.862717 4.90871 0.523785 5.32635C0.184853 5.74398 9.29471e-05 6.26338 0 6.7988V18.6543C0 22.3201 0.664286 27.2111 4.42976 31.1688C9.34881 36.3351 16.2774 38.7535 16.6726 38.75C17.0679 38.7465 23.5762 36.5799 28.9345 31.1688Z" fill="#0EBAC5"/>
<path d="M16.668 11.25C17.7035 11.25 18.543 10.4105 18.543 9.375C18.543 8.33947 17.7035 7.5 16.668 7.5C15.6324 7.5 14.793 8.33947 14.793 9.375C14.793 10.4105 15.6324 11.25 16.668 11.25Z" fill="white"/>
<path fill-rule="evenodd" clip-rule="evenodd" d="M7.24062 12.1147C7.45348 11.5065 8.11904 11.1861 8.7272 11.3989L16.6751 14.1807L24.623 11.3989C25.2312 11.1861 25.8968 11.5065 26.1096 12.1147C26.3225 12.7229 26.002 13.3884 25.3939 13.6013L17.8418 16.2445V19.5629L21.9219 29.5592C22.1654 30.1558 21.8792 30.8368 21.2827 31.0803C20.6861 31.3238 20.0051 31.0375 19.7616 30.441L16.6751 22.879L13.5886 30.441C13.3451 31.0375 12.6641 31.3238 12.0676 31.0803C11.471 30.8368 11.1848 30.1558 11.4283 29.5592L15.5085 19.5629V16.2445L7.95638 13.6013C7.34822 13.3884 7.02777 12.7229 7.24062 12.1147Z" fill="white"/>
<path d="M38.3333 6.66667C38.3333 10.3486 35.3486 13.3333 31.6667 13.3333C27.9848 13.3333 25 10.3486 25 6.66667C25 2.98477 27.9848 0 31.6667 0C35.3486 0 38.3333 2.98477 38.3333 6.66667Z" fill="#008000"/>
<path fill-rule="evenodd" clip-rule="evenodd" d="M31.6667 12.5C34.8883 12.5 37.5 9.88833 37.5 6.66667C37.5 3.44501 34.8883 0.833333 31.6667 0.833333C28.445 0.833333 25.8333 3.44501 25.8333 6.66667C25.8333 9.88833 28.445 12.5 31.6667 12.5ZM31.6667 13.3333C35.3486 13.3333 38.3333 10.3486 38.3333 6.66667C38.3333 2.98477 35.3486 0 31.6667 0C27.9848 0 25 2.98477 25 6.66667C25 10.3486 27.9848 13.3333 31.6667 13.3333Z" fill="white"/>
<path fill-rule="evenodd" clip-rule="evenodd" d="M35.1103 4.4369C35.4217 4.77576 35.3995 5.30293 35.0607 5.61437L30.87 9.466L28.5995 7.37916C28.2606 7.06771 28.2384 6.54055 28.5499 6.20169C28.8613 5.86284 29.3885 5.84061 29.7273 6.15206L30.87 7.20231L33.9328 4.38727C34.2717 4.07583 34.7989 4.09805 35.1103 4.4369Z" fill="white"/>
</svg>
