<svg width="605" height="449" viewBox="0 0 605 449" fill="none" xmlns="http://www.w3.org/2000/svg">
<path d="M265.945 218.734L168.194 147.242L260.361 301.398L604.998 16.5402L265.945 218.734ZM224.011 407.784C122.503 407.784 40.216 325.501 40.216 223.999C40.216 122.499 122.503 40.2139 224.011 40.2139C268.958 40.2139 310.117 56.3708 342.052 83.1615L367.816 52.422C328.874 19.7347 278.714 0 224.011 0C100.489 0 0 100.486 0 223.999C0 347.514 100.489 448 224.011 448C288.067 448 345.887 420.933 386.753 377.685L357.598 350.151C324.091 385.618 276.653 407.784 224.011 407.784ZM224.011 354.512C151.926 354.512 93.4912 296.081 93.4912 224C93.4912 151.919 151.926 93.4856 224.011 93.4856C255.929 93.4856 285.142 104.98 307.82 124.006L327.161 100.927C299.229 77.4794 263.248 63.3244 224.011 63.3244C135.409 63.3244 63.3265 135.403 63.3265 224C63.3265 312.595 135.409 384.673 224.011 384.673C269.958 384.673 311.433 365.258 340.745 334.237L318.811 313.526C295.018 338.71 261.395 354.512 224.011 354.512Z" fill="#50A3C4"/>
</svg>
