<svg width="25" height="19" viewBox="0 0 25 19" fill="none" xmlns="http://www.w3.org/2000/svg">
<path d="M9.83339 13.5913V11.9565L5.26628 13.2445C5.26628 13.2445 5.60376 11.2944 7.98562 10.6224C8.70797 10.4188 9.32428 10.4202 9.83339 10.518L9.83339 3.81249H12.1202C11.8712 3.04729 11.6303 2.45817 11.428 2.04883C11.0934 1.37131 10.7503 1.82044 9.97144 2.4683C9.42291 2.92406 8.03655 3.89637 5.95035 4.45546C3.86411 5.01493 2.1775 4.86655 1.47379 4.74536C0.476143 4.57418 -0.0456762 4.35628 0.00313946 5.11098C0.0456242 5.77662 0.205055 6.80868 0.570257 8.17174C1.36036 11.1236 3.97156 16.8113 8.90639 15.4894C10.1954 15.144 11.1053 14.4612 11.736 13.591H9.83339V13.5913ZM2.4637 8.21226L5.97072 7.29345C5.97072 7.29345 5.8685 8.63523 4.55378 8.97993C3.2387 9.32427 2.4637 8.21226 2.4637 8.21226Z" fill="#0EBAC5"/>
<path d="M22.9208 3.90564C22.0185 4.06421 19.854 4.26174 17.179 3.54293C14.5032 2.82456 12.7279 1.56814 12.0245 0.977578C11.0274 0.140336 10.5888 -0.441516 10.1572 0.438584C9.77555 1.21485 9.28755 2.4782 8.81522 4.24676C7.79173 8.07651 7.02677 16.1583 13.3538 17.859C19.6796 19.5582 23.0472 12.1753 24.0708 8.34515C24.5431 6.57695 24.7503 5.23799 24.8073 4.37465C24.8722 3.39665 24.2021 3.68055 22.9208 3.90564ZM10.2086 7.07416C10.2086 7.07416 11.2057 5.51949 12.8968 6.00136C14.589 6.48324 14.72 8.35874 14.72 8.35874L10.2086 7.07416ZM14.3367 14.0505C11.3621 13.177 10.9033 10.799 10.9033 10.799L18.8941 13.0387C18.8941 13.0383 17.2811 14.9131 14.3367 14.0505ZM17.1619 9.16356C17.1619 9.16356 18.1576 7.60998 19.8485 8.09323C21.5392 8.57583 21.6724 10.4513 21.6724 10.4513L17.1619 9.16356Z" fill="#0EBAC5"/>
<path d="M8.17533 12.4094L5.22673 13.2462C5.22673 13.2462 5.54703 11.4191 7.71916 10.6951L6.04952 4.42089L5.90524 4.4648C3.83483 5.02387 2.161 4.87555 1.46262 4.75446C0.472541 4.58349 -0.0453237 4.3657 0.00311477 5.11984C0.0452848 5.78493 0.203501 6.81606 0.565935 8.17806C1.35006 11.1274 3.94147 16.8104 8.8389 15.4896L8.98317 15.4442L8.17533 12.4094ZM2.44538 8.21855L5.92582 7.30043C5.92582 7.30043 5.82438 8.64109 4.51962 8.98551C3.21451 9.32956 2.44538 8.21855 2.44538 8.21855Z" fill="#0EBAC5"/>
<path d="M14.4057 14.0324L14.2725 13.9998C11.3285 13.1295 10.8744 10.7601 10.8744 10.7601L14.9526 11.9106L17.1117 3.53711L17.0856 3.53016C14.4373 2.81438 12.6803 1.56249 11.9841 0.974055C10.9973 0.13983 10.5632 -0.439925 10.1359 0.437003C9.75862 1.21047 9.27564 2.46927 8.80816 4.23146C7.79519 8.0474 7.03809 16.1001 13.3001 17.7946L13.4285 17.8238L14.4057 14.0324ZM10.1872 7.04867C10.1872 7.04867 11.174 5.4996 12.8478 5.97973C14.5226 6.45987 14.6523 8.32862 14.6523 8.32862L10.1872 7.04867Z" fill="#0EBAC5"/>
</svg>
