<svg width="24" height="24" viewBox="0 0 24 24" fill="none" xmlns="http://www.w3.org/2000/svg">
<path d="M21.5088 3.4876L20.515 2.49385C20.4775 2.45635 20.4306 2.43994 20.3814 2.43994C20.3322 2.43994 20.2853 2.45869 20.2478 2.49385L18.4642 4.27744C17.6889 3.7521 16.7735 3.472 15.8369 3.47354C14.6369 3.47354 13.4369 3.93057 12.5205 4.84697L10.1322 7.23525C10.0973 7.27049 10.0777 7.31808 10.0777 7.36768C10.0777 7.41727 10.0973 7.46486 10.1322 7.5001L16.5002 13.8681C16.5377 13.9056 16.5845 13.922 16.6338 13.922C16.6806 13.922 16.7299 13.9032 16.7674 13.8681L19.1556 11.4798C20.7705 9.8626 20.9603 7.36182 19.7252 5.53838L21.5088 3.75479C21.5814 3.67979 21.5814 3.56025 21.5088 3.4876V3.4876ZM18.026 10.3524L16.6338 11.7446L12.2556 7.3665L13.6478 5.97432C14.2314 5.39072 15.0095 5.06729 15.8369 5.06729C16.6642 5.06729 17.44 5.38838 18.026 5.97432C18.6095 6.55791 18.933 7.33603 18.933 8.16338C18.933 8.99072 18.6095 9.7665 18.026 10.3524V10.3524ZM13.5681 12.8134C13.5329 12.7785 13.4853 12.7589 13.4357 12.7589C13.3861 12.7589 13.3385 12.7785 13.3033 12.8134L11.7424 14.3743L9.62595 12.2579L11.1892 10.6946C11.2619 10.622 11.2619 10.5024 11.1892 10.4298L10.3361 9.57666C10.3009 9.54177 10.2533 9.52219 10.2037 9.52219C10.1541 9.52219 10.1065 9.54177 10.0713 9.57666L8.50798 11.1399L7.50017 10.1321C7.48268 10.1146 7.46183 10.1008 7.43887 10.0916C7.41592 10.0823 7.39133 10.0778 7.36658 10.0782C7.3197 10.0782 7.27048 10.097 7.23298 10.1321L4.84705 12.5204C3.2322 14.1376 3.04236 16.6384 4.27752 18.4618L2.49392 20.2454C2.45903 20.2807 2.43945 20.3282 2.43945 20.3778C2.43945 20.4274 2.45903 20.475 2.49392 20.5103L3.48767 21.504C3.52517 21.5415 3.57205 21.5579 3.62127 21.5579C3.67048 21.5579 3.71736 21.5392 3.75486 21.504L5.53845 19.7204C6.3283 20.2571 7.24705 20.5243 8.1658 20.5243C9.3658 20.5243 10.5658 20.0673 11.4822 19.1509L13.8705 16.7626C13.9431 16.6899 13.9431 16.5704 13.8705 16.4978L12.8627 15.4899L14.426 13.9267C14.4986 13.854 14.4986 13.7345 14.426 13.6618L13.5681 12.8134V12.8134ZM10.3525 18.0259C10.0657 18.3142 9.72451 18.5428 9.34877 18.6985C8.97303 18.8542 8.57017 18.9339 8.16345 18.9329C7.33611 18.9329 6.56033 18.6118 5.97439 18.0259C5.68607 17.739 5.45746 17.3979 5.30177 17.0221C5.14608 16.6464 5.06641 16.2435 5.06736 15.8368C5.06736 15.0095 5.38845 14.2337 5.97439 13.6478L7.36658 12.2556L11.7447 16.6337L10.3525 18.0259V18.0259Z" fill="#0EBAC5"/>
</svg>
