<svg width="22" height="22" fill="none" xmlns="http://www.w3.org/2000/svg">
    <path d="M4.125 4.125a2.75 2.75 0 1 1 5.5 0 2.75 2.75 0 0 1-5.5 0zm2.75-1.375a1.375 1.375 0 1 0 0 2.75 1.375 1.375 0 0 0 0-2.75zM13.446 6.303a2.751 2.751 0 0 1 1.322-4.915 2.75 2.75 0 0 1 2.036.559 2.75 2.75 0 0 1-3.357 4.356h-.001zm1.679-3.553a1.375 1.375 0 1 0 0 2.75 1.375 1.375 0 0 0 0-2.75zM3.438 8.25h3.67c-.15.43-.233.894-.233 1.375H3.437a.688.688 0 0 0-.687.688c0 1.123.447 1.956 1.152 2.523.325.26.714.471 1.154.625-.323.344-.572.75-.732 1.194a5.133 5.133 0 0 1-1.282-.747c-1.034-.832-1.667-2.061-1.667-3.595A2.063 2.063 0 0 1 3.438 8.25zM8.618 8.25A2.751 2.751 0 1 0 13.384 11a2.751 2.751 0 0 0-4.766-2.75zm2.074.034a1.38 1.38 0 0 1 1.683 1.34 1.375 1.375 0 1 1-1.683-1.34zM18.098 12.836a3.865 3.865 0 0 1-1.154.625c.323.344.571.75.73 1.194.468-.191.9-.44 1.284-.747 1.034-.832 1.667-2.061 1.667-3.595a2.062 2.062 0 0 0-2.063-2.063h-3.67c.15.43.233.894.233 1.375h3.437a.687.687 0 0 1 .688.688c0 1.123-.447 1.956-1.152 2.523zM14.438 13.75a2.062 2.062 0 0 1 2.062 2.063c0 1.534-.631 2.763-1.666 3.595-1.02.818-2.386 1.217-3.834 1.217s-2.815-.399-3.833-1.217C6.133 18.576 5.5 17.347 5.5 15.812a2.057 2.057 0 0 1 2.063-2.062h6.875zm0 1.375H7.563a.687.687 0 0 0-.688.688c0 1.123.447 1.956 1.152 2.523.724.58 1.763.914 2.973.914s2.25-.334 2.973-.914c.705-.567 1.152-1.4 1.152-2.523a.687.687 0 0 0-.688-.688z" fill="#0EBAC5"/>
</svg>
