<svg width="26" height="26" fill="none" xmlns="http://www.w3.org/2000/svg">
    <path d="M6.5 8.45a.65.65 0 0 1 .65-.65h9.1a.65.65 0 0 1 0 1.3h-9.1a.65.65 0 0 1-.65-.65zM13.65 11.7a.65.65 0 1 0 0 1.3h2.6a.65.65 0 0 0 0-1.3h-2.6zM13 16.25a.65.65 0 0 1 .65-.65h2.6a.65.65 0 1 1 0 1.3h-2.6a.65.65 0 0 1-.65-.65zM7.15 11.7a.65.65 0 0 0-.65.65v3.9a.65.65 0 0 0 .65.65h3.9a.65.65 0 0 0 .65-.65v-3.9a.65.65 0 0 0-.65-.65h-3.9zm.65 3.9V13h2.6v2.6H7.8z" fill="#0EBAC5"/>
    <path d="M2.6 6.5a2.6 2.6 0 0 1 2.6-2.6h13a2.6 2.6 0 0 1 2.6 2.6v1.3a2.6 2.6 0 0 1 2.6 2.6v7.15a3.25 3.25 0 0 1-3.25 3.25H5.85a3.25 3.25 0 0 1-3.25-3.25V6.5zm16.9 0a1.3 1.3 0 0 0-1.3-1.3h-13a1.3 1.3 0 0 0-1.3 1.3v11.05a1.95 1.95 0 0 0 1.95 1.95h14.3a1.95 1.95 0 0 0 1.95-1.95V10.4a1.3 1.3 0 0 0-1.3-1.3v8.45a.65.65 0 0 1-1.3 0V6.5z" fill="#0EBAC5"/>
</svg>
