<svg width="1322" height="406" viewBox="0 0 1322 406" fill="none" xmlns="http://www.w3.org/2000/svg">
<g clip-path="url(#clip0_2173_294)">
<path fill-rule="evenodd" clip-rule="evenodd" d="M1080.44 266.571C1061.37 274.338 1046.31 301.173 1023.42 316.424C1022 317.37 1020.58 317.843 1019.63 317.843C1017.74 317.843 1015.37 315.952 1015.37 307.44C1015.37 278.122 1024.84 263.936 1032.88 243.13C1060.8 170.78 1108.6 108.834 1151.19 41.2138C1154.5 36.0122 1156.4 30.3378 1156.4 24.1904C1156.4 18.9889 1154.5 14.733 1152.14 9.53145C1150.24 5.27561 1141.73 1.49265 1132.26 1.49265C1127.06 1.49265 1122.32 1.96552 1116.17 1.96552C1093.93 1.96552 1089.2 34.5936 1083.99 43.1053C1048.5 103.16 1007.8 177.401 986.979 229.889C982.413 241.656 977.481 253.422 973.732 265.499C953.155 271.453 937.74 300.362 913.628 316.424C912.208 317.37 910.789 317.843 909.842 317.843C907.949 317.843 905.583 315.952 905.583 307.44C905.583 278.122 915.048 263.936 923.093 243.13C951.013 170.78 998.81 108.834 1041.4 41.2138C1044.71 36.0122 1046.61 30.3378 1046.61 24.1904C1046.61 18.9889 1044.71 14.733 1042.35 9.53145C1040.45 5.27561 1031.94 1.49265 1022.47 1.49265C1017.27 1.49265 1012.53 1.96552 1006.38 1.96552C984.14 1.96552 979.407 34.5936 974.202 43.1053C938.709 103.16 898.011 177.401 877.189 229.889C875.534 234.155 873.83 238.421 872.153 242.701C871.634 242.978 871.105 243.278 870.564 243.602C846.429 257.789 826.08 282.851 796.74 299.874C791.061 303.184 773.552 315.479 759.355 315.479C756.042 315.479 753.203 314.533 750.363 313.114C746.104 311.223 741.845 302.238 741.845 299.401C741.845 297.037 742.318 296.564 747.051 293.727C788.695 268.665 822.768 232.726 852.108 196.788C862.992 183.548 877.189 157.54 877.189 138.625C877.189 126.33 872.93 112.144 858.26 106.943C847.849 103.16 836.018 101.268 826.553 101.268C801.472 101.268 783.016 112.617 772.605 123.493C762.006 134.8 751.754 146.41 742.229 158.428C732.277 149.842 718.239 146.191 704.933 146.191C689.316 146.191 659.976 165.579 644.833 176.928C642.466 178.819 641.047 179.765 640.1 179.765C639.627 179.765 639.154 179.292 639.154 178.346C639.154 177.873 640.1 173.618 640.1 166.052C640.1 159.431 638.681 150.92 632.529 140.517C631.109 138.152 622.591 132.951 612.18 132.951C599.402 132.951 587.572 139.098 587.572 145.718C587.572 150.447 591.831 152.338 591.831 156.594C591.831 158.959 589.938 169.835 587.098 180.238C579.054 210.501 569.116 240.292 558.705 270.083C553.026 286.634 534.097 301.293 534.097 319.262C534.097 324.936 537.882 332.502 543.088 338.177C551.606 347.634 556.812 350.944 564.383 350.944C567.696 350.944 571.482 349.998 574.794 347.161C581.893 341.014 585.679 334.866 587.572 326.355C599.876 270.556 635.368 232.726 674.646 207.664C687.897 199.153 705.879 190.168 708.246 190.168C710.672 190.168 714.467 191.287 718.29 192.377C707.31 210.272 698.414 229.144 692.629 249.277C690.736 255.897 689.79 262.044 689.79 268.665C689.79 279.541 692.156 290.889 695.942 301.765C701.147 316.897 709.665 330.138 721.496 336.285C743.265 347.634 758.881 353.781 773.078 353.781C781.123 353.781 787.275 352.363 793.9 348.58C825.005 330.995 844.075 317.654 857.845 305.804C858.222 317.819 860.592 324.475 869.144 333.448C877.662 342.432 890.913 350.471 908.422 354.254C911.262 354.727 914.101 355.2 916.941 355.2C936.974 355.2 956.253 338.929 971.12 322.8C972.841 326.32 975.342 329.679 978.934 333.448C987.452 342.432 1000.7 350.471 1018.21 354.254C1021.05 354.727 1023.89 355.2 1026.73 355.2C1050.2 355.2 1072.63 332.874 1088.15 314.601C1093.32 325.289 1107.77 335.857 1125.16 344.324C1129.89 346.688 1135.57 348.107 1140.78 348.107C1161.13 348.107 1175.8 331.556 1187.16 319.262C1216.5 287.107 1232.59 247.385 1244.89 197.261C1245.84 193.478 1247.26 192.06 1249.15 192.06C1253.88 192.06 1260.03 192.06 1266.66 191.114C1279.44 189.222 1289.37 184.966 1301.2 183.075C1308.3 181.656 1307.36 179.292 1313.98 176.928C1318.71 175.036 1322.5 173.145 1322.5 168.416C1322.5 160.377 1307.83 151.866 1285.59 151.866C1268.08 151.866 1257.67 153.284 1250.57 153.284C1239.68 153.284 1236.85 149.974 1229.75 131.532C1229.75 131.532 1236.85 149.974 1229.75 131.532C1228.33 127.749 1226.91 125.858 1222.65 122.075C1212.71 113.563 1200.41 110.726 1190.47 110.726C1166.81 110.726 1146.46 134.842 1132.26 155.176C1128.95 159.904 1124.22 163.687 1120.9 168.889C1101.41 198.107 1082.75 231.056 1080.44 266.571ZM475.416 105.524C487.247 105.524 493.872 104.578 495.292 104.578C496.711 104.578 497.658 105.051 497.658 106.47C497.658 107.416 497.184 108.834 493.872 115.927C465.005 177.873 445.129 240.765 427.619 310.277C427.146 312.169 425.727 319.262 425.727 326.355C425.727 332.975 427.619 340.068 434.245 343.851C447.022 351.417 457.433 354.727 464.532 354.727C474.943 354.727 480.148 348.107 480.148 337.231C480.148 327.773 480.621 317.843 482.041 310.277C495.292 240.765 515.167 186.385 545.927 129.641C560.597 102.687 562.49 101.268 562.49 98.904C562.49 97.9583 562.017 96.5396 561.071 95.121C580 90.8652 602.715 88.028 623.537 88.028C625.903 88.028 635.368 91.3381 636.788 92.7567C640.1 96.0668 643.413 99.3769 649.092 99.3769C653.824 99.3769 661.869 96.0668 664.708 94.1753C671.334 89.4466 674.646 84.245 674.646 75.7333C674.646 67.6945 644.833 47.834 624.01 47.834C598.456 47.834 575.268 51.1441 553.499 55.3999C544.034 57.2914 509.962 62.493 485.354 62.493C461.692 62.493 463.112 59.1829 453.174 59.1829C447.495 59.1829 444.656 62.0201 442.29 64.3844C439.923 66.7488 438.504 76.2062 438.504 84.7179C438.504 88.9737 438.504 92.2838 440.87 95.121C447.968 103.633 461.692 105.524 475.416 105.524C461.692 105.524 475.416 105.524 475.416 105.524ZM826.08 143.827C826.08 148.083 824.661 150.92 818.982 159.904C813.303 168.889 815.669 168.889 808.571 178.346C794.847 196.788 777.811 215.23 755.569 235.564C749.417 241.238 748.47 241.238 747.524 241.238C747.051 241.238 746.104 240.765 746.104 239.819C746.104 238.401 746.577 236.509 751.31 226.579C765.98 195.842 783.963 175.509 803.838 155.648C814.723 144.772 821.348 140.989 823.714 140.989C825.134 140.989 826.08 141.462 826.08 143.827C826.08 141.462 826.08 143.827 826.08 143.827ZM1190 156.121C1190.47 156.121 1190.94 156.594 1191.41 157.54C1191.89 158.959 1192.83 160.377 1195.2 162.269C1197.09 163.687 1197.09 170.307 1197.09 175.509C1197.09 221.377 1171.07 259.207 1145.51 297.51C1139.83 306.021 1136.52 307.44 1133.68 307.44C1131.31 307.44 1127.53 301.293 1126.11 297.51C1124.22 292.308 1123.74 286.161 1123.74 283.796C1123.74 246.912 1158.76 192.06 1181.95 161.796C1185.74 156.594 1188.58 156.121 1190 156.121C1188.58 156.121 1190 156.121 1190 156.121Z" fill="#0079BF"/>
<path d="M336.1 53.7353H112.032C91.4073 53.7353 74.6875 70.4423 74.6875 91.0515V314.949C74.6875 335.558 91.4073 352.265 112.032 352.265H336.1C356.725 352.265 373.445 335.558 373.445 314.949V91.0515C373.445 70.4423 356.725 53.7353 336.1 53.7353Z" fill="url(#paint0_linear_2173_294)"/>
<path d="M316.68 92.5441H261.41C251.51 92.5441 243.484 100.563 243.484 110.456V205.239C243.484 215.131 251.51 223.151 261.41 223.151H316.68C326.58 223.151 334.605 215.131 334.605 205.239V110.456C334.605 100.563 326.58 92.5441 316.68 92.5441Z" fill="white"/>
<path d="M186.723 92.5441H131.453C121.553 92.5441 113.527 100.563 113.527 110.456V279.871C113.527 289.764 121.553 297.783 131.453 297.783H186.723C196.623 297.783 204.648 289.764 204.648 279.871V110.456C204.648 100.563 196.623 92.5441 186.723 92.5441Z" fill="white"/>
</g>
<defs>
<linearGradient id="paint0_linear_2173_294" x1="224.066" y1="53.7353" x2="224.066" y2="352.265" gradientUnits="userSpaceOnUse">
<stop stop-color="#0079BF"/>
<stop offset="1" stop-color="#0079BF"/>
</linearGradient>
<clipPath id="clip0_2173_294">
<rect width="1322" height="406" fill="white"/>
</clipPath>
</defs>
</svg>
