<svg width="34" height="38" viewBox="0 0 34 38" fill="none" xmlns="http://www.w3.org/2000/svg">
<path d="M28.9345 29.9188C32.7893 25.5892 33.3333 21.0807 33.3333 17.4055V4.07635L24.0679 1.6258L16.6667 0L1.86429 3.25161C1.33556 3.36779 0.862717 3.65871 0.523785 4.07635C0.184853 4.49398 9.29471e-05 5.01338 0 5.5488V17.4043C0 21.0701 0.664286 25.9611 4.42976 29.9188C9.34881 35.0851 16.2774 37.5035 16.6726 37.5C17.0679 37.4965 23.5762 35.3299 28.9345 29.9188Z" fill="black"/>
<path d="M16.668 10C17.7035 10 18.543 9.16053 18.543 8.125C18.543 7.08947 17.7035 6.25 16.668 6.25C15.6324 6.25 14.793 7.08947 14.793 8.125C14.793 9.16053 15.6324 10 16.668 10Z" fill="white"/>
<path fill-rule="evenodd" clip-rule="evenodd" d="M7.24062 10.8647C7.45348 10.2565 8.11904 9.93609 8.7272 10.1489L16.6751 12.9307L24.623 10.1489C25.2312 9.93609 25.8968 10.2565 26.1096 10.8647C26.3225 11.4729 26.002 12.1384 25.3939 12.3513L17.8418 14.9945V18.3129L21.9219 28.3092C22.1654 28.9058 21.8792 29.5868 21.2827 29.8303C20.6861 30.0738 20.0051 29.7875 19.7616 29.191L16.6751 21.629L13.5886 29.191C13.3451 29.7875 12.6641 30.0738 12.0676 29.8303C11.471 29.5868 11.1848 28.9058 11.4283 28.3092L15.5085 18.3129V14.9945L7.95638 12.3513C7.34822 12.1384 7.02777 11.4729 7.24062 10.8647Z" fill="white"/>
</svg>
