<svg width="29" height="15" viewBox="0 0 29 15" fill="none" xmlns="http://www.w3.org/2000/svg">
<g clip-path="url(#clip0_17940_10749)">
<path d="M27 0H2C0.89543 0 0 0.89543 0 2V13C0 14.1046 0.89543 15 2 15H27C28.1046 15 29 14.1046 29 13V2C29 0.89543 28.1046 0 27 0Z" fill="#333333"/>
<path d="M11.6831 4.18176V9.99994H10.7456L8.00413 6.03688H7.95583V9.99994H6.90186V4.18176H7.84504L10.5837 8.14767H10.6348V4.18176H11.6831Z" fill="white"/>
<path d="M14.7179 10.0852C14.2804 10.0852 13.9026 9.99426 13.5844 9.81244C13.2681 9.62873 13.0247 9.36926 12.8543 9.03404C12.6838 8.69691 12.5986 8.30013 12.5986 7.84369C12.5986 7.39483 12.6838 7.00089 12.8543 6.66188C13.0266 6.32097 13.2671 6.05582 13.5759 5.86642C13.8846 5.67513 14.2473 5.57949 14.6639 5.57949C14.9329 5.57949 15.1867 5.62305 15.4253 5.71017C15.6658 5.7954 15.8779 5.92797 16.0617 6.1079C16.2473 6.28782 16.3931 6.51699 16.4992 6.7954C16.6052 7.07191 16.6582 7.40146 16.6582 7.78404V8.09938H13.0815V7.40619H15.6725C15.6706 7.20922 15.6279 7.03404 15.5446 6.88063C15.4613 6.72532 15.3448 6.60316 15.1952 6.51415C15.0475 6.42513 14.8751 6.38063 14.6781 6.38063C14.4679 6.38063 14.2832 6.43176 14.1242 6.53404C13.9651 6.63441 13.841 6.76699 13.752 6.93176C13.6649 7.09464 13.6204 7.27362 13.6185 7.46869V8.07381C13.6185 8.3276 13.6649 8.5454 13.7577 8.72722C13.8505 8.90714 13.9802 9.0454 14.1469 9.14199C14.3136 9.23669 14.5086 9.28404 14.7321 9.28404C14.8817 9.28404 15.0171 9.2632 15.1384 9.22154C15.2596 9.17798 15.3647 9.11453 15.4537 9.03119C15.5427 8.94786 15.61 8.84464 15.6554 8.72154L16.6156 8.82949C16.555 9.08328 16.4395 9.30487 16.269 9.49426C16.1005 9.68176 15.8846 9.8276 15.6213 9.93176C15.3581 10.034 15.0569 10.0852 14.7179 10.0852Z" fill="white"/>
<path d="M18.4054 9.99994L17.1725 5.63631H18.2207L18.9878 8.70449H19.0276L19.8117 5.63631H20.8486L21.6327 8.68744H21.6753L22.431 5.63631H23.4821L22.2463 9.99994H21.1753L20.3571 7.05108H20.2975L19.4793 9.99994H18.4054Z" fill="white"/>
</g>
<defs>
<clipPath id="clip0_17940_10749">
<rect width="29" height="15" fill="white"/>
</clipPath>
</defs>
</svg>
