<svg width="24" height="24" viewBox="0 0 24 24" fill="none" xmlns="http://www.w3.org/2000/svg">
<path d="M12 22H5C4.73478 22 4.48043 21.8946 4.29289 21.7071C4.10536 21.5196 4 21.2652 4 21V3C4 2.73478 4.10536 2.48043 4.29289 2.29289C4.48043 2.10536 4.73478 2 5 2H19C19.2652 2 19.5196 2.10536 19.7071 2.29289C19.8946 2.48043 20 2.73478 20 3V12V22H12Z" stroke="#0EBAC5" stroke-width="1.5" stroke-linecap="round" stroke-linejoin="round"/>
<path d="M14 14.5L14.75 15.25L16.25 16.75L14.75 18.25L14 19" stroke="#0EBAC5" stroke-linecap="round" stroke-linejoin="round"/>
<path d="M8 10H12M8 6H16H8Z" stroke="#0EBAC5" stroke-width="1.5" stroke-linecap="round"/>
</svg>
