<svg width="26" height="26" viewBox="0 0 26 26" fill="none" xmlns="http://www.w3.org/2000/svg">
<path d="M25.0001 3.5415C24.6984 3.94279 22.2247 6.88553 17.6998 12.5704C17.6394 12.6373 17.4585 12.6373 17.3981 12.5704C17.3981 12.5704 16.1914 11.166 13.7178 8.35695C13.6575 8.29008 13.5971 8.15629 13.7178 8.02252L14.9245 6.2836C14.9848 6.14984 15.1055 6.14983 15.2261 6.21671C15.2261 6.21671 15.9501 7.08618 17.3378 8.75821C17.3981 8.82509 17.5791 8.89197 17.6394 8.75821C17.6394 8.75821 19.3891 6.14985 22.8281 1L25.0001 3.5415ZM20.2338 18.2554C20.2338 15.7807 18.8461 14.1087 16.7344 14.1087C14.6228 14.1087 13.1145 15.8476 13.1145 18.0547C13.1145 20.4624 14.7435 22.0007 16.8551 22.0007C17.8808 22.0007 18.9064 21.6663 19.5701 21.0644C19.6304 20.9975 19.6908 20.8637 19.6304 20.7969L19.0271 19.8605C18.9668 19.7936 18.8461 19.7936 18.7858 19.8605C18.3031 20.2618 17.6998 20.4624 17.0964 20.4624C15.9501 20.4624 15.2261 19.7267 15.1054 18.7904C15.1054 18.7904 15.1054 18.7235 15.1658 18.7235H20.0527C20.1734 18.7235 20.2338 18.6567 20.2338 18.5229V18.2554ZM8.04648 11.2997C9.5548 11.2997 10.8218 11.7679 11.7871 12.5704C11.8475 12.6373 11.9078 12.7711 11.7871 12.9049L10.8822 14.1756C10.8218 14.3093 10.7011 14.3094 10.5805 14.2425C9.79613 13.5737 8.83084 13.2392 7.86551 13.2392C6.96051 13.2392 6.47781 13.6405 6.47781 14.3094C6.47781 15.9145 12.1491 14.8444 12.1491 18.6567C12.1491 20.5293 10.8218 22.0007 8.16715 22.0007C6.35716 22.0007 5.02983 21.3988 4.12484 20.5293C4.06451 20.3955 4.06451 20.3287 4.12484 20.1949L5.02982 18.9242C5.08412 18.8038 5.18732 18.7917 5.29538 18.8393L5.33152 18.8573C6.11585 19.6598 7.20184 20.0612 8.28783 20.0612C9.43416 20.0612 10.0375 19.5261 10.0375 18.9242C10.0375 17.1184 4.30586 18.3222 4.30586 14.4431C4.30586 12.7042 5.75382 11.2997 8.04648 11.2997ZM18.6638 17.4486L18.6651 17.5157C18.634 17.4964 18.3835 17.4871 17.9118 17.4863H17.7555C17.1827 17.4872 16.3395 17.4984 15.2261 17.5197C15.1658 17.5197 15.1658 17.4528 15.1658 17.4528C15.2864 16.7171 15.7691 15.8476 16.9155 15.8476C18.1452 15.7827 18.636 16.6629 18.6638 17.4486Z" fill="#0EBAC5"/>
<path d="M20.3568 1.48975H3C1.89543 1.48975 1 2.38518 1 3.48975V22.9999C1 24.1045 1.89543 25 3 25H22.7561C23.8607 25 24.7561 24.1045 24.7561 23V6.8775" stroke="#0EBAC5" stroke-width="2"/>
</svg>
