<svg width="22" height="22" fill="none" xmlns="http://www.w3.org/2000/svg">
    <path d="m16.5 11.688 1.314 2.545 2.811.409-2.063 1.858.53 2.75-2.592-1.547-2.593 1.547.53-2.75-2.062-1.858 2.887-.409 1.238-2.546zM4.125 11H8.25v1.375H4.125V11zM4.125 8.25H11v1.375H4.125V8.25zM4.125 5.5H11v1.375H4.125V5.5z" fill="#0EBAC5"/>
    <path d="M11 17.875H2.75V4.125h16.5V11h1.375V4.125A1.375 1.375 0 0 0 19.25 2.75H2.75a1.375 1.375 0 0 0-1.375 1.375v13.75A1.375 1.375 0 0 0 2.75 19.25H11v-1.375z" fill="#0EBAC5"/>
</svg>
