<svg width="713" height="182" viewBox="0 0 713 182" fill="none" xmlns="http://www.w3.org/2000/svg">
<path d="M465.141 0H428.027V33.3241H465.141V0Z" fill="#356388"/>
<path d="M630.93 0H594.57V35.3951H630.93V0Z" fill="#39B54A"/>
<path d="M520.153 143.463H483.793V178.858H520.153V143.463Z" fill="#39B54A"/>
<path d="M465.141 43.8673H428.027V79.2624H465.141V43.8673Z" fill="#39B54A"/>
<path d="M428.029 89.8056V131.602C428.029 141.392 422.754 147.417 413.899 147.417C405.61 147.417 399.581 142.145 399.581 131.414V0H394.306C372.076 0 360.207 14.3086 360.207 42.1729V132.543C360.207 166.432 379.611 181.682 411.638 181.682C441.781 181.682 465.33 164.361 465.142 131.79V89.9938H428.029V89.8056Z" fill="#356388"/>
<path d="M299.168 0H275.619C253.388 0 241.52 14.3086 241.52 42.1729V179.046H280.705V115.411H298.037C330.441 115.411 344.194 92.8179 344.194 55.3519C344.194 18.8272 328.557 0 299.168 0ZM292.009 83.5926H280.705V32.1945H292.197C301.428 32.1945 305.95 39.1605 305.95 56.4815C305.95 74.9321 301.052 83.5926 292.009 83.5926Z" fill="#3C9CD7"/>
<path d="M57.6483 0H34.0991C11.8688 0 0 14.3086 0 42.1729V179.046H39.1857V115.411H56.5179C88.9215 115.411 102.674 92.8179 102.674 55.3519C102.674 18.8272 87.0376 0 57.6483 0ZM50.3009 83.5926H38.9973V32.1945H50.4893C59.7206 32.1945 64.242 39.1605 64.242 56.4815C64.4304 74.9321 59.3438 83.5926 50.3009 83.5926Z" fill="#3C9CD7"/>
<path d="M217.03 0C194.8 0 182.931 14.3086 182.931 42.1729V67.7778V71.355H155.049V67.7778V0H149.962C127.732 0 115.863 14.3086 115.863 42.1729V179.046H155.049V110.327V106.75H182.931V110.327V179.046H221.928V0.188276H217.03V0Z" fill="#3C9CD7"/>
<path d="M712.314 73.2376V45.1851H694.04V14.8734H682.548C666.535 14.8734 657.869 25.2283 657.869 45.1851H646V73.2376H657.869V152.312C657.869 172.08 671.998 180.929 689.707 180.929C696.678 180.929 705.532 179.611 712.126 177.352V148.546C709.3 149.111 705.344 149.299 701.576 149.299C695.736 149.299 694.04 146.475 694.04 141.58V73.2376H712.314Z" fill="#356388"/>
<path d="M548.036 40.855C536.167 40.855 526.747 45.9383 520.154 55.3519V43.8673H508.285C492.271 43.8673 483.605 54.2223 483.605 74.179V132.92H519.965V85.2871C519.965 77.1914 523.922 71.1667 529.95 71.1667C538.051 71.1667 539.747 77.3797 539.747 83.0278V178.858H575.918V69.4723C576.295 51.7747 563.672 40.855 548.036 40.855Z" fill="#356388"/>
<path d="M619.25 45.1852C603.236 45.1852 594.57 55.5401 594.57 75.4969V178.858H630.93V45.1852H619.25Z" fill="#356388"/>
</svg>
