<svg width="489" height="491" viewBox="0 0 489 491" fill="none" xmlns="http://www.w3.org/2000/svg">
<g clip-path="url(#clip0_2173_270)">
<path fill-rule="evenodd" clip-rule="evenodd" d="M179.289 0C152.258 0.0200204 130.381 22.0024 130.401 49.09C130.381 76.1776 152.278 98.16 179.309 98.18H228.217V49.11C228.237 22.0224 206.341 0.0400408 179.289 0C179.309 0 179.309 0 179.289 0V0ZM179.289 130.933H48.908C21.8768 130.953 -0.0199241 152.936 5.45995e-05 180.023C-0.0399029 207.111 21.8568 229.093 48.8881 229.133H179.289C206.321 229.113 228.217 207.131 228.197 180.043C228.217 152.936 206.321 130.953 179.289 130.933V130.933Z" fill="#36C5F0"/>
<path fill-rule="evenodd" clip-rule="evenodd" d="M488.998 180.023C489.018 152.936 467.122 130.953 440.09 130.933C413.059 130.953 391.162 152.936 391.182 180.023V229.133H440.09C467.122 229.113 489.018 207.131 488.998 180.023ZM358.597 180.023V49.09C358.617 22.0224 336.74 0.0400408 309.709 0C282.678 0.0200204 260.781 22.0024 260.801 49.09V180.023C260.761 207.111 282.658 229.093 309.689 229.133C336.72 229.113 358.617 207.131 358.597 180.023Z" fill="#2EB67D"/>
<path fill-rule="evenodd" clip-rule="evenodd" d="M309.689 491C336.72 490.98 358.617 468.998 358.597 441.91C358.617 414.822 336.72 392.84 309.689 392.82H260.781V441.91C260.761 468.978 282.658 490.96 309.689 491ZM309.689 360.047H440.091C467.122 360.027 489.019 338.044 488.999 310.957C489.039 283.869 467.142 261.887 440.111 261.847H309.709C282.678 261.867 260.781 283.849 260.801 310.937C260.781 338.044 282.658 360.027 309.689 360.047V360.047Z" fill="#ECB22E"/>
<path fill-rule="evenodd" clip-rule="evenodd" d="M1.36607e-05 310.956C-0.0199651 338.044 21.8768 360.027 48.908 360.047C75.9393 360.027 97.836 338.044 97.816 310.956V261.866H48.908C21.8768 261.886 -0.0199651 283.869 1.36607e-05 310.956ZM130.401 310.956V441.89C130.361 468.978 152.258 490.96 179.289 491C206.321 490.98 228.217 468.998 228.197 441.91V310.997C228.237 283.909 206.341 261.927 179.309 261.886C152.258 261.886 130.381 283.869 130.401 310.956C130.401 310.977 130.401 310.956 130.401 310.956Z" fill="#E01E5A"/>
</g>
<defs>
<clipPath id="clip0_2173_270">
<rect width="489" height="491" fill="white"/>
</clipPath>
</defs>
</svg>
