<svg width="24" height="24" viewBox="0 0 24 24" fill="none" xmlns="http://www.w3.org/2000/svg">
<path d="M21.6 13.6287V6.75C21.6 6.41848 21.4736 6.10054 21.2485 5.86612C21.0235 5.6317 20.7183 5.5 20.4 5.5H3.6C3.28174 5.5 2.97652 5.6317 2.75147 5.86612C2.52643 6.10054 2.4 6.41848 2.4 6.75V19.25C2.4 19.5815 2.52643 19.8995 2.75147 20.1339C2.97652 20.3683 3.28174 20.5 3.6 20.5H7.8048L13.0728 11.3475C13.354 10.8593 13.7381 10.4442 14.1962 10.1336C14.6543 9.82305 15.1742 9.62522 15.7166 9.55511C16.259 9.485 16.8096 9.54445 17.3266 9.72896C17.8437 9.91346 18.3136 10.2182 18.7008 10.62L21.6 13.6287ZM21.6 17.1575L17.0064 12.39C16.8773 12.2562 16.7206 12.1548 16.5482 12.0934C16.3758 12.0321 16.1923 12.0124 16.0116 12.0359C15.8308 12.0594 15.6576 12.1254 15.505 12.229C15.3524 12.3326 15.2244 12.471 15.1308 12.6337L10.6032 20.5H20.4C20.7183 20.5 21.0235 20.3683 21.2485 20.1339C21.4736 19.8995 21.6 19.5815 21.6 19.25V17.1575ZM3.6 3H20.4C21.3548 3 22.2705 3.39509 22.9456 4.09835C23.6207 4.80161 24 5.75544 24 6.75V19.25C24 20.2446 23.6207 21.1984 22.9456 21.9017C22.2705 22.6049 21.3548 23 20.4 23H3.6C2.64522 23 1.72955 22.6049 1.05442 21.9017C0.379285 21.1984 0 20.2446 0 19.25V6.75C0 5.75544 0.379285 4.80161 1.05442 4.09835C1.72955 3.39509 2.64522 3 3.6 3ZM7.2 14.25C6.24522 14.25 5.32955 13.8549 4.65442 13.1517C3.97929 12.4484 3.6 11.4946 3.6 10.5C3.6 9.50544 3.97929 8.55161 4.65442 7.84835C5.32955 7.14509 6.24522 6.75 7.2 6.75C8.15478 6.75 9.07045 7.14509 9.74559 7.84835C10.4207 8.55161 10.8 9.50544 10.8 10.5C10.8 11.4946 10.4207 12.4484 9.74559 13.1517C9.07045 13.8549 8.15478 14.25 7.2 14.25ZM7.2 11.75C7.51826 11.75 7.82349 11.6183 8.04853 11.3839C8.27357 11.1495 8.4 10.8315 8.4 10.5C8.4 10.1685 8.27357 9.85054 8.04853 9.61612C7.82349 9.3817 7.51826 9.25 7.2 9.25C6.88174 9.25 6.57652 9.3817 6.35147 9.61612C6.12643 9.85054 6 10.1685 6 10.5C6 10.8315 6.12643 11.1495 6.35147 11.3839C6.57652 11.6183 6.88174 11.75 7.2 11.75Z" fill="#0EBAC5"/>
</svg>
