<svg width="357" height="374" viewBox="0 0 357 374" fill="none" xmlns="http://www.w3.org/2000/svg">
<path d="M351.802 53.9246L236.536 183.528C235.15 184.917 232.84 184.917 231.455 183.76C231.455 183.76 231.455 183.76 231.224 183.528L172.32 122.892C171.166 121.735 170.935 119.884 171.858 118.495L191.262 93.5C192.417 91.8799 194.496 91.4171 196.113 92.5743C196.344 92.8057 196.575 93.0371 196.806 93.2685L229.607 129.604C230.993 130.993 233.072 131.224 234.688 130.067C234.919 130.067 234.919 129.835 235.15 129.604L327.547 3.93451C328.24 2.77734 328.009 1.15716 327.085 0.462849C326.623 0.231418 326.161 0 325.699 0H2.77196C1.15501 0 0 1.15719 0 2.77724V371.223C0 372.843 1.15501 374 2.77196 374H353.419C355.036 374 356.191 372.843 356.191 371.223V55.3131C356.191 53.9245 355.036 52.7673 353.65 52.9987C352.957 52.9987 352.264 53.2303 351.802 53.9246ZM98.2711 333.348C69.1951 333.348 47.9839 324.604 33.4458 311.6C32.2542 310.479 32.0159 308.685 32.9692 307.34L47.0306 288.731C48.2223 287.161 50.3672 286.937 52.0355 287.834C52.2738 287.834 52.2738 288.058 52.5121 288.058C65.3819 299.268 82.5415 305.546 100.178 305.546C118.767 305.546 127.824 297.475 127.824 288.955C127.824 262.498 36.3058 280.659 36.3058 224.383C36.3058 199.496 59.1853 178.87 96.6029 178.87C120.436 178.87 140.694 185.372 155.947 197.703C157.377 198.824 157.615 200.842 156.423 202.187L141.885 220.124C140.694 221.693 138.549 221.917 136.88 220.796C124.487 211.604 109.234 206.671 93.5046 206.671C78.9666 206.671 70.8634 212.725 70.8634 221.693C70.8634 245.459 161.905 229.54 161.905 285.368C161.905 312.721 141.17 333.348 98.2711 333.348ZM291.429 282.466C291.429 284.001 290.082 285.317 288.511 285.317H209.963C209.514 285.317 209.066 285.756 209.066 286.194C209.066 286.194 209.066 286.194 209.066 286.414C211.31 299.573 222.531 310.539 240.934 310.539C250.808 310.319 260.234 307.249 268.313 301.766C269.66 300.889 271.455 301.108 272.353 302.205C272.353 302.205 272.353 302.205 272.353 302.424L282.003 316.022C282.9 317.338 282.676 318.873 281.33 319.969C270.333 328.742 253.95 333.348 237.567 333.348C203.679 333.348 178.095 311.197 178.095 276.325C178.095 244.963 201.884 219.522 235.547 219.522C268.762 219.522 291.204 243.866 291.204 279.396L291.429 282.466ZM238.693 243.913C220.504 243.913 212.109 256.552 210.476 267.196C210.476 267.639 210.709 268.083 211.409 268.304H266.21C266.676 268.304 267.143 267.861 267.143 267.417C265.977 256.996 258.281 243.913 238.693 243.913Z" fill="#1FC12F"/>
</svg>
