<svg width="646" height="672" viewBox="0 0 646 672" fill="none" xmlns="http://www.w3.org/2000/svg">
<path fill-rule="evenodd" clip-rule="evenodd" d="M641.168 149.443C641.406 150.323 641.527 151.231 641.53 152.143V293.935C641.53 295.755 641.049 297.543 640.137 299.118C639.225 300.693 637.914 301.999 636.336 302.904L517.355 371.422V507.231C517.355 510.927 515.392 514.339 512.188 516.199L263.826 659.206C263.258 659.529 262.638 659.736 262.018 659.956C261.785 660.033 261.565 660.175 261.32 660.24C259.584 660.697 257.759 660.697 256.023 660.24C255.738 660.163 255.48 660.007 255.209 659.904C254.64 659.697 254.046 659.516 253.503 659.206L5.19384 516.199C3.6164 515.293 2.30571 513.987 1.39387 512.412C0.482024 510.838 0.00124987 509.05 0 507.231L0 81.8548C0 80.9244 0.1292 80.0197 0.36176 79.141C0.43928 78.8437 0.62016 78.5724 0.72352 78.2751C0.91732 77.7324 1.0982 77.1767 1.38244 76.6727C1.57624 76.3367 1.86048 76.0653 2.09304 75.7551C2.3902 75.3416 2.66152 74.9151 3.01036 74.5533C3.30752 74.256 3.69512 74.0364 4.03104 73.7779C4.40572 73.4677 4.74164 73.1317 5.168 72.8862H5.18092L129.342 1.38281C130.914 0.477947 132.696 0.00170898 134.51 0.00170898C136.324 0.00170898 138.106 0.477947 139.678 1.38281L263.839 72.8862H263.865C264.279 73.1447 264.627 73.4677 265.002 73.765C265.338 74.0234 265.713 74.2561 266.01 74.5404C266.372 74.9151 266.63 75.3416 266.94 75.7551C267.16 76.0653 267.457 76.3367 267.638 76.6727C267.935 77.1896 268.103 77.7324 268.31 78.2751C268.413 78.5724 268.594 78.8437 268.671 79.1539C268.909 80.0346 269.031 80.9426 269.033 81.8548V347.54L372.496 287.952V152.131C372.496 151.226 372.626 150.308 372.858 149.443C372.949 149.132 373.117 148.861 373.22 148.564C373.427 148.021 373.608 147.465 373.892 146.961C374.086 146.625 374.37 146.354 374.59 146.044C374.9 145.63 375.158 145.204 375.52 144.842C375.817 144.545 376.192 144.325 376.528 144.067C376.915 143.756 377.251 143.42 377.664 143.175H377.677L501.851 71.6714C503.423 70.7653 505.205 70.2883 507.019 70.2883C508.834 70.2883 510.616 70.7653 512.188 71.6714L636.349 143.175C636.788 143.433 637.124 143.756 637.511 144.054C637.834 144.312 638.209 144.545 638.506 144.829C638.868 145.204 639.126 145.63 639.437 146.044C639.669 146.354 639.953 146.625 640.134 146.961C640.431 147.465 640.599 148.021 640.806 148.564C640.922 148.861 641.09 149.132 641.168 149.443V149.443ZM620.832 287.952V170.042L577.382 195.061L517.355 229.63V347.54L620.845 287.952H620.832ZM496.671 501.247V383.26L437.626 416.989L269.02 513.24V632.339L496.671 501.247ZM20.6978 99.7533V501.247L248.322 632.326V513.253L129.407 445.937L129.368 445.911L129.316 445.885C128.916 445.652 128.58 445.316 128.205 445.032C127.882 444.774 127.507 444.567 127.223 444.283L127.197 444.244C126.861 443.921 126.629 443.52 126.345 443.158C126.086 442.809 125.776 442.512 125.569 442.15L125.557 442.111C125.324 441.724 125.182 441.259 125.014 440.819C124.846 440.431 124.626 440.07 124.523 439.656V439.643C124.394 439.152 124.368 438.635 124.316 438.131C124.265 437.743 124.161 437.356 124.161 436.968V436.942V159.342L64.1478 124.759L20.6978 99.7662V99.7533ZM134.523 22.2924L31.0726 81.8548L134.497 141.417L237.935 81.8419L134.497 22.2924H134.523ZM188.322 394.012L248.335 359.455V99.7533L204.885 124.772L144.859 159.342V419.044L188.322 394.012ZM507.019 92.581L403.582 152.143L507.019 211.706L610.444 152.131L507.019 92.581V92.581ZM496.671 229.63L436.644 195.061L393.194 170.042V287.952L453.208 322.508L496.671 347.54V229.63ZM258.658 495.342L410.378 408.705L486.218 365.413L382.858 305.889L263.852 374.42L155.389 436.878L258.658 495.342V495.342Z" fill="#FF2D20"/>
</svg>
