<svg width="29" height="15" viewBox="0 0 29 15" fill="none" xmlns="http://www.w3.org/2000/svg">
<rect width="29" height="15" rx="2" fill="#333333"/>
<path d="M5.39453 10V9.21875H7.07031C7.44271 9.21875 7.72526 9.14323 7.91797 8.99219C8.11068 8.83854 8.20703 8.61849 8.20703 8.33203V8.32422C8.20703 8.13411 8.16276 7.97396 8.07422 7.84375C7.98568 7.71354 7.85286 7.61589 7.67578 7.55078C7.5013 7.48568 7.28516 7.45312 7.02734 7.45312H5.39453V6.73828H6.87109C7.22786 6.73828 7.4987 6.67057 7.68359 6.53516C7.87109 6.39974 7.96484 6.20443 7.96484 5.94922V5.94141C7.96484 5.69141 7.88021 5.49609 7.71094 5.35547C7.54167 5.21484 7.30469 5.14453 7 5.14453H5.39453V4.36328H7.24219C7.60156 4.36328 7.90885 4.42057 8.16406 4.53516C8.41927 4.64714 8.61589 4.80859 8.75391 5.01953C8.89193 5.22786 8.96094 5.47656 8.96094 5.76562V5.77344C8.96094 5.97135 8.91536 6.15625 8.82422 6.32812C8.73568 6.5 8.61589 6.64323 8.46484 6.75781C8.31641 6.8724 8.14714 6.94531 7.95703 6.97656V7.04688C8.20964 7.07031 8.43099 7.14323 8.62109 7.26562C8.8138 7.38542 8.96354 7.54297 9.07031 7.73828C9.17969 7.93359 9.23438 8.15234 9.23438 8.39453V8.40234C9.23438 8.73047 9.15625 9.01432 9 9.25391C8.84635 9.49349 8.625 9.67839 8.33594 9.80859C8.04688 9.9362 7.70182 10 7.30078 10H5.39453ZM4.89062 10V4.36328H5.89844V10H4.89062ZM10.3359 10V4.36328H13.9844V5.21094H11.3438V6.73828H13.8398V7.53906H11.3438V9.15234H13.9844V10H10.3359ZM16.6367 10V5.21094H14.9023V4.36328H19.3789V5.21094H17.6445V10H16.6367ZM19.3945 10L21.3945 4.36328H22.2305V5.41016H21.9297L20.4492 10H19.3945ZM20.4023 8.54297L20.6641 7.76562H23.25L23.5117 8.54297H20.4023ZM23.4766 10L21.9961 5.41016V4.36328H22.5273L24.5312 10H23.4766Z" fill="white"/>
</svg>
