<svg width="25" height="25" viewBox="0 0 25 25" fill="none" xmlns="http://www.w3.org/2000/svg">
<path d="M18.5 15.5C18.5 16.61 17.61 17.5 16.5 17.5C15.39 17.5 14.5 16.61 14.5 15.5C14.5 14.39 15.4 13.5 16.5 13.5C17.6 13.5 18.5 14.4 18.5 15.5ZM9.5 13.5C8.4 13.5 7.5 14.4 7.5 15.5C7.5 16.6 8.4 17.5 9.5 17.5C10.6 17.5 11.5 16.61 11.5 15.5C11.5 14.39 10.61 13.5 9.5 13.5ZM24 15V18C24 18.55 23.55 19 23 19H22V20C22 21.11 21.11 22 20 22H6C5.46957 22 4.96086 21.7893 4.58579 21.4142C4.21071 21.0391 4 20.5304 4 20V19H3C2.45 19 2 18.55 2 18V15C2 14.45 2.45 14 3 14H4C4 10.13 7.13 7 11 7H12V5.73C11.4 5.39 11 4.74 11 4C11 2.9 11.9 2 13 2C14.1 2 15 2.9 15 4C15 4.74 14.6 5.39 14 5.73V7H15C18.87 7 22 10.13 22 14H23C23.55 14 24 14.45 24 15ZM22 16H20V14C20 11.24 17.76 9 15 9H11C8.24 9 6 11.24 6 14V16H4V17H6V20H20V17H22V16Z" fill="black"/>
</svg>
