<svg width="10" height="15" viewBox="0 0 10 15" fill="none" xmlns="http://www.w3.org/2000/svg">
<path d="M8.00719 12.8549V4.05864C8.00719 4.01235 8.02878 3.98148 8.07914 3.98148H9.92806C9.96403 3.98148 10 4.01235 10 4.05864V12.8549C10 13.4238 9.78929 13.9694 9.41421 14.3717C9.03914 14.774 8.53043 15 8 15H2C0.892086 15 0 14.0432 0 12.8549H7.98561H8.00719ZM8.00719 0C9.10072 0 10 0.95679 10 2.13735H2.01439V10.9336C2.01439 10.9877 1.97122 11.0108 1.92806 11.0108H0.0791364C0.035971 11.0108 0.00719372 10.9877 0.00719372 10.9336V2.13735C0.00719372 0.95679 0.899281 0 2.00719 0H8H8.00719Z" fill="white"/>
</svg>
