<svg width="20" height="20" viewBox="0 0 20 20" fill="none" xmlns="http://www.w3.org/2000/svg">
<g clip-path="url(#clip0_4313_15418)">
<path d="M0.589111 11.2078L3.14224 8.69219L7.48911 7.92188L7.05942 10.1969L1.18286 12.0031L0.803174 11.8391L0.589111 11.2078Z" fill="#CA2C31"/>
<path d="M3.58438 9.33748L0.8125 11.8562L2.85156 12.85L5.94688 11.2703V10.525L6.57969 8.81873L3.58438 9.33748ZM10.1437 13.7734L8.80469 14.3547L7.54062 17.0344C7.54062 17.0344 8.65313 19.4984 8.70312 19.4984C8.75312 19.4984 9.38594 19.5484 9.38594 19.5484L11.6359 17.0328L12.2047 12.7359L10.1437 13.7734Z" fill="#A02422"/>
<path d="M8.82815 15.7563C8.82815 15.7563 9.57346 15.6047 10.1047 15.3516C10.636 15.0985 11.2922 14.7203 11.2922 14.7203L11.0516 16.8188L8.70002 19.4953C8.70002 19.4953 8.60784 19.3813 8.21721 18.5313C7.90627 17.8531 7.79846 17.611 7.79846 17.611L8.82815 15.7563Z" fill="#CA2C31"/>
<path d="M4.93434 12.6031C4.93434 12.6031 4.03746 12.5281 3.05465 13.7703C2.15778 14.9047 1.73746 16.7515 1.57496 17.2265C1.41246 17.7015 1.0234 17.7984 1.15309 18.0156C1.28278 18.2328 1.84371 18.2203 2.5359 18.1344C3.22809 18.0484 3.82184 17.8312 3.82184 17.8312C3.82184 17.8312 3.79215 17.9062 3.69215 18.0687C3.65621 18.1265 3.53121 18.2094 3.54059 18.2953C3.56246 18.5 5.31559 18.5047 6.71559 17.064C8.22809 15.5094 7.49371 14.2344 7.49371 14.2344L4.93434 12.6031Z" fill="#F7D74D"/>
<path d="M5.20471 13.3265C5.20471 13.3265 4.23753 13.3781 3.43753 14.6203C2.63753 15.8625 2.26565 17.3015 2.34221 17.3984C2.41721 17.4953 3.90784 16.9562 4.26565 17.064C4.51096 17.139 4.3844 17.3875 4.45003 17.4531C4.50471 17.5078 5.15159 17.6 6.19846 16.4656C7.2469 15.3312 6.99846 13.7375 6.99846 13.7375L5.20471 13.3265Z" fill="#FBF0B4"/>
<path d="M5.67971 11.6312C5.67971 11.6312 5.19377 12.064 5.02033 12.3125C4.84689 12.5609 4.84689 12.5828 4.85783 12.6578C4.86877 12.7328 5.04846 13.5562 5.79689 14.2781C6.71564 15.164 7.53596 15.2828 7.65471 15.2828C7.77346 15.2828 8.56252 14.3969 8.56252 14.3969L5.67971 11.6312Z" fill="#858585"/>
<path d="M7.82812 14.2563C7.82812 14.2563 8.61563 14.7734 9.93594 14.3297C11.7406 13.7234 13.0641 12.3672 14.7031 10.6547C16.2844 9.00156 17.6109 6.95 17.6109 6.95L16.6812 3.83594L7.82812 14.2563Z" fill="#437687"/>
<path d="M10.6234 12.5516L10.8406 11.8766L11.3844 11.9531C11.3844 11.9531 11.7984 12.1485 12.1031 12.2906C12.4078 12.4328 12.8 12.5406 12.8 12.5406L12.0265 13.1938C12.0265 13.1938 11.6047 13.0344 11.2969 12.9C10.95 12.7485 10.6234 12.5516 10.6234 12.5516Z" fill="#3F545F"/>
<path d="M13.175 2.52185C13.175 2.52185 11.6719 3.39373 9.51723 5.43279C7.57504 7.27029 6.13598 8.93279 5.78754 10.3469C5.49692 11.5312 5.65161 12.25 6.31254 13.0265C7.01098 13.8484 7.82973 14.2562 7.82973 14.2562C7.82973 14.2562 8.44535 14.2656 11.0141 12.289C14.2188 9.82185 16.786 5.6906 16.786 5.6906L13.175 2.52185Z" fill="#8DAFBF"/>
<path d="M16.2781 6.53747C16.2781 6.53747 14.9703 5.97966 14.0375 4.6781C13.1109 3.38591 13.1844 2.51247 13.1844 2.51247C13.1844 2.51247 13.9594 1.90466 15.7015 1.20935C16.8734 0.74216 18.4687 0.503098 18.9937 0.89216C19.5187 1.28122 18.6344 3.23279 18.6344 3.23279L17.0234 6.35154L16.2781 6.53747Z" fill="#D83F22"/>
<path d="M10.6515 12.5625C10.6515 12.5625 9.52185 11.9859 8.8031 11.1656C7.44373 9.61716 7.16248 7.91716 7.16248 7.91716L7.84529 7.1156C7.84529 7.1156 8.0156 8.92185 9.47341 10.4828C10.4234 11.5 11.4156 11.9656 11.4156 11.9656C11.4156 11.9656 11.2172 12.1328 11.0047 12.2953C10.8687 12.4 10.6515 12.5625 10.6515 12.5625Z" fill="#6896A5"/>
<path d="M17.611 6.94997C17.611 6.94997 18.2891 6.13279 18.9313 4.2906C19.8282 1.72185 19.0469 0.943726 19.0469 0.943726C19.0469 0.943726 18.7829 2.1656 17.8657 3.86404C17.1298 5.22497 16.2391 6.52029 16.2391 6.52029C16.2391 6.52029 16.7298 6.7406 16.9954 6.81716C17.3298 6.91404 17.611 6.94997 17.611 6.94997Z" fill="#A02422"/>
<path d="M6.2203 10.8844C6.42342 11.0781 6.73124 10.875 6.9328 10.4C7.13592 9.92501 7.1328 9.65939 6.97655 9.54689C6.7828 9.40626 6.4578 9.71407 6.31561 9.98751C6.15936 10.2906 6.06717 10.7375 6.2203 10.8844ZM13.2734 3.14532C13.2734 3.14532 12.0844 4.00001 10.8156 5.16251C9.65155 6.2297 8.87967 7.06407 8.77342 7.25782C8.66092 7.46564 8.65936 7.75939 8.74686 7.90939C8.83436 8.05939 9.02811 8.13751 9.20467 8.00626C9.38124 7.87345 10.639 6.48283 11.775 5.48908C12.814 4.5797 13.6156 4.00314 13.6156 4.00314C13.6156 4.00314 13.9406 3.42814 13.8875 3.29689C13.8344 3.16407 13.2734 3.14532 13.2734 3.14532Z" fill="#B3E1EE"/>
<path d="M13.2734 3.14534C13.2734 3.14534 14.1516 2.4719 15.1078 1.99846C15.9969 1.55784 16.8813 1.19065 17.0406 1.5094C17.1922 1.81252 16.2016 2.22502 15.3297 2.78127C14.4578 3.33752 13.6188 4.00159 13.6188 4.00159C13.6188 4.00159 13.4906 3.76721 13.4078 3.55002C13.3553 3.41782 13.3104 3.2827 13.2734 3.14534Z" fill="#ED6A65"/>
<path d="M13.9985 6.13281C13.1282 5.33124 11.9172 5.54687 11.3204 6.25937C10.7079 6.99374 10.7532 8.11562 11.4766 8.79062C12.1344 9.40312 13.3579 9.54218 14.0954 8.68281C14.7516 7.92031 14.711 6.78749 13.9985 6.13281Z" fill="#E1E1E1"/>
<path d="M11.7704 6.54218C11.2532 7.04999 11.2813 8.05624 11.8969 8.51561C12.4344 8.91718 13.1969 8.89686 13.6751 8.4078C14.1532 7.91874 14.1532 7.02968 13.7047 6.5703C13.1891 6.04374 12.3626 5.96093 11.7704 6.54218Z" fill="#3F545F"/>
<path d="M7.81249 12.0141C7.81249 12.0141 8.77967 11.0328 8.88592 11.1391C8.99217 11.2453 8.97811 11.8406 8.51561 12.5031C8.05155 13.1656 7.03124 14.3453 6.22342 15.1407C5.42655 15.9235 4.30311 16.8188 4.19686 16.8032C4.11405 16.7907 3.77811 16.6235 3.64374 16.461C3.51249 16.3 3.90467 15.5391 4.06249 15.2875C4.22186 15.036 7.81249 12.0141 7.81249 12.0141Z" fill="#A02524"/>
<path d="M3.31723 15.9141C3.30473 16.1391 3.64848 16.4672 3.64848 16.4672L8.88598 11.1406C8.88598 11.1406 8.64067 10.8641 7.91879 11.3125C7.19067 11.7656 6.55316 12.3094 5.61254 13.2203C4.3016 14.4922 3.32973 15.6891 3.31723 15.9141Z" fill="#CA2C31"/>
<path d="M2.97813 5.77342C2.80469 5.94686 2.79688 6.22499 2.99063 6.38436C3.16251 6.52655 3.44219 6.43436 3.54688 6.30624C3.65157 6.17811 3.63907 5.89999 3.50001 5.76249C3.36094 5.62342 3.08438 5.66874 2.97813 5.77342Z" fill="white"/>
<path opacity="0.5" d="M6.40942 5.57032C6.27817 5.71563 6.32036 5.93126 6.44223 6.01094C6.56411 6.09063 6.74692 6.08282 6.83598 5.97344C6.91567 5.87501 6.92504 5.67813 6.80317 5.55626C6.69692 5.45157 6.49379 5.47657 6.40942 5.57032Z" fill="white"/>
<path d="M8.67973 1.85779C8.67973 1.85779 8.87035 1.31404 8.98285 1.30779C9.09691 1.30154 9.26098 1.85154 9.26098 1.85154C9.26098 1.85154 9.82504 1.85779 9.86254 1.9406C9.91098 2.04685 9.5016 2.4031 9.5016 2.4031C9.5016 2.4031 9.63441 2.93435 9.57191 2.99842C9.5016 3.06873 9.01566 2.78904 9.01566 2.78904C9.01566 2.78904 8.51566 3.13748 8.40785 3.04217C8.3141 2.95935 8.50941 2.39685 8.50941 2.39685C8.50941 2.39685 8.04066 2.05467 8.06566 1.95935C8.1016 1.82498 8.67973 1.85779 8.67973 1.85779ZM15.1579 14.8953C15.3469 15 15.5844 14.9406 15.6719 14.739C15.7516 14.5594 15.6047 14.3453 15.4719 14.2875C15.3391 14.2297 15.1063 14.3062 15.0219 14.4578C14.9391 14.6078 15.0438 14.8328 15.1579 14.8953ZM17.8422 10.2875C17.7344 10.1203 17.5016 10.0656 17.35 10.2C17.2032 10.3312 17.2391 10.5375 17.3219 10.6422C17.4047 10.7469 17.6266 10.7859 17.761 10.7C17.8954 10.614 17.9079 10.3875 17.8422 10.2875Z" fill="white"/>
</g>
<defs>
<clipPath id="clip0_4313_15418">
<rect width="20" height="20" fill="white"/>
</clipPath>
</defs>
</svg>
