<svg width="192" height="34" viewBox="0 0 192 34" fill="none" xmlns="http://www.w3.org/2000/svg">
<path fill-rule="evenodd" clip-rule="evenodd" d="M10.4216 29.782V26.8565C10.4216 26.607 10.3029 26.3736 10.1038 26.2239L10.014 26.1057L9.90553 26.011C9.57001 25.8204 9.49764 25.7796 9.46399 25.763L4.20188 22.7689V10.5554L9.23802 7.69363C9.23802 7.69363 9.59087 7.49217 9.60906 7.48114L9.60909 7.48112C9.63914 7.46234 9.63916 7.46233 9.68938 7.4298L14.9312 4.45045L19.9694 7.32016C20.2538 7.48236 20.3563 7.53988 20.4017 7.56205L25.6613 10.5551V14.5414C25.6613 14.8257 25.8154 15.0884 26.0655 15.2307L28.6487 16.7002C29.1882 17.0071 29.863 16.624 29.8629 16.0108L29.8616 9.3764C29.8647 9.01822 29.7698 8.65885 29.5878 8.34297C29.4034 8.02384 29.1372 7.75976 28.812 7.57452L28.48 7.38768L22.3939 3.92461L22.0621 3.7404L16.0749 0.335452C15.8054 0.146673 15.421 0.0208859 15.0311 0.00225823C14.6294 -0.0161563 14.2333 0.0782875 13.883 0.27684L13.5474 0.472536L7.79361 3.74162C7.64495 3.82496 7.5959 3.85245 7.54689 3.88003C7.52276 3.89362 7.49863 3.90722 7.46263 3.92752L7.13462 4.11649L1.12744 7.53306C0.819318 7.67963 0.522865 7.94768 0.318136 8.27388C0.11117 8.59902 0 8.97728 0 9.36467V16.6622L0.00158464 23.948C-0.00198451 24.3051 0.0929443 24.6645 0.275359 24.9812C0.459808 25.3004 0.726711 25.5648 1.05206 25.7496L1.38204 25.9359C5.5367 28.3 7.44874 29.3879 7.47235 29.4011L7.80315 29.5848L9.18598 30.4585C9.7337 30.7839 10.4216 30.4018 10.4216 29.782ZM26.8752 18.6482C26.3358 18.3425 25.6622 18.7256 25.6622 19.3381V20.0819L12.3149 12.4918L11.8663 12.2346C11.4599 12.0038 10.9584 12.0279 10.58 12.2929L10.2249 12.4902L8.25523 13.6058L7.46089 14.0546C6.88332 14.3833 6.70266 15.1028 7.04104 15.6772L7.49272 16.4438L7.94845 17.2186C8.2831 17.7866 9.01565 17.9638 9.59743 17.6289C10.372 17.1889 10.4076 17.1687 10.4412 17.1457C10.4434 17.1442 10.4456 17.1427 10.448 17.141L11.2658 16.6783L12.8834 17.5983L12.8819 31.8859C12.8819 32.5323 13.4142 33.0565 14.071 33.0565C14.3723 33.0565 14.6603 32.9446 14.8803 32.7441L14.9219 32.711C16.3478 31.5776 16.3506 31.5753 16.6505 31.3368C16.9598 31.0915 17.1225 30.7122 17.0887 30.3246L17.0911 19.9924L26.6901 25.4683C27.2884 25.8075 27.9589 25.5789 28.4156 25.0044L29.6334 23.7827C29.7812 23.6336 29.8637 23.4341 29.8637 23.2264V20.8023C29.8637 20.5176 29.7092 20.2545 29.4585 20.1124L26.8752 18.6482Z" fill="black"/>
<path fill-rule="evenodd" clip-rule="evenodd" d="M38.49 23.2956C38.3386 23.2956 38.2061 23.2399 38.0924 23.1288C37.979 23.0174 37.9219 22.8875 37.9219 22.7392V8.26788C37.9219 8.10489 37.979 7.97118 38.0924 7.8674C38.2061 7.76331 38.3386 7.71142 38.49 7.71142H41.6701C41.8367 7.71142 41.9728 7.76331 42.079 7.8674C42.1849 7.97118 42.2378 8.10489 42.2378 8.26788V19.8005H49.0525C49.2188 19.8005 49.3591 19.8559 49.4724 19.9673C49.5861 20.0788 49.643 20.216 49.643 20.3793V22.7392C49.643 22.9025 49.5861 23.0362 49.4724 23.14C49.3591 23.2437 49.2188 23.2956 49.0525 23.2956H38.49ZM50.6627 23.2956C50.5415 23.2956 50.4314 23.2475 50.3333 23.1507C50.2346 23.0543 50.1855 22.9467 50.1855 22.8279C50.1855 22.7391 50.1933 22.6723 50.2083 22.6277L55.5009 8.35696C55.6523 7.92656 55.955 7.71136 56.4094 7.71136H59.953C60.407 7.71136 60.7101 7.92656 60.8614 8.35696L66.1541 22.6277C66.1693 22.6723 66.1768 22.7391 66.1768 22.8279C66.1768 22.9467 66.1274 23.0543 66.029 23.1507C65.9306 23.2475 65.8208 23.2956 65.6997 23.2956H62.7466C62.3834 23.2956 62.1259 23.1323 61.9745 22.8056L61.1567 20.6463H55.2057L54.3878 22.8056C54.2365 23.1323 53.9789 23.2956 53.6154 23.2956H50.6627ZM56.168 17.3062H60.2111L58.1895 11.6289L56.168 17.3062ZM68.497 23.2956C68.3303 23.2956 68.1904 23.2437 68.0767 23.1399C67.9633 23.0361 67.9065 22.9024 67.9065 22.7391V8.29011C67.9065 8.12711 67.9633 7.98959 68.0767 7.87849C68.1904 7.76707 68.3303 7.71136 68.497 7.71136H71.0639C71.4423 7.71136 71.7151 7.87467 71.8814 8.20097L75.7884 15.0581L79.7182 8.20097C79.8845 7.87467 80.1573 7.71136 80.5357 7.71136H83.1026C83.2692 7.71136 83.4092 7.76707 83.5229 7.87849C83.6363 7.98959 83.6931 8.12711 83.6931 8.29011V22.7391C83.6931 22.9024 83.6363 23.0361 83.5229 23.1399C83.4092 23.2437 83.2692 23.2956 83.1026 23.2956H80.2177C80.0664 23.2956 79.9339 23.2399 79.8202 23.1288C79.7068 23.0173 79.65 22.8875 79.65 22.7391V14.635L77.1968 19.0435C76.9999 19.3847 76.7349 19.5553 76.4017 19.5553H75.1752C74.8722 19.5553 74.6071 19.3847 74.3801 19.0435L71.9496 14.635V22.7391C71.9496 22.9024 71.8928 23.0361 71.7794 23.1399C71.6657 23.2437 71.5257 23.2956 71.3591 23.2956H68.497ZM87.347 23.2956C87.1957 23.2956 87.0632 23.2399 86.9498 23.1288C86.8361 23.0173 86.7793 22.8875 86.7793 22.7391V8.29011C86.7793 8.12711 86.8322 7.98959 86.9381 7.87849C87.0443 7.76707 87.1808 7.71136 87.347 7.71136H94.366C96.2891 7.71136 97.7202 8.09719 98.6592 8.86917C99.5979 9.64084 100.068 10.7391 100.068 12.164C100.068 12.8765 99.8743 13.4925 99.4884 14.0117C99.1022 14.5312 98.6742 14.9098 98.2048 15.1472C98.8258 15.4143 99.3481 15.8559 99.7723 16.4719C100.196 17.0879 100.408 17.7819 100.408 18.5535C100.408 20.0523 99.9045 21.2177 98.8976 22.0489C97.8907 22.8798 96.4483 23.2956 94.5703 23.2956H87.347ZM93.8885 13.8767C94.4486 13.8767 94.88 13.7284 95.1829 13.4315C95.4855 13.1347 95.6371 12.7493 95.6371 12.2746C95.6371 11.8145 95.4894 11.4399 95.1943 11.1507C94.8992 10.8612 94.4638 10.7167 93.8885 10.7167H91.0508V13.8767H93.8885ZM94.0931 20.2873C94.6833 20.2873 95.1414 20.1203 95.4667 19.7865C95.792 19.453 95.9549 19.0413 95.9549 18.5516C95.9549 18.0472 95.7884 17.6282 95.4553 17.2941C95.1222 16.9606 94.6684 16.7935 94.0931 16.7935H91.0508V20.2873H94.0931ZM103.414 23.2956C103.262 23.2956 103.13 23.2399 103.016 23.1288C102.903 23.0173 102.846 22.8875 102.846 22.7391V8.29011C102.846 8.12711 102.899 7.98959 103.005 7.87849C103.111 7.76707 103.247 7.71136 103.414 7.71136H109.388C111.629 7.71136 113.37 8.2344 114.612 9.28111C115.854 10.3272 116.505 11.8301 116.565 13.7892C116.581 14.2196 116.588 14.791 116.588 15.5035C116.588 16.2159 116.581 16.7797 116.565 17.1955C116.414 21.262 114.059 23.2956 109.501 23.2956H103.414ZM109.399 19.955C110.352 19.955 111.056 19.7325 111.511 19.2871C111.965 18.8421 112.207 18.1293 112.238 17.1497C112.268 16.7193 112.283 16.1629 112.283 15.48C112.283 14.7972 112.268 14.248 112.238 13.8326C112.207 12.8827 111.946 12.1813 111.454 11.7287C110.962 11.276 110.239 11.0496 109.285 11.0496H107.127V19.955H109.399ZM118.288 23.2956C118.167 23.2956 118.057 23.2475 117.958 23.1507C117.86 23.0543 117.811 22.9467 117.811 22.8279C117.811 22.7391 117.818 22.6723 117.833 22.6277L123.126 8.35696C123.277 7.92656 123.58 7.71136 124.034 7.71136H127.578C128.032 7.71136 128.335 7.92656 128.486 8.35696L133.779 22.6277C133.794 22.6723 133.801 22.7391 133.801 22.8279C133.801 22.9467 133.752 23.0543 133.654 23.1507C133.556 23.2475 133.446 23.2956 133.325 23.2956H130.372C130.008 23.2956 129.751 23.1323 129.6 22.8056L128.782 20.6463H122.83L122.012 22.8056C121.861 23.1323 121.604 23.2956 121.241 23.2956H118.288ZM123.791 17.3062H127.834L125.813 11.6289L123.791 17.3062Z" fill="black"/>
<path fill-rule="evenodd" clip-rule="evenodd" d="M138.527 23.5195C138.36 23.5195 138.22 23.4677 138.106 23.3639C137.993 23.2601 137.936 23.1264 137.936 22.9631V11.5641H133.938C133.772 11.5641 133.632 11.5122 133.518 11.4085C133.404 11.3044 133.348 11.171 133.348 11.0077V8.51408C133.348 8.35108 133.404 8.21356 133.518 8.10246C133.632 7.99104 133.772 7.93533 133.938 7.93533H146.272C146.439 7.93533 146.579 7.99104 146.693 8.10246C146.806 8.21356 146.863 8.35108 146.863 8.51408V11.0077C146.863 11.171 146.806 11.3044 146.693 11.4085C146.579 11.5122 146.439 11.5641 146.272 11.5641H142.274V22.9631C142.274 23.1264 142.218 23.2601 142.104 23.3639C141.991 23.4677 141.851 23.5195 141.684 23.5195H138.527ZM149.435 23.5194C149.284 23.5194 149.151 23.4636 149.038 23.3525C148.924 23.2411 148.867 23.1112 148.867 22.9629V8.51389C148.867 8.3509 148.92 8.21337 149.026 8.10227C149.133 7.99085 149.269 7.93514 149.435 7.93514H160.156C160.323 7.93514 160.463 7.99085 160.577 8.10227C160.69 8.21337 160.747 8.3509 160.747 8.51389V10.7181C160.747 10.8814 160.69 11.0148 160.577 11.1186C160.463 11.2227 160.323 11.2746 160.156 11.2746H152.979V14.1021H159.657C159.823 14.1021 159.963 14.1578 160.077 14.2689C160.191 14.3803 160.247 14.5175 160.247 14.6809V16.7068C160.247 16.8701 160.191 17.0073 160.077 17.1187C159.963 17.2298 159.823 17.2859 159.657 17.2859H152.979V20.1799H160.338C160.504 20.1799 160.645 20.2356 160.758 20.3467C160.872 20.4582 160.929 20.5954 160.929 20.7587V22.9629C160.929 23.1262 160.872 23.2599 160.758 23.3637C160.645 23.4675 160.504 23.5194 160.338 23.5194H149.435ZM169.469 23.7406C168 23.7406 166.751 23.533 165.721 23.1173C164.691 22.7018 163.911 22.1527 163.381 21.4695C162.851 20.7873 162.571 20.0449 162.541 19.2433C162.541 19.1099 162.59 18.9985 162.688 18.9094C162.787 18.8206 162.904 18.776 163.041 18.776H166.062C166.243 18.776 166.391 18.8056 166.505 18.8651C166.618 18.9243 166.743 19.0281 166.879 19.1765C167.076 19.5327 167.383 19.8259 167.799 20.0561C168.216 20.2862 168.772 20.4011 169.469 20.4011C170.287 20.4011 170.915 20.2786 171.354 20.0341C171.793 19.789 172.013 19.4515 172.013 19.0208C172.013 18.7095 171.899 18.4532 171.672 18.253C171.445 18.0524 171.082 17.8741 170.582 17.7185C170.082 17.5628 169.363 17.3883 168.424 17.1954C166.592 16.8392 165.221 16.2974 164.312 15.57C163.404 14.8429 162.95 13.8038 162.95 12.4534C162.95 11.533 163.211 10.713 163.733 9.9932C164.256 9.2731 164.998 8.71314 165.959 8.31234C166.921 7.91155 168.038 7.71131 169.31 7.71131C170.642 7.71131 171.797 7.93765 172.774 8.39002C173.751 8.84302 174.5 9.40681 175.023 10.082C175.545 10.7575 175.821 11.4216 175.852 12.0749C175.852 12.2082 175.806 12.3235 175.715 12.4199C175.624 12.5164 175.511 12.5645 175.375 12.5645H172.195C171.862 12.5645 171.604 12.4311 171.422 12.1637C171.331 11.852 171.097 11.5887 170.718 11.3735C170.34 11.1583 169.87 11.0507 169.31 11.0507C168.674 11.0507 168.182 11.1622 167.833 11.3847C167.485 11.6072 167.311 11.9338 167.311 12.3642C167.311 12.7946 167.538 13.1324 167.992 13.3772C168.447 13.6223 169.295 13.8706 170.536 14.1231C171.96 14.3752 173.092 14.6907 173.932 15.0692C174.773 15.4474 175.393 15.9376 175.795 16.5384C176.196 17.1397 176.397 17.9005 176.397 18.8206C176.397 19.8297 176.101 20.7055 175.511 21.4475C174.92 22.1896 174.103 22.7572 173.058 23.1507C172.013 23.5442 170.816 23.7406 169.469 23.7406V23.7406ZM182.665 23.5194C182.498 23.5194 182.358 23.4675 182.245 23.3637C182.131 23.2599 182.074 23.1262 182.074 22.9629V11.5639H178.077C177.91 11.5639 177.77 11.5121 177.657 11.4083C177.543 11.3042 177.486 11.1708 177.486 11.0075V8.51389C177.486 8.3509 177.543 8.21337 177.657 8.10227C177.77 7.99085 177.91 7.93514 178.077 7.93514H190.41C190.577 7.93514 190.717 7.99085 190.831 8.10227C190.944 8.21337 191.001 8.3509 191.001 8.51389V11.0075C191.001 11.1708 190.944 11.3042 190.831 11.4083C190.717 11.5121 190.577 11.5639 190.41 11.5639H186.413V22.9629C186.413 23.1262 186.356 23.2599 186.242 23.3637C186.129 23.4675 185.989 23.5194 185.823 23.5194H182.665Z" fill="black"/>
</svg>
