<svg width="56" height="56" viewBox="0 0 56 56" fill="none" xmlns="http://www.w3.org/2000/svg">
<path d="M39.3021 48.5601V43.9364C39.3021 41.4838 38.3278 39.1317 36.5936 37.3975C34.8594 35.6632 32.5072 34.689 30.0547 34.689H11.5599C9.10733 34.689 6.75522 35.6632 5.021 37.3975C3.28678 39.1317 2.3125 41.4838 2.3125 43.9364V48.5601" stroke="black" stroke-width="3.5" stroke-linecap="round" stroke-linejoin="round"/>
<path d="M20.807 25.4416C25.9142 25.4416 30.0544 21.3014 30.0544 16.1942C30.0544 11.087 25.9142 6.94678 20.807 6.94678C15.6998 6.94678 11.5596 11.087 11.5596 16.1942C11.5596 21.3014 15.6998 25.4416 20.807 25.4416Z" stroke="black" stroke-width="3.5" stroke-linecap="round" stroke-linejoin="round"/>
<path d="M53.1728 48.5598V43.9361C53.1713 41.8872 52.4894 39.8968 51.2341 38.2774C49.9787 36.6581 48.2212 35.5015 46.2373 34.9893" stroke="black" stroke-width="3.5" stroke-linecap="round" stroke-linejoin="round"/>
<path d="M36.9902 7.24707C38.9794 7.75637 40.7425 8.91322 42.0015 10.5352C43.2605 12.1573 43.9439 14.1522 43.9439 16.2055C43.9439 18.2588 43.2605 20.2537 42.0015 21.8757C40.7425 23.4977 38.9794 24.6546 36.9902 25.1639" stroke="black" stroke-width="3.5" stroke-linecap="round" stroke-linejoin="round"/>
</svg>
