<svg width="56" height="57" viewBox="0 0 56 57" fill="none" xmlns="http://www.w3.org/2000/svg">
<path d="M13.8711 14.4048H17.3389V21.3403H13.8711V14.4048ZM13.8711 24.8081H17.3389V31.7436H13.8711V24.8081ZM24.2744 14.4048H27.7422V21.3403H24.2744V14.4048ZM24.2744 24.8081H27.7422V31.7436H24.2744V24.8081ZM13.8711 35.2114H17.3389V42.147H13.8711V35.2114ZM24.2744 35.2114H27.7422V42.147H24.2744V35.2114Z" fill="black"/>
<path d="M52.0166 24.8081C52.0166 23.8884 51.6512 23.0063 51.0009 22.356C50.3506 21.7057 49.4685 21.3403 48.5488 21.3403H38.1455V7.46924C38.1455 6.54953 37.7801 5.66749 37.1298 5.01715C36.4795 4.36682 35.5974 4.00146 34.6777 4.00146H6.93555C6.01584 4.00146 5.13379 4.36682 4.48346 5.01715C3.83313 5.66749 3.46777 6.54953 3.46777 7.46924V52.5503H52.0166V24.8081ZM6.93555 7.46924H34.6777V49.0825H6.93555V7.46924ZM38.1455 49.0825V24.8081H48.5488V49.0825H38.1455Z" fill="black"/>
</svg>
