<svg width="24" height="27" viewBox="0 0 24 27" fill="none" xmlns="http://www.w3.org/2000/svg">
<g filter="url(#filter0_b_1293_2572)">
<g filter="url(#filter1_b_1293_2572)">
<path d="M13.4003 25.2922C13.2084 25.4121 12.956 25.3581 12.8299 25.1702L4.22674 12.3492C4.09643 12.155 4.15018 11.8918 4.34619 11.7642L6.55138 10.329C6.74546 10.2027 7.00519 10.2576 7.1315 10.4517L10.9617 16.3368C11.4537 17.0927 11.9638 17.5771 12.492 17.79C13.0332 17.9944 13.6036 17.9015 14.2031 17.5112C14.7505 17.155 15.0916 16.7382 15.2262 16.2609C15.3739 15.7751 15.3433 15.2292 15.1343 14.623C14.9384 14.0084 14.5944 13.3231 14.1024 12.5671L11.0611 7.89415C10.9348 7.70007 10.9897 7.44034 11.1838 7.31403L13.3939 5.87558C13.588 5.74926 13.8477 5.8042 13.9741 5.99827L18.4914 12.9391C18.7798 13.3822 19.0531 13.6311 19.3113 13.6857C19.5825 13.7318 19.8224 13.687 20.0309 13.5513C20.1222 13.4919 20.218 13.411 20.3183 13.3086V13.3086C20.4289 13.1957 20.6178 13.2129 20.704 13.3454L21.8935 15.173C21.9738 15.2964 21.9824 15.4534 21.8888 15.5671C21.8539 15.6096 21.8133 15.6557 21.767 15.7055C21.636 15.8464 21.4878 15.9893 21.3223 16.1341C21.1698 16.2705 21.0219 16.3853 20.8785 16.4786C20.2269 16.9027 19.6096 17.1375 19.0268 17.1828C18.4705 17.2057 17.8986 17.0068 17.3112 16.5862C17.2693 16.5561 17.2131 16.5542 17.1699 16.5823V16.5823C17.1302 16.6081 17.109 16.6544 17.1142 16.7015C17.1628 17.1351 17.1463 17.545 17.0647 17.931C16.9697 18.3268 16.8105 18.6809 16.5871 18.9933C16.3852 19.3102 16.1148 19.579 15.7759 19.7995C15.5153 19.9692 15.2464 20.0978 14.9694 20.1853C14.7054 20.2643 14.4398 20.2981 14.1725 20.2865C13.9116 20.2752 13.6532 20.227 13.3973 20.1418C13.3853 20.1378 13.3722 20.1394 13.3617 20.1463V20.1463C13.34 20.1604 13.3366 20.1908 13.3541 20.2098C13.4619 20.3267 13.6057 20.5104 13.7855 20.761C13.9767 21.0262 14.1698 21.3087 14.3649 21.6085C14.5816 21.9128 14.7662 22.1823 14.9189 22.4169L15.5509 23.3576C15.6765 23.5446 15.6319 23.7975 15.4498 23.9302L14.6692 24.4991L13.4003 25.2922Z" fill="white" style="fill:white;fill-opacity:1;"/>
<path d="M7.7858 20.0639V22.2496C7.7858 22.7126 7.27187 22.998 6.86267 22.755L5.82958 22.1022L5.58245 21.965C5.56481 21.9552 4.13636 21.1424 1.0325 19.3762L0.785972 19.2371C0.542912 19.099 0.343514 18.9014 0.205715 18.663C0.0694369 18.4264 -0.00148259 18.1579 0.00118385 17.8911L0 6.99616C0 6.70675 0.0830529 6.42416 0.237674 6.18126C0.390623 5.93756 0.612097 5.7373 0.842291 5.6278L5.33014 3.07535L5.57519 2.93418C5.6567 2.88821 5.6567 2.88821 5.82246 2.79529L10.121 0.353023L10.3717 0.206822C10.6334 0.0584871 10.9294 -0.0120701 11.2294 0.00168708C11.5207 0.0156034 11.808 0.109577 12.0093 0.25061L16.4822 2.79438L16.73 2.932C16.748 2.94222 18.2398 3.79107 21.2769 5.51919L21.5249 5.65878C21.7678 5.79717 21.9667 5.99445 22.1045 6.23287C22.2404 6.46886 22.3113 6.73734 22.3091 7.00493L22.31 11.9614C22.3101 12.4194 21.806 12.7057 21.4029 12.4764L19.473 11.3786C19.2862 11.2723 19.1711 11.076 19.1711 10.8636V8.12935C19.1711 7.97862 19.0902 7.83949 18.9592 7.76494L15.2417 5.64946C15.2078 5.6329 15.1313 5.58992 14.9187 5.46875L11.3621 3.44292C11.2336 3.36971 11.076 3.36964 10.9474 3.44273L7.23875 5.55066C7.20122 5.57497 7.20122 5.57497 7.17874 5.58902C7.16537 5.59712 6.90968 5.74312 6.90174 5.74766C6.90149 5.7478 6.90143 5.74784 6.90118 5.74798L3.35128 7.76521C3.22015 7.83972 3.13915 7.97892 3.13915 8.12974V16.7663C3.13915 16.9171 3.22006 17.0562 3.35107 17.1308L7.07036 19.2471C7.09422 19.2588 7.14412 19.2868 7.36327 19.4113C7.38776 19.4252 7.41092 19.4416 7.43214 19.4602L7.44912 19.475C7.47047 19.4937 7.48988 19.5144 7.50704 19.537L7.51309 19.545C7.53648 19.5757 7.56465 19.6024 7.59316 19.6285C7.71476 19.7399 7.7858 19.8971 7.7858 20.0639Z" fill="white" style="fill:white;fill-opacity:1;"/>
</g>
</g>
<defs>
<filter id="filter0_b_1293_2572" x="-0.349133" y="-0.349133" width="23.0083" height="26.0542" filterUnits="userSpaceOnUse" color-interpolation-filters="sRGB">
<feFlood flood-opacity="0" result="BackgroundImageFix"/>
<feGaussianBlur in="BackgroundImageFix" stdDeviation="0.174567"/>
<feComposite in2="SourceAlpha" operator="in" result="effect1_backgroundBlur_1293_2572"/>
<feBlend mode="normal" in="SourceGraphic" in2="effect1_backgroundBlur_1293_2572" result="shape"/>
</filter>
<filter id="filter1_b_1293_2572" x="-1.91151" y="-1.91151" width="26.133" height="29.179" filterUnits="userSpaceOnUse" color-interpolation-filters="sRGB">
<feFlood flood-opacity="0" result="BackgroundImageFix"/>
<feGaussianBlur in="BackgroundImageFix" stdDeviation="0.955753"/>
<feComposite in2="SourceAlpha" operator="in" result="effect1_backgroundBlur_1293_2572"/>
<feBlend mode="normal" in="SourceGraphic" in2="effect1_backgroundBlur_1293_2572" result="shape"/>
</filter>
</defs>
</svg>
