<svg width="120" height="60" viewBox="0 0 120 60" fill="none" xmlns="http://www.w3.org/2000/svg">
<path d="M45.7044 30.0956L45.1184 31.756H45.0695C44.9718 31.3816 44.7928 30.8118 44.4998 30.1281L41.3579 22.2329H38.2812V34.8164H40.3161V27.0514C40.3161 26.5631 40.3161 26.0096 40.2998 25.3259C40.2835 24.984 40.251 24.7236 40.2347 24.5282H40.2835C40.3812 25.0166 40.4952 25.3747 40.5766 25.6026L44.3532 34.7839H45.7858L49.5299 25.5212C49.6113 25.3096 49.6927 24.8864 49.7741 24.5282H49.8229C49.7741 25.4561 49.7415 26.2863 49.7253 26.791V34.7676H51.8903V22.2004H48.9276L45.7044 30.0956V30.0956ZM53.9415 25.7491H56.0577V34.7676H53.9415V25.7491ZM55.0159 21.9399C54.6577 21.9399 54.3647 22.0701 54.1205 22.298C53.8764 22.5259 53.7461 22.8189 53.7461 23.1771C53.7461 23.5189 53.8764 23.812 54.1205 24.0399C54.3647 24.2678 54.6577 24.3817 55.0159 24.3817C55.374 24.3817 55.6833 24.2515 55.9112 24.0399C56.1554 23.812 56.2856 23.5189 56.2856 23.1771C56.2856 22.8352 56.1554 22.5422 55.9112 22.298C55.6996 22.0701 55.3903 21.9399 55.0159 21.9399M63.5622 25.6677C63.1716 25.5863 62.7646 25.5375 62.3739 25.5375C61.4134 25.5375 60.5344 25.7491 59.8018 26.1724C59.0693 26.5956 58.4833 27.1817 58.1088 27.9142C57.7182 28.663 57.5228 29.5258 57.5228 30.5188C57.5228 31.3816 57.7182 32.1467 58.0926 32.8467C58.467 33.5304 58.9879 34.0839 59.6879 34.4583C60.3553 34.8327 61.1367 35.0281 62.0158 35.0281C63.025 35.0281 63.8878 34.8164 64.5715 34.4257L64.5878 34.4095V32.456L64.5064 32.5211C64.1971 32.749 63.839 32.9444 63.4809 33.0583C63.1064 33.1886 62.7646 33.2537 62.4716 33.2537C61.6251 33.2537 60.9576 33.0095 60.4856 32.4723C59.9972 31.9514 59.753 31.2351 59.753 30.3398C59.753 29.4119 59.9972 28.6793 60.5018 28.1421C61.0065 27.6049 61.6739 27.3282 62.4878 27.3282C63.1716 27.3282 63.8715 27.5561 64.5064 28.0119L64.5878 28.077V26.0096L64.5715 25.9933C64.2948 25.8794 63.9855 25.7491 63.5622 25.6677M70.5459 25.6026C70.0249 25.6026 69.5366 25.7654 69.1133 26.1073C68.7552 26.4003 68.511 26.8235 68.2994 27.3282H68.2831V25.7491H66.1669V34.7676H68.2831V30.1607C68.2831 29.3793 68.4459 28.7282 68.804 28.2561C69.1622 27.7677 69.618 27.5235 70.1714 27.5235C70.3668 27.5235 70.5621 27.5724 70.8063 27.6049C71.0342 27.67 71.197 27.7352 71.311 27.8165L71.3924 27.8817V25.7654L71.3435 25.7491C71.197 25.6515 70.904 25.6026 70.5459 25.6026M76.3086 25.5538C74.8272 25.5538 73.6388 25.9933 72.8086 26.8561C71.9621 27.7189 71.5551 28.9072 71.5551 30.4049C71.5551 31.8049 71.9784 32.9444 72.7923 33.7746C73.6063 34.5885 74.7132 35.0118 76.0969 35.0118C77.5457 35.0118 78.7015 34.5723 79.5318 33.6932C80.3783 32.8141 80.7852 31.6421 80.7852 30.1933C80.7852 28.7607 80.3945 27.6212 79.5969 26.791C78.8318 25.9608 77.7085 25.5538 76.3086 25.5538M78.0016 32.4886C77.6109 32.9932 76.9923 33.2374 76.2272 33.2374C75.4621 33.2374 74.8435 32.9932 74.4039 32.456C73.9644 31.9514 73.7528 31.2188 73.7528 30.2909C73.7528 29.3305 73.9807 28.5979 74.4039 28.077C74.8435 27.5561 75.4458 27.2956 76.2109 27.2956C76.9597 27.2956 77.5457 27.5398 77.969 28.0444C78.3922 28.5491 78.6201 29.2816 78.6201 30.2421C78.5876 31.2188 78.4085 31.9839 78.0016 32.4886M85.5061 29.4933C84.8387 29.2165 84.4154 29.0049 84.2201 28.8258C84.0573 28.663 83.9759 28.4351 83.9759 28.1421C83.9759 27.8979 84.0736 27.6538 84.3177 27.491C84.5619 27.3282 84.8387 27.2468 85.2456 27.2468C85.6038 27.2468 85.9782 27.3119 86.3363 27.4096C86.6944 27.5072 87.02 27.6538 87.2805 27.8491L87.3619 27.9142V25.9282L87.313 25.9119C87.0689 25.8143 86.7433 25.7166 86.3526 25.6352C85.9619 25.5701 85.6038 25.5375 85.3107 25.5375C84.3015 25.5375 83.4712 25.7817 82.8201 26.3189C82.1689 26.8235 81.8596 27.5072 81.8596 28.3049C81.8596 28.7282 81.9247 29.1026 82.0713 29.4119C82.2178 29.7212 82.4294 30.0142 82.7224 30.2584C83.0154 30.4863 83.4387 30.7467 84.0247 30.9909C84.5131 31.2025 84.8875 31.3653 85.1154 31.4956C85.3433 31.6258 85.4898 31.7723 85.6038 31.8863C85.6852 32.0165 85.734 32.1793 85.734 32.3909C85.734 32.9932 85.2782 33.2862 84.3503 33.2862C83.9922 33.2862 83.6177 33.2211 83.1782 33.0746C82.7387 32.9281 82.3317 32.7165 81.9899 32.4723L81.9085 32.4072V34.4746L81.9573 34.4909C82.2666 34.6374 82.641 34.735 83.0968 34.849C83.5526 34.9304 83.9596 34.9955 84.3177 34.9955C85.4084 34.9955 86.3037 34.7513 86.9386 34.2141C87.5898 33.6932 87.9316 33.0258 87.9316 32.163C87.9316 31.5607 87.7688 31.0235 87.4107 30.6165C86.9386 30.2258 86.3526 29.8188 85.5061 29.4933M93.5153 25.5538C92.0339 25.5538 90.8455 25.9933 90.0153 26.8561C89.1851 27.7189 88.7619 28.9072 88.7619 30.4049C88.7619 31.8049 89.1851 32.9444 89.999 33.7746C90.813 34.5885 91.9199 35.0118 93.3036 35.0118C94.7525 35.0118 95.9083 34.5723 96.7385 33.6932C97.585 32.8141 97.9919 31.6421 97.9919 30.1933C97.9919 28.7607 97.6012 27.6212 96.8036 26.791C96.0385 25.9608 94.9152 25.5538 93.5153 25.5538M95.192 32.4886C94.8013 32.9932 94.1827 33.2374 93.4176 33.2374C92.6362 33.2374 92.0339 32.9932 91.5944 32.456C91.1548 31.9514 90.9432 31.2188 90.9432 30.2909C90.9432 29.3305 91.1711 28.5979 91.5944 28.077C92.0339 27.5561 92.6362 27.2956 93.4013 27.2956C94.1339 27.2956 94.7362 27.5398 95.1594 28.0444C95.5827 28.5491 95.8106 29.2816 95.8106 30.2421C95.8106 31.2188 95.599 31.9839 95.192 32.4886M109.306 27.491V25.7491H107.173V23.0794L107.108 23.0957L105.09 23.698L105.041 23.7143V25.7491H101.85V24.6096C101.85 24.0887 101.98 23.6817 102.208 23.4213C102.436 23.1608 102.778 23.0306 103.201 23.0306C103.494 23.0306 103.803 23.0957 104.145 23.2422L104.227 23.291V21.4515L104.178 21.4352C103.885 21.3376 103.494 21.2725 102.99 21.2725C102.355 21.2725 101.801 21.419 101.297 21.6632C100.792 21.9399 100.417 22.3143 100.141 22.8189C99.864 23.3073 99.7175 23.8608 99.7175 24.4957V25.7491H98.2361V27.4747H99.7175V34.7676H101.85V27.491H105.041V32.1304C105.041 34.0351 105.936 34.9955 107.727 34.9955C108.02 34.9955 108.329 34.9467 108.622 34.8978C108.931 34.8327 109.159 34.7513 109.289 34.6862L109.306 34.6699V32.9281L109.224 32.9932C109.094 33.0746 108.98 33.1397 108.785 33.1886C108.622 33.2374 108.475 33.2537 108.362 33.2537C107.938 33.2537 107.645 33.156 107.434 32.9118C107.238 32.6839 107.141 32.3095 107.141 31.756V27.491H109.306V27.491Z" fill="#666666"/>
<path d="M11 18H20.9789V27.9789H11V18Z" fill="#F25022"/>
<path d="M22.0195 18H31.9984V27.9789H22.0195V18Z" fill="#7FBA00"/>
<path d="M11 29.0205H20.9789V38.9994H11V29.0205Z" fill="#00A4EF"/>
<path d="M22.0195 29.0205H31.9984V38.9994H22.0195V29.0205Z" fill="#FFB900"/>
</svg>
