<svg width="11" height="11" viewBox="0 0 11 11" fill="none" xmlns="http://www.w3.org/2000/svg">
<g clip-path="url(#clip0_544_949)">
<path fill-rule="evenodd" clip-rule="evenodd" d="M0.6875 5.49999C0.6875 5.40883 0.723716 5.32139 0.788182 5.25693C0.852648 5.19246 0.940082 5.15624 1.03125 5.15624L9.13894 5.15624L6.97538 2.99337C6.91083 2.92882 6.87457 2.84128 6.87457 2.74999C6.87457 2.65871 6.91083 2.57117 6.97538 2.50662C7.03992 2.44207 7.12747 2.40581 7.21875 2.40581C7.31003 2.40581 7.39758 2.44207 7.46213 2.50662L10.2121 5.25662C10.2441 5.28855 10.2695 5.32648 10.2869 5.36825C10.3042 5.41001 10.3131 5.45478 10.3131 5.49999C10.3131 5.54521 10.3042 5.58998 10.2869 5.63174C10.2695 5.6735 10.2441 5.71144 10.2121 5.74337L7.46213 8.49337C7.39758 8.55791 7.31003 8.59418 7.21875 8.59418C7.12747 8.59418 7.03992 8.55791 6.97538 8.49337C6.91083 8.42882 6.87457 8.34128 6.87457 8.24999C6.87457 8.15871 6.91083 8.07116 6.97538 8.00662L9.13894 5.84374L1.03125 5.84374C0.940082 5.84374 0.852648 5.80753 0.788182 5.74306C0.723716 5.6786 0.6875 5.59116 0.6875 5.49999Z" fill="#0EBAC5"/>
</g>
<defs>
<clipPath id="clip0_544_949">
<rect width="11" height="11" fill="white" transform="translate(0 11) rotate(-90)"/>
</clipPath>
</defs>
</svg>
