<svg width="90" height="28" viewBox="0 0 90 28" fill="none" xmlns="http://www.w3.org/2000/svg">
<path d="M31.1266 2.26593H36.5028L37.5337 3.30298V6.46116L36.6867 7.30961L37.4761 8.10095V11.796L36.3913 12.8866H31.1266V11.2652H32.0091C32.0495 10.2483 32.0327 4.13553 31.9903 3.88668H31.1266V2.26593ZM33.6399 11.3214H35.9119C35.9475 10.4002 35.9341 8.5366 35.8929 8.31284H33.6399V11.3214ZM35.9119 6.56554V4.00831C35.1429 3.97583 33.863 3.98703 33.645 4.02622V6.56554H35.9119ZM53.0965 11.2143H53.8102V12.8756H52.0567C51.6882 12.1396 51.3321 11.3821 50.934 10.6477C50.6007 10.0321 50.318 9.39155 49.9751 8.78186C49.9627 8.76058 49.965 8.73079 49.9594 8.70078H49.4225V11.1993C49.5351 11.224 49.6635 11.206 49.7894 11.2094C49.9182 11.2128 50.047 11.2099 50.1841 11.2099V12.8741H46.9667V11.1577H47.6782V4.00965H47.0008C46.9824 3.99285 46.9746 3.98792 46.9694 3.98053C46.9641 3.97382 46.9609 3.96574 46.96 3.95724V2.27579H52.4603L53.308 3.12536V7.72466L52.3367 8.69854H51.8016C52.239 9.54923 52.6684 10.3827 53.0972 11.2155L53.0965 11.2143ZM49.422 4.00293V6.95124C50.1697 6.98372 51.4156 6.97252 51.6336 6.93332V4.00248H49.422V4.00293ZM56.6142 6.50999H59.5567L60.6677 7.62409V11.7472L59.5383 12.8797H55.9597L54.8764 11.7951V9.93762H56.5981V11.1971H58.8833V8.31441H55.8186L54.8847 7.3777V3.17911L55.7897 2.27198H59.666L60.6666 3.27543V5.22163H58.8921V3.89161H56.6135V6.50932L56.6142 6.50999ZM69.6515 11.7389V3.42595L70.8055 2.26884H74.1028L75.1648 3.40624V11.7284C74.7996 12.1212 74.4421 12.5054 74.0882 12.8866H70.795C70.4142 12.5047 70.034 12.1224 69.6515 11.7389ZM71.3836 11.256H73.4888C73.528 10.2991 73.5116 4.07819 73.4715 3.84054H71.3836V11.256ZM41.4651 2.26795H42.8801C42.937 2.45475 43.0067 2.64872 43.0546 2.84807C43.1077 3.06779 43.1699 3.28752 43.2369 3.50053C43.3032 3.71242 43.314 3.94761 43.447 4.13822C43.4739 4.54408 43.6885 4.90469 43.7259 5.30719C43.8915 5.62458 43.9477 5.98139 44.0431 6.31893C44.1513 6.70239 44.3052 7.07913 44.3392 7.48275C44.5003 7.80193 44.5621 8.15695 44.6542 8.49561C44.7745 8.93932 44.9051 9.38214 45.0211 9.82765C45.1185 10.2021 45.2088 10.5827 45.3427 10.9489C45.366 11.0139 45.3878 11.0793 45.4129 11.1518H46.1695V12.8591C45.9475 12.8994 43.7821 12.9128 42.9554 12.877V11.1619H43.7754C43.6585 10.7818 43.5481 10.4223 43.4327 10.0485H40.9438C40.779 10.3766 40.7165 10.7617 40.5832 11.1518H41.3804V12.8774H38.2265C38.2305 12.8808 38.2227 12.8759 38.2171 12.8685C38.2117 12.8616 38.2084 12.8532 38.2077 12.8445V11.163H38.924C38.9648 11.0658 39.0228 10.974 39.0405 10.8746C39.0858 10.6253 39.1794 10.3905 39.2385 10.1462C39.3138 9.83369 39.4119 9.52796 39.4961 9.21841C39.5714 8.94224 39.6325 8.66114 39.7201 8.38989C39.7732 8.22661 39.8115 8.05795 39.8751 7.89645C39.9347 7.7437 39.9376 7.56876 39.9956 7.41556C40.072 7.21218 40.1222 7.00208 40.1811 6.79512C40.2687 6.48669 40.3664 6.18073 40.4405 5.86827C40.5079 5.58224 40.5971 5.30092 40.6775 5.01758C40.7641 4.70923 40.8516 4.40102 40.94 4.09297C41.0019 3.87683 41.0693 3.66203 41.1295 3.44566C41.1992 3.19479 41.261 2.94214 41.3314 2.69105C41.3688 2.55801 41.4156 2.4272 41.4662 2.26974L41.4651 2.26795ZM42.1967 5.56881C42.0791 5.62749 42.1409 5.74195 42.1035 5.81519C41.968 6.08016 41.929 6.3747 41.8349 6.65199C41.726 6.97072 41.6463 7.29886 41.5522 7.62252C41.5137 7.75557 41.4552 7.87965 41.4346 8.02166C41.41 8.18696 41.3358 8.34532 41.2796 8.51622H43.0411C43.0161 8.4199 42.9984 8.32897 42.9688 8.24184C42.8976 8.03828 42.837 7.8312 42.7871 7.6214C42.7 7.24914 42.564 6.89233 42.4764 6.52119C42.4012 6.20201 42.293 5.89134 42.1971 5.56813L42.1967 5.56881ZM82.0286 11.74L80.8873 12.8844H77.6655L76.5119 11.7279V3.38384L77.6259 2.26705H80.8801L82.0279 3.41519V11.74H82.0286ZM80.347 11.26V3.84121C79.6636 3.80874 78.4065 3.81993 78.1906 3.85801V11.26H80.347ZM64.2331 3.83629H63.1353V5.99774H61.518V2.27735H68.8079V5.99998H67.2078C67.1845 5.65347 67.2011 5.2942 67.198 4.93515C67.1951 4.57297 67.1973 4.21146 67.1973 3.84032H66.0957V11.2585H66.7386V12.8794H63.5842V11.2663H64.2324V3.83629H64.2331ZM86.3708 2.27534V3.99218H85.6081V11.2589H87.7675V8.69989H89.6V12.8727H83.0948V11.2712H83.8602V4.00136H83.0921V2.27511H86.3701L86.3708 2.27534ZM75.8386 15.5516C75.8231 15.5583 75.794 15.5632 75.7929 15.5717C75.7478 15.9881 75.4963 16.2643 75.163 16.4733C75.0637 16.5353 74.9267 16.536 74.8129 16.5696C74.6845 16.6068 74.5808 16.6482 74.4666 16.5584C74.2318 16.5862 74.073 16.4202 73.903 16.3111C73.7244 16.1966 73.627 15.9848 73.5589 15.7908C73.3945 15.32 73.4966 14.7582 73.903 14.3998C74.1337 14.196 74.4249 14.063 74.7481 14.1037C74.9249 14.1261 75.1162 14.1665 75.2555 14.2798C75.4083 14.4039 75.57 14.5347 75.6513 14.7248C75.7089 14.8588 75.8081 14.9809 75.7924 15.1412C75.7924 15.1462 75.822 15.154 75.8374 15.1607V15.552L75.8386 15.5516ZM74.3785 16.3906C74.5915 16.3761 74.8229 16.4296 75.0398 16.3331C75.1184 16.2977 75.2042 16.2632 75.2638 16.2054C75.3603 16.1127 75.4562 16.0098 75.518 15.8929C75.5861 15.7655 75.6235 15.6192 75.6591 15.4772C75.7115 15.268 75.6251 15.0696 75.5516 14.8886C75.4468 14.6292 75.251 14.4301 74.9199 14.3219C74.8395 14.3219 74.6991 14.3353 74.5624 14.3183C74.3879 14.2966 74.2497 14.3781 74.1187 14.461C74.0289 14.5174 73.9543 14.605 73.8779 14.685C73.627 14.9461 73.6427 15.4302 73.6973 15.6739C73.7368 15.8517 73.8382 15.9736 73.9547 16.0999C74.0737 16.2285 74.2175 16.31 74.3779 16.3906H74.3785ZM54.9781 24.9925H51.7628V23.2707H52.5278V16.1135H51.7601V14.3875H57.2537L58.1007 15.2387V19.8371L57.1328 20.8074H56.646C56.6707 20.8622 56.6852 20.8979 56.7025 20.9321C57.0414 21.6202 57.3792 22.3087 57.721 22.9957C57.775 23.1043 57.8458 23.2042 57.9161 23.3205H58.6024V24.9847H56.883C56.7598 24.747 56.6288 24.5033 56.5062 24.2552C56.3494 23.9389 56.2195 23.6074 56.0435 23.3026C55.5885 22.5168 55.2167 21.6899 54.8097 20.8806C54.798 20.8571 54.7711 20.8403 54.7445 20.8134H54.2187V23.32H54.9781V24.993V24.9925ZM56.4834 19.0679V16.0074C55.6582 15.9745 54.4329 15.9857 54.217 16.0264V19.0679H56.4834ZM68.7678 18.6213H71.7102L72.8219 19.7358V23.8193L71.6484 24.9959H68.1188L67.0311 23.9064V22.0489H68.7528V23.3084H71.038V20.4257H67.9739C67.6578 20.1088 67.3561 19.8064 67.0401 19.4888V15.2904L67.9448 14.3833H71.8603L72.8219 15.3473V17.3329H71.0474V16.0031H68.7689V18.6208L68.7678 18.6213ZM32.8644 18.6217H35.8053L36.9177 19.7367V23.8184L35.7408 24.9986H32.2573L31.1266 23.865V22.0498H32.8478V23.3093H35.1335V20.4266H32.0705L31.1266 19.4803V15.2996C31.4288 14.9965 31.7309 14.6937 32.0398 14.3846H35.9554L36.917 15.3489V17.3338H35.1429V16.0045H32.8644V18.6217ZM50.8061 23.8482C50.4493 24.2321 50.04 24.5669 49.739 24.9952H46.4502L45.2912 23.833V15.5563L46.4598 14.3846H49.7255C49.8745 14.5338 50.0474 14.6697 50.1717 14.8406C50.3572 15.0955 50.5982 15.294 50.8061 15.5294V23.8486V23.8482ZM47.0239 15.9476V23.3668C47.7521 23.3993 48.9106 23.3886 49.1241 23.3489V15.9476H47.0239ZM37.9893 24.9889V23.2728H38.752V16.0602H37.9955V14.3284H43.4813L44.3343 15.1838V19.8021L43.3832 20.7556H40.4434V23.2638H41.2117V24.9894H37.9893V24.9889ZM40.4463 16.0596V18.8966C41.2353 18.9295 42.4957 18.9178 42.7132 18.878V16.0596H40.4463ZM64.176 24.9932H60.9609V23.3274H61.6699V15.9543H60.5087V18.1126H58.9727C58.9326 17.8918 58.9187 15.1858 58.9555 14.3864H66.179V18.1142H64.5812V15.9494H63.4717V23.3196H64.176V24.9925V24.9932Z" fill="#FAFAFA"/>
<path d="M74.3431 14.8861H74.9172L75.1096 15.1085V15.2494L74.9239 15.3941L75.0621 15.8206H74.9167C74.8755 15.7039 74.8296 15.5753 74.7846 15.4465H74.503V15.8262H74.3431V14.8861ZM74.5057 15.3193H74.8793C74.8876 15.2852 74.8899 15.2577 74.9017 15.2353C74.9167 15.2057 74.9396 15.18 74.9542 15.1594L74.8637 15.0039H74.5057V15.3193Z" fill="#FAFAFA"/>
<path fill-rule="evenodd" clip-rule="evenodd" d="M26.7998 14.3302V15.451L26.1343 14.5438L25.0699 14.8906L25.7351 13.9834L25.0699 13.0761L26.1343 13.4228L26.7998 12.5157V13.6365L27.8643 13.9834L26.7998 14.3302ZM26.2676 17.666L25.9748 18.7599L25.5754 17.7188L24.4577 17.7724L25.336 17.052L24.937 15.9845L25.8948 16.5982L26.7731 15.8779L26.4802 16.9718L27.412 17.5856L26.2676 17.666ZM24.8837 20.7343L24.3248 21.7214L24.2182 20.6008L23.1271 20.3609L24.1385 19.9072L24.0321 18.7863L24.7773 19.6137L25.7882 19.1602L25.2296 20.1473L25.9748 20.9744L24.8837 20.7343ZM23.7659 23.8564L22.7544 23.3493L21.956 24.1499L22.1422 23.029L21.1313 22.5224L22.2488 22.3354L22.4352 21.2148L22.9407 22.2019L24.0585 22.0153L23.2602 22.8158L23.7659 23.8564ZM20.8914 26.0712L20.0666 25.324L19.0819 25.8842L19.5344 24.8704L18.7092 24.1232L19.8269 24.2298L20.2794 23.2161L20.5191 24.31L21.6366 24.4169L20.6519 24.9773L20.8914 26.0712ZM17.5916 26.3377L17.5381 27.4586L16.9261 26.4979L15.8348 26.7915L16.5269 25.9111L15.9147 24.9773L16.9525 25.3771L17.6714 24.4968L17.618 25.6176L18.6827 26.0179L17.5916 26.3377ZM14.2648 26.8717L13.9187 27.9388L13.5728 26.8717H12.4551L13.36 26.2045L13.014 25.137L13.9189 25.8042L14.8239 25.137L14.4778 26.2045L15.3827 26.8717H14.2648ZM10.9115 26.5248L10.2995 27.4586L10.2458 26.3377L9.15488 26.0443L10.1929 25.6441L10.1398 24.5235L10.8582 25.404L11.896 25.0037L11.284 25.9375L12.0028 26.8184L10.9115 26.5248ZM8.75571 25.8577L7.77101 25.2973L6.94624 26.0443L7.1857 24.9504L6.20099 24.39L7.31875 24.2831L7.55798 23.1892L8.01046 24.2032L9.12822 24.0966L8.30323 24.8435L8.75571 25.8577ZM5.05635 23.3225L4.04499 23.8298L4.55101 22.8158L3.75245 22.0153L4.87021 22.2019L5.37578 21.1879L5.56214 22.3087L6.6799 22.4955L5.66854 23.0024L5.85514 24.1232L5.05635 23.3225ZM3.51299 21.695L2.95389 20.7077L1.86278 20.9478L2.60781 20.1204L2.04915 19.1333L3.06029 19.5869L3.80576 18.7599L3.69891 19.8805L4.71072 20.3341L3.61917 20.5475L3.51299 21.695ZM0.478688 17.5856L1.41008 16.9718L1.11731 15.8779L1.99539 16.5716L2.92723 15.9579L2.52784 17.0251L3.40637 17.7457L2.28861 17.6924L1.88922 18.733L1.59667 17.6391L0.478688 17.5856ZM1.06422 13.6098V12.489L1.7295 13.3964L2.79418 13.0494L2.1289 13.9566L2.79418 14.8637L1.7295 14.517L1.06422 15.4241V14.3037L0 13.9566L1.06422 13.6098ZM1.59667 10.2743L1.88922 9.18031L2.28838 10.2209L3.40637 10.1674L2.52784 10.888L2.92723 11.9286L1.99539 11.3149L1.11731 12.0354L1.41008 10.9415L0.478688 10.3278L1.59667 10.2743ZM2.95366 7.20566L3.51254 6.21834L3.61894 7.33916L4.7105 7.57927L3.69869 8.03284L3.80554 9.15343L3.06006 8.32648L2.04893 8.78005L2.60758 7.79273L1.83613 6.96555L2.95366 7.20566ZM4.07142 4.08377L5.08278 4.59087L5.88134 3.79035L5.69498 4.91072L6.70611 5.41782L5.58858 5.60462L5.40198 6.72544L4.89664 5.71124L3.77888 5.89804L4.57722 5.09752L4.07142 4.08377ZM6.97222 1.86901L7.79721 2.616L8.78214 2.05559L8.32966 3.06979L9.15465 3.81678L8.0369 3.70994L7.58442 4.75057L7.34518 3.65663L6.22742 3.54979L7.2119 2.98938L6.97222 1.86901ZM10.2726 1.60202L10.326 0.481423L10.9381 1.41544L12.0292 1.1218L11.3107 2.00205L11.9228 2.93629L10.8848 2.53603L10.1662 3.41652L10.2196 2.2957L9.18153 1.89544L10.2726 1.60202ZM13.5993 1.06849L13.9453 0.000976562L14.2912 1.06849H15.409L14.504 1.73551L14.8499 2.8028L13.9449 2.13555L13.0399 2.8028L13.3865 1.73551L12.4815 1.06849H13.5993ZM16.9261 1.41521L17.5381 0.481423L17.5916 1.60202L18.6827 1.89544L17.6449 2.2957L17.6978 3.41652L16.9794 2.53626L15.9416 2.93629L16.5534 2.00228L15.8614 1.1218L16.9261 1.41521ZM19.0819 2.08246L20.0666 2.64243L20.8914 1.89544L20.6519 2.98938L21.6366 3.54979L20.5188 3.68351L20.2796 4.77745L19.8271 3.73659L18.7094 3.84343L19.5344 3.09622L19.0819 2.08246ZM22.781 4.6173L23.7926 4.1102L23.2866 5.1244L24.0849 5.92492L22.9674 5.73812L22.4618 6.75187L22.2755 5.60462L21.1577 5.41782L22.1422 4.91072L21.9563 3.79035L22.781 4.6173ZM24.3513 6.27165L24.9101 7.25897L26.0012 7.01886L25.2562 7.84581L25.8151 8.83358L24.8037 8.37979L24.0585 9.20674L24.1651 8.08637L23.1538 7.6057L24.2449 7.36581L24.3513 6.27165ZM27.3851 10.3811L26.4537 10.9948L26.7465 12.0887L25.8684 11.3682L24.937 11.9819L25.336 10.9415L24.4577 10.2209L25.5754 10.2743L25.9748 9.23362L26.2676 10.3276L27.3851 10.3811Z" fill="#FAFAFA"/>
<path fill-rule="evenodd" clip-rule="evenodd" d="M15.1099 16.2309L14.8964 14.8854C15.35 14.8316 15.8304 14.8045 16.2835 14.8045C17.3239 14.8045 17.9377 14.966 18.1242 15.0738C17.8575 15.3157 17.5374 15.4774 17.2171 15.6118C16.5367 15.8867 15.8309 16.094 15.1099 16.2309ZM13.9893 8.91104C14.5497 8.80331 15.1099 8.64182 15.67 8.45344L17.8042 13.8895C17.2973 13.782 16.7906 13.7552 16.2833 13.7552C15.7502 13.7552 15.2431 13.782 14.7365 13.8358L13.9893 8.91104ZM11.3218 8.4801C9.96135 8.4801 8.89429 8.15756 8.60087 7.61888C9.05444 7.96874 9.98801 8.15734 11.1084 8.15734C11.8285 8.15734 12.5224 8.10358 13.2427 7.96874C15.1099 7.61888 16.6571 6.94625 17.2973 6.21942C16.9772 7.02689 15.3233 7.91499 13.2427 8.29195C12.6021 8.42634 11.9622 8.4801 11.3221 8.4801M10.6553 9.23381C11.2421 9.23381 11.8289 9.20693 12.4158 9.12629L13.1628 14.0513C12.7092 14.1588 12.2556 14.2665 11.8287 14.4009C11.2954 14.5626 10.7619 14.7779 10.2817 15.0469L10.6553 9.23381ZM10.3083 16.258C10.5484 16.0429 10.8418 15.8543 11.1621 15.7468C11.8287 15.4505 12.549 15.2352 13.296 15.1006L13.5095 16.4732C13.0827 16.527 12.6292 16.5538 12.149 16.5538C11.1086 16.5538 10.5218 16.3926 10.3083 16.258ZM20.0185 19.5685C20.0985 19.7566 20.2319 19.8911 20.4187 19.9721C20.4985 19.9989 20.6053 20.0258 20.6855 20.0258C20.7919 20.0258 20.899 19.9989 21.0054 19.9721C21.219 19.891 21.4056 19.7566 21.5122 19.5413C21.5922 19.3801 21.6191 19.1915 21.5391 19.0031L17.164 7.78037C17.3508 7.67263 17.5107 7.5649 17.6709 7.43051C18.311 6.89227 18.1773 5.70807 17.4308 5.3582C16.9772 5.14273 16.2302 5.03522 15.2969 5.03522C14.4164 5.03522 13.5359 5.11585 12.6292 5.22381C10.5482 5.60011 8.84098 6.24608 8.1473 6.8925C7.53359 7.48426 7.72039 8.66869 8.49403 8.96435C8.65418 9.04499 8.81433 9.09897 9.00091 9.12607L8.22749 21.0752C8.20083 21.2633 8.2808 21.4522 8.41407 21.5866C8.57422 21.748 8.78767 21.8553 9.02779 21.8553C9.24124 21.8824 9.40139 21.8018 9.56154 21.6941C9.69481 21.5865 9.80143 21.3984 9.80143 21.2096L10.0684 17.3342C10.7086 17.5226 11.402 17.6303 12.0955 17.6034C12.3092 17.6034 12.549 17.6034 12.7627 17.5766L13.643 17.4959L14.3897 22.3129C14.4166 22.5015 14.5232 22.663 14.6834 22.7705C14.8433 22.8514 15.0032 22.9054 15.1634 22.9054C15.2434 22.9054 15.2971 22.8783 15.3502 22.8783C15.5368 22.8514 15.7238 22.7437 15.8571 22.5822C15.9637 22.4207 16.017 22.2323 15.9903 22.0442L15.2434 17.2267C15.7238 17.1461 16.1774 17.0383 16.5774 16.9039C17.2975 16.7151 17.9645 16.3924 18.578 15.9887L20.0185 19.5685Z" fill="#C62232"/>
</svg>
