<svg width="12" height="12" viewBox="0 0 12 12" fill="none" xmlns="http://www.w3.org/2000/svg">
<g opacity="0.5">
<path d="M6 0.75C8.8995 0.75 11.25 3.1005 11.25 6C11.25 8.89949 8.8995 11.25 6 11.25C3.10051 11.25 0.75 8.89949 0.75 6C0.75 3.1005 3.10051 0.75 6 0.75Z" stroke="#616161" stroke-width="0.75"/>
<path d="M6 7.875V5.25" stroke="#616161" stroke-width="0.75" stroke-linecap="round" stroke-linejoin="round"/>
<path d="M6.375 3.75C6.375 3.65054 6.33549 3.55516 6.26517 3.48484C6.19484 3.41451 6.09946 3.375 6 3.375C5.90054 3.375 5.80516 3.41451 5.73484 3.48484C5.66451 3.55516 5.625 3.65054 5.625 3.75C5.625 3.84946 5.66451 3.94484 5.73484 4.01516C5.80516 4.08549 5.90054 4.125 6 4.125C6.09946 4.125 6.19484 4.08549 6.26517 4.01516C6.33549 3.94484 6.375 3.84946 6.375 3.75Z" fill="#616161"/>
</g>
</svg>
