<svg width="107" height="16" viewBox="0 0 107 16" fill="none" xmlns="http://www.w3.org/2000/svg">
<path fill-rule="evenodd" clip-rule="evenodd" d="M8.41014 3.42287C7.90777 3.70649 7.47576 4.09965 7.14622 4.57316C7.00061 4.11305 6.69952 3.7179 6.29454 3.4554C5.82629 3.18249 5.28944 3.04995 4.74797 3.07358C4.27013 3.07358 3.80083 3.19356 3.38272 3.42287C2.9201 3.68563 2.53167 4.06139 2.25373 4.51503V3.33915H0V12.0508H2.32625V6.8124C2.32394 6.56831 2.37243 6.32641 2.46865 6.10207C2.55344 5.89409 2.67663 5.70371 2.83236 5.54213C2.99422 5.37161 3.18861 5.23525 3.40405 5.1411C3.60831 5.06218 3.82536 5.02271 4.04508 5.02485C4.19121 5.02485 4.33626 5.04991 4.47439 5.09737C4.60771 5.1443 4.7261 5.22589 4.81677 5.33415C4.92129 5.46907 4.99702 5.62372 5.03862 5.78904C5.09888 6.03968 5.12608 6.29672 5.11861 6.55376V12.0508H7.4454V6.71001C7.4454 6.49137 7.49233 6.27539 7.58406 6.07701C7.67472 5.8797 7.79738 5.69838 7.94777 5.5416C8.11043 5.37095 8.30615 5.23496 8.52267 5.14164C8.72585 5.06218 8.94238 5.02271 9.15996 5.02431C9.30235 5.02431 9.44368 5.04618 9.5786 5.09044C9.71086 5.13684 9.82765 5.21843 9.91725 5.32668C10.0244 5.46 10.1018 5.61572 10.1428 5.78211C10.2074 6.03381 10.2383 6.29352 10.2335 6.55376V12.0508H12.564V6.22633C12.564 5.11462 12.3395 4.31114 11.8905 3.8159C11.6253 3.55736 11.3077 3.35866 10.9593 3.23319C10.6108 3.10771 10.2395 3.05838 9.87032 3.08851C9.36247 3.08856 8.86245 3.21365 8.41441 3.45274M19.8233 3.33915L17.945 9.06178L15.9019 3.33915H13.2114L16.8155 11.669L16.5499 12.3969C16.4636 12.6996 16.2977 12.9737 16.0694 13.1904C15.8527 13.3493 15.588 13.4289 15.3196 13.416C14.9889 13.416 14.6594 13.3723 14.3399 13.2854L13.9581 15.018C14.2471 15.1145 14.5447 15.1854 14.846 15.2292C15.1301 15.2665 15.4154 15.286 15.702 15.2878C16.1008 15.2982 16.4981 15.2351 16.8741 15.1017C17.1822 14.9863 17.4598 14.8021 17.6858 14.5631C17.9393 14.2789 18.149 13.9587 18.3082 13.6128C18.4868 13.2486 18.6724 12.8011 18.873 12.302L22.3645 3.33915H19.8233ZM25.9866 0.175732C25.6318 0.289692 25.3054 0.478248 25.0294 0.728744C24.7467 0.992197 24.5288 1.31743 24.3926 1.67905C24.2277 2.12246 24.1486 2.59317 24.1596 3.06611V3.35035H22.7975V5.17043H24.159V12.0508H26.4853V5.15923H28.5022V3.33915H26.4853V3.00425C26.4654 2.83206 26.4883 2.65763 26.5518 2.49636C26.6153 2.33509 26.7176 2.19194 26.8495 2.07954C27.0866 1.9082 27.3724 1.81754 27.6649 1.8209C28.0063 1.82357 28.346 1.86783 28.6771 1.95209L28.9945 0.251991C28.6887 0.154074 28.3739 0.0870781 28.0548 0.0520115C27.7648 0.0190222 27.4731 0.00193164 27.1812 0.000816603C26.7764 -0.00335099 26.3733 0.0556638 25.9866 0.175732ZM29.8755 2.23633H32.2673V0.135203H29.8755V2.23633ZM29.908 12.0508H32.2343V3.33915H29.908V12.0508ZM34.5754 1.02045V3.33915H33.2139V5.15923H34.5754V9.22976C34.5754 10.3095 34.806 11.0776 35.2671 11.5341C35.7286 11.9906 36.4349 12.2186 37.3859 12.2183C37.6771 12.2183 37.9672 12.1989 38.2563 12.1601C38.5752 12.1175 38.8882 12.0483 39.1954 11.9527L38.8642 10.2307C38.7092 10.2766 38.5514 10.3081 38.3907 10.3251C38.2269 10.3251 38.0707 10.3507 37.9139 10.3507C37.6498 10.3601 37.3912 10.2736 37.1859 10.107C37.0761 9.98157 36.994 9.83436 36.9451 9.67501C36.8961 9.51566 36.8813 9.34776 36.9017 9.1823V5.17737H38.8968V3.35781H36.9022V1.02045H34.5754ZM43.5567 3.42287C43.0578 3.68 42.6367 4.06592 42.3371 4.54063V3.33915H40.0802V12.0508H42.4064V6.8124C42.4032 6.56709 42.4565 6.32392 42.5632 6.10261C42.6603 5.89463 42.792 5.70531 42.9525 5.5416C43.1321 5.3807 43.3377 5.25141 43.5605 5.15923C43.8058 5.06324 44.0687 5.01791 44.3322 5.02485C44.6751 5.00885 45.01 5.12937 45.2644 5.35975C45.4937 5.58159 45.6286 6.00022 45.6286 6.61189V12.0513H47.9549V6.29192C47.9549 5.18021 47.7122 4.36589 47.2269 3.84897C46.7416 3.33204 46.0135 3.07358 45.0425 3.07358C44.5354 3.08039 44.0368 3.2049 43.5861 3.43727M51.8576 5.98582C51.9392 5.76397 52.0623 5.55973 52.2218 5.38534C52.3871 5.20776 52.5882 5.06751 52.8116 4.97365C53.0707 4.86967 53.348 4.81889 53.6271 4.82433C53.8778 4.80354 54.13 4.83739 54.3664 4.92357C54.6027 5.00975 54.8176 5.14619 54.996 5.32348C55.3139 5.72024 55.4733 6.22099 55.4435 6.72868H51.705C51.7141 6.4791 51.7658 6.23273 51.8576 6.00022V5.98582ZM51.9232 3.39408C51.4038 3.59144 50.935 3.90226 50.551 4.30385C50.1574 4.72256 49.8549 5.21827 49.6625 5.75971C49.4422 6.38901 49.3349 7.05232 49.3457 7.71898C49.3457 9.18941 49.7098 10.3239 50.4379 11.1224C51.166 11.9212 52.2485 12.323 53.6852 12.3276C54.8819 12.3276 55.7933 12.0739 56.4194 11.5666C57.0785 10.9994 57.4975 10.203 57.5916 9.33855H55.3309C55.1638 10.1179 54.6213 10.5075 53.7033 10.5075C53.4253 10.528 53.1463 10.4852 52.8872 10.3824C52.6282 10.2796 52.3957 10.1194 52.2074 9.91396C51.8485 9.44164 51.661 8.86127 51.6757 8.26826H57.6903V7.32915C57.6903 6.02581 57.3552 4.99072 56.685 4.22386C56.0152 3.457 55.0152 3.07358 53.6852 3.07358C53.0852 3.06587 52.4891 3.16948 51.9269 3.37915M61.0357 3.27729C60.6128 3.39099 60.2118 3.57427 59.8491 3.81963C59.5344 4.03828 59.2731 4.32412 59.0843 4.65688C58.899 5.00644 58.8051 5.39718 58.8113 5.79277C58.7834 6.13974 58.8378 6.48839 58.9701 6.81038C59.1023 7.13237 59.3086 7.41864 59.5723 7.64592C60.2735 8.12153 61.0814 8.41664 61.9241 8.50503L63.1219 8.70555C63.4391 8.73006 63.7396 8.8578 63.9773 9.06924C64.1229 9.22816 64.2024 9.43667 64.1997 9.65212C64.208 9.78771 64.1783 9.92291 64.1139 10.0426C64.0496 10.1622 63.9532 10.2615 63.8355 10.3294C63.4625 10.494 63.055 10.5652 62.6484 10.5368C62.237 10.5481 61.8282 10.4685 61.4511 10.3038C61.2719 10.2029 61.1213 10.058 61.0137 9.88275C60.906 9.70752 60.8447 9.50775 60.8357 9.30229H58.6113C58.6246 9.8138 58.7646 10.314 59.0187 10.7581C59.2464 11.1361 59.5595 11.4556 59.9328 11.6908C60.32 11.9308 60.7482 12.0972 61.1962 12.182C61.6852 12.2801 62.1828 12.3287 62.6814 12.3276C63.9773 12.3276 64.9352 12.0769 65.5575 11.5997C65.8572 11.3659 66.0975 11.0646 66.2588 10.7205C66.4202 10.3763 66.498 9.99896 66.486 9.61905C66.493 9.24999 66.4452 8.88193 66.3441 8.5269C66.2511 8.21865 66.079 7.94012 65.845 7.71898C65.5759 7.46157 65.2578 7.26098 64.9095 7.12917C64.4204 6.94919 63.9142 6.81981 63.3987 6.74308L62.3065 6.56123C61.9531 6.52004 61.6114 6.40852 61.3018 6.23326C61.2143 6.15927 61.1456 6.0656 61.1012 5.95993C61.0569 5.85425 61.0383 5.73959 61.0469 5.62532C61.0485 5.52666 61.0735 5.42907 61.1194 5.34162C61.1791 5.23283 61.2655 5.14164 61.3706 5.07551C61.5183 4.98379 61.6809 4.91873 61.8511 4.883C62.1046 4.82718 62.3638 4.8014 62.6233 4.8062C63.0419 4.77625 63.4595 4.87806 63.8173 5.09737C64.0888 5.32295 64.2744 5.63599 64.3416 5.98262L66.4167 5.71598C66.3537 5.35899 66.2449 5.01162 66.0929 4.68248C65.9405 4.35647 65.7134 4.07094 65.43 3.84897C65.0888 3.58547 64.6993 3.39127 64.2835 3.27729C63.721 3.12638 63.1399 3.05635 62.5577 3.06931C62.0441 3.06315 61.532 3.12702 61.0357 3.25916M69.6895 3.27729C69.2666 3.39099 68.8656 3.57427 68.5029 3.81963C68.1831 4.04007 67.919 4.33181 67.7312 4.67182C67.5459 5.02137 67.452 5.41211 67.4582 5.8077C67.4332 6.1532 67.49 6.49972 67.6241 6.81912C67.7582 7.13852 67.9657 7.42179 68.2299 7.64592C68.9311 8.12153 69.739 8.41664 70.5817 8.50503L71.7758 8.70555C72.093 8.73006 72.3935 8.8578 72.6312 9.06924C72.7779 9.22763 72.8584 9.43614 72.8568 9.65212C72.8657 9.78775 72.8363 9.92315 72.772 10.0429C72.7077 10.1627 72.6111 10.2619 72.4931 10.3294C72.1189 10.4945 71.7101 10.5655 71.3022 10.5363C70.8919 10.5481 70.4841 10.4687 70.1082 10.3038C69.9287 10.2032 69.778 10.0584 69.6704 9.88306C69.5627 9.70775 69.5018 9.50782 69.4933 9.30229H67.2651C67.2817 9.8137 67.4219 10.3129 67.6726 10.7581C67.9019 11.1347 68.2146 11.4537 68.5867 11.6903C68.9742 11.9299 69.4024 12.0966 69.85 12.182C70.3401 12.2796 70.8388 12.3287 71.339 12.3276C72.6349 12.3276 73.5922 12.0769 74.2114 11.5997C74.5116 11.3661 74.7525 11.065 74.9145 10.7209C75.0764 10.3767 75.1549 9.99924 75.1436 9.61905C75.1504 9.24996 75.1024 8.88191 75.0012 8.5269C74.9074 8.21912 74.7356 7.94081 74.5025 7.71898C74.2261 7.46564 73.9019 7.26986 73.549 7.14304C73.0584 6.96405 72.5509 6.83487 72.0344 6.75747L70.9422 6.57563C70.5886 6.53467 70.2468 6.42334 69.937 6.24819C69.8491 6.17436 69.7799 6.0808 69.7351 5.97515C69.6902 5.86951 69.6709 5.75476 69.6788 5.64025C69.682 5.54053 69.7082 5.44347 69.7551 5.35601C69.8138 5.24776 69.8991 5.15657 70.0026 5.09044C70.1514 4.99765 70.3156 4.93259 70.4868 4.89739C70.7403 4.84175 70.9995 4.81616 71.259 4.82113C71.6803 4.787 72.1016 4.8862 72.4637 5.10484C72.7341 5.33095 72.9181 5.64345 72.9842 5.98955L75.063 5.72398C75.0007 5.36648 74.8919 5.01867 74.7393 4.68941C74.587 4.36242 74.3586 4.07663 74.0732 3.8559C73.7374 3.59038 73.3525 3.39375 72.9405 3.27729C72.377 3.12608 71.7948 3.05605 71.2116 3.06931C70.698 3.06398 70.186 3.12797 69.6895 3.25916M80.0585 10.34C79.807 10.2639 79.5765 10.1306 79.3849 9.95076C79.1642 9.71774 79.0074 9.43176 78.9295 9.12044C78.823 8.67584 78.7753 8.21918 78.7876 7.76217V7.4966C78.7774 7.07848 78.8302 6.66121 78.9444 6.25886C79.0393 5.95649 79.2084 5.68292 79.4356 5.4616C79.619 5.30695 79.827 5.18323 80.051 5.09737C80.2851 5.01738 80.5315 4.97845 80.779 4.98112C81.0291 4.97952 81.2765 5.02751 81.5074 5.12297C81.7416 5.22483 81.9453 5.38694 82.0973 5.59226C82.2797 5.84557 82.4119 6.13087 82.4866 6.43377C82.5898 6.85415 82.6374 7.28622 82.6284 7.71898C82.6366 8.14124 82.5863 8.56261 82.4791 8.97112C82.3977 9.27582 82.2594 9.56241 82.0717 9.81584C81.9122 10.0223 81.703 10.185 81.4637 10.2889C81.2338 10.3884 80.9858 10.4393 80.7352 10.4382C80.5017 10.4384 80.2691 10.4079 80.0435 10.3475L80.0585 10.34ZM78.7439 4.48997V3.33915H76.487V15.291H78.8132V11.1517C79.1209 11.5681 79.5381 11.8908 80.0185 12.0839C80.4291 12.238 80.8643 12.3185 81.3032 12.3201C81.8484 12.3287 82.3885 12.2142 82.8834 11.9852C83.3447 11.7639 83.7505 11.4417 84.0705 11.0424C84.4099 10.6086 84.6643 10.1147 84.8203 9.58652C84.9968 8.97325 85.0827 8.33812 85.0752 7.70031C85.0752 6.26401 84.7766 5.13435 84.1793 4.31132C83.5788 3.48847 82.6796 3.07678 81.4706 3.07678C80.9335 3.06127 80.4013 3.18289 79.9242 3.43015C79.4471 3.67741 79.0409 4.04216 78.7439 4.48997ZM88.6574 10.267C88.5587 10.1833 88.4805 10.0781 88.4287 9.95953C88.377 9.84093 88.353 9.71206 88.3587 9.58279C88.3561 9.40681 88.3833 9.23243 88.4393 9.06551C88.5038 8.89806 88.6179 8.75461 88.7667 8.65435C88.976 8.5155 89.2093 8.41677 89.4547 8.36318C89.8419 8.27412 90.237 8.22453 90.6343 8.21386L91.6647 8.16267V8.61436C91.6752 8.92377 91.6064 9.23073 91.4647 9.506C91.3375 9.73801 91.1624 9.94033 90.9511 10.0995C90.5227 10.3904 90.0121 10.5358 89.4947 10.5144C89.1975 10.5332 88.9033 10.4454 88.6649 10.267H88.6574ZM87.7001 3.68098C87.369 3.90391 87.0904 4.1962 86.8836 4.53756C86.6768 4.87892 86.5467 5.26119 86.5023 5.65785L88.6318 5.85836C88.763 5.15977 89.291 4.8062 90.2082 4.8062C90.5781 4.79838 90.9416 4.90389 91.2498 5.10857C91.4064 5.24098 91.5281 5.40981 91.6043 5.60023C91.6804 5.79065 91.7087 5.99685 91.6865 6.20073V6.63375L90.5762 6.68122C90.0269 6.70539 89.4808 6.76121 88.9379 6.84867C88.4332 6.92779 87.9426 7.07976 87.4815 7.29982C87.0617 7.49984 86.7005 7.80474 86.433 8.18507C86.1543 8.61807 86.0158 9.1264 86.0362 9.64092C86.0255 10.0453 86.1051 10.4471 86.2693 10.8168C86.4069 11.1394 86.6191 11.4247 86.8879 11.6503C87.1578 11.8669 87.4687 12.0266 87.802 12.1196C88.1577 12.2193 88.5251 12.2695 88.8942 12.2689C89.4673 12.2931 90.0369 12.1678 90.5469 11.9052C90.9823 11.654 91.3734 11.333 91.7047 10.9549V12.0471H93.8891V6.55376C93.8955 6.06194 93.8318 5.57172 93.6998 5.09791C93.5825 4.69071 93.3718 4.31653 93.0843 4.00522C92.7724 3.68698 92.3877 3.44957 91.9633 3.31355C91.4149 3.14079 90.8417 3.05971 90.2669 3.07358C89.3627 3.02769 88.464 3.23844 87.6745 3.68152M95.6367 12.0508H97.963V0.135736H95.6367V12.0508Z" fill="#FAFAFA"/>
<path d="M99.7399 1.31853V0.365021H100.009V0.125045H99.1789V0.365021H99.4519V1.31799L99.7399 1.31853ZM100.413 1.31853V0.525005L100.755 1.31853H100.894L101.233 0.525005V1.31853H101.506V0.124512H101.163L100.825 0.925498L100.49 0.124512H100.125V1.31906L100.413 1.31853Z" fill="#FAFAFA"/>
</svg>
