<svg width="93" height="16" viewBox="0 0 93 16" fill="none" xmlns="http://www.w3.org/2000/svg">
<path d="M91.4885 4.75044C91.4885 4.39913 91.2397 4.16493 90.8298 4.16493L90.0247 4.17957L90.0393 5.96538H90.4785V5.35059H90.742L91.1226 5.96538H91.6349L91.1811 5.2774C91.275 5.2253 91.3531 5.14887 91.4072 5.05613C91.4613 4.9634 91.4894 4.8578 91.4885 4.75044ZM90.742 4.98465H90.4639V4.53087H90.7859C90.8439 4.52452 90.9021 4.54075 90.9484 4.57618C90.9948 4.61162 91.0257 4.66354 91.0347 4.72117V4.7358C91.0336 4.77199 91.0249 4.80753 91.0092 4.84015C90.9935 4.87277 90.9711 4.90173 90.9436 4.92518C90.916 4.94863 90.8838 4.96603 90.8491 4.97627C90.8144 4.98652 90.7779 4.98937 90.742 4.98465ZM25.8071 13.0061C25.0605 13.0061 24.5482 12.4206 24.5482 11.557V7.61944H27.6222V4.83827H24.5555L24.5262 1.64723H21.1302L21.1595 12.2743C21.1595 14.426 22.594 15.8898 24.7019 15.8898C25.8144 15.8898 26.8684 15.7288 27.7027 15.3482V12.6402C27.1102 12.9153 26.4594 13.0409 25.8071 13.0061ZM33.9166 4.66261C30.7548 4.66261 28.3248 7.12176 28.3248 10.386C28.3248 13.6209 30.7548 15.8751 34.1069 15.8751C35.9952 15.8751 37.7665 15.2018 38.8497 13.8112L36.2441 12.6256C35.7171 13.1086 34.912 13.2989 34.1948 13.2989C33.0237 13.2989 31.8526 12.6987 31.6916 11.4692H39.4645C39.5814 11.0298 39.6404 10.5771 39.6401 10.1225C39.6401 6.77045 37.1956 4.66261 33.9239 4.66261H33.9166ZM31.6916 9.31742C31.7941 7.85365 32.848 7.18031 34.0045 7.18031C35.3073 7.18031 36.288 7.9122 36.288 9.17105V9.31742H31.6916ZM17.9025 13.0061C17.1559 13.0061 16.6436 12.4206 16.6436 11.557V7.61944H19.7176V4.83827H16.6509L16.6216 1.64723H13.2256L13.2549 12.2743C13.2549 14.426 14.6894 15.8898 16.7973 15.8898C17.9098 15.8898 18.9637 15.7288 19.7981 15.3482V12.6402C19.206 12.9164 18.5549 13.0421 17.9025 13.0061ZM5.97237 4.66261C3.05938 4.66261 1.40071e-06 6.58016 1.40071e-06 10.4445C1.40071e-06 13.6648 2.16645 15.9191 4.90379 15.9191C6.47007 15.9191 7.65576 15.2896 8.43158 14.1772L8.53405 15.7288H11.8203V10.5763C11.8203 6.65335 8.92928 4.66261 5.97237 4.66261ZM5.97237 12.9476C4.49392 12.9476 3.42533 11.8498 3.42533 10.2982C3.42533 8.74655 4.47928 7.64872 5.97237 7.64872C7.34836 7.64872 8.49014 8.84902 8.49014 10.2982C8.49014 11.7473 7.34836 12.9476 5.97237 12.9476ZM90.6688 3.35985C89.6002 3.37449 88.9122 4.06247 88.9268 5.08711C88.9415 6.11175 89.6441 6.78509 90.7127 6.77045C91.752 6.75582 92.4546 6.06784 92.44 5.02856C92.4254 3.98928 91.7227 3.34522 90.6688 3.35985ZM90.7127 6.4777C89.8783 6.49234 89.3074 5.9361 89.3074 5.08711C89.3074 4.23812 89.849 3.66725 90.6834 3.65261C91.5178 3.63797 92.074 4.19421 92.0887 5.05783C92.0887 5.89219 91.5324 6.46306 90.72 6.4777H90.7127ZM74.0691 4.85291L71.6977 11.7327L69.2971 4.85291H65.6082L70.029 15.7141H73.3372L77.7579 4.85291H74.0691ZM82.8666 4.66261C79.7048 4.66261 77.2749 7.12176 77.2749 10.386C77.2749 13.6209 79.7048 15.8751 83.0569 15.8751C84.9453 15.8751 86.7165 15.2018 87.7997 13.8112L85.1941 12.6256C84.6671 13.1086 83.862 13.2989 83.1448 13.2989C81.9737 13.2989 80.8027 12.6987 80.6416 11.4692H88.4145C88.5314 11.0298 88.5904 10.5771 88.5902 10.1225C88.5902 6.77045 86.1456 4.66261 82.8666 4.66261ZM85.238 9.31742H80.6416C80.7441 7.85365 81.7981 7.18031 82.9545 7.18031C84.2573 7.18031 85.238 7.9122 85.238 9.17105V9.31742ZM62.988 0.0809937C61.7877 0.0809937 60.8801 0.886071 60.8801 2.01318C60.8801 3.14029 61.7877 3.97464 62.988 3.97464C64.1883 3.97464 65.0959 3.15492 65.0959 2.01318C65.0959 0.871433 64.203 0.0809937 62.988 0.0809937ZM47.574 4.64798C46.8877 4.63689 46.2102 4.80362 45.6074 5.13194C45.0046 5.46027 44.497 5.93901 44.1341 6.52161L44.017 4.85291H40.738V15.7141H44.1341V10.02C44.2073 8.65872 45.3051 7.61944 46.5054 7.61944C47.8522 7.61944 48.467 8.62945 48.467 9.90294V15.6995H51.8484V9.37598C51.8484 6.62408 50.1723 4.64798 47.574 4.64798ZM57.9378 13.0061C57.1913 13.0061 56.679 12.4206 56.679 11.557V7.61944H59.753V4.83827H56.679L56.6497 1.64723H53.2536L53.2829 12.2743C53.2829 14.426 54.7175 15.8898 56.8254 15.8898C57.9379 15.8898 58.9918 15.7288 59.8262 15.3482V12.6402C59.2363 12.9152 58.5878 13.0409 57.9378 13.0061ZM61.2754 4.85291V15.7141H64.7007V4.85291C64.1929 5.18941 63.5972 5.36887 62.988 5.36887C62.3788 5.36887 61.7832 5.18941 61.2754 4.85291Z" fill="#FAFAFA"/>
</svg>
